<?xml version="1.0" encoding="UTF-8"?>
<svg width="108px" height="60px" viewBox="0 0 108 60" version="1.1" xmlns="http://www.w3.org/2000/svg" xmlns:xlink="http://www.w3.org/1999/xlink">
    <title>USDD-USDT LP</title>
    <g id="USDD-USDT-LP" stroke="none" stroke-width="1" fill="none" fill-rule="evenodd">
        <circle id="椭圆形" fill="#FFFFFF" cx="78" cy="30" r="30"></circle>
        <g id="编组备份-2" transform="translate(48.000000, 0.000000)" fill="#1BA27A">
            <circle id="椭圆形" stroke="#1BA27A" stroke-width="2" fill-opacity="0.2" cx="30" cy="30" r="29"></circle>
            <g id="形状-2" transform="translate(15.000000, 16.500000)">
                <path d="M18.8420101,9.36447409 C18.8420101,9.36447409 30.3508458,9.77130163 31.4469087,12.6190944 C31.4469087,12.6190944 33.0348442,15.4706343 18.8420101,16.3683314 L18.8420101,28.5 L12.6448363,28.5 L12.6448363,16.3683314 C12.6448363,16.3683314 0.166409271,15.8774618 0.00129566209,12.8646184 C-0.139224311,10.2061432 11.1940407,9.32236387 12.6448363,9.31879521 L12.6448363,9.36090543 C12.8590844,9.33289142 12.8416559,9.31879521 12.6448363,9.31879521 L12.6448363,5.69927913 L3.99921388,5.69927913 L3.99921388,0 L27.4876326,0 L27.4876326,5.69927913 L18.8420101,5.69927913 L18.8420101,9.36447409 Z M1.92222235,13.2552085 C4.82046879,15.4365536 16.0131258,15.3910531 16.0131258,15.3910531 C30.2587737,15.0648773 29.7704219,12.6205219 29.7704219,12.6205219 C29.6088116,10.3408602 18.8413059,9.93403265 18.8413059,9.93403265 L18.8413059,14.3354427 L12.6406112,14.3354427 L12.6406112,9.93760131 C6.44361355,10.0989049 3.04289642,11.3823744 3.04289642,11.3823744 C0.541581049,12.3398466 1.92222235,13.2552085 1.92222235,13.2552085 Z" id="形状"></path>
            </g>
        </g>
        <circle id="椭圆形" fill="#FFFFFF" cx="30" cy="30" r="30"></circle>
        <g id="编组-3备份">
            <circle id="椭圆形" stroke="#216C58" stroke-width="2" fill-opacity="0.2" fill="#216C58" cx="30" cy="30" r="29"></circle>
            <circle id="椭圆形" stroke="#216C58" stroke-width="2" fill="#216C58" cx="30" cy="30" r="20"></circle>
            <g id="编组" transform="translate(12.000000, 12.000000)">
                <path d="M36,16.4774128 C35.3511153,7.27078029 27.5405633,0 18.0007887,0 C8.45321383,0 0.63769057,7.28267504 0,16.5 M0,19.5 C0.674438666,28.7236199 8.47688334,36 18.0028463,36 C27.5027601,36 35.2885688,28.7633607 36,19.5756235" id="形状" stroke="#FFFFFF"></path>
                <g id="编组-2" transform="translate(10.500000, 4.500000)" fill="#FFFFFF">
                    <path d="M6.87370164,24.7957795 L6.875,27.7857143 L5,27.7857143 L4.9984662,24.5473739 C5.57320514,24.6759864 6.19856141,24.7587883 6.87370164,24.7957795 Z M10.0015482,24.628319 L10,27.7857143 L8.125,27.7857143 L8.12630762,24.8127919 C8.79689409,24.7949647 9.42219869,24.7330091 10.0015482,24.628319 Z M10.0010884,17.0510292 L9.99992286,20.1679872 C9.4624153,20.3379925 8.83459611,20.4392245 8.12539702,20.4670592 L8.12482178,16.3868907 C8.99705299,16.674386 9.62109517,16.8971944 10.0010884,17.0510292 Z M6.80203046,15.9617128 L6.875,15.984 L6.87558182,20.4415021 C6.12564064,20.3786313 5.50169948,20.2282059 4.99928926,19.9994808 L4.99808231,15.3489362 C5.52152672,15.5337673 6.12308041,15.7380261 6.80203046,15.9617128 Z M10.0017532,8.55827726 L10.000311,12.5672966 C9.45008781,12.3691206 8.82536466,12.1561617 8.12551652,11.9297141 L8.12664091,8.01124622 C8.88938337,8.08417415 9.5190383,8.26173666 10.0017532,8.55827726 Z M6.87196113,7.97892451 L6.87454929,11.511972 C5.9875372,11.2058158 5.36008935,10.9659558 4.99875909,10.7991776 L4.99914595,8.3047756 C5.49261617,8.11052283 6.11394302,8.00495507 6.87196113,7.97892451 Z M10,2.28571429 L10.0009202,3.95359293 C9.42747022,3.81805235 8.80180528,3.73364679 8.12487056,3.69939759 L8.125,2.28571429 L10,2.28571429 Z M6.875,2.28571429 L6.87486498,3.69344249 C6.2058152,3.72297808 5.58107109,3.80889994 4.99950391,3.95237683 L5,2.28571429 L6.875,2.28571429 Z M15,0 L15,1.89473684 L0,1.89473684 L0,0 L15,0 Z" id="形状结合"></path>
                    <path d="M7.41116751,4.5 C5.45685279,4.5 3.85786802,4.9467655 2.58883249,5.86657682 C1.21827411,6.81266846 0.558375635,8.12668464 0.558375635,9.78234501 C0.558375635,11.4380054 1.24365482,12.6994609 2.63959391,13.5667116 C3.17258883,13.8820755 4.56852792,14.4076819 6.80203046,15.143531 C8.8071066,15.7742588 9.97461929,16.1947439 10.3299492,16.3787062 C11.4467005,16.9568733 12.0304569,17.745283 12.0304569,18.7439353 C12.0304569,19.532345 11.6243655,20.1367925 10.8629442,20.6098383 C10.1015228,21.0566038 9.03553299,21.2931267 7.71573604,21.2931267 C6.21827411,21.2931267 5.12690355,21.0040431 4.41624365,20.4784367 C3.62944162,19.8739892 3.14720812,18.8490566 2.94416244,17.4299191 L0,17.4299191 C0.126903553,19.8214286 0.964467005,21.5559299 2.48730964,22.6597035 C3.73096447,23.5532345 5.4822335,24 7.71573604,24 C10.0253807,24 11.8274112,23.5006739 13.0964467,22.5545822 C14.3654822,21.5822102 15,20.2419137 15,18.559973 C15,16.8254717 14.213198,15.4851752 12.6395939,14.5128032 C11.928934,14.0923181 10.3553299,13.4615903 7.89340102,12.6731806 C6.21827411,12.1212938 5.17766497,11.7270889 4.79695431,11.5168464 C3.93401015,11.0438005 3.52791878,10.3867925 3.52791878,9.59838275 C3.52791878,8.70485175 3.88324873,8.04784367 4.64467005,7.65363881 C5.25380711,7.31199461 6.11675127,7.15431267 7.25888325,7.15431267 C8.5786802,7.15431267 9.59390863,7.39083558 10.2538071,7.91644205 C10.9137056,8.41576819 11.3959391,9.25673854 11.6497462,10.4130728 L14.5939086,10.4130728 C14.4162437,8.36320755 13.680203,6.83894879 12.4111675,5.86657682 C11.2182741,4.9467655 9.54314721,4.5 7.41116751,4.5 Z" id="路径" stroke="#FFFFFF" stroke-width="0.5" fill-rule="nonzero"></path>
                </g>
            </g>
        </g>
    </g>
</svg>