<?xml version="1.0" encoding="UTF-8"?>
<svg width="108px" height="60px" viewBox="0 0 108 60" version="1.1" xmlns="http://www.w3.org/2000/svg" xmlns:xlink="http://www.w3.org/1999/xlink">
    <title>Old 3pool ( USDJ + TUSD + USDT )</title>
    <g id="Old-3pool-(-USDJ-+-TUSD-+-USDT-)" stroke="none" stroke-width="1" fill="none" fill-rule="evenodd">
        <circle id="椭圆形" fill="#FFFFFF" cx="85.5" cy="37.5" r="22.5"></circle>
        <g id="编组备份-2" transform="translate(63.000000, 15.000000)" fill="#1BA27A">
            <circle id="椭圆形" stroke="#1BA27A" fill-opacity="0.2" cx="22.5" cy="22.5" r="22"></circle>
            <g id="形状-2" transform="translate(11.250000, 12.375000)">
                <path d="M14.1315076,7.02335557 C14.1315076,7.02335557 22.7631344,7.32847622 23.5851815,9.46432081 C23.5851815,9.46432081 24.7761332,11.6029757 14.1315076,12.2762485 L14.1315076,21.375 L9.48362726,21.375 L9.48362726,12.2762485 C9.48362726,12.2762485 0.124806953,11.9080964 0.000971746569,9.6484638 C-0.104418233,7.65460738 8.39553052,6.9917729 9.48362726,6.98909641 L9.48362726,7.02067907 C9.64431331,6.99966857 9.63124189,6.98909641 9.48362726,6.98909641 L9.48362726,4.27445935 L2.99941041,4.27445935 L2.99941041,0 L20.6157244,0 L20.6157244,4.27445935 L14.1315076,4.27445935 L14.1315076,7.02335557 Z M1.44166676,9.94140639 C3.61535159,11.5774152 12.0098443,11.5432898 12.0098443,11.5432898 C22.6940803,11.298658 22.3278165,9.46539141 22.3278165,9.46539141 C22.2066087,7.75564514 14.1309794,7.45052448 14.1309794,7.45052448 L14.1309794,10.751582 L9.48045843,10.751582 L9.48045843,7.45320098 C4.83271016,7.57417864 2.28217231,8.53678078 2.28217231,8.53678078 C0.406185787,9.25488492 1.44166676,9.94140639 1.44166676,9.94140639 Z" id="形状"></path>
            </g>
        </g>
        <circle id="椭圆形" fill="#FFFFFF" cx="54.5" cy="22.5" r="22.5"></circle>
        <g id="编组-2备份-3" transform="translate(32.000000, 0.000000)" fill="#0074FF">
            <circle id="椭圆形" stroke="#0074FF" fill-opacity="0.2" cx="22.5" cy="22.5" r="22"></circle>
            <path d="M33.75,12.375 L33.75,20.25 L27,20.25 L27,34.875 L19.125,34.875 L19.125,18.375 C19.125,15.0612915 21.8112915,12.375 25.125,12.375 L33.75,12.375 Z M19.125,12.375 C19.125,16.6421812 15.7310347,20.1166594 11.4952859,20.2462527 L11.25,20.25 L11.25,12.375 L19.125,12.375 Z" id="形状结合"></path>
        </g>
        <circle id="椭圆形备份" fill="#FFFFFF" cx="22.5" cy="37.5" r="22.5"></circle>
        <g id="编组备份" transform="translate(0.000000, 15.000000)" fill="#B31515">
            <circle id="椭圆形" stroke="#B31515" fill-opacity="0.2" cx="22.5" cy="22.5" r="22"></circle>
            <path d="M30,10.5 L30,28.0426845 C30,31.6016678 26.6334073,34.5 22.5,34.5 C18.3665927,34.5 15,31.6016678 15,28.0426845 L15,25.5870397 L18.8092982,25.5870397 L18.8092982,28.0426845 C18.8092982,29.7936194 20.4666685,31.2200567 22.5,31.2200567 C24.5333315,31.2200567 26.1902957,29.7936194 26.1902957,28.0426845 L26.1902957,13.7757006 L21.2141233,13.7757006 C24.4093198,13.172909 27.3809975,12.0414102 30,10.5 Z M18.75,19.5 L18.75,23.25 L15,23.25 L15,19.5 L18.75,19.5 Z" id="形状结合"></path>
        </g>
    </g>
</svg>