<?xml version="1.0" encoding="UTF-8"?>
<svg width="23px" height="24px" viewBox="0 0 23 24" version="1.1" xmlns="http://www.w3.org/2000/svg" xmlns:xlink="http://www.w3.org/1999/xlink">
    <title>arrDown</title>
    <g id="页面-1" stroke="none" stroke-width="1" fill="none" fill-rule="evenodd">
        <g id="二期sunswap" transform="translate(-670.000000, -558.000000)" fill="#9482F8" fill-rule="nonzero">
            <g id="arrDown" transform="translate(670.000000, 558.000000)">
                <path d="M12.545941,1.5 C12.545941,0.67157 11.874341,0 11.045941,0 C10.217541,0 9.545941,0.67157 9.545941,1.5 L12.545941,1.5 Z M9.985241,23.5607 C10.571041,24.1464 11.520841,24.1464 12.106641,23.5607 L21.652541,14.0147 C22.238341,13.4289 22.238341,12.4792 21.652541,11.8934 C21.066741,11.3076 20.117041,11.3076 19.531241,11.8934 L11.045941,20.3787 L2.560661,11.8934 C1.974871,11.3076 1.025131,11.3076 0.439341,11.8934 C-0.146447,12.4792 -0.146447,13.4289 0.439341,14.0147 L9.985241,23.5607 Z M9.545941,1.5 L9.545941,22.5 L12.545941,22.5 L12.545941,1.5 L9.545941,1.5 Z" id="形状"></path>
            </g>
        </g>
    </g>
</svg>