<?xml version="1.0" encoding="UTF-8"?>
<svg width="62px" height="62px" viewBox="0 0 62 62" version="1.1" xmlns="http://www.w3.org/2000/svg" xmlns:xlink="http://www.w3.org/1999/xlink">
    <title>Empower. Engage. Elevate</title>
    <defs>
        <linearGradient x1="72.7428635%" y1="0%" x2="50%" y2="100%" id="linearGradient-1">
            <stop stop-color="#A54BFF" offset="0%"></stop>
            <stop stop-color="#5A5CFF" offset="100%"></stop>
        </linearGradient>
        <linearGradient x1="50%" y1="0%" x2="50%" y2="100%" id="linearGradient-2">
            <stop stop-color="#9C4DFF" offset="0%"></stop>
            <stop stop-color="#5C5BFF" offset="100%"></stop>
        </linearGradient>
    </defs>
    <g id="页面-1" stroke="none" stroke-width="1" fill="none" fill-rule="evenodd">
        <g id="DAO-暗色" transform="translate(-390.000000, -990.000000)" fill="url(#linearGradient-1)" fill-rule="nonzero" stroke="url(#linearGradient-2)" stroke-width="1.2">
            <g id="编组-3" transform="translate(360.000000, 979.000000)">
                <g id="xiangmufuneng" transform="translate(30.000000, 11.000000)">
                    <path d="M37.6439068,55.2430669 C38.3336999,55.7049284 38.5196441,56.6346495 38.0577827,57.3244425 C37.1760472,58.6440466 36.1023693,59.6337497 34.8787364,60.2635608 C33.9070279,60.7554132 32.83335,61.0133359 31.7536739,61.0133359 C31.5917225,61.0133359 31.4297711,61.0073377 31.2678197,60.9953413 C28.796561,60.8153952 26.5412376,59.3338397 25.5275417,57.2104767 C25.1676497,56.4607016 25.4855543,55.5669698 26.2353294,55.2130759 C26.9851045,54.8531839 27.8788363,55.1710885 28.2327302,55.9208636 C28.7725682,57.0485253 30.1041687,57.906268 31.4777567,58.0082374 C32.5694292,58.086214 34.1709487,57.7443166 35.5625312,55.6569428 C36.0243927,54.9671497 36.9541138,54.7812055 37.6439068,55.2430669 Z M39.5393382,45.9818453 C39.8872338,46.7256222 39.563331,47.6253523 38.8135559,47.9732479 L24.1479556,54.8111965 C23.3981805,55.1590921 22.5044487,54.8351893 22.156553,54.0854142 C21.8086574,53.3356392 22.1325602,52.4419073 22.8823353,52.0940117 L37.5479356,45.256063 C38.2977107,44.9081674 39.1914426,45.2320702 39.5393382,45.9818453 Z M30.919924,10.6524441 C35.346596,10.6524441 39.5153454,12.3799259 42.6464061,15.5109866 C45.7774668,18.6420472 47.5049485,22.8047984 47.5049485,27.2374686 C47.5049485,31.6641406 45.7774668,35.83289 42.6464061,38.9639507 C41.9806058,39.6237527 41.2728182,40.2235728 40.5290413,40.7574126 L40.5478971,40.7463056 C40.4353314,40.8515649 40.3044616,40.9409858 40.1571529,41.0093371 L25.4915525,47.8472857 C24.7417775,48.1951813 23.8480456,47.8712785 23.50015,47.1215034 C23.1522543,46.3717283 23.4761572,45.4779965 24.2259322,45.1301008 L38.6967258,38.3838853 C39.347211,37.931339 39.9579828,37.4176443 40.5290413,36.8465859 C43.0962711,34.2793561 44.5058482,30.8663799 44.5058482,27.2374686 C44.5058482,23.6085573 43.0962711,20.1955812 40.5290413,17.6283514 C37.9618115,15.0671197 34.5488353,13.6515444 30.919924,13.6515444 C27.2910127,13.6515444 23.8780366,15.0611215 21.3108068,17.6283514 C18.7435769,20.1955812 17.3339998,23.6085573 17.3339998,27.2374686 C17.3339998,30.8663799 18.7435769,34.2793561 21.3108068,36.8465859 C21.7558762,37.2957763 22.2179334,37.7053284 22.6853072,38.0908041 C23.2431985,38.3076853 23.6381086,38.8506216 23.6381086,39.4857941 C23.6381086,40.3139728 22.9667371,40.9853443 22.1385584,40.9853443 C21.8208047,40.9853443 21.5261343,40.8865126 21.2836102,40.7179121 L21.2688194,40.7334198 C20.5370389,40.2055782 19.8412476,39.6177545 19.193442,38.9639507 C16.0623813,35.83289 14.3348995,31.6701388 14.3348995,27.2374686 C14.3348995,22.8107966 16.0623813,18.6420472 19.193442,15.5109866 C22.3245026,12.3799259 26.493252,10.6524441 30.919924,10.6524441 Z M46.1493552,38.9759471 C46.7371788,38.3941216 47.6908927,38.3941216 48.2727182,38.9759471 L48.2727182,38.9759471 L51.2418275,41.9450563 C51.8236529,42.53288 51.8236529,43.4865939 51.2418275,44.0684193 C50.660002,44.6502448 49.7062881,44.6502448 49.1184645,44.0684193 L49.1184645,44.0684193 L46.1493552,41.0993101 C45.5675297,40.5114864 45.5675297,39.5577725 46.1493552,38.9759471 Z M15.3126062,38.9279615 C15.8944317,39.5097869 15.8944317,40.4635008 15.3126062,41.0513245 L12.343497,44.0204337 C11.7616715,44.6022592 10.8079576,44.6022592 10.220134,44.0204337 C9.63830851,43.4386083 9.63830851,42.4848944 10.220134,41.8970707 L13.1892432,38.9279615 C13.7770669,38.3401378 14.7307808,38.3401378 15.3126062,38.9279615 Z M56.4002799,25.7019293 C57.2280316,25.7019293 57.8998301,26.3737277 57.8998301,27.2014794 C57.8998301,28.0292311 57.2280316,28.7010295 56.4002799,28.7010295 L52.2015395,28.7010295 C51.3737879,28.7010295 50.7019894,28.0292311 50.7019894,27.2014794 C50.7019894,26.3737277 51.3737879,25.7019293 52.2015395,25.7019293 L56.4002799,25.7019293 Z M9.69829051,25.7019293 C10.5260422,25.7019293 11.1978406,26.3737277 11.1978406,27.2014794 C11.1978406,28.0292311 10.5260422,28.7010295 9.69829051,28.7010295 L5.49955013,28.7010295 C4.67779666,28.7010295 4,28.0292311 4,27.2014794 C4,26.3737277 4.67179846,25.7019293 5.49955013,25.7019293 L9.69829051,25.7019293 Z M50.4380686,9.2488652 C51.019894,9.83069065 51.019894,10.7844045 50.4380686,11.3722282 L47.4689593,14.3413375 C46.8871339,14.9231629 45.93342,14.9231629 45.3455963,14.3413375 C44.7637709,13.759512 44.7637709,12.8057981 45.3455963,12.2179745 L48.3147056,9.2488652 C48.896531,8.66703975 49.8502449,8.66703975 50.4380686,9.2488652 Z M10.879936,8.99694078 C11.4677597,8.41511532 12.4214736,8.41511532 13.003299,8.99694078 L13.003299,8.99694078 L15.9724083,11.96605 C16.5542337,12.5538737 16.5542337,13.5075876 15.9724083,14.089413 C15.3845846,14.6712385 14.4308707,14.6712385 13.8490453,14.089413 L13.8490453,14.089413 L10.879936,11.1203038 C10.2981106,10.5324801 10.2981106,9.57876623 10.879936,8.99694078 Z M30.9139258,1.01333586 C31.7356793,1.01333586 32.413476,1.68513432 32.413476,2.51288599 L32.413476,6.71162637 C32.413476,7.53937804 31.7416775,8.2111765 30.9139258,8.2111765 C30.0861741,8.2111765 29.4143757,7.53937804 29.4143757,6.71162637 L29.4143757,2.51288599 C29.4143757,1.69113252 30.0861741,1.01333586 30.9139258,1.01333586 Z" id="形状结合"></path>
                </g>
            </g>
        </g>
    </g>
</svg>