<?xml version="1.0" encoding="UTF-8"?>
<svg width="62px" height="62px" viewBox="0 0 62 62" version="1.1" xmlns="http://www.w3.org/2000/svg" xmlns:xlink="http://www.w3.org/1999/xlink">
    <title>Sustainable Ecosystem Growth</title>
    <defs>
        <linearGradient x1="76.3488557%" y1="0%" x2="50%" y2="100%" id="linearGradient-1">
            <stop stop-color="#A54BFF" offset="0%"></stop>
            <stop stop-color="#5A5CFF" offset="100%"></stop>
        </linearGradient>
    </defs>
    <g id="页面-1" stroke="none" stroke-width="1" fill="none" fill-rule="evenodd">
        <g id="DAO-暗色" transform="translate(-690.000000, -990.000000)" fill="url(#linearGradient-1)" fill-rule="nonzero">
            <g id="编组-3" transform="translate(360.000000, 979.000000)">
                <g id="gukezengchangicon" transform="translate(330.000000, 11.000000)">
                    <path d="M16.6504661,42.2498794 C18.3073203,42.2498794 19.6504661,43.5930252 19.6504661,45.2498794 L19.6504661,45.2498794 L19.6504661,58 C19.6504661,59.6568542 18.3073203,61 16.6504661,61 L16.6504661,61 L7.12825529,61 C5.47140105,61 4.12825529,59.6568542 4.12825529,58 L4.12825529,58 L4.12825529,45.2498794 C4.12825529,43.5930252 5.47140105,42.2498794 7.12825529,42.2498794 L7.12825529,42.2498794 Z M35.8242498,34.4665822 C37.481104,34.4665822 38.8242498,35.8097279 38.8242498,37.4665822 L38.8242498,37.4665822 L38.8242498,58 C38.8242498,59.6568542 37.481104,61 35.8242498,61 L35.8242498,61 L26.3060738,61 C24.6492196,61 23.3060738,59.6568542 23.3060738,58 L23.3060738,58 L23.3060738,37.4665822 C23.3060738,35.8097279 24.6492196,34.4665822 26.3060738,34.4665822 L26.3060738,34.4665822 Z M55.3813478,20.562361 C57.038202,20.562361 58.3813478,21.9055068 58.3813478,23.562361 L58.3813478,23.562361 L58.3813478,58 C58.3813478,59.6568542 57.038202,61 55.3813478,61 L55.3813478,61 L45.855102,61 C44.1982478,61 42.855102,59.6568542 42.855102,58 L42.855102,58 L42.855102,23.562361 C42.855102,21.9055068 44.1982478,20.562361 45.855102,20.562361 L45.855102,20.562361 Z M33.9258968,39.3649352 L28.1963571,39.3649352 L28.1963571,56.1177865 L33.9258968,56.1177865 L33.9258968,39.3649352 Z M14.7480782,47.1401627 L9.01853849,47.1401627 L9.01853849,56.1097168 L14.7480782,56.1097168 L14.7480782,47.1401627 Z M53.4789599,25.4526443 L47.7494201,25.4526443 L47.7494201,56.1097168 L53.4789599,56.1097168 L53.4789599,25.4526443 Z M57.2677189,1.01333289 C58.7575819,0.916502983 59.6484607,1.34709225 59.9403553,2.30510069 C60.23225,3.26310913 59.6762668,4.39402119 58.2724058,5.69783686 L58.2724058,5.69783686 L58.3531035,5.77046483 C34.773223,31.7753125 5.56064019,34.5351753 4.32192983,34.6360474 C2.78911569,34.3014751 2.01522165,33.5267225 2.00024768,32.3117898 C1.98561159,31.0968571 2.61962956,30.2468951 3.9023016,29.7619037 C4.172639,29.7417293 28.9186019,27.3409715 50.3156084,7.01724491 C48.3021997,7.21091952 46.0789769,7.36424524 43.8557541,7.36424524 C40.8013445,7.36424524 37.7550047,7.08583798 35.2291653,6.29903502 C33.8736016,5.3609798 33.3366081,4.30640965 33.6181848,3.13532455 C33.8997616,1.96423946 34.9209415,1.45999822 36.6817247,1.62260084 C43.8033005,3.84582367 57.1345676,1.04157709 57.2677189,1.01333289 Z" id="形状结合"></path>
                </g>
            </g>
        </g>
    </g>
</svg>