<?xml version="1.0" encoding="UTF-8"?>
<svg width="62px" height="62px" viewBox="0 0 62 62" version="1.1" xmlns="http://www.w3.org/2000/svg" xmlns:xlink="http://www.w3.org/1999/xlink">
    <title>Secure and Transparent Governance</title>
    <defs>
        <linearGradient x1="67.3858409%" y1="0%" x2="50%" y2="100%" id="linearGradient-1">
            <stop stop-color="#A54BFF" offset="0%"></stop>
            <stop stop-color="#5A5CFF" offset="100%"></stop>
        </linearGradient>
    </defs>
    <g id="页面-1" stroke="none" stroke-width="1" fill="none" fill-rule="evenodd">
        <g id="DAO-暗色" transform="translate(-990.000000, -990.000000)" fill="url(#linearGradient-1)" fill-rule="nonzero">
            <g id="编组-3" transform="translate(360.000000, 979.000000)">
                <g id="anquan-2" transform="translate(630.000000, 11.000000)">
                    <path d="M32.0383231,1.02091028 L53.0972269,3.85769101 C54.2591785,4.01419939 55.1262273,5.00592441 55.1262273,6.17841093 L55.1262273,37.3285052 C55.1262273,42.5848373 51.2709674,48.1652517 43.6675401,53.9150588 C38.2920646,57.9799567 32.9950327,60.6418876 32.7720556,60.7532246 C32.447128,60.9155309 32.088895,61 31.7256853,61 C31.3843985,61 31.0428844,60.9254975 30.7263054,60.7760376 C30.6851027,60.7565938 30.4733139,60.6561025 30.1214813,60.4805436 L29.8938208,60.366248 C28.1453189,59.483257 23.9203536,57.2343801 19.6472552,54.0950624 C11.918697,48.4169535 8,42.7759064 8,37.3285052 L8,6.17841093 C8,5.00418122 8.86970154,4.01147091 10.0336995,3.85708468 L31.4177466,1.02030395 C31.62372,0.993030509 31.8324034,0.993234401 32.0383231,1.02091028 Z M31.7349635,3.86573226 L11.3038653,6.57608537 L11.3038653,37.8006936 C11.3038653,39.9703749 12.327059,42.3598058 14.3448187,44.9027849 C16.1092402,47.1263057 18.601389,49.4274952 21.7520546,51.7421852 C25.771227,54.6951412 29.8158552,56.8939382 31.7065799,57.8657323 C33.5855119,56.8488822 37.6094014,54.5552562 41.5766049,51.5482168 C44.6709098,49.2027846 47.1180026,46.8956581 48.8499741,44.6908429 C50.8222712,42.1799885 51.8222862,39.8618014 51.8222862,37.8006936 L51.8222862,6.57161231 L31.7349635,3.86573226 Z M28.4547584,15.6643579 C30.3854498,14.7785474 32.6145527,14.7785474 34.5452441,15.6643579 L34.5452441,15.6643579 L45.661097,20.7628112 C46.4831664,21.1362736 47.0070121,21.9497527 47,22.8418813 C47,23.7458248 46.4851039,24.559374 45.661097,24.9393128 L45.661097,24.9393128 L43.4961085,25.9332975 L45.661097,26.9276354 C46.4831606,27.3012911 47.0069712,28.1148539 47,29.0070586 C47.0066884,29.8940268 46.4916213,30.7045828 45.6790102,31.0857756 L45.6790102,31.0857756 L43.4961085,32.0801134 L45.661097,33.0748044 C46.4865369,33.4543901 47,34.2495779 47,35.1715297 C47.0067393,36.0586003 46.491678,36.8692849 45.6790102,37.2505997 L45.6790102,37.2505997 L34.5452441,42.3306917 C32.6160406,43.2231028 30.3839619,43.2231028 28.4547584,42.3306917 L28.4547584,42.3306917 L17.3571769,37.2505997 C16.525641,36.8851469 15.9928051,36.0688471 16,35.1715297 C16,34.2495779 16.5134656,33.4543901 17.3571769,33.0748044 L17.3571769,33.0748044 L19.5221655,32.0801134 L17.3571769,31.0857756 C16.5305573,30.7146919 16,29.9019476 16,29.0067055 C16,28.1114634 16.5305573,27.298719 17.3571769,26.9276354 L17.3571769,26.9276354 L19.5221655,25.9332975 L17.3571769,24.9393128 C16.5294785,24.5597455 16,23.7416371 16,22.8418813 C16,21.9379378 16.5331701,21.1423969 17.3571769,20.7628112 L17.3571769,20.7628112 Z M39.9143035,34 L34.4514408,35.9143807 C33.6690543,36.1814682 32.8419683,36.3259867 32.0001747,36.3259867 C31.1544646,36.3262207 30.3185428,36.1896359 29.5489086,35.9254641 L29.5489086,35.9254641 L24.0860459,34 L21.2359444,35.0011979 C21.0895646,35.0550132 20.9976402,35.1677293 21,35.2904521 C21.0020391,35.4094469 21.0934821,35.5172762 21.2359444,35.568623 L21.2359444,35.568623 L30.1686464,38.6954376 C31.3357374,39.1070436 32.664612,39.0959602 33.8311263,38.6954376 L33.8311263,38.6954376 L42.7782475,35.568623 C42.9186674,35.5171396 43.0055257,35.4080483 42.9997266,35.2904521 C42.9997266,35.2237346 42.985019,35.0792161 42.7782475,35.0011979 L42.7782475,35.0011979 L39.9143035,34 Z M39.9141958,28 L34.4511995,29.9046202 C33.6854106,30.1788745 32.8476965,30.3197642 32,30.3168709 C31.1526525,30.3173843 30.3156247,30.1766101 29.5488064,29.9046202 L29.5488064,29.9046202 L24.1008057,28 L21.2360778,29.0026721 C21.092152,29.0528335 21,29.161529 21,29.2811317 C21,29.4007344 21.092152,29.5094299 21.2360778,29.5595913 L21.2360778,29.5595913 L24.3072829,30.6399275 C24.377421,30.6505792 24.4432884,30.6734497 24.4996298,30.7067143 L24.4996298,30.7067143 L30.1685265,32.7005286 C31.3319775,33.1037419 32.6718675,33.0996032 33.8309026,32.6892162 L33.8309026,32.6892162 L39.5153716,30.7067143 C39.5732124,30.6754847 39.6383854,30.6528213 39.7074301,30.6399275 L39.7074301,30.6399275 L42.7777701,29.5595913 C42.9148991,29.5047102 43,29.39766 43,29.2811317 C43,29.1646035 42.9148991,29.0575532 42.7786352,29.0026721 L42.7786352,29.0026721 L39.9141958,28 Z M33.6638212,18.37711 C32.6153984,17.8742967 31.3966927,17.8742967 30.3482698,18.37711 L30.3482698,18.37711 L22.2144596,22.1630451 C22.0849943,22.2252683 22.0018854,22.3558069 22,22.4998768 C21.9988516,22.6448407 22.0829116,22.7768732 22.2144596,22.8367084 L22.2144596,22.8367084 L30.3487941,26.6360642 C31.4011135,27.1213119 32.6120261,27.1213119 33.6643455,26.6360642 L33.6643455,26.6360642 L41.7984179,22.8367084 C41.9863874,22.7425008 41.9997576,22.5806637 41.9997576,22.4998768 C42.0049611,22.3574995 41.9260216,22.2254375 41.7984179,22.1630451 L41.7984179,22.1630451 Z" id="形状结合"></path>
                </g>
            </g>
        </g>
    </g>
</svg>