<?xml version="1.0" encoding="UTF-8"?>
<svg width="62px" height="62px" viewBox="0 0 62 62" version="1.1" xmlns="http://www.w3.org/2000/svg" xmlns:xlink="http://www.w3.org/1999/xlink">
    <title>Decentralization at the Core</title>
    <defs>
        <linearGradient x1="74.0576715%" y1="0%" x2="50%" y2="100%" id="linearGradient-1">
            <stop stop-color="#A54BFF" offset="0%"></stop>
            <stop stop-color="#5A5CFF" offset="100%"></stop>
        </linearGradient>
        <linearGradient x1="50%" y1="0%" x2="50%" y2="100%" id="linearGradient-2">
            <stop stop-color="#9C4DFF" offset="0%"></stop>
            <stop stop-color="#5C5BFF" offset="100%"></stop>
        </linearGradient>
    </defs>
    <g id="页面-1" stroke="none" stroke-width="1" fill="none" fill-rule="evenodd">
        <g id="DAO-暗色" transform="translate(-1290.000000, -990.000000)" fill="url(#linearGradient-1)" fill-rule="nonzero" stroke="url(#linearGradient-2)" stroke-width="0.8">
            <g id="编组-3" transform="translate(360.000000, 979.000000)">
                <g id="shiliangzhinengduixiang" transform="translate(930.000000, 11.000000)">
                    <path d="M54.2379808,32.4423077 C53.5528846,32.2259615 52.8677885,32.1177885 52.21875,32.1177885 L50.6322115,24.5456731 C50.7764423,24.4735577 50.9206731,24.4014423 51.0649038,24.3653846 C53.0120192,23.4278846 54.6346154,21.6971154 55.3918269,19.4975962 C56.90625,15.0625 54.5625,10.1947115 50.1274038,8.68028846 C45.6923077,7.16586538 40.7884615,9.50961538 39.2740385,13.9447115 C38.5168269,16.1442308 38.6971154,18.4158654 39.6346154,20.3629808 L39.6706731,20.4711538 L39.8870192,20.9038462 L34.1177885,25.6274038 C33.0721154,24.8701923 31.8100962,24.4375 30.4399038,24.4375 C30.1514423,24.4375 29.8629808,24.4735577 29.5745192,24.5096154 C28.1682692,24.6177885 26.8341346,25.2307692 25.7884615,26.2043269 L19.3701923,22.3461538 C19.8028846,21.3004808 20.0552885,20.1466346 20.0552885,18.9567308 C20.0552885,17.7668269 19.8389423,16.6129808 19.3701923,15.6033654 L25.96875,11.6370192 L26.0048077,11.6730769 C27.1586538,12.8269231 28.7091346,13.5120192 30.4038462,13.5120192 C33.8293269,13.5120192 36.6778846,10.6995192 36.6778846,7.27403846 C36.6778846,3.8125 33.8653846,1 30.4038462,1 C26.9783654,1 24.1658654,3.8125 24.1658654,7.27403846 C24.1658654,7.99519231 24.2740385,8.68028846 24.4903846,9.29326923 L17.8557692,13.2596154 C17.7475962,13.1514423 17.6394231,13.0432692 17.53125,12.8990385 C15.9807692,11.3485577 13.8533654,10.4110577 11.5096154,10.4110577 C6.82211538,10.4110577 3,14.2331731 3,18.9206731 C3,23.6081731 6.85817308,27.4663462 11.5096154,27.4663462 C13.8173077,27.4663462 15.9086538,26.5649038 17.4591346,25.0144231 L17.53125,24.9423077 L17.8557692,24.6177885 L24.2379808,28.4759615 C24.2019231,28.5480769 24.2019231,28.6201923 24.1658654,28.65625 C23.1923077,31.46875 24.3822115,34.5336538 26.8341346,36.0480769 C27.8798077,36.7692308 29.0697115,37.09375 30.2956731,37.09375 L30.3677885,37.09375 L32.2427885,44.5576923 C31.1971154,44.9903846 30.2235577,45.6394231 29.3581731,46.46875 C28.5288462,47.2980769 27.8798077,48.2716346 27.4831731,49.3173077 L20.0192308,47.4423077 L20.0192308,47.40625 C20.0192308,45.7836538 19.40625,44.1971154 18.2163462,42.9711538 C15.8004808,40.5552885 11.7980769,40.5552885 9.38221154,42.9711538 C6.93028846,45.4230769 6.96634615,49.3894231 9.38221154,51.8052885 C11.7980769,54.2211538 15.7644231,54.2211538 18.2163462,51.8052885 C18.7211538,51.3004808 19.1177885,50.7235577 19.40625,50.1466346 L26.90625,52.0216346 L26.90625,52.4903846 C26.90625,54.6538462 27.7355769,56.8533654 29.3942308,58.5120192 C32.7115385,61.8293269 38.1201923,61.8293269 41.4375,58.5120192 C44.7548077,55.1947115 44.7548077,49.75 41.4735577,46.4326923 C39.8509615,44.8100962 37.7235577,43.9807692 35.5600962,43.9447115 L34.9831731,43.9447115 L33.1081731,36.4447115 C33.7211538,36.15625 34.2620192,35.7596154 34.7668269,35.2548077 C35.2355769,34.7860577 35.6322115,34.2451923 35.9206731,33.6682692 C36.4615385,32.7307692 36.7139423,31.6850962 36.7139423,30.6033654 C36.7139423,29.5216346 36.4254808,28.5120192 35.9567308,27.6466346 L41.5456731,22.9951923 C42.375,23.7524038 43.3846154,24.3653846 44.5384615,24.7620192 C45.65625,25.1586538 46.8100962,25.3028846 47.9278846,25.1947115 L49.5144231,32.7307692 L49.4783654,32.7668269 C48.0360577,33.4519231 46.8461538,34.7139423 46.2692308,36.3365385 C45.1514423,39.5817308 46.9182692,43.1875 50.1274038,44.2692308 C53.4086538,45.3870192 56.9783654,43.65625 58.0961538,40.375 C59.2139423,37.1298077 57.4831731,33.5600962 54.2379808,32.4423077 L54.2379808,32.4423077 Z M30.4399038,3.77644231 C32.3509615,3.77644231 33.9375,5.32692308 33.9375,7.27403846 C33.9375,9.18509615 32.3509615,10.7355769 30.4399038,10.7355769 C29.5024038,10.7355769 28.6009615,10.375 27.9879808,9.72596154 L27.9158654,9.68990385 L27.4831731,9.14903846 L27.4471154,9.07692308 C27.1225962,8.57211538 26.9423077,7.92307692 26.9423077,7.27403846 C26.9423077,5.32692308 28.5288462,3.77644231 30.4399038,3.77644231 L30.4399038,3.77644231 Z M15.6201923,23.03125 L15.5480769,23.1033654 C14.5024038,24.1129808 13.0961538,24.7259615 11.5456731,24.7259615 C8.37259615,24.7259615 5.8125,22.1298077 5.8125,18.9567308 C5.8125,15.7836538 8.37259615,13.2235577 11.5456731,13.2235577 C13.1682692,13.2235577 14.5745192,13.8725962 15.6201923,14.9182692 C16.6658654,15.9278846 17.3149038,17.40625 17.3149038,18.9927885 C17.2788462,20.5793269 16.6298077,21.9855769 15.6201923,23.03125 L15.6201923,23.03125 Z M17.2067308,48.1995192 L17.1706731,48.2716346 C17.0264423,48.8846154 16.7019231,49.4615385 16.2692308,49.8942308 C14.8990385,51.2644231 12.6634615,51.2644231 11.3293269,49.8942308 C9.95913462,48.5240385 9.95913462,46.3245192 11.3293269,44.9543269 C12.6995192,43.5841346 14.8990385,43.6201923 16.2692308,44.9903846 C16.9543269,45.6754808 17.3149038,46.5408654 17.2788462,47.4423077 L17.3149038,47.5144231 C17.2427885,47.7307692 17.2427885,47.9831731 17.2067308,48.1995192 Z M30.4399038,34.1730769 C28.5288462,34.1730769 26.9423077,32.5865385 26.9423077,30.6754808 C26.9423077,30.0985577 27.0865385,29.59375 27.3028846,29.125 C27.4471154,28.8725962 27.6274038,28.65625 27.84375,28.4399038 C29.0336538,27.25 30.8365385,27.1057692 32.2067308,27.9711538 C32.6394231,28.2956731 32.9639423,28.7283654 33.2163462,29.1971154 C33.6129808,29.9903846 33.6850962,30.9639423 33.3966346,31.8653846 C33.1081731,32.7307692 32.4591346,33.4519231 31.6298077,33.8846154 C31.3413462,34.0288462 31.0528846,34.1009615 30.7644231,34.1730769 L30.4399038,34.1730769 L30.4399038,34.1730769 Z M35.4158654,46.7572115 L35.5240385,46.7572115 C36.9663462,46.7932692 38.4086538,47.3341346 39.5264423,48.4519231 C41.7620192,50.6875 41.7620192,54.3293269 39.4903846,56.6009615 C37.2548077,58.8365385 33.6129808,58.8365385 31.3774038,56.6009615 C30.2235577,55.4471154 29.6826923,53.96875 29.6826923,52.5264423 C29.6826923,51.0480769 30.2596154,49.5697115 31.3774038,48.4519231 C32.4591346,47.3341346 33.9375,46.7572115 35.4158654,46.7572115 Z M45.4399038,22.1298077 C43.9254808,21.625 42.7716346,20.5432692 42.1225962,19.2091346 L42.0865385,19.1370192 C41.4735577,17.8389423 41.3653846,16.2884615 41.8701923,14.8100962 C42.9158654,11.8173077 46.1971154,10.2307692 49.1899038,11.2764423 C52.1826923,12.3221154 53.7692308,15.5673077 52.7596154,18.5961538 C52.21875,20.1105769 51.1370192,21.2644231 49.8389423,21.9134615 C48.5048077,22.4903846 46.9182692,22.6346154 45.4399038,22.1298077 L45.4399038,22.1298077 Z M55.5,39.4735577 C54.8870192,41.3125 52.9038462,42.2860577 51.0649038,41.6370192 C49.2620192,41.0240385 48.2884615,39.0048077 48.9375,37.2019231 C49.2620192,36.3004808 49.875,35.5793269 50.7043269,35.21875 L50.7764423,35.1826923 L51.4254808,34.9663462 L51.4975962,34.9663462 C52.1105769,34.8221154 52.7596154,34.8581731 53.3725962,35.0745192 C55.1754808,35.6875 56.1129808,37.6706731 55.5,39.4735577 Z" id="形状"></path>
                </g>
            </g>
        </g>
    </g>
</svg>