<?xml version="1.0" encoding="UTF-8"?>
<svg width="283px" height="64px" viewBox="0 0 283 64" version="1.1" xmlns="http://www.w3.org/2000/svg" xmlns:xlink="http://www.w3.org/1999/xlink">
    <title>曲线3</title>
    <defs>
        <linearGradient x1="50%" y1="2.6887907%" x2="50%" y2="91.698639%" id="linearGradient-1">
            <stop stop-color="#8C51FF" stop-opacity="0.6" offset="0%"></stop>
            <stop stop-color="#8C51FF" stop-opacity="0.1" offset="100%"></stop>
        </linearGradient>
    </defs>
    <g id="页面-1" stroke="none" stroke-width="1" fill="none" fill-rule="evenodd">
        <g id="首页" transform="translate(-971.000000, -841.000000)">
            <g id="数据区" transform="translate(360.000000, 745.000000)">
                <g id="sunswap池" transform="translate(610.000000, 0.000000)">
                    <g id="编组-17" transform="translate(0.000000, 96.000000)">
                        <path d="M0,27.7943284 L32.1724352,15.7429777 L73.5294663,27.7943284 L91.8799508,19.3633328 L119.65496,38.7797857 L172.099125,5.36242782 L198.690847,23.3282681 L225.214969,5.36242782 L257.267691,9.70414388 L285,2 L285,54 C285,59.5228475 280.522847,64 275,64 L10,64 C4.4771525,64 6.76353751e-16,59.5228475 0,54 L0,27.7943284 L0,27.7943284 Z" id="路径-3" fill="url(#linearGradient-1)"></path>
                        <polyline id="路径" stroke="#8C51FF" stroke-width="4" stroke-linecap="round" stroke-linejoin="round" points="0 27.7943284 0 27.7943284 32.1724352 15.7429777 73.5294663 27.7943284 91.8799508 19.3633328 119.65496 38.7797857 172.099125 5.36242782 198.690847 23.3282681 225.214969 5.36242782 257.267691 9.70414388 285 2"></polyline>
                    </g>
                </g>
            </g>
        </g>
    </g>
</svg>