<?xml version="1.0" encoding="UTF-8"?>
<svg width="60px" height="60px" viewBox="0 0 60 60" version="1.1" xmlns="http://www.w3.org/2000/svg" xmlns:xlink="http://www.w3.org/1999/xlink">
    <title>BTC</title>
    <g id="BTC" stroke="none" stroke-width="1" fill="none" fill-rule="evenodd">
        <circle id="椭圆形" fill="#FFFFFF" cx="30" cy="30" r="30"></circle>
        <g id="编组备份" fill="#F7931A">
            <circle id="椭圆形" stroke="#F7931A" stroke-width="2" fill-opacity="0.2" cx="30" cy="30" r="29"></circle>
            <path d="M42.9242358,25.2763502 C43.5275216,21.2834361 40.4565717,19.1370945 36.2572758,17.7052712 L37.6195579,12.2965196 L34.2934856,11.476114 L32.9673532,16.7424606 C32.0929444,16.5265799 31.1949789,16.323165 30.3024952,16.1215101 L31.6382577,10.8204055 L28.3142595,10 L26.9512366,15.4069917 C26.2276492,15.2439079 25.5169513,15.0827306 24.8274394,14.9129005 L24.8312915,14.8958882 L20.2445711,13.7620742 L19.3597914,17.2786427 C19.3597914,17.2786427 21.8274556,17.8385834 21.7754533,17.8730481 C23.1223274,18.2058154 23.3658936,19.088404 23.3254474,19.7879632 L21.7736754,25.9498043 C21.8664202,25.973123 21.9867218,26.0068543 22.1194684,26.0596513 C22.0085006,26.0323729 21.8904213,26.0026013 21.7678974,25.9735629 L19.5928387,34.6054202 C19.4282389,35.0104899 19.0104427,35.6183878 18.0687716,35.387548 C18.1021064,35.4353585 15.6513319,34.7903561 15.6513319,34.7903561 L14,38.5591766 L18.3283386,39.6272877 C19.1335592,39.8271827 19.922631,40.0363172 20.6997022,40.2329857 L19.3233454,45.7037737 L22.6455656,46.5241793 L24.0085886,41.1114679 C24.9161841,41.3553604 25.7969636,41.5803339 26.6592238,41.7924016 L25.3007936,47.1795945 L28.6270141,48 L30.0032228,42.5394781 C35.6748798,43.6020162 39.9395119,43.1736278 41.7345538,38.0954436 C43.1809878,34.0069084 41.6625507,31.6486457 38.6787156,30.1107886 C40.8519965,29.6146442 42.4889574,28.1996866 42.925421,25.2767902 L42.924384,25.2760569 L42.9242358,25.2763502 Z M35.3249384,35.8248825 C34.2970413,39.9134177 27.3429575,37.7032797 25.0883398,37.1490587 L26.9147906,29.9012142 C29.1692601,30.4583684 36.3992079,31.5609442 35.3250866,35.8248825 L35.3249384,35.8248825 Z M36.3535763,25.2171003 C35.4159054,28.9360571 29.627947,27.0466604 27.7503829,26.5833674 L29.4063076,20.0100036 C31.2838717,20.4732966 37.33036,21.3379929 36.3538726,25.2171003 L36.3535763,25.2171003 Z" id="形状" fill-rule="nonzero"></path>
        </g>
    </g>
</svg>