<?xml version="1.0" encoding="UTF-8"?>
<svg width="60px" height="60px" viewBox="0 0 60 60" version="1.1" xmlns="http://www.w3.org/2000/svg" xmlns:xlink="http://www.w3.org/1999/xlink">
    <title>BTT</title>
    <g id="BTT" stroke="none" stroke-width="1" fill="none" fill-rule="evenodd">
        <circle id="椭圆形" fill="#FFFFFF" cx="30" cy="30" r="30"></circle>
        <g id="编组">
            <circle id="椭圆形" stroke="#000000" stroke-width="2" fill-opacity="0.2" fill="#999999" cx="30" cy="30" r="29"></circle>
            <g id="BTT.c35bbec7" transform="translate(7.500000, 7.500000)" fill="#000000" fill-rule="nonzero">
                <path d="M44.5384615,17.9769231 C44.2384615,16.5230769 43.8,15.1153846 43.2230769,13.7538462 C42.6692308,12.4153846 41.9538462,11.1461538 41.1461538,9.92307692 C40.3384615,8.72307692 39.4153846,7.61538462 38.4,6.6 C37.3846154,5.58461538 36.2769231,4.66153846 35.0769231,3.85384615 C33.8769231,3.04615385 32.5846154,2.35384615 31.2461538,1.77692308 C29.8846154,1.2 28.4769231,0.761538462 27.0230769,0.461538462 C25.5461538,0.161538462 24.0230769,0 22.5,0 C20.9769231,0 19.4538462,0.161538462 17.9769231,0.461538462 C16.5230769,0.761538462 15.1153846,1.2 13.7538462,1.77692308 C12.4153846,2.33076923 11.1461538,3.04615385 9.92307692,3.85384615 C8.72307692,4.66153846 7.61538462,5.58461538 6.6,6.6 C5.58461538,7.61538462 4.66153846,8.72307692 3.85384615,9.92307692 C3.04615385,11.1230769 2.35384615,12.4153846 1.77692308,13.7538462 C1.2,15.1153846 0.761538462,16.5230769 0.461538462,17.9769231 C0.161538462,19.4538462 0,20.9769231 0,22.5 C0,24.0230769 0.161538462,25.5461538 0.461538462,27.0230769 C0.761538462,28.4769231 1.2,29.8846154 1.77692308,31.2461538 C2.33076923,32.5846154 3.04615385,33.8538462 3.85384615,35.0769231 C4.66153846,36.2769231 5.58461538,37.3846154 6.6,38.4 C7.61538462,39.4153846 8.72307692,40.3384615 9.92307692,41.1461538 C11.1230769,41.9538462 12.4153846,42.6461538 13.7538462,43.2230769 C15.1153846,43.8 16.5230769,44.2384615 17.9769231,44.5384615 C19.4538462,44.8384615 20.9769231,45 22.5,45 C24.0230769,45 25.5461538,44.8384615 27.0230769,44.5384615 C28.4769231,44.2384615 29.8846154,43.8 31.2461538,43.2230769 C32.5846154,42.6692308 33.8538462,41.9538462 35.0769231,41.1461538 C36.2769231,40.3384615 37.3846154,39.4153846 38.4,38.4 C39.4153846,37.3846154 40.3384615,36.2769231 41.1461538,35.0769231 C41.9538462,33.8769231 42.6461538,32.5846154 43.2230769,31.2461538 C43.8,29.8846154 44.2384615,28.4769231 44.5384615,27.0230769 C44.8384615,25.5461538 45,24.0230769 45,22.5 C45,20.9769231 44.8384615,19.4538462 44.5384615,17.9769231 Z M22.5230769,42.1846154 C11.6538462,42.1846154 2.86153846,33.3692308 2.86153846,22.5230769 C2.86153846,11.6769231 11.6769231,2.86153846 22.5230769,2.86153846 C33.3692308,2.86153846 42.1846154,11.6769231 42.1846154,22.5230769 C42.1846154,33.3692308 33.3692308,42.1846154 22.5230769,42.1846154 Z" id="Shape"></path>
                <path d="M22.8692308,40.4769231 L23.4,40.4769231 C23.4923077,40.4769231 23.5846154,40.4769231 23.6769231,40.4538462 L23.7,40.4538462 C23.7923077,40.4538462 23.8615385,40.4538462 23.9538462,40.4307692 L24.0230769,40.4307692 C24.0923077,40.4307692 24.1615385,40.4307692 24.2307692,40.4076923 L24.3,40.4076923 C24.3692308,40.4076923 24.4384615,40.3846154 24.5307692,40.3846154 L24.5769231,40.3846154 C24.6692308,40.3846154 24.7615385,40.3615385 24.8538462,40.3615385 C24.9461538,40.3615385 25.0153846,40.3384615 25.1076923,40.3153846 L25.1538462,40.3153846 C25.2230769,40.3153846 25.2923077,40.2923077 25.3615385,40.2923077 L25.4076923,40.2923077 C25.5,40.2692308 25.5692308,40.2692308 25.6615385,40.2461538 C25.8461538,40.2230769 26.0307692,40.1769231 26.1923077,40.1307692 L26.2384615,40.1307692 C26.3076923,40.1076923 26.4,40.1076923 26.4692308,40.0846154 L26.4923077,40.0846154 C26.6769231,40.0384615 26.8384615,39.9923077 27.0230769,39.9461538 C24.8076923,40.0153846 23.0076923,39.7153846 21.8769231,39.4615385 C19.3384615,38.9076923 16.9153846,37.9153846 14.8615385,36.2076923 C11.4461538,33.3461538 9.69230769,29.2384615 9.73846154,25.1538462 C9.76153846,22.1076923 10.8,19.0615385 12.9,16.5692308 C15.5307692,13.4538462 19.2692308,11.8153846 23.1,11.7230769 L23.6307692,11.7230769 L23.6307692,8.65384615 L23.0307692,8.65384615 C21.8538462,8.67692308 20.7,8.81538462 19.5692308,9.06923077 C18.4153846,9.32307692 17.3076923,9.71538462 16.2461538,10.2 C15.1615385,10.7076923 14.1461538,11.3307692 13.2,12.0461538 C12.2307692,12.7846154 11.3307692,13.6384615 10.5461538,14.5846154 C9.80769231,15.4615385 9.16153846,16.4076923 8.63076923,17.4230769 C8.1,18.3923077 7.68461538,19.4307692 7.36153846,20.4923077 C7.06153846,21.5307692 6.83076923,22.6153846 6.73846154,23.7 C6.71538462,24.0461538 6.69230769,24.3692308 6.66923077,24.7153846 L6.66923077,25.3153846 C6.69230769,26.4923077 6.83076923,27.6461538 7.08461538,28.7769231 C7.33846154,29.9307692 7.73076923,31.0384615 8.21538462,32.1 C8.79230769,33.3692308 9.83076923,35.2384615 11.3769231,36.6461538 C14.4230769,39.0461538 18.2769231,40.4769231 22.4538462,40.4769231 L22.8692308,40.4769231 Z" id="Path"></path>
                <path d="M27.9,37.5230769 C26.8384615,37.5 25.5230769,37.3384615 24.5076923,37.1538462 C19.7538462,36.3 15.6692308,33.3923077 14.1692308,29.0076923 C12.3461538,23.6769231 15.1384615,17.9076923 20.4461538,16.1538462 C21.4846154,15.8076923 22.5230769,15.6461538 23.5846154,15.6461538 C24.9461538,15.6461538 26.3076923,15.9230769 27.5538462,16.4307692 L28.8461538,13.6846154 C28.4538462,13.5230769 28.0615385,13.3846154 27.6692308,13.2461538 C26.3538462,12.8307692 24.9692308,12.6230769 23.5846154,12.6230769 C22.2,12.6230769 20.8153846,12.8538462 19.5,13.2923077 C17.8153846,13.8461538 16.2692308,14.7461538 14.9538462,15.9230769 C14.3307692,16.4769231 13.7307692,17.1230769 13.2230769,17.7923077 C12.7153846,18.4615385 12.2769231,19.1769231 11.9076923,19.9384615 C11.5384615,20.7 11.2384615,21.4846154 11.0307692,22.2923077 C10.8230769,23.1 10.6615385,23.9538462 10.6153846,24.8076923 C10.5,26.5615385 10.7307692,28.3153846 11.3076923,29.9769231 C11.8846154,31.6615385 12.8076923,33.2076923 14.0769231,34.5692308 C15.2076923,35.7923077 16.5230769,36.7153846 18.1153846,37.5692308 C19.7769231,38.4461538 21.8307692,38.9076923 23.9769231,39.2076923 C25.3615385,39.3923077 27.2076923,39.4384615 28.2923077,39.4384615 C29.2384615,39.0923077 29.6307692,38.9307692 30.1384615,38.7230769 C30.5769231,38.5153846 31.0153846,38.3076923 31.4538462,38.0538462 C31.8923077,37.8 31.9615385,37.7538462 32.7,37.2692308 C32.7692308,37.2230769 32.8384615,37.1769231 32.8846154,37.1307692 C30.3461538,37.5692308 29.7,37.5461538 27.9,37.5230769 L27.9,37.5230769 Z" id="Path"></path>
                <path d="M33.5769231,34.0846154 C32.8615385,34.1307692 31.8461538,34.2 30.6923077,34.2 C28.6384615,34.2 26.1230769,34.0153846 23.9769231,33.3 C20.6538462,32.1923077 17.5153846,29.3538462 17.5153846,25.8461538 C17.5153846,22.3384615 20.3538462,19.5230769 23.8384615,19.5230769 C26.2153846,19.5230769 28.2692308,20.8384615 29.3538462,22.7538462 L32.1,21.3923077 C31.6615385,20.5846154 31.1307692,19.8461538 30.4615385,19.2 C29.6076923,18.3461538 28.5923077,17.6538462 27.4846154,17.1923077 C26.3307692,16.7076923 25.1076923,16.4538462 23.8384615,16.4538462 C22.5692308,16.4538462 21.3461538,16.7076923 20.1923077,17.1923077 C19.0846154,17.6538462 18.0692308,18.3461538 17.2153846,19.2 C16.3615385,20.0538462 15.6692308,21.0692308 15.2076923,22.1769231 C14.7230769,23.3307692 14.4692308,24.5538462 14.4692308,25.8230769 C14.4692308,27.0923077 14.7461538,28.3615385 15.2769231,29.5615385 C15.7615385,30.6230769 16.4307692,31.6153846 17.2846154,32.5384615 C18.7846154,34.1538462 20.8384615,35.4461538 23.0307692,36.1846154 C25.1307692,36.8769231 28.2230769,37.1307692 31.2230769,36.9230769 C32.0538462,36.8538462 32.6769231,36.7846154 33.7384615,36.5538462 C34.7538462,35.7461538 35.7,34.8230769 36.5076923,33.8076923 C35.7923077,33.8769231 34.4769231,34.0153846 33.5769231,34.0846154 Z" id="Path"></path>
            </g>
        </g>
    </g>
</svg>