<svg width="18" height="18" viewBox="0 0 18 18" fill="none" xmlns="http://www.w3.org/2000/svg">
<path d="M6.07066 4.85602H12.8728C12.8906 4.85602 12.9076 4.86306 12.9201 4.8756C12.9326 4.88813 12.9397 4.90514 12.9397 4.92287V8.32395C12.9397 8.34168 12.9326 8.35868 12.9201 8.37122C12.9076 8.38375 12.8906 8.3908 12.8728 8.3908H6.07066C6.06188 8.3908 6.05319 8.38907 6.04508 8.38571C6.03697 8.38235 6.0296 8.37743 6.02339 8.37122C6.01719 8.36501 6.01226 8.35764 6.0089 8.34953C6.00554 8.34142 6.00381 8.33273 6.00381 8.32395V4.92287C6.00381 4.90514 6.01086 4.88813 6.02339 4.8756C6.03593 4.86306 6.05293 4.85602 6.07066 4.85602Z" stroke="#7534F9"/>
<path d="M14.9783 3.32264V15.4154C14.9783 15.8697 14.61 16.238 14.1557 16.238H4.33033C3.876 16.238 3.50769 15.8697 3.50769 15.4154V3.32264C3.50769 2.86831 3.876 2.5 4.33033 2.5H14.1557C14.61 2.5 14.9783 2.86831 14.9783 3.32264Z" stroke="#7534F9"/>
<path d="M5.78716 10.8749C5.78716 11.1004 5.87674 11.3167 6.03619 11.4762C6.19565 11.6356 6.41192 11.7252 6.63743 11.7252C6.86293 11.7252 7.0792 11.6356 7.23866 11.4762C7.39811 11.3167 7.4877 11.1004 7.4877 10.8749C7.4877 10.6494 7.39811 10.4332 7.23866 10.2737C7.0792 10.1142 6.86293 10.0247 6.63743 10.0247C6.41192 10.0247 6.19565 10.1142 6.03619 10.2737C5.87674 10.4332 5.78716 10.6494 5.78716 10.8749V10.8749Z" fill="#7534F9"/>
<path d="M8.62149 10.8749C8.62149 11.1004 8.71107 11.3167 8.87053 11.4762C9.02999 11.6356 9.24625 11.7252 9.47176 11.7252C9.69727 11.7252 9.91354 11.6356 10.073 11.4762C10.2324 11.3167 10.322 11.1004 10.322 10.8749C10.322 10.7633 10.3 10.6527 10.2573 10.5495C10.2146 10.4464 10.1519 10.3527 10.073 10.2737C9.99404 10.1947 9.9003 10.1321 9.79714 10.0894C9.69399 10.0467 9.58342 10.0247 9.47176 10.0247C9.3601 10.0247 9.24954 10.0467 9.14638 10.0894C9.04322 10.1321 8.94948 10.1947 8.87053 10.2737C8.79157 10.3527 8.72894 10.4464 8.68621 10.5495C8.64348 10.6527 8.62149 10.7633 8.62149 10.8749V10.8749Z" fill="#7534F9"/>
<path d="M11.4558 10.8749C11.4558 11.1004 11.5454 11.3167 11.7048 11.4762C11.8643 11.6356 12.0806 11.7252 12.3061 11.7252C12.5316 11.7252 12.7479 11.6356 12.9073 11.4762C13.0668 11.3167 13.1563 11.1004 13.1563 10.8749C13.1563 10.6494 13.0668 10.4332 12.9073 10.2737C12.7479 10.1142 12.5316 10.0247 12.3061 10.0247C12.0806 10.0247 11.8643 10.1142 11.7048 10.2737C11.5454 10.4332 11.4558 10.6494 11.4558 10.8749V10.8749Z" fill="#7534F9"/>
<path d="M5.78716 13.7093C5.78716 13.9349 5.87674 14.1511 6.03619 14.3106C6.19565 14.47 6.41192 14.5596 6.63743 14.5596C6.86293 14.5596 7.0792 14.47 7.23866 14.3106C7.39811 14.1511 7.4877 13.9349 7.4877 13.7093C7.4877 13.4838 7.39811 13.2676 7.23866 13.1081C7.0792 12.9487 6.86293 12.8591 6.63743 12.8591C6.41192 12.8591 6.19565 12.9487 6.03619 13.1081C5.87674 13.2676 5.78716 13.4838 5.78716 13.7093V13.7093Z" fill="#7534F9"/>
<path d="M8.62149 13.7093C8.62149 13.9349 8.71107 14.1511 8.87053 14.3106C9.02999 14.47 9.24625 14.5596 9.47176 14.5596C9.69727 14.5596 9.91354 14.47 10.073 14.3106C10.2324 14.1511 10.322 13.9349 10.322 13.7093C10.322 13.5977 10.3 13.4871 10.2573 13.384C10.2146 13.2808 10.1519 13.1871 10.073 13.1081C9.99404 13.0292 9.9003 12.9665 9.79714 12.9238C9.69399 12.8811 9.58342 12.8591 9.47176 12.8591C9.3601 12.8591 9.24954 12.8811 9.14638 12.9238C9.04322 12.9665 8.94948 13.0292 8.87053 13.1081C8.79157 13.1871 8.72894 13.2808 8.68621 13.384C8.64348 13.4871 8.62149 13.5977 8.62149 13.7093V13.7093Z" fill="#7534F9"/>
<path d="M11.4558 13.7093C11.4558 13.9349 11.5454 14.1511 11.7048 14.3106C11.8643 14.47 12.0806 14.5596 12.3061 14.5596C12.5316 14.5596 12.7479 14.47 12.9073 14.3106C13.0668 14.1511 13.1563 13.9349 13.1563 13.7093C13.1563 13.4838 13.0668 13.2676 12.9073 13.1081C12.7479 12.9487 12.5316 12.8591 12.3061 12.8591C12.0806 12.8591 11.8643 12.9487 11.7048 13.1081C11.5454 13.2676 11.4558 13.4838 11.4558 13.7093V13.7093Z" fill="#7534F9"/>
</svg>
