<?xml version="1.0" encoding="UTF-8"?>
<svg width="20px" height="20px" viewBox="0 0 20 20" version="1.1" xmlns="http://www.w3.org/2000/svg" xmlns:xlink="http://www.w3.org/1999/xlink">
    <title>关闭</title>
    <g id="页面-1" stroke="none" stroke-width="1" fill="none" fill-rule="evenodd">
        <g id="弹窗" transform="translate(-382.000000, -36.000000)" fill="#FFFFFF">
            <g id="编组-12备份" transform="translate(20.000000, 13.000000)">
                <g id="关闭" transform="translate(356.000000, 20.000000)">
                    <path d="M14.5,4.24695167 C15.2078253,4.24695167 15.781631,4.82075743 15.781631,5.52858271 L15.7809517,13.2179517 L23.4714173,13.218369 C24.1792426,13.218369 24.7530483,13.7921747 24.7530483,14.5 C24.7530483,15.2078253 24.1792426,15.781631 23.4714173,15.781631 L15.7809517,15.7809517 L15.781631,23.4714173 C15.781631,24.1792426 15.2078253,24.7530483 14.5,24.7530483 C13.7921747,24.7530483 13.218369,24.1792426 13.218369,23.4714173 L13.2179517,15.7809517 L5.52858271,15.781631 C4.82075743,15.781631 4.24695167,15.2078253 4.24695167,14.5 C4.24695167,13.7921747 4.82075743,13.218369 5.52858271,13.218369 L13.2179517,13.2179517 L13.218369,5.52858271 C13.218369,4.82075743 13.7921747,4.24695167 14.5,4.24695167 Z" id="形状结合" transform="translate(14.500000, 14.500000) rotate(-315.000000) translate(-14.500000, -14.500000) "></path>
                </g>
            </g>
        </g>
    </g>
</svg>