<?xml version="1.0" encoding="UTF-8"?>
<svg width="22px" height="22px" viewBox="0 0 22 22" version="1.1" xmlns="http://www.w3.org/2000/svg" xmlns:xlink="http://www.w3.org/1999/xlink">
    <title>SUN DAO</title>
    <defs>
        <path d="M3.46473158,6.36237669 L11.1691479,4.22234417 C11.6929381,4.07685256 12.2464178,4.07642005 12.7704347,4.22109288 L20.5322561,6.36400975 C21.3993984,6.60341411 22,7.39230176 22,8.29188512 L22,17.7100955 C22,18.6087475 21.4006179,19.3970587 20.5346741,19.6373017 L12.8189805,21.7779039 C12.2951482,21.9232332 11.7416714,21.9234958 11.2177015,21.7786636 L3.46715478,19.6363102 C2.60030439,19.3967013 2,18.607954 2,17.7085976 L2,8.28941787 C2,7.39099483 2.59908247,6.60282544 3.46473158,6.36237669 Z" id="path-1"></path>
        <filter x="-12.5%" y="-25.0%" width="135.0%" height="138.9%" filterUnits="objectBoundingBox" id="filter-2">
            <feOffset dx="1" dy="-1" in="SourceAlpha" result="shadowOffsetOuter1"></feOffset>
            <feGaussianBlur stdDeviation="1" in="shadowOffsetOuter1" result="shadowBlurOuter1"></feGaussianBlur>
            <feComposite in="shadowBlurOuter1" in2="SourceAlpha" operator="out" result="shadowBlurOuter1"></feComposite>
            <feColorMatrix values="0 0 0 0 0.118805823   0 0 0 0 0.118805823   0 0 0 0 0.162279212  0 0 0 0.197392817 0" type="matrix" in="shadowBlurOuter1"></feColorMatrix>
        </filter>
    </defs>
    <g id="页面-1" stroke="none" stroke-width="1" fill="none" fill-rule="evenodd">
        <g id="更多-DAO" transform="translate(-39.000000, -378.000000)">
            <g id="编组-7备份-7" transform="translate(39.000000, 378.000000)">
                <path d="M1.52058869,1.77840674 L8.00647742,0.177014946 C8.47740751,0.0607404286 8.96950951,0.0603934261 9.44060311,0.176003682 L15.9766725,1.78000902 C16.8710951,1.99950771 17.5,2.80141213 17.5,3.72237442 L17.5,10.279453 C17.5,11.1995707 16.8722245,12.0009688 15.9788709,12.2212776 L9.48312409,13.8231856 C9.01216417,13.9393284 8.52006479,13.9395391 8.0490056,13.8237995 L1.52279193,12.2203048 C0.628629657,12.0006085 5.56849364e-16,11.1988274 0,10.2780709 L0,3.72009796 C3.31432716e-16,2.80018788 0.627498026,1.99891439 1.52058869,1.77840674 Z" id="矩形备份-23" fill="#8B5AEA"></path>
                <g id="矩形备份-3">
                    <use fill="black" fill-opacity="1" filter="url(#filter-2)" xlink:href="#path-1"></use>
                    <path stroke-opacity="0.295454545" stroke="#FFFFFF" stroke-width="1" d="M11.302965,4.70410447 C11.7394568,4.58286146 12.2006899,4.58250104 12.6373707,4.70306173 L12.6373707,4.70306173 L20.3991921,6.84597859 C20.7243704,6.93575523 20.9995724,7.12855998 21.1934798,7.38325651 C21.3873872,7.63795305 21.5,7.95454136 21.5,8.29188512 L21.5,8.29188512 L21.5,17.7100955 C21.5,18.04709 21.3876159,18.3633956 21.1940495,18.6179754 C21.0004831,18.8725551 20.7257345,19.065409 20.4010056,19.1555001 L20.4010056,19.1555001 L12.685312,21.2961024 C12.2487851,21.4172101 11.7875544,21.4174289 11.3509128,21.2967354 L11.3509128,21.2967354 L3.60036609,19.154382 C3.27529719,19.0645287 3.00020567,18.8717119 2.80638137,18.6170438 C2.61255707,18.3623757 2.5,18.0458562 2.5,17.7085976 L2.5,17.7085976 L2.5,8.28941787 C2.5,7.95250923 2.61232796,7.63627315 2.80581053,7.38172216 C2.9992931,7.12717117 3.27393027,6.93430527 3.59854868,6.84413699 L3.59854868,6.84413699 Z" stroke-linejoin="square" fill-opacity="0.3" fill="#8B5AEA" fill-rule="evenodd"></path>
                </g>
                <g id="DAO" transform="translate(4.700000, 9.200000)" fill="#FFFFFF" fill-rule="nonzero">
                    <path d="M4.45800781,5.22070312 C4.45800781,5.72916667 4.45442708,6.02636719 4.44726562,6.11230469 C4.41145833,6.5061849 4.29866536,6.79980469 4.10888672,6.99316406 C3.91910807,7.18652344 3.67382812,7.31184896 3.37304688,7.36914062 C3.17252604,7.40494792 2.85384115,7.42285156 2.41699219,7.42285156 L1,7.42285156 C0.44771525,7.42285156 6.76353751e-17,6.97513631 0,6.42285156 L0,1.03222656 C-2.8967998e-16,0.479941813 0.44771525,0.0322265625 1,0.0322265625 L1.43945312,0.0322265625 L1.43945312,0.0322265625 C2.21289062,0.0322265625 2.76611328,0.0555013021 3.09912109,0.102050781 C3.43212891,0.14860026 3.71679688,0.279296875 3.953125,0.494140625 C4.18229167,0.6875 4.32910156,0.930989583 4.39355469,1.22460938 C4.43652344,1.41796875 4.45800781,1.75097656 4.45800781,2.22363281 L4.45800781,5.22070312 Z M2.52441406,5.09179688 L2.52441406,1.85839844 C2.52441406,1.6077474 2.47965495,1.45198568 2.39013672,1.39111328 C2.30061849,1.33024089 2.14485677,1.29980469 1.92285156,1.29980469 L1.92285156,6.14453125 C2.2594401,6.14453125 2.44921875,6.03352865 2.4921875,5.81152344 C2.51367188,5.6969401 2.52441406,5.45703125 2.52441406,5.09179688 Z" id="形状"></path>
                    <path d="M8.74187469,7.390625 L8.68079315,7.390625 C8.15683681,7.390625 7.72171914,6.98619809 7.68346233,6.46364027 L7.65380859,6.05859375 L7.65380859,6.05859375 L6.95019531,6.05859375 L6.91736946,6.47013558 C6.87590857,6.98993587 6.44198663,7.390625 5.92053544,7.390625 L5.86045074,7.390625 C5.38439311,7.390625 4.99847215,7.00470404 4.99847215,6.52864641 C4.99847215,6.49084821 5.00095836,6.45309095 5.00591466,6.41561911 L5.73956837,0.868874583 C5.80534103,0.371604382 6.22933302,3.14187238e-16 6.73093416,0 L7.7740444,0 C8.26968806,3.53040947e-16 8.69054486,0.363062356 8.76323242,0.853347125 L9.58715528,6.4107876 C9.65636637,6.87762318 9.33402803,7.31217486 8.86719246,7.38138595 C8.82570322,7.38753697 8.78381742,7.390625 8.74187469,7.390625 Z M7.61621094,4.73730469 C7.55175781,4.19303385 7.48730469,3.58610026 7.42285156,2.91650391 C7.35839844,2.24690755 7.32617188,1.82259115 7.32617188,1.64355469 C7.27604167,1.98730469 7.20442708,2.55664062 7.11132812,3.3515625 C7.046875,3.8671875 6.99316406,4.32910156 6.95019531,4.73730469 L7.61621094,4.73730469 Z" id="形状"></path>
                    <path d="M14.6630859,4.31835938 C14.6630859,4.99153646 14.6523438,5.46598307 14.6308594,5.74169922 C14.609375,6.01741536 14.5556641,6.2483724 14.4697266,6.43457031 C14.3121745,6.77832031 14.0633138,7.02718099 13.7231445,7.18115234 C13.3829753,7.3351237 12.9586589,7.41210938 12.4501953,7.41210938 C11.9417318,7.41210938 11.5174154,7.3351237 11.1772461,7.18115234 C10.8370768,7.02718099 10.5846354,6.77832031 10.4199219,6.43457031 C10.3411458,6.26985677 10.2892253,6.02815755 10.2641602,5.70947266 C10.2390951,5.39078776 10.2265625,4.92708333 10.2265625,4.31835938 L10.2265625,3.06152344 C10.2265625,2.38834635 10.2373047,1.91389974 10.2587891,1.63818359 C10.2802734,1.36246745 10.3339844,1.13151042 10.4199219,0.9453125 C10.5846354,0.608723958 10.8317057,0.368815104 11.1611328,0.225585938 C11.4905599,0.0823567708 11.9202474,0.0107421875 12.4501953,0.0107421875 C12.9801432,0.0107421875 13.4080404,0.0805664063 13.7338867,0.220214844 C14.0597331,0.359863281 14.305013,0.6015625 14.4697266,0.9453125 C14.5485026,1.1171875 14.6004232,1.36246745 14.6254883,1.68115234 C14.6505534,1.99983724 14.6630859,2.45996094 14.6630859,3.06152344 L14.6630859,4.31835938 Z M12.7402344,5.56445312 L12.7402344,1.90136719 C12.7402344,1.82259115 12.7402344,1.76529948 12.7402344,1.72949219 C12.7402344,1.50032552 12.7241211,1.33561198 12.6918945,1.23535156 C12.659668,1.13509115 12.5791016,1.08496094 12.4501953,1.08496094 C12.3212891,1.08496094 12.2389323,1.14046224 12.203125,1.25146484 C12.1673177,1.36246745 12.1494141,1.57910156 12.1494141,1.90136719 L12.1494141,5.69335938 C12.1494141,5.88671875 12.1673177,6.03710938 12.203125,6.14453125 C12.2389323,6.25195312 12.3177083,6.30566406 12.4394531,6.30566406 C12.639974,6.30566406 12.7402344,6.05859375 12.7402344,5.56445312 Z" id="形状"></path>
                </g>
            </g>
        </g>
    </g>
</svg>