<svg width="14" height="14" viewBox="0 0 14 14" fill="none" xmlns="http://www.w3.org/2000/svg">
<g clip-path="url(#clip0_126_49889)">
<path d="M12.887 13.825H1.183C0.664995 13.825 0.244995 13.405 0.244995 12.887V8.813C0.244995 8.295 0.664995 7.875 1.183 7.875H4.33999V8.575H1.183C1.057 8.575 0.944995 8.687 0.944995 8.813V12.887C0.944995 13.013 1.057 13.125 1.183 13.125H12.887C13.013 13.125 13.125 13.013 13.125 12.887V8.813C13.125 8.687 13.013 8.575 12.887 8.575H8.81999V7.875H12.887C13.405 7.875 13.825 8.295 13.825 8.813V12.887C13.825 13.405 13.405 13.825 12.887 13.825Z" fill="#333333"/>
<path d="M6.56601 10.7801C6.46101 10.7801 6.34901 10.7381 6.27201 10.6611L2.12801 6.51008C1.96701 6.34908 1.96701 6.08308 2.12801 5.91508L7.48301 0.560082C7.56001 0.483082 7.66501 0.434082 7.77701 0.434082C7.88901 0.434082 7.99401 0.476082 8.07101 0.560082L12.215 4.70408C12.376 4.86508 12.376 5.13108 12.215 5.29908L6.86001 10.6541C6.78301 10.7381 6.67101 10.7801 6.56601 10.7801ZM2.82101 6.21608L6.56601 9.96108L11.522 5.00508L7.77701 1.26008L2.82101 6.21608Z" fill="#333333"/>
<path d="M2.82104 6.21625L6.56605 9.96125L11.522 5.00525L7.77704 1.26025L2.82104 6.21625Z" fill="#C1A0FF"/>
<path d="M6.755 7.33624C6.573 7.33624 6.391 7.26624 6.251 7.13324L6.244 7.12624L5.11 5.97824C4.977 5.83824 4.977 5.62124 5.11 5.48124C5.25 5.34824 5.467 5.34824 5.607 5.48124L6.741 6.62224C6.755 6.62924 6.762 6.62924 6.769 6.62924L8.449 4.94924C8.589 4.80924 8.806 4.80924 8.946 4.94924C9.086 5.08924 9.086 5.30624 8.946 5.44624L7.266 7.12624C7.126 7.26624 6.944 7.33624 6.755 7.33624Z" fill="#333333"/>
<path d="M10.535 10.9549H3.535C3.339 10.9549 3.185 10.8009 3.185 10.6049C3.185 10.4089 3.339 10.2549 3.535 10.2549H10.535C10.731 10.2549 10.885 10.4089 10.885 10.6049C10.885 10.8009 10.731 10.9549 10.535 10.9549Z" fill="#333333"/>
</g>
<defs>
<clipPath id="clip0_126_49889">
<rect width="14" height="14" fill="white"/>
</clipPath>
</defs>
</svg>
