<svg width="14" height="14" viewBox="0 0 14 14" fill="none" xmlns="http://www.w3.org/2000/svg">
<g clip-path="url(#clip0_44_10525)">
<path d="M12.887 13.825H1.183C0.664995 13.825 0.244995 13.405 0.244995 12.887V8.813C0.244995 8.295 0.664995 7.875 1.183 7.875H4.33999V8.575H1.183C1.057 8.575 0.944995 8.687 0.944995 8.813V12.887C0.944995 13.013 1.057 13.125 1.183 13.125H12.887C13.013 13.125 13.125 13.013 13.125 12.887V8.813C13.125 8.687 13.013 8.575 12.887 8.575H8.81999V7.875H12.887C13.405 7.875 13.825 8.295 13.825 8.813V12.887C13.825 13.405 13.405 13.825 12.887 13.825Z" fill="white"/>
<path d="M6.56601 10.78C6.46101 10.78 6.34901 10.738 6.27201 10.661L2.12801 6.51002C1.96701 6.34902 1.96701 6.08302 2.12801 5.91502L7.48301 0.560021C7.56001 0.483021 7.66501 0.434021 7.77701 0.434021C7.88901 0.434021 7.99401 0.476021 8.07101 0.560021L12.215 4.70402C12.376 4.86502 12.376 5.13102 12.215 5.29902L6.86001 10.654C6.78301 10.738 6.67101 10.78 6.56601 10.78ZM2.82101 6.21602L6.56601 9.96102L11.522 5.00502L7.77701 1.26002L2.82101 6.21602Z" fill="white"/>
<path d="M2.82104 6.21601L6.56605 9.96101L11.522 5.00501L7.77704 1.26001L2.82104 6.21601Z" fill="#8C51FF"/>
<path d="M6.755 7.33599C6.573 7.33599 6.391 7.26599 6.251 7.13299L6.244 7.12599L5.11 5.97799C4.977 5.83799 4.977 5.62099 5.11 5.48099C5.25 5.34799 5.467 5.34799 5.607 5.48099L6.741 6.62199C6.755 6.62899 6.762 6.62899 6.769 6.62899L8.449 4.94899C8.589 4.80899 8.806 4.80899 8.946 4.94899C9.086 5.08899 9.086 5.30599 8.946 5.44599L7.266 7.12599C7.126 7.26599 6.944 7.33599 6.755 7.33599Z" fill="white"/>
<path d="M10.535 10.955H3.535C3.339 10.955 3.185 10.801 3.185 10.605C3.185 10.409 3.339 10.255 3.535 10.255H10.535C10.731 10.255 10.885 10.409 10.885 10.605C10.885 10.801 10.731 10.955 10.535 10.955Z" fill="white"/>
</g>
<defs>
<clipPath id="clip0_44_10525">
<rect width="14" height="14" fill="white"/>
</clipPath>
</defs>
</svg>
