<svg width="14" height="14" viewBox="0 0 14 14" fill="none" xmlns="http://www.w3.org/2000/svg">
<path d="M11.7948 1.58644C11.8351 1.54466 11.8834 1.51133 11.9368 1.4884C11.9902 1.46547 12.0476 1.4534 12.1057 1.4529C12.1638 1.45239 12.2214 1.46346 12.2751 1.48546C12.3289 1.50746 12.3777 1.53994 12.4188 1.58102C12.4599 1.6221 12.4924 1.67095 12.5144 1.72471C12.5364 1.77848 12.5474 1.83609 12.5469 1.89418C12.5464 1.95227 12.5344 2.00968 12.5114 2.06306C12.4885 2.11644 12.4552 2.16471 12.4134 2.20507L6.22671 8.3919C6.14466 8.47396 6.03337 8.52005 5.91733 8.52005C5.80128 8.52005 5.68999 8.47396 5.60794 8.3919C5.52589 8.30985 5.47979 8.19856 5.47979 8.08252C5.47979 7.96648 5.52589 7.85519 5.60794 7.77313L11.7948 1.58659V1.58644ZM11.6666 6.12492C11.6666 6.00889 11.7127 5.89761 11.7947 5.81556C11.8768 5.73352 11.9881 5.68742 12.1041 5.68742C12.2201 5.68742 12.3314 5.73352 12.4134 5.81556C12.4955 5.89761 12.5416 6.00889 12.5416 6.12492V10.9374C12.5416 11.8234 11.8234 12.5416 10.9374 12.5416H3.06242C2.17648 12.5416 1.45825 11.8234 1.45825 10.9374V3.06242C1.45825 2.17649 2.17648 1.45826 3.06242 1.45826H7.72908C7.84512 1.45826 7.9564 1.50435 8.03844 1.5864C8.12049 1.66844 8.16658 1.77972 8.16658 1.89576C8.16658 2.01179 8.12049 2.12307 8.03844 2.20512C7.9564 2.28716 7.84512 2.33326 7.72908 2.33326H3.06242C2.86903 2.33326 2.68357 2.41008 2.54682 2.54682C2.41007 2.68357 2.33325 2.86904 2.33325 3.06242V10.9374C2.33325 11.1308 2.41007 11.3163 2.54682 11.453C2.68357 11.5898 2.86903 11.6666 3.06242 11.6666H10.9374C11.1308 11.6666 11.3163 11.5898 11.453 11.453C11.5898 11.3163 11.6666 11.1308 11.6666 10.9374V6.12492Z" fill="#C1A0FF"/>
</svg>
