<?xml version="1.0" encoding="UTF-8"?>
<svg width="22px" height="23px" viewBox="0 0 22 23" version="1.1" xmlns="http://www.w3.org/2000/svg" xmlns:xlink="http://www.w3.org/1999/xlink">
    <title>世纪挖矿</title>
    <defs>
        <path d="M15.0621778,2.16025404 C16.1667473,2.16025404 17.0621778,3.05568454 17.0621778,4.16025404 C17.0621778,5.26482354 16.1667473,6.16025404 15.0621778,6.16025404 L13.0621778,6.16025404 L13.0621778,9.16025404 L15.0621778,9.16025404 C16.7190321,9.16025404 18.0621778,10.5033998 18.0621778,12.160254 L18.0621778,15.660254 C18.0621778,19.2501049 15.1520287,22.160254 11.5621778,22.160254 L10.5621778,22.160254 C6.97232695,22.160254 4.06217783,19.2501049 4.06217783,15.660254 L4.06217783,12.160254 C4.06217783,10.5033998 5.40532358,9.16025404 7.06217783,9.16025404 L9.06217783,9.16025404 L9.06217783,6.15925404 L7.06217783,6.16025404 C5.95760833,6.16025404 5.06217783,5.26482354 5.06217783,4.16025404 C5.06217783,3.05568454 5.95760833,2.16025404 7.06217783,2.16025404 L15.0621778,2.16025404 Z" id="path-1"></path>
        <filter x="-32.1%" y="-22.5%" width="150.0%" height="135.0%" filterUnits="objectBoundingBox" id="filter-2">
            <feOffset dx="-1" dy="-1" in="SourceAlpha" result="shadowOffsetOuter1"></feOffset>
            <feGaussianBlur stdDeviation="1" in="shadowOffsetOuter1" result="shadowBlurOuter1"></feGaussianBlur>
            <feComposite in="shadowBlurOuter1" in2="SourceAlpha" operator="out" result="shadowBlurOuter1"></feComposite>
            <feColorMatrix values="0 0 0 0 0.118805823   0 0 0 0 0.118805823   0 0 0 0 0.162279212  0 0 0 0.197392817 0" type="matrix" in="shadowBlurOuter1"></feColorMatrix>
        </filter>
    </defs>
    <g id="页面-1" stroke="none" stroke-width="1" fill="none" fill-rule="evenodd">
        <g id="M-首页-侧边菜单-展开" transform="translate(-20.000000, -523.000000)">
            <g id="编组-17" transform="translate(17.937822, 522.839746)">
                <circle id="椭圆形" fill="#8B5AEA" cx="15.5621778" cy="14.660254" r="8.5"></circle>
                <g id="形状结合" transform="translate(11.062178, 12.160254) rotate(-330.000000) translate(-11.062178, -12.160254) ">
                    <use fill="black" fill-opacity="1" filter="url(#filter-2)" xlink:href="#path-1"></use>
                    <path stroke-opacity="0.295454545" stroke="#FFFFFF" stroke-width="1" d="M15.0621778,2.66025404 C15.4763914,2.66025404 15.8513914,2.82814726 16.122838,3.09959387 C16.3942846,3.37104048 16.5621778,3.74604048 16.5621778,4.16025404 C16.5621778,4.5744676 16.3942846,4.9494676 16.122838,5.22091421 C15.8513914,5.49236082 15.4763914,5.66025404 15.0621778,5.66025404 L15.0621778,5.66025404 L12.5621778,5.66025404 L12.5621778,9.66025404 L15.0621778,9.66025404 C15.7525338,9.66025404 16.3775338,9.94007607 16.8299448,10.3924871 C17.2823558,10.8448981 17.5621778,11.4698981 17.5621778,12.160254 L17.5621778,12.160254 L17.5621778,15.660254 C17.5621778,17.3171083 16.890605,18.8171083 15.8048185,19.9028947 C14.7190321,20.9886812 13.2190321,21.660254 11.5621778,21.660254 L11.5621778,21.660254 L10.5621778,21.660254 C8.90532358,21.660254 7.40532358,20.9886812 6.31953714,19.9028947 C5.2337507,18.8171083 4.56217783,17.3171083 4.56217783,15.660254 L4.56217783,15.660254 L4.56217783,12.160254 C4.56217783,11.4698981 4.84199986,10.8448981 5.29441087,10.3924871 C5.74682189,9.94007607 6.37182189,9.66025404 7.06217783,9.66025404 L7.06217783,9.66025404 L9.56217783,9.66025404 L9.56217783,5.65900396 L7.06217783,5.66025404 C6.64796426,5.66025404 6.27296426,5.49236082 6.00151765,5.22091421 C5.73007105,4.9494676 5.56217783,4.5744676 5.56217783,4.16025404 C5.56217783,3.74604048 5.73007105,3.37104048 6.00151765,3.09959387 C6.27296426,2.82814726 6.64796426,2.66025404 7.06217783,2.66025404 L7.06217783,2.66025404 Z" stroke-linejoin="square" fill-opacity="0.3" fill="#8B5AEA" fill-rule="evenodd"></path>
                </g>
                <rect id="矩形" stroke="#FFFFFF" transform="translate(9.312178, 15.191343) rotate(-330.000000) translate(-9.312178, -15.191343) " x="8.81217783" y="12.191343" width="1" height="6" rx="0.5"></rect>
            </g>
        </g>
    </g>
</svg>