<?xml version="1.0" encoding="UTF-8"?>
<svg width="12px" height="14px" viewBox="0 0 12 14" version="1.1" xmlns="http://www.w3.org/2000/svg"
    xmlns:xlink="http://www.w3.org/1999/xlink">
    <title>复制</title>
    <g id="页面-1" stroke="none" stroke-width="1" fill="none" fill-rule="evenodd">
        <g id="更多" transform="translate(-282.000000, -135.000000)" fill="#DECDFF" fill-rule="nonzero">
            <g id="编组-5" transform="translate(15.000000, 107.000000)">
                <g id="fuzhi-2" transform="translate(267.000000, 28.000000)">
                    <path
                        d="M9,2 L1.15384615,2 C0.516910811,2.00082653 0.000762949923,2.55998671 0,3.25 L0,12.75 C0,13.4395 0.517846154,14 1.15384615,14 L9,14 C9.63646154,14 10.1538462,13.4395 10.1538462,12.75 L10.1538462,3.25 C10.1538462,2.561 9.63646154,2 9,2 Z M9.23076923,12.75 C9.23076923,12.8875 9.12692308,13 9,13 L1.15384615,13 C1.02639583,13 0.923076923,12.8880712 0.923076923,12.75 L0.923076923,3.25 C0.923076923,3.11192881 1.02639583,3 1.15384615,3 L9,3 C9.12745033,3 9.23076923,3.11192881 9.23076923,3.25 L9.23076923,12.75 Z"
                        id="形状"></path>
                    <path
                        d="M10.8461538,0 L3,0 C2.74509935,0 2.53846154,0.223857625 2.53846154,0.5 C2.53846154,0.776142375 2.74509935,1 3,1 L10.8461538,1 C10.9736042,1 11.0769231,1.11192881 11.0769231,1.25 L11.0769231,10.75 C11.0769231,11.0261424 11.2835609,11.25 11.5384615,11.25 C11.7933622,11.25 12,11.0261424 12,10.75 L12,1.25 C12,0.561 11.4826154,0 10.8461538,0 Z"
                        id="路径"></path>
                    <path
                        d="M7.38461538,4.625 L2.76923077,4.625 C2.51433012,4.625 2.30769231,4.84885763 2.30769231,5.125 C2.30769231,5.40114237 2.51433012,5.625 2.76923077,5.625 L7.38461538,5.625 C7.63951604,5.625 7.84615385,5.40114237 7.84615385,5.125 C7.84615385,4.84885763 7.63951604,4.625 7.38461538,4.625 Z M7.38461538,7.125 L2.76923077,7.125 C2.51433012,7.125 2.30769231,7.34885763 2.30769231,7.625 C2.30769231,7.90114237 2.51433012,8.125 2.76923077,8.125 L7.38461538,8.125 C7.63951604,8.125 7.84615385,7.90114237 7.84615385,7.625 C7.84615385,7.34885763 7.63951604,7.125 7.38461538,7.125 Z M5.53846154,9.604 L2.76923077,9.604 C2.51433012,9.604 2.30769231,9.82785763 2.30769231,10.104 C2.30769231,10.3801424 2.51433012,10.604 2.76923077,10.604 L5.53846154,10.604 C5.79336219,10.604 6,10.3801424 6,10.104 C6,9.82785763 5.79336219,9.604 5.53846154,9.604 Z"
                        id="形状"></path>
                </g>
            </g>
        </g>
    </g>
</svg>