<svg width="14" height="18" viewBox="0 0 14 18" fill="none" xmlns="http://www.w3.org/2000/svg">
<path d="M5.18483 18C5.18483 18 -2.5761 16.2441 0.892411 7.52942C0.892411 7.52942 1.67991 8.49788 1.57141 8.96386C1.57141 8.96386 2.18882 6.76377 3.52162 5.45004C4.66542 4.32087 5.82813 1.14741 4.75573 0C4.75573 0 10.0659 1.14741 10.6567 6.88448C10.6567 6.88448 11.3358 5.05634 12.7309 4.87598C12.7309 4.87598 12.3025 5.87953 12.7309 7.38695C12.7309 7.38695 17.1297 15.1311 9.54864 17.7488C9.54864 17.7488 9.28474 18 5.18483 18Z" fill="#FFDE3C"/>
<path d="M5.18483 18C5.18483 18 -2.5761 16.2441 0.892411 7.52942C0.892411 7.52942 1.67991 8.49788 1.57141 8.96386C1.57141 8.96386 2.18882 6.76377 3.52162 5.45004C4.66542 4.32087 5.82813 1.14741 4.75573 0C4.75573 0 10.0659 1.14741 10.6567 6.88448C10.6567 6.88448 11.3358 5.05634 12.7309 4.87598C12.7309 4.87598 12.3025 5.87953 12.7309 7.38695C12.7309 7.38695 17.1297 15.1311 9.54864 17.7488C9.54864 17.7488 12.4586 13.5465 6.99993 9.12316C6.99993 9.12316 5.43473 12.0559 4.75573 12.9156C4.75363 12.9177 3.28922 16.0273 5.18483 18Z" fill="#FF6C08"/>
</svg>
