<?xml version="1.0" encoding="UTF-8"?>
<svg width="22px" height="22px" viewBox="0 0 22 22" version="1.1" xmlns="http://www.w3.org/2000/svg" xmlns:xlink="http://www.w3.org/1999/xlink">
    <title>治理</title>
    <defs>
        <path d="M5.03980017,8.34000733 L11.0557,5.04749991 C12.2486919,4.39457433 13.6916999,4.39252785 14.886539,5.04206701 L20.9552197,8.34112682 C21.5991274,8.69116832 22,9.36536832 22,10.0982709 L22,18.9234286 C21.999012,19.801635 21.4252432,20.5764546 20.5855578,20.833701 C18.0327217,21.6112337 15.4940817,22 12.9696378,22 C10.4510341,22 7.93266013,21.6130304 5.41451595,20.8390912 C4.57444881,20.5825092 4.00070809,19.8073987 4,18.9290217 L4,10.094435 C4,9.36356575 4.3986716,8.69089758 5.03980017,8.34000733 Z" id="path-1"></path>
        <filter x="-13.9%" y="-13.9%" width="138.9%" height="138.9%" filterUnits="objectBoundingBox" id="filter-2">
            <feOffset dx="1" dy="1" in="SourceAlpha" result="shadowOffsetOuter1"></feOffset>
            <feGaussianBlur stdDeviation="1" in="shadowOffsetOuter1" result="shadowBlurOuter1"></feGaussianBlur>
            <feComposite in="shadowBlurOuter1" in2="SourceAlpha" operator="out" result="shadowBlurOuter1"></feComposite>
            <feColorMatrix values="0 0 0 0 0.118805823   0 0 0 0 0.118805823   0 0 0 0 0.162279212  0 0 0 0.197392817 0" type="matrix" in="shadowBlurOuter1"></feColorMatrix>
        </filter>
        <linearGradient x1="50%" y1="0%" x2="50%" y2="100%" id="linearGradient-3">
            <stop stop-color="#4504FE" offset="0%"></stop>
            <stop stop-color="#E64DFF" offset="100%"></stop>
        </linearGradient>
        <path d="M10.2573593,11.5073593 C10.2573593,14.8210678 12.9436508,17.5073593 16.2573593,17.5073593" id="path-4"></path>
    </defs>
    <g id="页面-1" stroke="none" stroke-width="1" fill="none" fill-rule="evenodd">
        <g id="M-首页-侧边菜单-展开" transform="translate(-20.000000, -118.000000)">
            <g id="编组-7备份-4" transform="translate(20.000000, 118.000000)">
                <path d="M1.03980017,4.34000733 L7.05569995,1.04749991 C8.24869192,0.394574327 9.69169992,0.392527849 10.886539,1.04206701 L16.9552197,4.34112682 C17.5991274,4.69116832 18,5.36536832 18,6.0982709 L18,14.9234286 C17.999012,15.801635 17.4252432,16.5764546 16.5855578,16.833701 C14.0327217,17.6112337 11.4940817,18 8.96963778,18 C6.45103407,18 3.93266013,17.6130304 1.41451595,16.8390912 C0.574448807,16.5825092 0.000708088067,15.8073987 0,14.9290217 L0,6.09443495 C-1.08021061e-15,5.36356575 0.398671604,4.69089758 1.03980017,4.34000733 Z" id="矩形" fill="#8B5AEA"></path>
                <g id="矩形">
                    <use fill="black" fill-opacity="1" filter="url(#filter-2)" xlink:href="#path-1"></use>
                    <path stroke-opacity="0.295454545" stroke="#FFFFFF" stroke-width="1" d="M11.2957499,5.48610682 C12.3396179,4.91479693 13.6022499,4.91300626 14.6477341,5.48135303 L14.6477341,5.48135303 L20.7164148,8.78041284 C20.9578802,8.9116784 21.1537765,9.10372368 21.2893064,9.33166219 C21.4248364,9.5596007 21.5,9.82343243 21.5,10.0982709 L21.5,10.0982709 L21.5000003,18.9228661 C21.4996298,19.2521937 21.3918625,19.5621355 21.2054716,19.8138653 C21.0190611,20.0656217 20.7540113,20.2591555 20.4398771,20.3553945 C17.9358728,21.1180542 15.4458525,21.5 12.9696378,21.5 C10.4999527,21.5 8.03059214,21.1200469 5.56057044,20.3608987 C5.24568933,20.2647244 4.98072014,20.0713765 4.79439049,19.8197691 C4.60797304,19.5680432 4.50026537,19.2580102 4.5,18.9290217 L4.5,18.9290217 L4.5,10.094435 C4.5,9.820359 4.57475093,9.55719574 4.70960765,9.32965551 C4.84446438,9.10211528 5.03942691,8.91019808 5.27985013,8.77861424 L5.27985013,8.77861424 Z" stroke-linejoin="square" fill-opacity="0.3" fill="#8B5AEA" fill-rule="evenodd"></path>
                </g>
                <g id="路径" transform="translate(13.257359, 14.507359) rotate(-45.000000) translate(-13.257359, -14.507359) " stroke-width="2">
                    <path stroke="url(#linearGradient-3)" d="M10.2573593,11.5073593 C10.2573593,14.8210678 12.9436508,17.5073593 16.2573593,17.5073593" stroke-linejoin="square"></path>
                    <use stroke="#FFFFFF" xlink:href="#path-4"></use>
                </g>
            </g>
        </g>
    </g>
</svg>