<svg width="27" height="11" viewBox="0 0 27 11" fill="none" xmlns="http://www.w3.org/2000/svg">
<path d="M0 6C0 2.68629 2.68629 0 6 0H21.5C24.5376 0 27 2.46243 27 5.5C27 8.53757 24.5376 11 21.5 11H0V6Z" fill="#FB3C00"/>
<path d="M10.2383 8H9.06641V5.5625H6.78125V8H5.60938V2.3125H6.78125V4.61719H9.06641V2.3125H10.2383V8ZM15.9375 5.28516C15.9375 5.84505 15.8385 6.33594 15.6406 6.75781C15.4427 7.17969 15.1589 7.50521 14.7891 7.73438C14.4219 7.96354 14 8.07812 13.5234 8.07812C13.0521 8.07812 12.6315 7.96484 12.2617 7.73828C11.8919 7.51172 11.6055 7.1888 11.4023 6.76953C11.1992 6.34766 11.0964 5.86328 11.0938 5.31641V5.03516C11.0938 4.47526 11.194 3.98307 11.3945 3.55859C11.5977 3.13151 11.8828 2.80469 12.25 2.57812C12.6198 2.34896 13.0417 2.23438 13.5156 2.23438C13.9896 2.23438 14.4102 2.34896 14.7773 2.57812C15.1471 2.80469 15.4323 3.13151 15.6328 3.55859C15.8359 3.98307 15.9375 4.47396 15.9375 5.03125V5.28516ZM14.75 5.02734C14.75 4.43099 14.6432 3.97786 14.4297 3.66797C14.2161 3.35807 13.9115 3.20312 13.5156 3.20312C13.1224 3.20312 12.819 3.35677 12.6055 3.66406C12.3919 3.96875 12.2839 4.41667 12.2812 5.00781V5.28516C12.2812 5.86589 12.388 6.31641 12.6016 6.63672C12.8151 6.95703 13.1224 7.11719 13.5234 7.11719C13.9167 7.11719 14.2188 6.96354 14.4297 6.65625C14.6406 6.34635 14.7474 5.89583 14.75 5.30469V5.02734ZM20.7344 3.26172H18.9922V8H17.8203V3.26172H16.1016V2.3125H20.7344V3.26172Z" fill="white"/>
</svg>
