<svg width="16" height="16" viewBox="0 0 16 16" fill="none" xmlns="http://www.w3.org/2000/svg">
<path d="M11.6316 14H4.36842C3.74053 13.9992 3.1386 13.7494 2.69462 13.3054C2.25063 12.8614 2.00084 12.2595 2 11.6316V4.36842C2.00084 3.74053 2.25063 3.1386 2.69462 2.69462C3.1386 2.25063 3.74053 2.00084 4.36842 2H8C8.12563 2 8.24611 2.04991 8.33495 2.13874C8.42378 2.22757 8.47368 2.34806 8.47368 2.47368C8.47368 2.59931 8.42378 2.7198 8.33495 2.80863C8.24611 2.89746 8.12563 2.94737 8 2.94737H4.36842C3.99179 2.9482 3.63082 3.09819 3.36451 3.36451C3.09819 3.63082 2.9482 3.99179 2.94737 4.36842V11.6316C2.9482 12.0082 3.09819 12.3692 3.36451 12.6355C3.63082 12.9018 3.99179 13.0518 4.36842 13.0526H11.6316C12.0082 13.0518 12.3692 12.9018 12.6355 12.6355C12.9018 12.3692 13.0518 12.0082 13.0526 11.6316V8C13.0526 7.87437 13.1025 7.75389 13.1914 7.66505C13.2802 7.57622 13.4007 7.52632 13.5263 7.52632C13.6519 7.52632 13.7724 7.57622 13.8613 7.66505C13.9501 7.75389 14 7.87437 14 8V11.6316C13.9992 12.2595 13.7494 12.8614 13.3054 13.3054C12.8614 13.7494 12.2595 13.9992 11.6316 14Z" fill="#998FDF"/>
<path d="M7.50178 9C7.36907 8.99952 7.2419 8.94673 7.14786 8.85307C7.10102 8.80679 7.06383 8.75168 7.03845 8.69092C7.01307 8.63015 7 8.56496 7 8.49911C7 8.43326 7.01307 8.36806 7.03845 8.3073C7.06383 8.24654 7.10102 8.19142 7.14786 8.14514L13.1578 2.13443C13.2527 2.04596 13.3783 1.99779 13.508 2.00008C13.6378 2.00237 13.7616 2.05494 13.8533 2.14671C13.9451 2.23848 13.9976 2.36229 13.9999 2.49206C14.0022 2.62182 13.9541 2.74741 13.8656 2.84236L7.85569 8.85307C7.76166 8.94673 7.63449 8.99952 7.50178 9Z" fill="#998FDF"/>
<path d="M13.5909 3H11.4091C11.3006 3 11.1965 2.94732 11.1198 2.85355C11.0431 2.75979 11 2.63261 11 2.5C11 2.36739 11.0431 2.24021 11.1198 2.14645C11.1965 2.05268 11.3006 2 11.4091 2H13.5909C13.6994 2 13.8035 2.05268 13.8802 2.14645C13.9569 2.24021 14 2.36739 14 2.5C14 2.63261 13.9569 2.75979 13.8802 2.85355C13.8035 2.94732 13.6994 3 13.5909 3Z" fill="#998FDF"/>
<path d="M13.5 5C13.3674 5 13.2402 4.9569 13.1464 4.88018C13.0527 4.80346 13 4.69941 13 4.59091V2.40909C13 2.30059 13.0527 2.19654 13.1464 2.11982C13.2402 2.0431 13.3674 2 13.5 2C13.6326 2 13.7598 2.0431 13.8536 2.11982C13.9473 2.19654 14 2.30059 14 2.40909V4.59091C14 4.69941 13.9473 4.80346 13.8536 4.88018C13.7598 4.9569 13.6326 5 13.5 5Z" fill="#998FDF"/>
</svg>
