<?xml version="1.0" encoding="UTF-8"?>
<svg width="16px" height="16px" viewBox="0 0 16 16" version="1.1" xmlns="http://www.w3.org/2000/svg" xmlns:xlink="http://www.w3.org/1999/xlink">
    <title>a-daodanhuojian</title>
    <defs>
        <linearGradient x1="8.26997356%" y1="95.8176229%" x2="63.8618955%" y2="24.1214538%" id="linearGradient-1">
            <stop stop-color="#FFBC00" stop-opacity="0" offset="0%"></stop>
            <stop stop-color="#FF8700" offset="100%"></stop>
        </linearGradient>
        <linearGradient x1="77.7709601%" y1="10.9339795%" x2="16.7524826%" y2="88.6688358%" id="linearGradient-2">
            <stop stop-color="#FFD300" offset="0%"></stop>
            <stop stop-color="#FF8700" stop-opacity="0" offset="100%"></stop>
        </linearGradient>
    </defs>
    <g id="页面-1" stroke="none" stroke-width="1" fill="none" fill-rule="evenodd">
        <g id="SunBoost" transform="translate(-977.000000, -50.000000)" fill-rule="nonzero">
            <g id="顶部导航" transform="translate(360.000000, 40.000000)">
                <g id="a-daodanhuojian" transform="translate(617.000000, 10.000000)">
                    <path d="M2.64230725,9.48404431 C1.41092914,10.7021042 -0.556146363,14.9763239 0.148325435,15.6731594 C1.19021302,16.7036283 4.69527041,15.1081015 6.27778153,13.5183915 C7.73587272,12.0536728 8.29028238,9.79808077 7.24880837,8.9924578 C4.72201554,7.03767603 2.64230727,9.48404431 2.64230725,9.48404431 Z" id="路径" fill="url(#linearGradient-1)"></path>
                    <path d="M5.63610561,10.0301285 C6.22015547,10.5864612 5.97986303,11.8258492 5.09934222,12.7985659 C4.2188214,13.7709363 3.03135215,14.1085861 2.4470955,13.5518379 C1.86304564,12.9956437 2.10333807,11.7562557 2.98385889,10.7838852 C3.86444864,9.81137626 5.05184895,9.47428044 5.63610561,10.0301285 L5.63610561,10.0301285 Z" id="路径" fill="url(#linearGradient-2)"></path>
                    <path d="M9.64601148,9.47282626 L9.79476393,9.56063182 C9.79476393,9.56063182 10.4328555,11.8088836 9.9666771,12.7059823 C9.42936226,13.7391518 7.51260617,15.0812336 6.67895823,15.371449 C6.0183953,15.6017654 7.26969437,13.0180105 6.69274438,11.2935453 L9.64601148,9.47282626 L9.64601148,9.47282626 Z" id="路径" fill="#8C51FF"></path>
                    <path d="M10.0713828,10.9074224 C10.0713828,10.9074224 8.77569239,12.194591 6.82605635,12.9005671 C6.82605635,12.9005671 6.8634168,12.4493518 6.84473659,12.1893975 C6.82605635,11.9294431 6.84473659,12.0734775 6.84473659,12.0734775 L10.0713828,10.9074224 Z" id="路径" fill="#5A14E1"></path>
                    <path d="M5.62990184,5.64262011 L5.70414022,5.46659351 C5.70414022,5.46659351 3.41440007,5.13427577 2.53105309,5.72530137 C1.64749932,6.31639624 -1.18968847,9.40420218 1.09274501,9.13275281 C3.37538529,8.86130343 3.89801789,8.83616666 3.89801791,8.83616666 L5.62990184,5.64262011 L5.62990184,5.64262011 Z" id="路径" fill="#C1A0FF"></path>
                    <path d="M6.22036227,12.330108 C6.22036227,12.330108 10.3864651,11.6488531 13.7701355,8.11170151 C16.5228832,5.23406109 16.0613921,1.85479332 15.7935963,0.694693449 C15.7935963,0.694693449 15.6692453,0.207538767 15.1121474,0.120287175 C6.53696098,-1.2249107 3.41826019,9.16176743 3.41826019,9.16176743 C3.41826019,9.16176743 3.1385394,10.4475511 4.10660221,11.4201293 C5.27380582,12.5926244 6.22036225,12.330108 6.22036227,12.330108 Z" id="路径" fill="#8C51FF"></path>
                    <path d="M7.02698936,12.1402319 C3.43052986,11.7172002 3.65338282,8.49173064 3.65338282,8.49173064 L3.65331389,8.49173064 C3.4937393,8.9106075 3.41826019,9.16176743 3.41826019,9.16176743 C3.41826019,9.16176743 3.1385394,10.4475511 4.10660221,11.4201293 C5.27380582,12.5926244 6.22036225,12.3302465 6.22036227,12.3302464 C6.22036228,12.3302464 6.52138266,12.2808731 7.02698936,12.1402319 Z" id="路径" fill="#5A14E1"></path>
                    <path d="M15.1121474,0.120217925 C6.53696098,-1.2249107 3.41826019,9.16176743 3.41826019,9.16176743 C3.41826019,9.16176743 3.1385394,10.4475511 4.10660221,11.4201293 C4.18591064,11.4997195 4.26822845,11.5762247 4.35337414,11.6494763 C5.20386449,11.9039948 5.72674949,11.9731382 6.41026635,11.7130454 C11.6443815,9.7210778 16.1762307,3.63735708 15.5214579,0.295898308 C15.421922,0.21605619 15.2890925,0.147916841 15.1121474,0.120217925 Z" id="路径" fill="#C1A0FF"></path>
                    <path d="M8.11209651,3.31501093 C6.79048811,4.62385396 5.9883415,6.26847712 6.36966617,6.61339787 C6.70170538,7.00935389 7.95927715,5.84482219 9.25283074,4.51167335 C10.5510027,3.17520064 11.0179393,2.53833331 10.6714246,2.18745729 C10.3434523,1.82654042 9.41978091,1.98414724 8.11209651,3.31501093 Z" id="路径" fill="#FFFFFF"></path>
                    <path d="M7.61917304,8.00000563 C7.61917304,8.00000563 6.36684,10.5760741 4.57857074,11.829727 C4.57857074,11.829727 4.18918118,11.5887465 4.04160056,11.365424 L7.61917304,8.00000563 Z" id="路径" fill="#3F3F3F"></path>
                    <path d="M7.55865188,7.85091621 C7.76117028,8.05228733 7.49240947,8.65522349 6.27047488,9.89599645 C5.04847135,11.1367694 3.89374419,11.9793704 3.69122579,11.7779993 C3.48863845,11.5766282 4.31497972,10.4076647 5.53691432,9.16689172 C6.75891784,7.92611877 7.35606453,7.64968358 7.55865188,7.85091621 Z" id="路径" fill="#BDE8FF"></path>
                    <path d="M7.55865188,7.85091621 C7.76117028,8.05228733 7.49240947,8.65522349 6.27047488,9.89599645 C5.04847135,11.1367694 3.89374419,11.9793704 3.69122579,11.7779993 C3.48863845,11.5766282 4.31497972,10.4076647 5.53691432,9.16689172 C6.75891784,7.92611877 7.35606453,7.64968358 7.55865188,7.85091621 Z" id="路径" fill="#8C51FF"></path>
                    <path d="M15.1123542,0.120217925 C13.2883099,-0.165911888 11.7113132,0.0790157925 10.3585482,0.641580781 C11.0781847,3.00928414 13.0812421,4.81400703 15.5533039,5.23786971 C16.2430245,3.27034644 15.9744016,1.47732633 15.7937342,0.694624199 C15.7938031,0.694624199 15.6694521,0.20753875 15.1123542,0.120217925 L15.1123542,0.120217925 Z" id="路径" fill="#722FFF"></path>
                </g>
            </g>
        </g>
    </g>
</svg>