<?xml version="1.0" encoding="UTF-8"?>
<svg width="12px" height="13px" viewBox="0 0 12 13" version="1.1" xmlns="http://www.w3.org/2000/svg" xmlns:xlink="http://www.w3.org/1999/xlink">
    <title>tian</title>
    <defs>
        <linearGradient x1="35.6558872%" y1="6.38888889%" x2="50%" y2="100%" id="linearGradient-1">
            <stop stop-color="#FFFFFF" stop-opacity="0.500191215" offset="0%"></stop>
            <stop stop-color="#FFFFFF" stop-opacity="0.699683129" offset="100%"></stop>
        </linearGradient>
        <linearGradient x1="35.6558872%" y1="6.38888889%" x2="50%" y2="100%" id="linearGradient-2">
            <stop stop-color="#C1A0FF" stop-opacity="0.500191215" offset="0%"></stop>
            <stop stop-color="#C1A0FF" stop-opacity="0.699683129" offset="100%"></stop>
        </linearGradient>
    </defs>
    <g id="页面-1" stroke="none" stroke-width="1" fill="none" fill-rule="evenodd">
        <g id="DAO提案-暗色" transform="translate(-825.000000, -698.000000)" fill="url(#linearGradient-2)" fill-rule="nonzero">
            <g id="编组-9" transform="translate(360.000000, 661.000000)">
                <g id="编组-4" transform="translate(465.000000, 35.000000)">
                    <g id="tian" transform="translate(0.000000, 2.680000)">
                        <path d="M6.1399137,0.00109329196 C3.92025179,-0.0499989317 2.07347077,1.69595916 2,3.91499306 C2.04134401,5.90777443 3.80204765,6.72032207 4.05838053,8.81673909 C4.08625171,9.09099245 4.31633313,9.30015737 4.59199391,9.30184216 L7.73854882,9.30184216 C8.01509835,9.29984253 8.24567259,9.08971096 8.27326471,8.81453408 C8.52188004,6.75725606 10.2792762,5.67238919 10.2792762,3.91499306 C10.2061007,1.69604603 8.35947912,-0.0499938464 6.1399137,0.00109329196 Z M5.84885187,1.88858523 C4.81204274,1.87199333 3.95727165,2.69742558 3.93765602,3.73418191 C3.93765602,3.95216732 3.76094393,4.12887941 3.54295852,4.12887941 C3.32497311,4.12887941 3.14826102,3.95216732 3.14826102,3.73418191 C3.17572317,2.268864 4.38402382,1.1022374 5.84940311,1.12620165 C5.99037527,1.11851316 6.12406633,1.18931388 6.19692432,1.31024352 C6.26978231,1.43117315 6.26989178,1.58245445 6.19720887,1.70348939 C6.12452597,1.82452434 5.99093751,1.89551846 5.84995437,1.88803399 L5.84885187,1.88858523 Z M7.93865384,9.82663548 L4.30589335,9.82663548 C4.27672161,9.82463749 4.24836804,9.83678572 4.229692,9.85928435 C4.21101595,9.88178297 4.20429494,9.91188833 4.211629,9.9401937 C4.23893298,10.067371 4.27578769,10.1923085 4.3218797,10.3139436 C4.34304207,10.3770151 4.40759336,10.4147093 4.47292315,10.4021441 L7.76556024,10.4021441 C7.82602696,10.4071711 7.8834559,10.3748536 7.91053992,10.3205586 C7.96222542,10.2114907 8.00571111,10.0987227 8.04063574,9.98319147 C8.05937836,9.92971988 8.0814285,9.82443046 7.9403076,9.82443046 L7.93865384,9.82663548 Z M7.5527764,10.9440263 L4.67082316,10.9440263 C4.62746327,10.9467106 4.58881361,10.9722813 4.56938536,11.0111378 C4.5499571,11.0499943 4.55269032,11.0962565 4.57655881,11.132555 C4.68128983,11.2718836 4.7978533,11.4019108 4.92495101,11.5211887 C5.559455,12.1437171 6.56999872,12.1613907 7.22588308,11.5614302 C7.36717474,11.4248898 7.49956357,11.2794278 7.62223434,11.12594 C7.65420705,11.0741221 7.68342348,10.9418213 7.55167389,10.9418213 L7.5527764,10.9440263 Z" id="形状"></path>
                    </g>
                </g>
            </g>
        </g>
    </g>
</svg>