<?xml version="1.0" encoding="UTF-8"?>
<svg width="28px" height="28px" viewBox="0 0 28 28" version="1.1" xmlns="http://www.w3.org/2000/svg" xmlns:xlink="http://www.w3.org/1999/xlink">
    <title>查看通证备份</title>
    <g id="页面-1" stroke="none" stroke-width="1" fill="none" fill-rule="evenodd">
        <g id="M-PSM" transform="translate(-102.000000, -951.000000)" stroke="#FFFFFF">
            <g id="查看通证备份" transform="translate(102.000000, 951.000000)">
                <circle id="椭圆形" stroke-opacity="0.0966540783" cx="14" cy="14" r="13.5"></circle>
                <g id="编组-2" transform="translate(7.000000, 7.000000)">
                    <path d="M13,8.2 L13,11.4 C13,12.2836556 12.2836556,13 11.4,13 L2.6,13 C1.7163444,13 1,12.2836556 1,11.4 L1,2.6 C1,1.7163444 1.7163444,1 2.6,1 L5.8,1" id="路径" stroke-width="1.5" stroke-linecap="round"></path>
                    <rect id="矩形" transform="translate(8.565864, 5.414214) rotate(-315.000000) translate(-8.565864, -5.414214) " x="8.31586399" y="0.914213562" width="1" height="9" rx="0.5"></rect>
                    <path d="M9,1 L11.6666667,1 C12.4030463,1 13,1.59695367 13,2.33333333 L13,5" id="路径" stroke-width="1.5" stroke-linecap="round"></path>
                </g>
            </g>
        </g>
    </g>
</svg>