<?xml version="1.0" encoding="UTF-8"?>
<svg width="20px" height="20px" viewBox="0 0 20 20" version="1.1" xmlns="http://www.w3.org/2000/svg"
    xmlns:xlink="http://www.w3.org/1999/xlink">
    <title>qizi</title>
    <g id="页面-1" stroke="none" stroke-width="1" fill="none" fill-rule="evenodd" opacity="0.9">
        <g id="pump投票中" transform="translate(-1510.000000, -1001.000000)" fill="rgb(153, 153, 153)" fill-rule="nonzero">
            <g id="编组-2" transform="translate(360.000000, 646.000000)">
                <g id="qizi备份-3" transform="translate(1150.000000, 355.000000)">
                    <path
                        d="M3.18084114,2.0250468e-13 C3.51599705,2.0250468e-13 3.78863309,0.267918728 3.79635795,0.601323666 L3.79652275,0.615867001 L3.79650215,0.852721495 L17.5541886,0.852721495 C18.0202757,0.852721495 18.399041,1.22691369 18.4066835,1.69137344 L18.4066835,1.70546359 C18.4066835,1.90128921 18.339285,2.09114836 18.215828,2.24315501 L15.5996549,6.46446264 C15.5289833,6.55149445 15.5289833,6.676146 15.5996549,6.76317781 L18.215828,10.9845266 C18.5126892,11.3500464 18.457132,11.8870992 18.0917152,12.1840428 C17.9397831,12.3075236 17.7499713,12.3749332 17.5541886,12.3749395 L3.79650215,12.3749395 L3.79650215,18.049536 L4.7563005,18.049536 C5.09631791,18.049536 5.3719821,18.3252826 5.3719821,18.665403 C5.3719821,19.0006825 5.10414577,19.2733803 4.77084383,19.28127 L4.7563005,19.28127 L1.6156816,19.28127 C1.27562299,19.28127 1,19.0055234 1,18.6653824 C1,18.3301235 1.26781573,18.0574051 1.60113827,18.0497008 L1.61566101,18.0495154 L2.56515954,18.0495154 L2.56515954,0.615846402 C2.56515954,0.275746586 2.84082373,2.0250468e-13 3.18084114,2.0250468e-13 Z"
                        id="路径"></path>
                </g>
            </g>
        </g>
    </g>
</svg>