<?xml version="1.0" encoding="UTF-8"?>
<svg width="17px" height="16px" viewBox="0 0 17 16" version="1.1" xmlns="http://www.w3.org/2000/svg"
    xmlns:xlink="http://www.w3.org/1999/xlink">
    <title>编组 27</title>
    <g id="页面-1" stroke="none" stroke-width="1" fill="none" fill-rule="evenodd">
        <g id="浅色-首页-已输入" transform="translate(-867.000000, -182.000000)" stroke="#333333" stroke-width="1.5">
            <g id="兑换" transform="translate(360.000000, 152.000000)">
                <g id="设置" transform="translate(502.000000, 24.000000)">
                    <g id="编组-27" transform="translate(5.937488, 6.000000)">
                        <path
                            d="M10.0426069,1.28398706 C11.1224444,1.60185189 12.093775,2.1730649 12.8878145,2.9288421 C12.1171005,3.53409577 11.8891039,4.62785201 12.3926388,5.5 C12.896615,6.37291231 13.9592531,6.72218736 14.868179,6.35694505 C14.9953464,6.88377189 15.0625118,7.43404228 15.0625118,8 C15.0625118,8.56595772 14.9953464,9.11622811 14.8685516,9.64327511 C13.9592531,9.27781264 12.896615,9.62708769 12.3926388,10.5 C11.8891039,11.372148 12.1171005,12.4659042 12.8862493,13.0707641 C12.093775,13.8269351 11.1224444,14.3981481 10.0426069,14.7160129 C9.9036697,13.7451026 9.07010475,13 8.06251178,13 C7.0549188,13 6.22135385,13.7451026 6.08275353,14.7143711 C5.00257911,14.3981481 4.03124859,13.8269351 3.2372091,13.0711579 C4.00792309,12.4659042 4.23591963,11.372148 3.73238476,10.5 C3.2284086,9.62708769 2.16577047,9.27781264 1.2568446,9.64305495 C1.12967719,9.11622811 1.06251178,8.56595772 1.06251178,8 C1.06251178,7.43404228 1.12967719,6.88377189 1.25647195,6.35672489 C2.16577047,6.72218736 3.2284086,6.37291231 3.73238476,5.5 C4.23591963,4.62785201 4.00792309,3.53409577 3.23877426,2.9292359 C4.03124859,2.1730649 5.00257911,1.60185189 6.08241669,1.28398706 C6.22131461,2.25486237 7.05489509,3 8.06251178,3 C9.06666587,3 9.89797781,2.25997479 10.0408266,1.29554534 Z"
                            id="形状结合" stroke-linejoin="round"></path>
                        <circle id="椭圆形" cx="8.06251178" cy="8" r="2"></circle>
                    </g>
                </g>
            </g>
        </g>
    </g>
</svg>