<?xml version="1.0" encoding="UTF-8"?>
<svg width="14px" height="14px" viewBox="0 0 14 14" version="1.1" xmlns="http://www.w3.org/2000/svg"
    xmlns:xlink="http://www.w3.org/1999/xlink">
    <title>关闭</title>
    <g id="页面-1" stroke="none" stroke-width="1" fill="none" fill-rule="evenodd">
        <g id="浏览器备份-3" transform="translate(-14.000000, -61.000000)" fill="#333333">
            <g id="关闭" transform="translate(12.000000, 59.000000)">
                <path
                    d="M9,2.63603897 C9.43933983,2.63603897 9.79549513,2.99219427 9.79549513,3.4315341 L9.79503897,8.20403897 L14.5684659,8.20450487 C15.0078057,8.20450487 15.363961,8.56066017 15.363961,9 C15.363961,9.43933983 15.0078057,9.79549513 14.5684659,9.79549513 L9.79503897,9.79503897 L9.79549513,14.5684659 C9.79549513,15.0078057 9.43933983,15.363961 9,15.363961 C8.56066017,15.363961 8.20450487,15.0078057 8.20450487,14.5684659 L8.20403897,9.79503897 L3.4315341,9.79549513 C2.99219427,9.79549513 2.63603897,9.43933983 2.63603897,9 C2.63603897,8.56066017 2.99219427,8.20450487 3.4315341,8.20450487 L8.20403897,8.20403897 L8.20450487,3.4315341 C8.20450487,2.99219427 8.56066017,2.63603897 9,2.63603897 Z"
                    id="形状结合"
                    transform="translate(9.000000, 9.000000) rotate(-315.000000) translate(-9.000000, -9.000000) ">
                </path>
            </g>
        </g>
    </g>
</svg>