<svg width="300" height="300" xmlns="http://www.w3.org/2000/svg"><path d="m61.43854,94.0038c48.91123,-47.88817 128.21199,-47.88817 177.12321,0l5.88655,5.76342c2.44556,2.39441 2.44556,6.27651 0,8.67092l-20.1367,19.7155c-1.22278,1.19721 -3.2053,1.19721 -4.42808,0l-8.10058,-7.93115c-34.12169,-33.40798 -89.44389,-33.40798 -123.56558,0l-8.67506,8.49361c-1.22278,1.1972 -3.2053,1.1972 -4.42808,0l-20.13669,-19.7155c-2.44556,-2.39441 -2.44556,-6.27652 0,-8.67092l6.46101,-6.32588zm218.7678,40.77375l17.9217,17.54689c2.44554,2.3944 2.44556,6.27648 0.00003,8.67089l-80.81017,79.12114c-2.44555,2.39442 -6.41059,2.39445 -8.85616,0.00006c-0.00001,-0.00001 -0.00003,-0.00002 -0.00004,-0.00003l-57.35414,-56.15458c-0.61139,-0.5986 -1.60265,-0.5986 -2.21404,0c0,0.00001 -0.00001,0.00001 -0.00001,0.00002l-57.35292,56.15453c-2.44554,2.39443 -6.41058,2.39447 -8.85616,0.00008c-0.00002,-0.00001 -0.00003,-0.00002 -0.00005,-0.00004l-80.81242,-79.12219c-2.44556,-2.3944 -2.44556,-6.27651 0,-8.67091l17.92173,-17.54687c2.44556,-2.39441 6.4106,-2.39441 8.85616,0l57.35498,56.15535c0.61139,0.59861 1.60265,0.59861 2.21404,0c0.00001,0 0.00002,-0.00001 0.00003,-0.00002l57.3521,-56.15533c2.4455,-2.39447 6.41054,-2.39456 8.85616,-0.0002c0.00003,0.00003 0.00007,0.00007 0.0001,0.0001l57.3549,56.15543c0.61139,0.5986 1.60265,0.5986 2.21404,0l57.35398,-56.15432c2.44556,-2.39441 6.4106,-2.39441 8.85616,0z" fill="#3b99fc" id="svg_1"/></svg>