<?xml version="1.0" encoding="UTF-8"?>
<svg width="14px" height="14px" viewBox="0 0 14 14" version="1.1" xmlns="http://www.w3.org/2000/svg" xmlns:xlink="http://www.w3.org/1999/xlink">
    <title>形状结合</title>
    <g id="页面-1" stroke="none" stroke-width="1" fill="none" fill-rule="evenodd" opacity="0.300000012">
        <g id="pump投票中" transform="translate(-360.000000, -677.000000)" fill="#FFFFFF">
            <g id="编组-4" transform="translate(360.000000, 674.000000)">
                <path d="M7,3 C10.8659932,3 14,6.13400675 14,10 C14,13.8659932 10.8659932,17 7,17 C3.13400675,17 0,13.8659932 0,10 C0,6.13400675 3.13400675,3 7,3 Z M7,13 C6.44771525,13 6,13.4477153 6,14 C6,14.5522847 6.44771525,15 7,15 C7.55228475,15 8,14.5522847 8,14 C8,13.4477153 7.55228475,13 7,13 Z M7,5 C6.91792113,5 6.83594576,5.00582581 6.75469182,5.01743352 C5.80633203,5.15291348 5.14736274,6.0315392 5.28284271,6.97989899 L5.28284271,6.97989899 L5.85857864,11.0100505 C5.93972561,11.5780793 6.42620429,12 7,12 C7.57379571,12 8.06027439,11.5780793 8.14142136,11.0100505 L8.14142136,11.0100505 L8.71715729,6.97989899 C8.72876499,6.89864505 8.7345908,6.81666968 8.7345908,6.7345908 C8.7345908,5.77660276 7.95798805,5 7,5 Z" id="形状结合"></path>
            </g>
        </g>
    </g>
</svg>