<?xml version="1.0" encoding="UTF-8"?>
<svg width="18px" height="18px" viewBox="0 0 18 18" version="1.1" xmlns="http://www.w3.org/2000/svg" xmlns:xlink="http://www.w3.org/1999/xlink">
    <title>未收藏</title>
    <defs>
        <linearGradient x1="80.3207851%" y1="83.563571%" x2="20.5864579%" y2="17.5587949%" id="linearGradient-1">
            <stop stop-color="#EEE5FF" offset="0%"></stop>
            <stop stop-color="#F6BEFF" offset="100%"></stop>
        </linearGradient>
    </defs>
    <g id="页面-1" stroke="none" stroke-width="1" fill="none" fill-rule="evenodd">
        <g id="V3-浏览器-搜索" transform="translate(-565.000000, -458.000000)" fill="url(#linearGradient-1)" fill-rule="nonzero">
            <g id="编组-10" transform="translate(360.000000, 248.000000)">
                <g id="编组-3备份-3" transform="translate(204.000000, 210.000000)">
                    <path d="M10,15 L5.91561963,17.1472858 C5.42677504,17.4042866 4.82214789,17.2163401 4.56514708,16.7274955 C4.46280801,16.5328351 4.42749334,16.309867 4.46467018,16.0931094 L5.24471742,11.545085 L5.24471742,11.545085 L1.94038429,8.32415622 C1.54490071,7.93865501 1.5368084,7.30554174 1.92230962,6.91005817 C2.07581822,6.75257453 2.27696063,6.65008735 2.49459766,6.61846284 L7.06107374,5.95491503 L7.06107374,5.95491503 L9.10326392,1.81698575 C9.34768622,1.32173209 9.94731205,1.11839309 10.4425657,1.36281539 C10.6397783,1.46014562 10.7994058,1.61977315 10.8967361,1.81698575 L12.9389263,5.95491503 L12.9389263,5.95491503 L17.5054023,6.61846284 C18.0519472,6.69788046 18.4306287,7.20532331 18.351211,7.75186817 C18.3195865,7.96950521 18.2170993,8.17064762 18.0596157,8.32415622 L14.7552826,11.545085 L14.7552826,11.545085 L15.5353298,16.0931094 C15.6286908,16.6374458 15.263103,17.1544017 14.7187666,17.2477627 C14.5020089,17.2849396 14.2790408,17.2496249 14.0843804,17.1472858 L10,15 L10,15 Z" id="星形"></path>
                </g>
            </g>
        </g>
    </g>
</svg>