<?xml version="1.0" encoding="UTF-8"?>
<svg width="18px" height="16px" viewBox="0 0 18 16" version="1.1" xmlns="http://www.w3.org/2000/svg" xmlns:xlink="http://www.w3.org/1999/xlink">
    <title>形状结合</title>
    <g id="页面-1" stroke="none" stroke-width="1" fill="none" fill-rule="evenodd">
        <g id="M-首页-侧边菜单" transform="translate(-341.000000, -62.000000)" fill="#FFFFFF">
            <g id="编组-13" transform="translate(0.000000, 45.000000)">
                <path d="M342,17 L358,17 C358.552285,17 359,17.4477153 359,18 C359,18.5522847 358.552285,19 358,19 L342,19 C341.447715,19 341,18.5522847 341,18 C341,17.4477153 341.447715,17 342,17 Z M342,31 L358,31 C358.552285,31 359,31.4477153 359,32 C359,32.5522847 358.552285,33 358,33 L342,33 C341.447715,33 341,32.5522847 341,32 C341,31.4477153 341.447715,31 342,31 Z M342,24 L352,24 C352.552285,24 353,24.4477153 353,25 C353,25.5522847 352.552285,26 352,26 L342,26 C341.447715,26 341,25.5522847 341,25 C341,24.4477153 341.447715,24 342,24 Z" id="形状结合"></path>
            </g>
        </g>
    </g>
</svg>