<?xml version="1.0" encoding="UTF-8"?>
<svg width="46px" height="46px" viewBox="0 0 46 46" version="1.1" xmlns="http://www.w3.org/2000/svg" xmlns:xlink="http://www.w3.org/1999/xlink">
    <title>dengdai</title>
    <defs>
        <linearGradient x1="73.4053142%" y1="0%" x2="50%" y2="100%" id="linearGradient-1">
            <stop stop-color="#BC77FF" offset="0%"></stop>
            <stop stop-color="#6C43FF" offset="100%"></stop>
        </linearGradient>
    </defs>
    <g id="页面-1" stroke="none" stroke-width="1" fill="none" fill-rule="evenodd">
        <g id="DAO提案-暗色" transform="translate(-1494.000000, -528.000000)" fill="url(#linearGradient-1)" fill-rule="nonzero">
            <g id="编组-6" transform="translate(360.000000, 500.000000)">
                <g id="dengdai" transform="translate(1134.000000, 28.000000)">
                    <path d="M37.9540068,6 C38.5224506,6 38.9848736,6.48998688 38.9848736,7.09246013 C38.9848736,7.69553836 38.5224506,8.18556304 37.9540068,8.18556304 L37.9540068,8.18556304 L35.5328462,8.18556304 L35.5328462,12.3091057 C35.5328462,14.5117591 34.9774849,16.679589 33.9267298,18.5786237 C32.8937079,20.4449901 31.4089633,22.0081915 29.6328507,23.0984965 L29.6328507,23.0984965 L29.1658904,23.385592 L29.6328507,23.6715909 C31.4089255,24.7613287 32.8937079,26.3240764 33.9267298,28.190405 C34.9774849,30.0894019 35.5328462,32.2572696 35.5328462,34.4604146 L35.5328462,34.4604146 L35.5328462,37.8139454 L37.9347234,37.8139454 C38.2072997,37.8139454 38.4644114,37.9258646 38.6587576,38.1287938 C38.8568849,38.3361469 38.9661573,38.6124285 38.9661573,38.9069727 C38.9661573,39.5094838 38.5035075,40 37.9347234,40 L37.9347234,40 L9.03094237,40 C8.46249861,40 8,39.509446 8,38.9064056 C8,38.3039701 8.4624608,37.8139454 9.03094237,37.8139454 L9.03094237,37.8139454 L11.5955183,37.8139454 L11.5955183,34.4604146 C11.5955183,32.2572318 12.1509175,30.0894019 13.2013701,28.1909344 C14.2343542,26.3240764 15.7192122,24.7613287 17.4953248,23.6710616 L17.4953248,23.6710616 L17.9620204,23.3845333 L17.4953248,23.0979671 C15.7191744,22.0077 14.2343542,20.4444229 13.2013701,18.5780943 C12.1508797,16.6796268 11.5955183,14.5117591 11.5955183,12.3091057 L11.5955183,12.3091057 L11.5955183,8.18556304 L9.05018794,8.18556304 C8.48140388,8.18556304 8.01898089,7.6949712 8.01898089,7.09246013 C8.01898089,6.49002469 8.48140388,6 9.05018794,6 L9.05018794,6 Z M33.4709237,8.18556304 L13.6576299,8.18556304 L13.6576299,12.3091057 C13.6576299,17.0475234 16.7349169,21.1658482 21.1412824,22.3236071 C21.2702774,22.3577801 21.3911681,22.4173193 21.4968906,22.4987456 C21.4976468,22.4991993 21.5008229,22.5019595 21.5043393,22.504644 C21.5089144,22.5079335 21.5466493,22.5394675 21.5466493,22.5394675 L21.5466493,22.5394675 L21.5566313,22.5480505 C21.7231868,22.6947176 21.8396432,22.8912947 21.8937123,23.1151331 C21.9518271,23.3560997 21.9320144,23.6040991 21.8359,23.8306221 L21.8359,23.8306221 L21.8313249,23.8413225 C21.8275439,23.8494139 21.8241031,23.8579591 21.8200952,23.865975 L21.8200952,23.865975 L21.8101888,23.8868464 C21.8058784,23.8959209 21.8023999,23.9029159 21.7986566,23.9099108 L21.7986566,23.9099108 C21.7922666,23.9221614 21.7884856,23.9291564 21.7844398,23.9361135 L21.7844398,23.9361135 L21.7767643,23.950595 C21.7598606,23.9801396 21.7416299,24.008905 21.7221281,24.036803 L21.7221281,24.036803 L21.6921443,24.0769578 C21.6789106,24.0935188 21.6703654,24.1047486 21.6612531,24.1154489 L21.6612531,24.1154489 L21.6535775,24.1240319 L21.6535775,24.1240319 L21.6259758,24.1545451 C21.6245769,24.1561709 21.6214008,24.1593848 21.6178844,24.1631659 L21.5996597,24.1819199 L21.5825693,24.195267 L21.5717933,24.2086519 C21.5529361,24.2258393 21.5335684,24.2424582 21.5137163,24.2584862 L21.5137163,24.2584862 C21.4950001,24.2723627 21.4828251,24.2820044 21.4708014,24.2905874 L21.4708014,24.2905874 C21.3560765,24.3720067 21.2333062,24.4264727 21.1034341,24.4549877 L21.1034341,24.4549877 L21.0957207,24.4566135 C16.7131759,25.6347902 13.6576299,29.747708 13.6576299,34.4604146 L13.6576299,34.4604146 L13.6576299,37.8139832 L33.4709237,37.8139832 L33.4709237,34.4609439 C33.4709237,29.7214675 30.3940904,25.6032183 25.9890861,24.4465181 C25.9730166,24.4422077 25.9580814,24.4384644 25.9432597,24.4336625 L25.9432597,24.4336625 L25.9245057,24.4272347 C25.9157336,24.4240208 25.9068482,24.4212606 25.8980761,24.4180846 C25.8886613,24.4148707 25.882536,24.4121861 25.8761082,24.4095394 L25.8761082,24.4095394 L25.8594715,24.4030738 C25.7323777,24.3502547 25.6172714,24.2722911 25.5210671,24.1738662 C25.5175508,24.170123 25.5143747,24.1669469 25.5105936,24.1631659 C25.5065479,24.1588555 25.5006873,24.1525033 25.4947888,24.1460377 L25.4947888,24.1460377 L25.4811014,24.1310647 C25.4758457,24.1246369 25.4715353,24.1197972 25.4672249,24.1144281 C25.4589822,24.1047864 25.4527813,24.0972621 25.4468829,24.0897756 L25.4468829,24.0897756 L25.4378083,24.078508 C25.430284,24.068942 25.4235916,24.0597918 25.4168991,24.0506795 L25.4168991,24.0506795 L25.4032117,24.0271613 L25.3940993,24.0180112 C25.3606172,23.9680018 25.3312673,23.9153464 25.3063411,23.860568 L25.3063411,23.860568 C25.298363,23.8423812 25.2924268,23.8290719 25.2870577,23.815082 L25.2830498,23.8054781 C25.2779831,23.7926225 25.2731434,23.7802584 25.268833,23.7669113 L25.268833,23.7669113 C25.2600231,23.7427504 25.256053,23.7288739 25.2517804,23.7149218 L25.2531038,23.7197616 L25.2490959,23.7064144 C25.2448233,23.691933 25.2393786,23.6732546 25.2346144,23.6533663 C25.2332911,23.6474678 25.2319299,23.6399057 25.2303419,23.6329864 L25.2303419,23.6329864 L25.2273548,23.6168791 C25.2260314,23.6110562 25.2247459,23.6062165 25.2239141,23.6013767 L25.2239141,23.6013767 L25.2175241,23.5639443 C25.2170325,23.5601254 25.2158982,23.5547942 25.215142,23.5494629 C25.2132515,23.5360779 25.2116256,23.522693 25.2102645,23.5093081 L25.2102645,23.5093081 L25.2083739,23.4937301 C25.1566869,22.9565935 25.4898356,22.4553769 25.9857588,22.3257623 C30.3932208,21.1663397 33.4709237,17.0470319 33.4709237,12.3091057 L33.4709237,12.3091057 L33.4709237,8.18556304 Z M30.5344432,18.0457218 C28.5237917,20.7914103 25.6854296,21.550268 25.6557483,21.5577167 L25.6557483,21.5577167 L25.64743,21.5599097 L25.4713613,21.625432 L25.4713613,21.625432 L25.3087231,21.7007162 L25.2867174,21.6879362 L25.1582371,21.7859411 C24.7423967,22.0450946 24.4767777,22.4237673 24.3690932,22.9115989 C24.2874602,23.185801 24.2750962,23.4648051 24.3324548,23.7405574 C24.3348784,23.7636373 24.3375505,23.7866905 24.3404706,23.8097129 L24.3404706,23.8097129 L24.3496208,23.8819688 L24.3787349,23.917851 C24.5145126,24.3441649 24.8189631,24.7575855 25.2848647,25.14745 L25.2848647,25.14745 L25.3266453,25.1822357 L25.379391,25.1967172 C27.266591,25.7199773 28.8099798,26.6662619 29.9662641,28.008801 C30.8933031,29.0851916 31.577674,30.4197527 32.0010387,31.9755054 C32.5986344,34.1722982 32.5006672,36.1933854 32.4465604,36.8472432 L32.4465604,36.8472432 L15.043878,36.8472432 C14.8539557,34.6664821 15.0794956,32.7043037 15.7149018,31.0105047 C16.238162,29.6159761 17.0401237,28.397569 18.0980628,27.390296 C19.8998488,25.6743778 21.8342363,25.1608349 21.8535197,25.1559952 L21.8535197,25.1559952 L21.8617624,25.1538778 C22.124697,25.0659683 22.3453593,24.9492471 22.529837,24.801975 L22.529837,24.801975 L22.579331,24.8763862 L22.7788194,24.5577567 C22.9678722,24.3296457 23.0940081,24.0532884 23.1534463,23.7367763 C23.4704878,22.5564445 22.6551033,21.7815551 22.1779342,21.5357109 L22.1779342,21.5357109 L22.1549454,21.5239519 L22.1300661,21.5169947 C19.944503,20.9113454 18.2305509,19.7443985 17.028289,18.0457218 L17.028289,18.0457218 Z" id="形状结合"></path>
                </g>
            </g>
        </g>
    </g>
</svg>