<?xml version="1.0" encoding="UTF-8"?>
<svg width="46px" height="46px" viewBox="0 0 46 46" version="1.1" xmlns="http://www.w3.org/2000/svg" xmlns:xlink="http://www.w3.org/1999/xlink">
    <title>toupiao-3</title>
    <defs>
        <linearGradient x1="78.1820677%" y1="7.03224169%" x2="50%" y2="92.9677583%" id="linearGradient-1">
            <stop stop-color="#BC77FF" offset="0%"></stop>
            <stop stop-color="#6C43FF" offset="100%"></stop>
        </linearGradient>
    </defs>
    <g id="页面-1" stroke="none" stroke-width="1" fill="none" fill-rule="evenodd">
        <g id="DAO提案-暗色" transform="translate(-1094.000000, -528.000000)" fill="url(#linearGradient-1)" fill-rule="nonzero">
            <g id="编组-6" transform="translate(360.000000, 500.000000)">
                <g id="toupiao-3" transform="translate(734.000000, 28.000000)">
                    <path d="M28.3840355,4.83972805 L28.3840355,4.84136775 L39.9782765,16.4356087 C40.5164672,16.9737445 40.8188241,17.7036461 40.8188241,18.4647239 C40.8188241,19.2258016 40.5164672,19.9557032 39.9782765,20.493839 L26.6705606,33.7999153 L38.4304101,33.801555 C39.1945052,33.801555 40.0143497,34.2606679 40.260303,34.8263606 L42.9329961,40.9751944 C43.1789495,41.5408871 42.6312933,42 41.7081484,42 L3.28367625,42 C2.36053135,42 1.81287521,41.5408871 2.05882856,40.9751944 L4.73152165,34.8263606 C4.977475,34.2606679 5.79731949,33.8015549 6.56141458,33.801555 L16.7635596,33.801555 L8.09452379,25.1308795 C7.55633312,24.5927437 7.25397614,23.8628421 7.25397614,23.1017644 C7.25397614,22.3406866 7.55633312,21.610785 8.09452379,21.0726492 L24.3274449,4.83972805 C25.4478731,3.72009065 27.2636074,3.72009065 28.3840355,4.83972805 Z M35.25,36.4583333 L9.125,36.4583333 C8.68777457,36.4583333 8.33333333,36.8127746 8.33333333,37.25 C8.33333333,37.6872254 8.68777457,38.0416667 9.125,38.0416667 L9.125,38.0416667 L35.25,38.0416667 C35.6872254,38.0416667 36.0416667,37.6872254 36.0416667,37.25 C36.0416667,36.8127746 35.6872254,36.4583333 35.25,36.4583333 L35.25,36.4583333 Z M29.4039221,17.4964875 L29.4022824,17.4948478 L22.154857,24.7422732 L19.5477515,22.133528 C19.2411779,21.8045192 18.7794661,21.6690873 18.343746,21.7803626 C17.9080259,21.8916378 17.567791,22.2318727 17.4565158,22.6675928 C17.3452405,23.103313 17.4806723,23.5650247 17.8096812,23.8715983 L21.2858218,27.3510184 C21.5164704,27.5818149 21.8293859,27.7114875 22.1556769,27.7114875 C22.4819678,27.7114875 22.7948833,27.5818149 23.0255319,27.3510184 L31.1419925,19.2345578 C31.5934955,18.7500138 31.5801732,17.9949369 31.1118581,17.5266218 C30.6435431,17.0583068 29.8884662,17.0449844 29.4039221,17.4964875 Z" id="形状结合"></path>
                </g>
            </g>
        </g>
    </g>
</svg>