<?xml version="1.0" encoding="UTF-8"?>
<svg width="15px" height="17px" viewBox="0 0 15 17" version="1.1" xmlns="http://www.w3.org/2000/svg" xmlns:xlink="http://www.w3.org/1999/xlink">
    <title>huo</title>
    <defs>
        <linearGradient x1="88.9273356%" y1="-4.11060075e-12%" x2="11.0726644%" y2="100%" id="linearGradient-1">
            <stop stop-color="#FF8B2B" offset="0%"></stop>
            <stop stop-color="#D97EFF" offset="100%"></stop>
        </linearGradient>
    </defs>
    <g id="页面-1" stroke="none" stroke-width="1" fill="none" fill-rule="evenodd">
        <g id="首页" transform="translate(-885.000000, -1299.000000)" fill="url(#linearGradient-1)" fill-rule="nonzero">
            <g id="推荐池子" transform="translate(357.000000, 1005.000000)">
                <g id="编组-6备份-2" transform="translate(493.000000, 140.000000)">
                    <g id="huo" transform="translate(35.000000, 154.000000)">
                        <path d="M4.2049973,16.9436215 C5.0049654,17.2053108 5.27160682,16.4856759 4.93828861,16.224008 C3.87167909,15.5043946 3.33837433,14.1960124 3.73836933,13.0184534 C4.13834242,11.7100712 5.20495194,11.186714 5.20495194,9.22412996 C5.20495194,9.22412996 6.53820289,10.2054327 6.27156146,11.7100927 C7.60481241,10.2054542 7.00485277,8.24287019 6.73821135,7.326979 C10.1380265,9.09330679 13.0711917,12.9530633 9.67137657,16.2240295 C9.27140348,16.551109 9.67137657,17.1398992 10.2713581,16.943643 C19.5375037,11.7755043 12.5379088,4.05599126 11.3379676,3.14012157 C11.7379407,4.05599126 11.8046175,5.49521813 11.0046713,6.21485306 C9.60472169,1.04671436 6.2049285,0 6.2049285,0 C6.60490159,2.68219748 4.67169101,5.56067271 2.87176827,7.7849246 C2.80511339,6.67279866 2.73845851,5.95318522 2.20513184,4.97188245 C2.07182208,6.86905491 0.538562678,8.43910495 0.138611497,10.401689 C-0.394693263,13.0184534 0.53858459,14.9156258 4.20506303,16.943643 L4.20506303,16.943643 L4.2049973,16.9436215 Z" id="路径"></path>
                    </g>
                </g>
            </g>
        </g>
    </g>
</svg>