<?xml version="1.0" encoding="UTF-8"?>
<svg width="16px" height="18px" viewBox="0 0 16 18" version="1.1" xmlns="http://www.w3.org/2000/svg" xmlns:xlink="http://www.w3.org/1999/xlink">
    <title>fuzhi-2 2</title>
    <g id="页面-1" stroke="none" stroke-width="1" fill="none" fill-rule="evenodd">
        <g id="浏览器-代币页" transform="translate(-827.000000, -1658.000000)" fill="#722FFF" fill-rule="nonzero">
            <g id="编组-15备份" transform="translate(360.000000, 1583.000000)">
                <g id="fuzhi-2" transform="translate(467.000000, 75.000000)">
                    <path d="M12,2.57142857 L1.53846154,2.57142857 C0.689214415,2.57249125 0.00101726656,3.29141149 0,4.17857143 L0,16.3928571 C0,17.2793571 0.690461538,18 1.53846154,18 L12,18 C12.8486154,18 13.5384615,17.2793571 13.5384615,16.3928571 L13.5384615,4.17857143 C13.5384615,3.29271429 12.8486154,2.57142857 12,2.57142857 Z M12.3076923,16.3928571 C12.3076923,16.5696429 12.1692308,16.7142857 12,16.7142857 L1.53846154,16.7142857 C1.36852777,16.7142857 1.23076923,16.5703772 1.23076923,16.3928571 L1.23076923,4.17857143 C1.23076923,4.00105133 1.36852777,3.85714286 1.53846154,3.85714286 L12,3.85714286 C12.1699338,3.85714286 12.3076923,4.00105133 12.3076923,4.17857143 L12.3076923,16.3928571 Z" id="形状"></path>
                    <path d="M14.4615385,0 L4,0 C3.66013246,0 3.38461538,0.287816947 3.38461538,0.642857143 C3.38461538,0.997897339 3.66013246,1.28571429 4,1.28571429 L14.4615385,1.28571429 C14.6314722,1.28571429 14.7692308,1.42962276 14.7692308,1.60714286 L14.7692308,13.8214286 C14.7692308,14.1764688 15.0447478,14.4642857 15.3846154,14.4642857 C15.7244829,14.4642857 16,14.1764688 16,13.8214286 L16,1.60714286 C16,0.721285714 15.3101538,0 14.4615385,0 Z" id="路径"></path>
                    <path d="M9.84615385,5.94642857 L3.69230769,5.94642857 C3.35244015,5.94642857 3.07692308,6.23424552 3.07692308,6.58928571 C3.07692308,6.94432591 3.35244015,7.23214286 3.69230769,7.23214286 L9.84615385,7.23214286 C10.1860214,7.23214286 10.4615385,6.94432591 10.4615385,6.58928571 C10.4615385,6.23424552 10.1860214,5.94642857 9.84615385,5.94642857 Z M9.84615385,9.16071429 L3.69230769,9.16071429 C3.35244015,9.16071429 3.07692308,9.44853123 3.07692308,9.80357143 C3.07692308,10.1586116 3.35244015,10.4464286 3.69230769,10.4464286 L9.84615385,10.4464286 C10.1860214,10.4464286 10.4615385,10.1586116 10.4615385,9.80357143 C10.4615385,9.44853123 10.1860214,9.16071429 9.84615385,9.16071429 Z M7.38461538,12.348 L3.69230769,12.348 C3.35244015,12.348 3.07692308,12.6358169 3.07692308,12.9908571 C3.07692308,13.3458973 3.35244015,13.6337143 3.69230769,13.6337143 L7.38461538,13.6337143 C7.72448292,13.6337143 8,13.3458973 8,12.9908571 C8,12.6358169 7.72448292,12.348 7.38461538,12.348 Z" id="形状"></path>
                </g>
            </g>
        </g>
    </g>
</svg>