<?xml version="1.0" encoding="UTF-8"?>
<svg width="46px" height="46px" viewBox="0 0 46 46" version="1.1" xmlns="http://www.w3.org/2000/svg" xmlns:xlink="http://www.w3.org/1999/xlink">
    <title>huode</title>
    <defs>
        <linearGradient x1="74.0574284%" y1="0%" x2="50%" y2="100%" id="linearGradient-1">
            <stop stop-color="#BC77FF" offset="0%"></stop>
            <stop stop-color="#6C43FF" offset="100%"></stop>
        </linearGradient>
    </defs>
    <g id="页面-1" stroke="none" stroke-width="1" fill="none" fill-rule="evenodd">
        <g id="DAO提案-暗色" transform="translate(-704.000000, -528.000000)" fill="url(#linearGradient-1)" fill-rule="nonzero">
            <g id="编组-6" transform="translate(360.000000, 500.000000)">
                <g id="huode" transform="translate(344.000000, 28.000000)">
                    <path d="M6.36599871,29.7043629 C6.93390903,30.4608723 11.8208942,36.8381599 12.3198175,37.5094534 C12.8199728,38.1807468 12.8840321,39.0311677 12.164597,39.7702862 C11.4476256,40.5181001 10.325356,41.9389466 9.84244744,42.5389368 C9.35707507,43.1406661 8.69430773,43.2415341 8.05001904,42.3058971 C7.40573036,41.3667819 3.05216201,35.4103571 2.6468638,34.8451489 C2.24033365,34.2764624 1.61082787,33.0712646 2.32287156,32.3495373 C3.15344216,31.4488302 3.97238575,30.5269548 4.77929923,29.5843649 C5.16488693,29.126981 5.80178415,28.9478535 6.36599871,29.706102 L6.36599871,29.7043629 L6.36599871,29.7043629 Z M35.8111007,23.3514227 C36.6204653,22.6314344 38.2786155,22.045357 38.9327594,23.5218547 C39.0707333,23.8348931 38.6001439,24.9913961 37.9435361,25.8018177 C36.5933632,27.459182 30.4350474,35.0607976 28.0451429,35.5755718 C25.6552384,36.0868678 18.7331387,34.9634078 17.4815185,35.3494885 C16.2298984,35.7355692 14.7232731,37.0103311 14.7232731,37.010331 L13.9015894,37.1094599 L7.76175222,29.0608951 L7.6040678,28.156562 C7.6040678,28.156562 11.8171985,22.4749152 14.7023306,22.1879634 C17.5825351,21.9027506 26.1590894,22.7618671 28.0476067,22.8557786 C29.9410517,22.9531683 30.1849698,25.3948677 28.5046452,25.6800805 C26.640766,25.9965971 21.0552881,26.4418072 20.593322,26.6296303 C20.1325879,26.8157142 18.9967673,28.5548164 21.9114653,28.9600272 C24.4886201,29.3200213 28.1079703,29.7078411 29.4458241,29.4591495 C30.7984608,29.2069796 34.5582487,24.4557526 35.8111007,23.3514227 L35.8111007,23.3514227 Z M33.7998281,14.6857679 C33.7998281,14.374268 33.7998281,8.15539599 29.7355681,4.88959204 C28.0168017,3.49031492 25.6723046,2.86855134 23.0149422,3.02306513 C26.7663368,5.20109187 28.172238,7.99964607 28.6415359,10.0206868 C28.7979686,10.6424504 28.7979686,11.4199639 28.7979686,12.1974774 C28.7938017,13.2101163 28.6348943,14.2125912 28.329667,15.1517816 C28.172238,15.4632814 27.860369,15.6190314 27.5475037,15.6190313 L23.3278075,15.6190313 L31.1424657,24.014694 L38.9571238,15.6190313 L34.7374276,15.6190313 C34.111697,15.4632814 33.799828,15.1517815 33.7998281,14.6857679 L33.7998281,14.6857679 Z" id="形状"></path>
                </g>
            </g>
        </g>
    </g>
</svg>