<?xml version="1.0" encoding="UTF-8"?>
<svg width="28px" height="28px" viewBox="0 0 28 28" version="1.1" xmlns="http://www.w3.org/2000/svg" xmlns:xlink="http://www.w3.org/1999/xlink">
    <title>查看通证</title>
    <g id="页面-1" stroke="none" stroke-width="1" fill="none" fill-rule="evenodd">
        <g id="浅色-首页-已输入" transform="translate(-507.000000, -457.000000)" stroke="#333333">
            <g id="兑换" transform="translate(360.000000, 152.000000)">
                <g id="编组-2备份-2" transform="translate(30.000000, 305.000000)">
                    <g id="查看通证" transform="translate(117.000000, 0.000000)">
                        <circle id="椭圆形" stroke-opacity="0.199748006" cx="14" cy="14" r="13.5"></circle>
                        <g id="编组-3" transform="translate(8.500000, 8.500000)">
                            <path d="M4,11 L4,11 L1,11 C0.44771525,11 0,10.5522847 0,10 L0,1 C0,0.44771525 0.44771525,0 1,0 L9,0 C9.55228475,0 10,0.44771525 10,1 L10,4 L10,4" id="路径" stroke-width="1.5" stroke-linecap="round"></path>
                            <circle id="椭圆形" stroke-width="1.5" cx="9" cy="9" r="2.25"></circle>
                            <polyline id="路径" stroke-width="2" fill="#333333" stroke-linecap="round" transform="translate(11.195495, 11.295495) rotate(-45.000000) translate(-11.195495, -11.295495) " points="11.1954951 11.9204951 11.1954951 10.6704951 11.1954951 10.6704951"></polyline>
                            <rect id="矩形" x="2.5" y="3.5" width="5" height="1" rx="0.5"></rect>
                            <rect id="矩形备份-2" x="2.5" y="6.5" width="2" height="1" rx="0.5"></rect>
                        </g>
                    </g>
                </g>
            </g>
        </g>
    </g>
</svg>