<?xml version="1.0" encoding="UTF-8"?>
<svg width="46px" height="46px" viewBox="0 0 46 46" version="1.1" xmlns="http://www.w3.org/2000/svg" xmlns:xlink="http://www.w3.org/1999/xlink">
    <title>转换icon</title>
    <g id="页面-1" stroke="none" stroke-width="1" fill="none" fill-rule="evenodd">
        <g id="浅色-首页-设置-消息" transform="translate(-390.000000, -387.000000)">
            <g id="兑换" transform="translate(360.000000, 152.000000)">
                <g transform="translate(30.000000, 235.000000)" id="转换icon">
                    <g transform="translate(23.000000, 23.000000) rotate(-180.000000) translate(-23.000000, -23.000000) ">
                        <circle id="椭圆形" stroke-opacity="0.2" stroke="#333333" cx="23" cy="23" r="22.5"></circle>
                        <path d="M17.3047901,9.82726677 L17.4142136,9.92893219 L21.6568542,14.1715729 C22.4379028,14.9526215 22.4379028,16.2189514 21.6568542,17 C20.8758057,17.7810486 19.6094757,17.7810486 18.8284271,17 L17.9993593,16.1701458 L18,28 C18,29.1045695 17.1045695,30 16,30 C14.8954305,30 14,29.1045695 14,28 L13.9993593,16.1711458 L13.1715729,17 C12.3905243,17.7810486 11.1241943,17.7810486 10.3431458,17 C9.56209717,16.2189514 9.56209717,14.9526215 10.3431458,14.1715729 L14.5857864,9.92893219 C15.3313328,9.18338581 16.5190467,9.14949734 17.3047901,9.82726677 Z" id="形状结合" fill="#333333"></path>
                        <path d="M31.3047901,16.484121 L31.4142136,16.5857864 L35.6568542,20.8284271 C36.4379028,21.6094757 36.4379028,22.8758057 35.6568542,23.6568542 C34.8758057,24.4379028 33.6094757,24.4379028 32.8284271,23.6568542 L31.9993593,22.827 L32,34.6568542 C32,35.7614237 31.1045695,36.6568542 30,36.6568542 C28.8954305,36.6568542 28,35.7614237 28,34.6568542 L27.9993593,22.828 L27.1715729,23.6568542 C26.3905243,24.4379028 25.1241943,24.4379028 24.3431458,23.6568542 C23.5620972,22.8758057 23.5620972,21.6094757 24.3431458,20.8284271 L28.5857864,16.5857864 C29.3313328,15.8402401 30.5190467,15.8063516 31.3047901,16.484121 Z" id="形状结合备份" fill="#333333" transform="translate(30.000000, 26.328427) rotate(-180.000000) translate(-30.000000, -26.328427) "></path>
                    </g>
                </g>
            </g>
        </g>
    </g>
</svg>