<?xml version="1.0" encoding="UTF-8"?>
<svg width="46px" height="46px" viewBox="0 0 46 46" version="1.1" xmlns="http://www.w3.org/2000/svg" xmlns:xlink="http://www.w3.org/1999/xlink">
    <title>转换icon</title>
    <g id="页面-1" stroke="none" stroke-width="1" fill="none" fill-rule="evenodd">
        <g id="浅色-PSM" transform="translate(-400.000000, -434.000000)">
            <g id="转换icon" transform="translate(423.000000, 457.000000) rotate(-360.000000) translate(-423.000000, -457.000000) translate(400.000000, 434.000000)">
                <circle id="椭圆形" stroke-opacity="0.2" stroke="#333333" cx="23" cy="23" r="22.5"></circle>
                <path d="M23,11 C24.6568542,11 26,12.3431458 26,14 L25.9995051,22 L29.8994949,22 C31.5563492,22 32.8994949,23.3431458 32.8994949,25 C32.8994949,25.7956495 32.5834244,26.5587112 32.0208153,27.1213203 L25.1213203,34.0208153 C23.9497475,35.1923882 22.0502525,35.1923882 20.8786797,34.0208153 L13.9791847,27.1213203 C12.8076118,25.9497475 12.8076118,24.0502525 13.9791847,22.8786797 C14.5417939,22.3160705 15.3048556,22 16.1005051,22 L19.9995051,22 L20,14 C20,12.3431458 21.3431458,11 23,11 Z" id="形状结合" fill="#333333"></path>
            </g>
        </g>
    </g>
</svg>