<?xml version="1.0" encoding="UTF-8"?>
<svg width="30px" height="30px" viewBox="0 0 30 30" version="1.1" xmlns="http://www.w3.org/2000/svg" xmlns:xlink="http://www.w3.org/1999/xlink">
    <title>转换icon</title>
    <g id="页面-1" stroke="none" stroke-width="1" fill="none" fill-rule="evenodd">
        <g id="M-PSM" transform="translate(-25.000000, -289.000000)">
            <g id="编组-5" transform="translate(15.000000, 187.000000)">
                <g id="转换icon" transform="translate(10.000000, 102.000000)">
                    <circle id="椭圆形" stroke-opacity="0.0966540783" stroke="#FFFFFF" cx="15" cy="15" r="14.5"></circle>
                    <path d="M15,7.17391304 C16.0805571,7.17391304 16.9565217,8.04987766 16.9565217,9.13043478 L16.9562144,14.346913 L19.3947048,14.3478261 C20.4992743,14.3478261 21.3947048,15.2432566 21.3947048,16.3478261 C21.3947048,16.8782591 21.1839911,17.3869669 20.8089184,17.7620396 L16.4142136,22.1567445 C15.633165,22.937793 14.366835,22.937793 13.5857864,22.1567445 L9.19108163,17.7620396 C8.41003305,16.9809911 8.41003305,15.7146611 9.19108163,14.9336125 C9.56615439,14.5585398 10.0748622,14.3478261 10.6052952,14.3478261 L13.0432144,14.346913 L13.0434783,9.13043478 C13.0434783,8.04987766 13.9194429,7.17391304 15,7.17391304 Z" id="形状结合" fill="#FFFFFF"></path>
                </g>
            </g>
        </g>
    </g>
</svg>