<svg width="18" height="18" viewBox="0 0 18 18" fill="none" xmlns="http://www.w3.org/2000/svg">
<path d="M5.51659 9.77163L5.49401 9.25H6.01612H11.9839H12.506L12.4834 9.77163C12.3984 11.7359 11.9932 13.4888 11.4119 14.7676C11.1218 15.4057 10.7781 15.9471 10.3898 16.3367C10.0039 16.7239 9.53226 17 9 17C8.4678 17 7.99623 16.7238 7.61032 16.3367C7.22204 15.9471 6.87839 15.4057 6.58827 14.7676C6.00687 13.4888 5.60164 11.7359 5.51659 9.77163ZM12.9857 9.73066L13.0044 9.24994L13.4854 9.25L16.4629 9.25037L17.015 9.25044L16.9604 9.79982C16.6667 12.7557 14.7654 15.2365 12.1446 16.3582L10.7481 16.9558L11.5166 15.6456C12.3465 14.2304 12.893 12.1273 12.9857 9.73066ZM1.03958 9.79982L0.984974 9.25037H1.53712H4.51462H4.99564L5.01425 9.73104C5.10703 12.128 5.65351 14.2304 6.4834 15.6451L7.25178 16.955L5.85551 16.3578C3.23458 15.2369 1.33332 12.7557 1.03958 9.79982ZM11.5162 2.35486L10.7426 1.0361L12.146 1.64295L12.2292 1.67895L12.2292 1.67893L12.2329 1.68058C14.8085 2.81943 16.6703 5.2779 16.9601 8.20067L17.0145 8.75H16.4625H13.485H13.004L12.9854 8.26934C12.8926 5.87235 12.3461 3.76958 11.5162 2.35486ZM9 1V0.999822L9.01333 1.00018L9.06958 1.00168L9.0767 1.00187L9.08381 1.00226C9.60357 1.03095 10.0609 1.31899 10.4365 1.71132C10.8153 2.10691 11.151 2.64838 11.4349 3.28423C12.0036 4.5581 12.3993 6.29016 12.4834 8.22833L12.506 8.75H11.9839H6.01612H5.49401L5.51659 8.22837C5.60164 6.26427 6.00677 4.51141 6.58812 3.23258C6.87821 2.59446 7.22186 2.05298 7.61016 1.6634C7.9961 1.27619 8.46772 1 9 1ZM5.85539 1.64183L7.2345 1.0516L6.4853 2.35122L6.43197 2.4437C6.43168 2.44421 6.43139 2.44473 6.43109 2.44525C5.6302 3.85893 5.10515 5.92367 5.01463 8.26928L4.99608 8.75H4.515H1.5375H0.98543L1.03994 8.20063C1.3333 5.24428 3.23461 2.76348 5.85539 1.64183ZM9 0.5C4.30552 0.5 0.5 4.30552 0.5 9C0.5 13.6945 4.30552 17.5 9 17.5C13.6945 17.5 17.5 13.6945 17.5 9C17.5 4.30552 13.6945 0.5 9 0.5Z" fill="#333333" stroke="#333333"/>
</svg>
