<svg width="18" height="18" viewBox="0 0 18 18" fill="none" xmlns="http://www.w3.org/2000/svg">
<path d="M9 0C4.02938 0 0 4.02938 0 9C0 13.9706 4.02938 18 9 18C13.9706 18 18 13.9706 18 9C18 4.02938 13.9706 0 9 0ZM6.01612 9.75H11.9839C11.8181 13.5784 10.4051 16.5 9 16.5C7.59525 16.5 6.18187 13.5784 6.01612 9.75ZM13.4854 9.75L16.4629 9.75037C16.1876 12.5201 14.4056 14.8466 11.9479 15.8985C12.8317 14.3914 13.3905 12.2006 13.4854 9.75ZM1.53712 9.75037H4.51462C4.6095 12.2014 5.16825 14.3914 6.05212 15.8981C3.59437 14.847 1.81237 12.5201 1.53712 9.75037ZM11.9475 2.10188L12.0307 2.13788C14.4461 3.20588 16.191 5.51137 16.4625 8.25H13.485C13.3901 5.799 12.8314 3.60862 11.9475 2.10188ZM9 1.5L9.05625 1.5015C10.4422 1.578 11.82 4.473 11.9839 8.25H6.01612C6.18187 4.422 7.59488 1.5 9 1.5ZM6.05212 2.1015L5.997 2.19712C5.145 3.70012 4.60763 5.85 4.515 8.25H1.5375C1.81238 5.47988 3.59437 3.15338 6.05212 2.1015Z" fill="white"/>
</svg>
