<?xml version="1.0" encoding="UTF-8"?>
<svg width="21px" height="23px" viewBox="0 0 21 23" version="1.1" xmlns="http://www.w3.org/2000/svg" xmlns:xlink="http://www.w3.org/1999/xlink">
    <title>编组 18</title>
    <defs>
        <linearGradient x1="100%" y1="100%" x2="100%" y2="1.81567724e-13%" id="linearGradient-1">
            <stop stop-color="#3F4A5F" offset="0%"></stop>
            <stop stop-color="#808B9E" offset="100%"></stop>
        </linearGradient>
        <linearGradient x1="72.4199035%" y1="25.336469%" x2="26.2876736%" y2="11.9311142%" id="linearGradient-2">
            <stop stop-color="#B5C1D6" offset="0%"></stop>
            <stop stop-color="#7E8DAD" offset="100%"></stop>
        </linearGradient>
        <linearGradient x1="15.1956707%" y1="74.0031899%" x2="86.9675891%" y2="74.0031899%" id="linearGradient-3">
            <stop stop-color="#B2BBCA" offset="0%"></stop>
            <stop stop-color="#7B859A" offset="100%"></stop>
        </linearGradient>
        <linearGradient x1="31.0518773%" y1="13.1727918%" x2="31.0518773%" y2="85.4689344%" id="linearGradient-4">
            <stop stop-color="#F3F9FF" offset="0%"></stop>
            <stop stop-color="#C5D3E1" offset="100%"></stop>
        </linearGradient>
        <linearGradient x1="100%" y1="100%" x2="1.47637436e-13%" y2="100%" id="linearGradient-5">
            <stop stop-color="#2B3953" offset="0%"></stop>
            <stop stop-color="#718691" offset="100%"></stop>
        </linearGradient>
        <linearGradient x1="7.02237018e-13%" y1="50%" x2="100%" y2="50%" id="linearGradient-6">
            <stop stop-color="#171922" offset="0%"></stop>
            <stop stop-color="#BCC2CB" offset="100%"></stop>
        </linearGradient>
        <filter x="-21.2%" y="-18.1%" width="142.5%" height="136.2%" filterUnits="objectBoundingBox" id="filter-7">
            <feOffset dx="0" dy="0" in="SourceAlpha" result="shadowOffsetOuter1"></feOffset>
            <feGaussianBlur stdDeviation="0.5" in="shadowOffsetOuter1" result="shadowBlurOuter1"></feGaussianBlur>
            <feColorMatrix values="0 0 0 0 0   0 0 0 0 0   0 0 0 0 0  0 0 0 0.69998361 0" type="matrix" in="shadowBlurOuter1" result="shadowMatrixOuter1"></feColorMatrix>
            <feMerge>
                <feMergeNode in="shadowMatrixOuter1"></feMergeNode>
                <feMergeNode in="SourceGraphic"></feMergeNode>
            </feMerge>
        </filter>
        <linearGradient x1="100%" y1="100%" x2="100%" y2="1.81567724e-13%" id="linearGradient-8">
            <stop stop-color="#647593" offset="0%"></stop>
            <stop stop-color="#546C93" offset="100%"></stop>
        </linearGradient>
        <linearGradient x1="72.4199035%" y1="25.336469%" x2="26.2876736%" y2="11.9311142%" id="linearGradient-9">
            <stop stop-color="#94AFDF" offset="0%"></stop>
            <stop stop-color="#6D8CCD" offset="100%"></stop>
        </linearGradient>
        <linearGradient x1="40.5653797%" y1="74.0031899%" x2="46.6868756%" y2="22.2969758%" id="linearGradient-10">
            <stop stop-color="#93AFE6" offset="0%"></stop>
            <stop stop-color="#859DD0" offset="100%"></stop>
        </linearGradient>
        <linearGradient x1="31.0518773%" y1="13.1727918%" x2="31.0518773%" y2="85.4689344%" id="linearGradient-11">
            <stop stop-color="#D5EBFF" offset="0%"></stop>
            <stop stop-color="#B0D0EF" offset="100%"></stop>
        </linearGradient>
        <path d="M3.33626428,0 C2.3075828,0 1.50131893,0.291923125 0.903571576,0.875769374 C0.291923125,1.45961562 0,2.26587949 0,3.29456098 L1.58472553,3.29456098 C1.58472553,2.71071473 1.69593434,2.25197839 1.93225306,1.93225306 C2.19637399,1.54302223 2.62730812,1.36230792 3.23895657,1.36230792 C3.71159401,1.36230792 4.08692375,1.48741783 4.35104467,1.75153875 C4.60126449,2.01565967 4.7402755,2.3770883 4.7402755,2.83582464 C4.7402755,3.18335217 4.61516559,3.5169786 4.36494577,3.82280282 L4.19813256,4.01741824 C3.29456098,4.82368211 2.75241803,5.40752836 2.57170372,5.78285809 C2.3770883,6.15818782 2.29368169,6.61692416 2.29368169,7.145166 L2.29368169,7.33978142 L3.89230833,7.33978142 L3.89230833,7.145166 C3.89230833,6.81153958 3.96181384,6.51961645 4.10082485,6.24159443 C4.22593476,5.99137461 4.40664907,5.75505589 4.65686889,5.54653937 C5.32412175,4.96269312 5.72725368,4.58736339 5.85236359,4.44835238 C6.18599002,4.00351714 6.36670434,3.43357199 6.36670434,2.73851693 C6.36670434,1.89054976 6.08868231,1.2232969 5.53263827,0.736758362 C4.97659422,0.23631872 4.23983586,0 3.33626428,0 Z M3.08604446,8.02093538 C2.78022024,8.02093538 2.53000041,8.11824309 2.3214839,8.3128585 C2.11296738,8.50747392 2.01565967,8.75769374 2.01565967,9.06351797 C2.01565967,9.36934219 2.11296738,9.61956201 2.3214839,9.81417743 C2.53000041,10.0087928 2.78022024,10.1200017 3.08604446,10.1200017 C3.39186869,10.1200017 3.64208851,10.0226939 3.85060503,9.82807853 C4.05912154,9.63346311 4.17033035,9.36934219 4.17033035,9.06351797 C4.17033035,8.75769374 4.05912154,8.50747392 3.86450613,8.3128585 C3.65598961,8.11824309 3.39186869,8.02093538 3.08604446,8.02093538 Z" id="path-12"></path>
        <filter x="-6.3%" y="-4.0%" width="112.6%" height="107.9%" filterUnits="objectBoundingBox" id="filter-13">
            <feGaussianBlur stdDeviation="0.1" in="SourceAlpha" result="shadowBlurInner1"></feGaussianBlur>
            <feOffset dx="0.2" dy="0.2" in="shadowBlurInner1" result="shadowOffsetInner1"></feOffset>
            <feComposite in="shadowOffsetInner1" in2="SourceAlpha" operator="arithmetic" k2="-1" k3="1" result="shadowInnerInner1"></feComposite>
            <feColorMatrix values="0 0 0 0 0   0 0 0 0 0   0 0 0 0 0  0 0 0 0.5 0" type="matrix" in="shadowInnerInner1"></feColorMatrix>
        </filter>
    </defs>
    <g id="页面-1" stroke="none" stroke-width="1" fill="none" fill-rule="evenodd">
        <g id="代币信誉评级-SunSwap-V3-" transform="translate(-77.000000, -540.000000)">
            <g id="编组-18" transform="translate(77.414214, 539.999950)">
                <g id="编组-17">
                    <path d="M18.71644,3.79537774 C17.0080587,3.56539714 15.1899649,2.9633131 13.3117904,2.00462991 C11.8123854,1.23975061 10.7126476,0.464535099 10.3077561,0.167369154 C10.0073526,-0.0574433446 9.60768544,-0.0548592929 9.30989422,0.169953205 C8.90500263,0.467119151 7.80526485,1.24233466 6.30847209,2.00462991 C4.43029758,2.9633131 2.61220376,3.56539714 0.903822502,3.79537774 C0.389218361,3.86514714 0,4.29926783 0,4.80574196 L0,13.2219984 C0,13.6664552 0.0574684828,14.10316 0.169793245,14.5269445 C0.397054972,15.3667613 0.99263743,17.0283065 2.44241052,18.700188 C4.15340398,20.6718194 6.53834602,22.1137203 9.53454374,22.9793776 L9.60768544,23.0000462 L10.0099648,23.0000462 L10.0831065,22.9793776 C17.0132831,20.9715694 18.9410895,16.400382 19.447857,14.5243604 C19.5601818,14.10316 19.6176503,13.6638712 19.6176503,13.2219984 L19.6176503,4.80574196 C19.6176503,4.29926783 19.2310441,3.86514714 18.71644,3.79537774 Z" id="路径" fill="url(#linearGradient-1)"></path>
                    <path d="M18.71644,3.79537774 C17.0080587,3.56539714 15.1899649,2.9633131 13.3117904,2.00462991 C11.8123854,1.23975061 10.7126476,0.464535099 10.3077561,0.167369154 C10.2064967,0.0915898423 10.0378975,0.0358001244 9.80195853,0 L9.79968283,11.9702005 C15.8393972,7.07276202 19.0374161,4.47488892 19.3937394,4.17658123 C19.2312822,3.97482338 18.9922447,3.832771 18.71644,3.79537774 Z" id="路径" fill="url(#linearGradient-2)"></path>
                    <path d="M0.266766367,4.12814435 C0.093117443,4.31137612 0,4.54215724 0,4.80574196 L0,13.2219984 C0,13.6664552 0.0574684828,14.10316 0.169793245,14.5269445 C0.397054972,15.3667613 0.99263743,17.0283065 2.44241052,18.700188 C4.15340398,20.6718194 6.53834602,22.1137203 9.53454374,22.9793776 L9.60768544,23.00005 L9.82565102,23.00005 L9.79968283,11.9544779 C3.6370916,6.88835457 0.459452782,4.27957673 0.266766367,4.12814435 Z" id="路径" fill="url(#linearGradient-3)"></path>
                    <path d="M9.79968283,0.000122898124 C9.57087468,0.0395728429 9.40761181,0.0961829453 9.30989422,0.169953205 C8.90500263,0.467119151 7.80526485,1.24233466 6.30847209,2.00462991 C4.43029758,2.9633131 2.61220376,3.56539714 0.903822502,3.79537774 C0.650649923,3.82970257 0.427825692,3.95221491 0.266766367,4.12814435 C0.623385565,4.41089436 3.80102439,7.0196722 9.79968283,11.9544779 L9.79968283,0.000122898124 Z" id="路径" fill="url(#linearGradient-4)"></path>
                </g>
                <path d="M9.49590601,3.21170806 C10.4767874,3.44947333 11.2685699,4.00688334 12.334689,4.55073402 C13.7955082,5.29638511 15.2100079,5.76296459 16.5383075,5.94177883 L16.5383075,5.94177883 L16.9635322,12.8087303 C16.9635322,13.1183217 16.9233195,13.4261117 16.84487,13.7202909 C16.4730478,15.0967536 15.0475331,18.4252661 10.0100471,19.9135676 C7.43373274,19.2719707 5.68944586,18.2188424 4.43700245,16.7756126 C3.37611285,15.5521924 2.93907422,14.336773 2.77314765,13.7236279 C2.69439677,13.4265126 2.65411803,13.1203379 2.65411803,12.8087303 L2.65411803,12.8087303 L2.65411803,6.41237544 C4.4096276,5.76296459 5.8241273,5.29638511 7.2847031,4.55085815 C8.32587214,4.02060558 9.11868812,3.48216324 9.49590601,3.21170806 Z" id="路径" stroke="url(#linearGradient-6)" stroke-width="0.6" fill="url(#linearGradient-5)"></path>
                <g id="编组-17" filter="url(#filter-7)" transform="translate(3.864001, 4.600001)">
                    <path d="M11.2298788,2.27722966 C10.2048487,2.13924112 9.11399099,1.77799021 7.9870848,1.20277954 C7.08744063,0.74385135 6.42759709,0.278721428 6.18466181,0.100421625 C6.00441952,-0.0344660523 5.76461889,-0.0329156193 5.58594392,0.101972058 C5.34300865,0.280271861 4.6831651,0.745401783 3.78508826,1.20277954 C2.65818207,1.77799021 1.56732433,2.13924112 0.542294219,2.27722966 C0.233531325,2.31909135 0,2.57956411 0,2.88344899 L0,7.93320951 C0,8.199884 0.0344811353,8.46190719 0.101876082,8.71617821 C0.238233298,9.22006896 0.595583246,10.2169974 1.46544825,11.2201276 C2.49204569,12.4031081 3.9230128,13.2682497 5.72073381,13.7876448 L5.76461889,13.8000483 L6.00598684,13.8000483 L6.04987192,13.7876448 C10.2079834,12.5829583 11.3646687,9.84024219 11.6687297,8.71462778 C11.7361246,8.46190719 11.7706057,8.19833357 11.7706057,7.93320951 L11.7706057,2.88344899 C11.7706057,2.57956411 11.5386417,2.31909135 11.2298788,2.27722966 Z" id="路径" fill="url(#linearGradient-8)"></path>
                    <path d="M11.2298788,2.27722966 C10.2048487,2.13924112 9.11399099,1.77799021 7.9870848,1.20277954 C7.08744063,0.74385135 6.42759709,0.278721428 6.18466181,0.100421625 C6.12390613,0.0549539781 6.02274649,0.0214801031 5.8811829,0 L5.87981748,7.18212983 C9.5036509,4.24366283 11.4224647,2.6849369 11.636259,2.50595205 C11.5387846,2.38489718 11.3953619,2.29966565 11.2298788,2.27722966 Z" id="路径" fill="url(#linearGradient-9)"></path>
                    <path d="M0.160060032,2.47688989 C0.0558705397,2.58682909 0,2.72529795 0,2.88344899 L0,7.93320951 C0,8.199884 0.0344811353,8.46190719 0.101876082,8.71617821 C0.238233298,9.22006896 0.595583246,10.2169974 1.46544825,11.2201276 C2.49204569,12.4031081 3.9230128,13.2682497 5.72073381,13.7876448 L5.76461889,13.8000483 L5.89539841,13.8000483 L5.87981748,7.17269622 C2.18225785,4.13301821 0.275672034,2.56774944 0.160060032,2.47688989 Z" id="路径" fill="url(#linearGradient-10)"></path>
                    <path d="M5.87981748,7.37389721e-05 C5.74253241,0.0237437371 5.64457455,0.0577098435 5.58594392,0.101972058 C5.34300865,0.280271861 4.6831651,0.745401783 3.78508826,1.20277954 C2.65818207,1.77799021 1.56732433,2.13924112 0.542294219,2.27722966 C0.39039047,2.29782458 0.256695755,2.37133208 0.160060032,2.47688989 C0.374031834,2.64654012 2.28061765,4.21180889 5.87981748,7.17269622 L5.87981748,7.37389721e-05 Z" id="路径" fill="url(#linearGradient-11)"></path>
                </g>
                <g id="？" transform="translate(6.624001, 6.808047)" fill-rule="nonzero" stroke-linejoin="round">
                    <g id="形状">
                        <use fill="#4B5B6B" style="mix-blend-mode: multiply;" xlink:href="#path-12"></use>
                        <use fill="black" fill-opacity="1" filter="url(#filter-13)" xlink:href="#path-12"></use>
                        <path stroke-opacity="0.298049607" stroke="#FFFFFF" stroke-width="0.2" d="M3.08604446,7.92093538 C3.41902918,7.92093538 3.70594505,8.0280796 3.9352168,8.24214782 C4.14816462,8.45509564 4.27033035,8.72874637 4.27033035,9.06351797 C4.27033035,9.3989386 4.14729124,9.68795996 3.91883685,9.90118406 C3.69171165,10.1131676 3.41939326,10.2200017 3.08604446,10.2200017 C2.75303577,10.2200017 2.48037727,10.0992665 2.25325207,9.88728296 C2.02442846,9.67371426 1.91565967,9.39972893 1.91565967,9.06351797 C1.91565967,8.727307 2.02442846,8.45332168 2.25325207,8.23975298 C2.48037727,8.02776946 2.75269566,7.92093538 3.08604446,7.92093538 Z M3.33626428,-0.1 C4.26827533,-0.1 5.02655488,0.146747071 5.59848873,0.661500693 C6.17543768,1.16633103 6.46670434,1.85775406 6.46670434,2.73851693 C6.46670434,3.45844761 6.27769734,4.04790738 5.92669301,4.51524885 C5.80066671,4.65527807 5.39488032,5.03365619 4.72088733,5.6233615 C4.48219083,5.82227525 4.30962759,6.04759574 4.19026757,6.28631579 C4.0460046,6.57484172 3.98077866,6.87916532 3.99397292,7.23352774 L3.99397292,7.23352774 L2.19433453,7.45261415 C2.18513945,6.64187375 2.27269026,6.14228066 2.48160355,5.73947653 C2.66489347,5.35879747 3.21095593,4.76463943 4.1265667,3.94708244 C4.51685592,3.47727142 4.6402755,3.16415224 4.6402755,2.83582464 C4.6402755,2.40699767 4.51279819,2.06768138 4.28033399,1.82224943 C4.03300685,1.57492229 3.68011253,1.46230792 3.23895657,1.46230792 C2.66929858,1.46230792 2.26239599,1.62382059 2.01267068,1.99169217 C1.77330789,2.31553594 1.67311169,2.78982253 1.68578877,3.39456098 L1.68578877,3.39456098 L-0.0991103861,3.39456098 C-0.118697742,2.28583856 0.184947305,1.42348402 0.833697624,0.804231756 C1.448614,0.203615758 2.27702533,-0.1 3.33626428,-0.1 Z"></path>
                    </g>
                </g>
            </g>
        </g>
    </g>
</svg>