<?xml version="1.0" encoding="UTF-8"?>
<svg width="21px" height="23px" viewBox="0 0 21 23" version="1.1" xmlns="http://www.w3.org/2000/svg" xmlns:xlink="http://www.w3.org/1999/xlink">
    <title>编组 18</title>
    <defs>
        <linearGradient x1="100%" y1="100%" x2="100%" y2="1.81567724e-13%" id="linearGradient-1">
            <stop stop-color="#3F4A5F" offset="0%"></stop>
            <stop stop-color="#808B9E" offset="100%"></stop>
        </linearGradient>
        <linearGradient x1="72.4199035%" y1="25.336469%" x2="26.2876736%" y2="11.9311142%" id="linearGradient-2">
            <stop stop-color="#B5C1D6" offset="0%"></stop>
            <stop stop-color="#7E8DAD" offset="100%"></stop>
        </linearGradient>
        <linearGradient x1="15.1956707%" y1="74.0031899%" x2="86.9675891%" y2="74.0031899%" id="linearGradient-3">
            <stop stop-color="#B2BBCA" offset="0%"></stop>
            <stop stop-color="#7B859A" offset="100%"></stop>
        </linearGradient>
        <linearGradient x1="31.0518773%" y1="13.1727918%" x2="31.0518773%" y2="85.4689344%" id="linearGradient-4">
            <stop stop-color="#F3F9FF" offset="0%"></stop>
            <stop stop-color="#C5D3E1" offset="100%"></stop>
        </linearGradient>
        <linearGradient x1="100%" y1="100%" x2="1.47637436e-13%" y2="100%" id="linearGradient-5">
            <stop stop-color="#2B3953" offset="0%"></stop>
            <stop stop-color="#718691" offset="100%"></stop>
        </linearGradient>
        <linearGradient x1="7.02237018e-13%" y1="50%" x2="100%" y2="50%" id="linearGradient-6">
            <stop stop-color="#171922" offset="0%"></stop>
            <stop stop-color="#BCC2CB" offset="100%"></stop>
        </linearGradient>
        <filter x="-21.2%" y="-18.1%" width="142.5%" height="136.2%" filterUnits="objectBoundingBox" id="filter-7">
            <feOffset dx="0" dy="0" in="SourceAlpha" result="shadowOffsetOuter1"></feOffset>
            <feGaussianBlur stdDeviation="0.5" in="shadowOffsetOuter1" result="shadowBlurOuter1"></feGaussianBlur>
            <feColorMatrix values="0 0 0 0 0   0 0 0 0 0   0 0 0 0 0  0 0 0 0.69998361 0" type="matrix" in="shadowBlurOuter1" result="shadowMatrixOuter1"></feColorMatrix>
            <feMerge>
                <feMergeNode in="shadowMatrixOuter1"></feMergeNode>
                <feMergeNode in="SourceGraphic"></feMergeNode>
            </feMerge>
        </filter>
        <linearGradient x1="100%" y1="100%" x2="100%" y2="1.81567724e-13%" id="linearGradient-8">
            <stop stop-color="#647593" offset="0%"></stop>
            <stop stop-color="#546C93" offset="100%"></stop>
        </linearGradient>
        <linearGradient x1="72.4199035%" y1="25.336469%" x2="26.2876736%" y2="11.9311142%" id="linearGradient-9">
            <stop stop-color="#94AFDF" offset="0%"></stop>
            <stop stop-color="#6D8CCD" offset="100%"></stop>
        </linearGradient>
        <linearGradient x1="40.5653797%" y1="74.0031899%" x2="46.6868756%" y2="22.2969758%" id="linearGradient-10">
            <stop stop-color="#93AFE6" offset="0%"></stop>
            <stop stop-color="#859DD0" offset="100%"></stop>
        </linearGradient>
        <linearGradient x1="31.0518773%" y1="13.1727918%" x2="31.0518773%" y2="85.4689344%" id="linearGradient-11">
            <stop stop-color="#D5EBFF" offset="0%"></stop>
            <stop stop-color="#B0D0EF" offset="100%"></stop>
        </linearGradient>
        <path d="M0,3.66254812 C0,2.5992277 0.359110056,1.72297291 1.07733017,1.03378374 C1.79555028,0.344594581 2.76558537,0 3.98743544,0 C5.38446115,0 6.43989436,0.404761889 7.15373508,1.21428567 C7.72743529,1.86628049 8.0142854,2.66924056 8.0142854,3.62316588 C8.0142854,4.69523791 7.65845989,5.57368061 6.94680886,6.25849396 C6.23515784,6.94330732 5.25088972,7.285714 3.99400453,7.285714 C2.87288045,7.285714 1.96634653,7.00128673 1.27440276,6.43243218 C0.42480092,5.7279277 0,4.80463302 0,3.66254812 Z M2.68018725,3.65598441 C2.68018725,4.27734861 2.80609474,4.73680805 3.05790972,5.03436274 C3.30972469,5.33191742 3.62613569,5.48069477 4.0071427,5.48069477 C4.3925291,5.48069477 4.7089401,5.33410532 4.95637568,5.04092644 C5.20381127,4.74774756 5.32752907,4.27734861 5.32752907,3.62972959 C5.32752907,3.02586861 5.20271642,2.57625473 4.95309114,2.28088794 C4.70346586,1.98552116 4.3947188,1.83783777 4.02684996,1.83783777 C3.63708417,1.83783777 3.31519893,1.98770906 3.06119426,2.28745165 C2.80718959,2.58719424 2.68018725,3.04337182 2.68018725,3.65598441 Z" id="path-12"></path>
        <filter x="-5.0%" y="-5.5%" width="110.0%" height="111.0%" filterUnits="objectBoundingBox" id="filter-13">
            <feGaussianBlur stdDeviation="0.1" in="SourceAlpha" result="shadowBlurInner1"></feGaussianBlur>
            <feOffset dx="0.2" dy="0.2" in="shadowBlurInner1" result="shadowOffsetInner1"></feOffset>
            <feComposite in="shadowOffsetInner1" in2="SourceAlpha" operator="arithmetic" k2="-1" k3="1" result="shadowInnerInner1"></feComposite>
            <feColorMatrix values="0 0 0 0 0   0 0 0 0 0   0 0 0 0 0  0 0 0 0.5 0" type="matrix" in="shadowInnerInner1"></feColorMatrix>
        </filter>
    </defs>
    <g id="页面-1" stroke="none" stroke-width="1" fill="none" fill-rule="evenodd">
        <g id="代币信誉评级-SunSwap-V3-" transform="translate(-77.000000, -507.000000)">
            <g id="编组-18" transform="translate(77.414214, 506.999950)">
                <g id="编组-17">
                    <path d="M18.71644,3.79537774 C17.0080587,3.56539714 15.1899649,2.9633131 13.3117904,2.00462991 C11.8123854,1.23975061 10.7126476,0.464535099 10.3077561,0.167369154 C10.0073526,-0.0574433446 9.60768544,-0.0548592929 9.30989422,0.169953205 C8.90500263,0.467119151 7.80526485,1.24233466 6.30847209,2.00462991 C4.43029758,2.9633131 2.61220376,3.56539714 0.903822502,3.79537774 C0.389218361,3.86514714 0,4.29926783 0,4.80574196 L0,13.2219984 C0,13.6664552 0.0574684828,14.10316 0.169793245,14.5269445 C0.397054972,15.3667613 0.99263743,17.0283065 2.44241052,18.700188 C4.15340398,20.6718194 6.53834602,22.1137203 9.53454374,22.9793776 L9.60768544,23.0000462 L10.0099648,23.0000462 L10.0831065,22.9793776 C17.0132831,20.9715694 18.9410895,16.400382 19.447857,14.5243604 C19.5601818,14.10316 19.6176503,13.6638712 19.6176503,13.2219984 L19.6176503,4.80574196 C19.6176503,4.29926783 19.2310441,3.86514714 18.71644,3.79537774 Z" id="路径" fill="url(#linearGradient-1)"></path>
                    <path d="M18.71644,3.79537774 C17.0080587,3.56539714 15.1899649,2.9633131 13.3117904,2.00462991 C11.8123854,1.23975061 10.7126476,0.464535099 10.3077561,0.167369154 C10.2064967,0.0915898423 10.0378975,0.0358001244 9.80195853,0 L9.79968283,11.9702005 C15.8393972,7.07276202 19.0374161,4.47488892 19.3937394,4.17658123 C19.2312822,3.97482338 18.9922447,3.832771 18.71644,3.79537774 Z" id="路径" fill="url(#linearGradient-2)"></path>
                    <path d="M0.266766367,4.12814435 C0.093117443,4.31137612 0,4.54215724 0,4.80574196 L0,13.2219984 C0,13.6664552 0.0574684828,14.10316 0.169793245,14.5269445 C0.397054972,15.3667613 0.99263743,17.0283065 2.44241052,18.700188 C4.15340398,20.6718194 6.53834602,22.1137203 9.53454374,22.9793776 L9.60768544,23.00005 L9.82565102,23.00005 L9.79968283,11.9544779 C3.6370916,6.88835457 0.459452782,4.27957673 0.266766367,4.12814435 Z" id="路径" fill="url(#linearGradient-3)"></path>
                    <path d="M9.79968283,0.000122898124 C9.57087468,0.0395728429 9.40761181,0.0961829453 9.30989422,0.169953205 C8.90500263,0.467119151 7.80526485,1.24233466 6.30847209,2.00462991 C4.43029758,2.9633131 2.61220376,3.56539714 0.903822502,3.79537774 C0.650649923,3.82970257 0.427825692,3.95221491 0.266766367,4.12814435 C0.623385565,4.41089436 3.80102439,7.0196722 9.79968283,11.9544779 L9.79968283,0.000122898124 Z" id="路径" fill="url(#linearGradient-4)"></path>
                </g>
                <path d="M9.49590601,3.21170806 C10.4767874,3.44947333 11.2685699,4.00688334 12.334689,4.55073402 C13.7955082,5.29638511 15.2100079,5.76296459 16.5383075,5.94177883 L16.5383075,5.94177883 L16.9635322,12.8087303 C16.9635322,13.1183217 16.9233195,13.4261117 16.84487,13.7202909 C16.4730478,15.0967536 15.0475331,18.4252661 10.0100471,19.9135676 C7.43373274,19.2719707 5.68944586,18.2188424 4.43700245,16.7756126 C3.37611285,15.5521924 2.93907422,14.336773 2.77314765,13.7236279 C2.69439677,13.4265126 2.65411803,13.1203379 2.65411803,12.8087303 L2.65411803,12.8087303 L2.65411803,6.41237544 C4.4096276,5.76296459 5.8241273,5.29638511 7.2847031,4.55085815 C8.32587214,4.02060558 9.11868812,3.48216324 9.49590601,3.21170806 Z" id="路径" stroke="url(#linearGradient-6)" stroke-width="0.6" fill="url(#linearGradient-5)"></path>
                <g id="编组-17" filter="url(#filter-7)" transform="translate(3.864001, 4.600001)">
                    <path d="M11.2298788,2.27722966 C10.2048487,2.13924112 9.11399099,1.77799021 7.9870848,1.20277954 C7.08744063,0.74385135 6.42759709,0.278721428 6.18466181,0.100421625 C6.00441952,-0.0344660523 5.76461889,-0.0329156193 5.58594392,0.101972058 C5.34300865,0.280271861 4.6831651,0.745401783 3.78508826,1.20277954 C2.65818207,1.77799021 1.56732433,2.13924112 0.542294219,2.27722966 C0.233531325,2.31909135 0,2.57956411 0,2.88344899 L0,7.93320951 C0,8.199884 0.0344811353,8.46190719 0.101876082,8.71617821 C0.238233298,9.22006896 0.595583246,10.2169974 1.46544825,11.2201276 C2.49204569,12.4031081 3.9230128,13.2682497 5.72073381,13.7876448 L5.76461889,13.8000483 L6.00598684,13.8000483 L6.04987192,13.7876448 C10.2079834,12.5829583 11.3646687,9.84024219 11.6687297,8.71462778 C11.7361246,8.46190719 11.7706057,8.19833357 11.7706057,7.93320951 L11.7706057,2.88344899 C11.7706057,2.57956411 11.5386417,2.31909135 11.2298788,2.27722966 Z" id="路径" fill="url(#linearGradient-8)"></path>
                    <path d="M11.2298788,2.27722966 C10.2048487,2.13924112 9.11399099,1.77799021 7.9870848,1.20277954 C7.08744063,0.74385135 6.42759709,0.278721428 6.18466181,0.100421625 C6.12390613,0.0549539781 6.02274649,0.0214801031 5.8811829,0 L5.87981748,7.18212983 C9.5036509,4.24366283 11.4224647,2.6849369 11.636259,2.50595205 C11.5387846,2.38489718 11.3953619,2.29966565 11.2298788,2.27722966 Z" id="路径" fill="url(#linearGradient-9)"></path>
                    <path d="M0.160060032,2.47688989 C0.0558705397,2.58682909 0,2.72529795 0,2.88344899 L0,7.93320951 C0,8.199884 0.0344811353,8.46190719 0.101876082,8.71617821 C0.238233298,9.22006896 0.595583246,10.2169974 1.46544825,11.2201276 C2.49204569,12.4031081 3.9230128,13.2682497 5.72073381,13.7876448 L5.76461889,13.8000483 L5.89539841,13.8000483 L5.87981748,7.17269622 C2.18225785,4.13301821 0.275672034,2.56774944 0.160060032,2.47688989 Z" id="路径" fill="url(#linearGradient-10)"></path>
                    <path d="M5.87981748,7.37389721e-05 C5.74253241,0.0237437371 5.64457455,0.0577098435 5.58594392,0.101972058 C5.34300865,0.280271861 4.6831651,0.745401783 3.78508826,1.20277954 C2.65818207,1.77799021 1.56732433,2.13924112 0.542294219,2.27722966 C0.39039047,2.29782458 0.256695755,2.37133208 0.160060032,2.47688989 C0.374031834,2.64654012 2.28061765,4.21180889 5.87981748,7.17269622 L5.87981748,7.37389721e-05 Z" id="路径" fill="url(#linearGradient-11)"></path>
                </g>
                <g id="o" transform="translate(5.785786, 8.000000)" fill-rule="nonzero" stroke-linejoin="round">
                    <g id="形状">
                        <use fill="#4B5B6B" style="mix-blend-mode: multiply;" xlink:href="#path-12"></use>
                        <use fill="black" fill-opacity="1" filter="url(#filter-13)" xlink:href="#path-12"></use>
                        <path stroke-opacity="0.298049607" stroke="#FFFFFF" stroke-width="0.2" d="M3.98743544,-0.1 C5.41933153,-0.1 6.49798893,0.319446672 7.22880959,1.14822646 C7.8182425,1.81810107 8.1142854,2.64272922 8.1142854,3.62316588 C8.1142854,4.72498941 7.7472571,5.62701245 7.0161478,6.33055027 C6.2877855,7.03144469 5.28157732,7.385714 3.99400453,7.385714 C2.84593912,7.385714 1.91899869,7.09181681 1.2105715,6.50940991 C0.337358415,5.78532658 -0.1,4.8366131 -0.1,3.66254812 C-0.1,2.56968969 0.270159083,1.66973576 1.00809278,0.961629848 C1.74340083,0.25604346 2.73553844,-0.1 3.98743544,-0.1 Z M4.02684996,1.93783777 C3.66782474,1.93783777 3.37142274,2.07604017 3.13748564,2.35210167 C2.89548024,2.6376843 2.78018725,3.07406433 2.78018725,3.65598441 C2.78018725,4.24638058 2.89423028,4.68615353 3.13424355,4.96976284 C3.36580849,5.24338927 3.65662478,5.38069477 4.0071427,5.38069477 C4.36147202,5.38069477 4.65243992,5.246005 4.879955,4.97642931 C5.11608183,4.69664984 5.22752907,4.24565288 5.22752907,3.62972959 C5.22752907,3.05651457 5.11439366,2.62666886 4.87671421,2.34543688 C4.64767278,2.07442575 4.36470952,1.93783777 4.02684996,1.93783777 Z"></path>
                    </g>
                </g>
            </g>
        </g>
    </g>
</svg>