<?xml version="1.0" encoding="UTF-8"?>
<svg width="21px" height="23px" viewBox="0 0 21 23" version="1.1" xmlns="http://www.w3.org/2000/svg" xmlns:xlink="http://www.w3.org/1999/xlink">
    <title>编组 18</title>
    <defs>
        <linearGradient x1="100%" y1="100%" x2="100%" y2="1.81567724e-13%" id="linearGradient-1">
            <stop stop-color="#3F4A5F" offset="0%"></stop>
            <stop stop-color="#808B9E" offset="100%"></stop>
        </linearGradient>
        <linearGradient x1="72.4199035%" y1="25.336469%" x2="26.2876736%" y2="11.9311142%" id="linearGradient-2">
            <stop stop-color="#B5C1D6" offset="0%"></stop>
            <stop stop-color="#7E8DAD" offset="100%"></stop>
        </linearGradient>
        <linearGradient x1="15.1956707%" y1="74.0031899%" x2="86.9675891%" y2="74.0031899%" id="linearGradient-3">
            <stop stop-color="#B2BBCA" offset="0%"></stop>
            <stop stop-color="#7B859A" offset="100%"></stop>
        </linearGradient>
        <linearGradient x1="31.0518773%" y1="13.1727918%" x2="31.0518773%" y2="85.4689344%" id="linearGradient-4">
            <stop stop-color="#F3F9FF" offset="0%"></stop>
            <stop stop-color="#C5D3E1" offset="100%"></stop>
        </linearGradient>
        <linearGradient x1="100%" y1="100%" x2="1.47637436e-13%" y2="100%" id="linearGradient-5">
            <stop stop-color="#2B3953" offset="0%"></stop>
            <stop stop-color="#718691" offset="100%"></stop>
        </linearGradient>
        <linearGradient x1="7.02237018e-13%" y1="50%" x2="100%" y2="50%" id="linearGradient-6">
            <stop stop-color="#171922" offset="0%"></stop>
            <stop stop-color="#BCC2CB" offset="100%"></stop>
        </linearGradient>
        <filter x="-21.2%" y="-18.1%" width="142.5%" height="136.2%" filterUnits="objectBoundingBox" id="filter-7">
            <feOffset dx="0" dy="0" in="SourceAlpha" result="shadowOffsetOuter1"></feOffset>
            <feGaussianBlur stdDeviation="0.5" in="shadowOffsetOuter1" result="shadowBlurOuter1"></feGaussianBlur>
            <feColorMatrix values="0 0 0 0 0   0 0 0 0 0   0 0 0 0 0  0 0 0 0.69998361 0" type="matrix" in="shadowBlurOuter1" result="shadowMatrixOuter1"></feColorMatrix>
            <feMerge>
                <feMergeNode in="shadowMatrixOuter1"></feMergeNode>
                <feMergeNode in="SourceGraphic"></feMergeNode>
            </feMerge>
        </filter>
        <linearGradient x1="100%" y1="100%" x2="100%" y2="1.81567724e-13%" id="linearGradient-8">
            <stop stop-color="#647593" offset="0%"></stop>
            <stop stop-color="#546C93" offset="100%"></stop>
        </linearGradient>
        <linearGradient x1="72.4199035%" y1="25.336469%" x2="26.2876736%" y2="11.9311142%" id="linearGradient-9">
            <stop stop-color="#94AFDF" offset="0%"></stop>
            <stop stop-color="#6D8CCD" offset="100%"></stop>
        </linearGradient>
        <linearGradient x1="40.5653797%" y1="74.0031899%" x2="46.6868756%" y2="22.2969758%" id="linearGradient-10">
            <stop stop-color="#93AFE6" offset="0%"></stop>
            <stop stop-color="#859DD0" offset="100%"></stop>
        </linearGradient>
        <linearGradient x1="31.0518773%" y1="13.1727918%" x2="31.0518773%" y2="85.4689344%" id="linearGradient-11">
            <stop stop-color="#D5EBFF" offset="0%"></stop>
            <stop stop-color="#B0D0EF" offset="100%"></stop>
        </linearGradient>
        <path d="M0,5.34739618 L1.44966443,5.19973632 C1.53691275,5.70951439 1.71392617,6.0839376 1.9807047,6.32300593 C2.24748322,6.56207427 2.60738255,6.68160844 3.06040268,6.68160844 C3.54026846,6.68160844 3.90184564,6.57525819 4.14513423,6.36255768 C4.38842282,6.14985717 4.51006711,5.90112063 4.51006711,5.61634806 C4.51006711,5.43353109 4.45889262,5.27796089 4.35654362,5.14963744 C4.25419463,5.021314 4.07550336,4.90969018 3.8204698,4.81476599 C3.64597315,4.75148319 3.24832215,4.63898044 2.62751678,4.47725775 C1.82885906,4.26983081 1.26845638,4.01494177 0.946308725,3.71259064 C0.493288591,3.28718963 0.266778523,2.76862228 0.266778523,2.1568886 C0.266778523,1.76312898 0.373322148,1.39485827 0.586409396,1.05207647 C0.799496644,0.709294661 1.10654362,0.448253131 1.50755034,0.268951879 C1.90855705,0.0896506262 2.39261745,0 2.95973154,0 C3.88590604,0 4.58305369,0.212700505 5.0511745,0.638101516 C5.5192953,1.06350253 5.76510067,1.63128983 5.7885906,2.34146341 L4.29865772,2.41001978 C4.23489933,2.01274445 4.09815436,1.72709295 3.88842282,1.55306526 C3.67869128,1.37903757 3.36409396,1.29202373 2.94463087,1.29202373 C2.51174497,1.29202373 2.17281879,1.38519007 1.92785235,1.57152274 C1.77013423,1.69105691 1.69127517,1.85102175 1.69127517,2.05141727 C1.69127517,2.23423423 1.76510067,2.39068337 1.91275168,2.52076467 C2.10067114,2.68600308 2.55704698,2.85827291 3.28187919,3.03757416 C4.00671141,3.21687541 4.54278523,3.40232916 4.89010067,3.5939354 C5.23741611,3.78554164 5.50922819,4.0474621 5.70553691,4.37969677 C5.90184564,4.71193144 6,5.12239068 6,5.61107449 C6,6.05405405 5.88255034,6.46890793 5.64765101,6.85563612 C5.41275168,7.24236432 5.08053691,7.52977368 4.65100671,7.71786421 C4.22147651,7.90595474 3.68624161,8 3.04530201,8 C2.11241611,8 1.39597315,7.77411558 0.895973154,7.32234674 C0.395973154,6.87057789 0.0973154362,6.21226104 0,5.34739618 Z" id="path-12"></path>
        <filter x="-6.7%" y="-5.0%" width="113.3%" height="110.0%" filterUnits="objectBoundingBox" id="filter-13">
            <feGaussianBlur stdDeviation="0.1" in="SourceAlpha" result="shadowBlurInner1"></feGaussianBlur>
            <feOffset dx="0.2" dy="0.2" in="shadowBlurInner1" result="shadowOffsetInner1"></feOffset>
            <feComposite in="shadowOffsetInner1" in2="SourceAlpha" operator="arithmetic" k2="-1" k3="1" result="shadowInnerInner1"></feComposite>
            <feColorMatrix values="0 0 0 0 0   0 0 0 0 0   0 0 0 0 0  0 0 0 0.5 0" type="matrix" in="shadowInnerInner1"></feColorMatrix>
        </filter>
    </defs>
    <g id="页面-1" stroke="none" stroke-width="1" fill="none" fill-rule="evenodd">
        <g id="代币信誉评级-SunSwap-V3-换行" transform="translate(-77.000000, -606.000000)">
            <g id="编组-18" transform="translate(77.414214, 605.999950)">
                <g id="编组-17">
                    <path d="M18.71644,3.79537774 C17.0080587,3.56539714 15.1899649,2.9633131 13.3117904,2.00462991 C11.8123854,1.23975061 10.7126476,0.464535099 10.3077561,0.167369154 C10.0073526,-0.0574433446 9.60768544,-0.0548592929 9.30989422,0.169953205 C8.90500263,0.467119151 7.80526485,1.24233466 6.30847209,2.00462991 C4.43029758,2.9633131 2.61220376,3.56539714 0.903822502,3.79537774 C0.389218361,3.86514714 0,4.29926783 0,4.80574196 L0,13.2219984 C0,13.6664552 0.0574684828,14.10316 0.169793245,14.5269445 C0.397054972,15.3667613 0.99263743,17.0283065 2.44241052,18.700188 C4.15340398,20.6718194 6.53834602,22.1137203 9.53454374,22.9793776 L9.60768544,23.0000462 L10.0099648,23.0000462 L10.0831065,22.9793776 C17.0132831,20.9715694 18.9410895,16.400382 19.447857,14.5243604 C19.5601818,14.10316 19.6176503,13.6638712 19.6176503,13.2219984 L19.6176503,4.80574196 C19.6176503,4.29926783 19.2310441,3.86514714 18.71644,3.79537774 Z" id="路径" fill="url(#linearGradient-1)"></path>
                    <path d="M18.71644,3.79537774 C17.0080587,3.56539714 15.1899649,2.9633131 13.3117904,2.00462991 C11.8123854,1.23975061 10.7126476,0.464535099 10.3077561,0.167369154 C10.2064967,0.0915898423 10.0378975,0.0358001244 9.80195853,0 L9.79968283,11.9702005 C15.8393972,7.07276202 19.0374161,4.47488892 19.3937394,4.17658123 C19.2312822,3.97482338 18.9922447,3.832771 18.71644,3.79537774 Z" id="路径" fill="url(#linearGradient-2)"></path>
                    <path d="M0.266766367,4.12814435 C0.093117443,4.31137612 0,4.54215724 0,4.80574196 L0,13.2219984 C0,13.6664552 0.0574684828,14.10316 0.169793245,14.5269445 C0.397054972,15.3667613 0.99263743,17.0283065 2.44241052,18.700188 C4.15340398,20.6718194 6.53834602,22.1137203 9.53454374,22.9793776 L9.60768544,23.00005 L9.82565102,23.00005 L9.79968283,11.9544779 C3.6370916,6.88835457 0.459452782,4.27957673 0.266766367,4.12814435 Z" id="路径" fill="url(#linearGradient-3)"></path>
                    <path d="M9.79968283,0.000122898124 C9.57087468,0.0395728429 9.40761181,0.0961829453 9.30989422,0.169953205 C8.90500263,0.467119151 7.80526485,1.24233466 6.30847209,2.00462991 C4.43029758,2.9633131 2.61220376,3.56539714 0.903822502,3.79537774 C0.650649923,3.82970257 0.427825692,3.95221491 0.266766367,4.12814435 C0.623385565,4.41089436 3.80102439,7.0196722 9.79968283,11.9544779 L9.79968283,0.000122898124 Z" id="路径" fill="url(#linearGradient-4)"></path>
                </g>
                <path d="M9.49590601,3.21170806 C10.4767874,3.44947333 11.2685699,4.00688334 12.334689,4.55073402 C13.7955082,5.29638511 15.2100079,5.76296459 16.5383075,5.94177883 L16.5383075,5.94177883 L16.9635322,12.8087303 C16.9635322,13.1183217 16.9233195,13.4261117 16.84487,13.7202909 C16.4730478,15.0967536 15.0475331,18.4252661 10.0100471,19.9135676 C7.43373274,19.2719707 5.68944586,18.2188424 4.43700245,16.7756126 C3.37611285,15.5521924 2.93907422,14.336773 2.77314765,13.7236279 C2.69439677,13.4265126 2.65411803,13.1203379 2.65411803,12.8087303 L2.65411803,12.8087303 L2.65411803,6.41237544 C4.4096276,5.76296459 5.8241273,5.29638511 7.2847031,4.55085815 C8.32587214,4.02060558 9.11868812,3.48216324 9.49590601,3.21170806 Z" id="路径" stroke="url(#linearGradient-6)" stroke-width="0.6" fill="url(#linearGradient-5)"></path>
                <g id="编组-17" filter="url(#filter-7)" transform="translate(3.864001, 4.600001)">
                    <path d="M11.2298788,2.27722966 C10.2048487,2.13924112 9.11399099,1.77799021 7.9870848,1.20277954 C7.08744063,0.74385135 6.42759709,0.278721428 6.18466181,0.100421625 C6.00441952,-0.0344660523 5.76461889,-0.0329156193 5.58594392,0.101972058 C5.34300865,0.280271861 4.6831651,0.745401783 3.78508826,1.20277954 C2.65818207,1.77799021 1.56732433,2.13924112 0.542294219,2.27722966 C0.233531325,2.31909135 0,2.57956411 0,2.88344899 L0,7.93320951 C0,8.199884 0.0344811353,8.46190719 0.101876082,8.71617821 C0.238233298,9.22006896 0.595583246,10.2169974 1.46544825,11.2201276 C2.49204569,12.4031081 3.9230128,13.2682497 5.72073381,13.7876448 L5.76461889,13.8000483 L6.00598684,13.8000483 L6.04987192,13.7876448 C10.2079834,12.5829583 11.3646687,9.84024219 11.6687297,8.71462778 C11.7361246,8.46190719 11.7706057,8.19833357 11.7706057,7.93320951 L11.7706057,2.88344899 C11.7706057,2.57956411 11.5386417,2.31909135 11.2298788,2.27722966 Z" id="路径" fill="url(#linearGradient-8)"></path>
                    <path d="M11.2298788,2.27722966 C10.2048487,2.13924112 9.11399099,1.77799021 7.9870848,1.20277954 C7.08744063,0.74385135 6.42759709,0.278721428 6.18466181,0.100421625 C6.12390613,0.0549539781 6.02274649,0.0214801031 5.8811829,0 L5.87981748,7.18212983 C9.5036509,4.24366283 11.4224647,2.6849369 11.636259,2.50595205 C11.5387846,2.38489718 11.3953619,2.29966565 11.2298788,2.27722966 Z" id="路径" fill="url(#linearGradient-9)"></path>
                    <path d="M0.160060032,2.47688989 C0.0558705397,2.58682909 0,2.72529795 0,2.88344899 L0,7.93320951 C0,8.199884 0.0344811353,8.46190719 0.101876082,8.71617821 C0.238233298,9.22006896 0.595583246,10.2169974 1.46544825,11.2201276 C2.49204569,12.4031081 3.9230128,13.2682497 5.72073381,13.7876448 L5.76461889,13.8000483 L5.89539841,13.8000483 L5.87981748,7.17269622 C2.18225785,4.13301821 0.275672034,2.56774944 0.160060032,2.47688989 Z" id="路径" fill="url(#linearGradient-10)"></path>
                    <path d="M5.87981748,7.37389721e-05 C5.74253241,0.0237437371 5.64457455,0.0577098435 5.58594392,0.101972058 C5.34300865,0.280271861 4.6831651,0.745401783 3.78508826,1.20277954 C2.65818207,1.77799021 1.56732433,2.13924112 0.542294219,2.27722966 C0.39039047,2.29782458 0.256695755,2.37133208 0.160060032,2.47688989 C0.374031834,2.64654012 2.28061765,4.21180889 5.87981748,7.17269622 L5.87981748,7.37389721e-05 Z" id="路径" fill="url(#linearGradient-11)"></path>
                </g>
                <g id="S" transform="translate(6.735786, 7.500050)" fill-rule="nonzero" stroke-linejoin="round">
                    <g id="路径">
                        <use fill="#4B5B6B" style="mix-blend-mode: multiply;" xlink:href="#path-12"></use>
                        <use fill="black" fill-opacity="1" filter="url(#filter-13)" xlink:href="#path-12"></use>
                        <path stroke-opacity="0.298049607" stroke="#FFFFFF" stroke-width="0.2" d="M2.95973154,-0.1 C3.91741316,-0.1 4.63525378,0.125014308 5.11842763,0.564094656 C5.62748014,1.02669202 5.88634414,1.65019865 5.89041197,2.43688411 L5.89041197,2.43688411 L4.21262569,2.51408418 C4.15971158,2.10153921 4.03440441,1.80413815 3.82456663,1.63002231 C3.62902535,1.46776919 3.3340994,1.39202373 2.94463087,1.39202373 C2.53852865,1.39202373 2.21877393,1.47587612 1.98825441,1.65121961 C2.16074711,2.60566748 2.60544344,2.76723055 3.30589233,2.94050012 C4.04190479,3.12256702 4.58578914,3.31184539 4.9384053,3.50637592 C5.30189146,3.70690319 5.58620092,3.98115453 5.7916309,4.3288261 C5.99604953,4.67478605 6.1,5.10184444 6.1,5.61107449 C6.1,6.07250122 5.97781755,6.50469044 5.73311995,6.9075501 C5.48749693,7.3119333 5.14032841,7.61275861 4.69111921,7.80946654 C4.25085881,8.0022558 3.70247212,8.1 3.04530201,8.1 C2.08189419,8.1 1.34452767,7.8624058 0.828931785,7.39654549 C0.293698737,6.91294226 -0.0217002334,6.20156111 -0.109708362,5.25805343 L-0.109708362,5.25805343 L1.53366069,5.09066322 C1.61054885,5.6196901 1.77865132,6.00766208 2.0474418,6.24853339 C2.2977305,6.4728247 2.63635827,6.58160844 3.06040268,6.58160844 C3.50950341,6.58160844 3.85078849,6.48706712 4.0793148,6.28727287 C4.2923038,6.10106246 4.4041002,5.88483384 4.40981013,5.63645061 C4.17849416,5.10466099 4.0195304,4.995559 3.78637665,4.9087748 C3.6131883,4.84596647 3.21844737,4.73453537 2.60237883,4.57404661 C1.78184667,4.36093845 1.20850406,4.09581855 0.877855144,3.78548856 C0.403607148,3.34015388 0.166778523,2.79720281 0.166778523,2.1568886 C0.166778523,1.74435064 0.278211759,1.35844386 0.501481604,0.999281863 C0.724847252,0.639965758 1.04622855,0.36568067 1.46673203,0.177661867 C1.87901035,-0.00667923321 2.37649137,-0.1 2.95973154,-0.1 Z"></path>
                    </g>
                </g>
            </g>
        </g>
    </g>
</svg>