<?xml version="1.0" encoding="UTF-8"?>
<svg width="50px" height="52px" viewBox="0 0 50 52" version="1.1" xmlns="http://www.w3.org/2000/svg"
    xmlns:xlink="http://www.w3.org/1999/xlink">
    <title>jiazai 2</title>
    <g id="页面-1" stroke="none" stroke-width="1" fill="none" fill-rule="evenodd" opacity="0.5">
        <g id="钱包-下拉加载" transform="translate(-163.000000, -393.000000)" fill="#333333" fill-rule="nonzero">
            <g id="jiazai" transform="translate(163.000000, 393.000000)">
                <path
                    d="M38.0196954,11.2989938 C38.0196954,12.8291057 39.2595369,14.0695065 40.7889588,14.0695065 C42.3183807,14.0695065 43.5582222,12.8291057 43.5582222,11.2989938 C43.5582222,9.76888196 42.3183807,8.52848121 40.7889588,8.52848121 C39.2595369,8.52848121 38.0196954,9.76888196 38.0196954,11.2989938 L38.0196954,11.2989938 Z"
                    id="路径" opacity="0.200000003"></path>
                <path
                    d="M43.1636612,26.2713432 C43.1635122,27.4931878 43.8149789,28.6222826 44.8726255,29.233248 C45.930272,29.8442134 47.2333893,29.8442134 48.2910358,29.233248 C49.3486823,28.6222826 50.0001491,27.4931878 50,26.2713432 C50.0001491,25.0494985 49.3486823,23.9204037 48.2910358,23.3094383 C47.2333893,22.698473 45.930272,22.698473 44.8726255,23.3094383 C43.8149789,23.9204037 43.1635122,25.0494985 43.1636612,26.2713432 Z"
                    id="路径" opacity="0.300000012"></path>
                <path
                    d="M36.8947077,41.3187255 C36.8947077,43.5420496 38.6962553,45.34441 40.918577,45.34441 C43.1408986,45.34441 44.9424463,43.5420496 44.9424463,41.3187255 C44.9424463,39.8804869 44.1755012,38.5514996 42.9305117,37.8323803 C41.6855221,37.113261 40.1516318,37.113261 38.9066423,37.8323803 C37.6616527,38.5514996 36.8947077,39.8804869 36.8947077,41.3187255 L36.8947077,41.3187255 Z"
                    id="路径" opacity="0.400000006"></path>
                <path
                    d="M21.2304758,47.3360473 C21.2303016,49.002259 22.1187142,50.5419767 23.5610163,51.3751329 C25.0033183,52.208289 26.780358,52.208289 28.22266,51.3751329 C29.6649621,50.5419767 30.5533746,49.002259 30.5532005,47.3360473 C30.5533746,45.6698355 29.6649621,44.1301178 28.22266,43.2969616 C26.780358,42.4638055 25.0033183,42.4638055 23.5610163,43.2969616 C22.1187142,44.1301178 21.2303016,45.6698355 21.2304758,47.3360473 L21.2304758,47.3360473 Z"
                    id="路径" opacity="0.5"></path>
                <path
                    d="M5.87031663,41.0822084 C5.87031663,42.9379907 6.85991824,44.6528042 8.46634818,45.5806954 C10.0727781,46.5085866 12.0519814,46.5085866 13.6584114,45.5806954 C15.2648413,44.6528042 16.2544429,42.9379907 16.2544429,41.0822084 C16.2544429,38.2134175 13.9298771,35.887803 11.0623798,35.887803 C8.19488248,35.887803 5.87031663,38.2134175 5.87031663,41.0822084 Z"
                    id="路径" opacity="0.600000024"></path>
                <path
                    d="M20.4878208,5.49779981 C20.4878208,8.53415075 22.9481597,10.9955995 25.9831415,10.9955995 C29.0181233,10.9955995 31.4784622,8.53415075 31.4784622,5.49779981 C31.4784622,3.53362513 30.43106,1.71865287 28.7308019,0.736565514 C27.0305437,-0.245521838 24.9357392,-0.245521838 23.2354811,0.736565514 C21.5352229,1.71865287 20.4878208,3.53362513 20.4878208,5.49779981 Z"
                    id="路径"></path>
                <path
                    d="M5.56705906,11.4286705 C5.56705906,13.3928452 6.61446124,15.2078174 8.31471939,16.1899048 C10.0149775,17.1719921 12.109782,17.1719921 13.8100401,16.1899048 C15.5102983,15.2078174 16.5577005,13.3928452 16.5577005,11.4286705 C16.5577005,8.39231957 14.0973616,5.93087081 11.0623798,5.93087081 C8.02739795,5.93087081 5.56705906,8.39231957 5.56705906,11.4286705 L5.56705906,11.4286705 Z"
                    id="路径" opacity="0.800000012"></path>
                <path
                    d="M0,26.098441 C0,27.9699577 0.997992014,29.6993104 2.61804218,30.6350688 C4.23809234,31.5708271 6.23407646,31.5708271 7.85412662,30.6350688 C9.47417678,29.6993104 10.4721688,27.9699577 10.4721688,26.098441 C10.4721688,23.2053269 8.12789396,20.8599946 5.2360844,20.8599946 C2.34427484,20.8599946 0,23.2053269 0,26.098441 L0,26.098441 Z"
                    id="路径" opacity="0.699999988"></path>
            </g>
        </g>
    </g>
</svg>