<svg width="36" height="34" viewBox="0 0 36 34" fill="none" xmlns="http://www.w3.org/2000/svg">
<circle cx="16" cy="17" r="13.5" stroke="#3D56D6"/>
<ellipse cx="27.683" cy="23.3592" rx="7.72778" ry="7.72967" transform="rotate(-1 27.683 23.3592)" fill="#F5F6F9"/>
<g opacity="0.8">
<circle cx="16" cy="17" r="10" fill="#ABB6EB"/>
<mask id="mask0" mask-type="alpha" maskUnits="userSpaceOnUse" x="6" y="7" width="20" height="20">
<circle cx="16" cy="17" r="10" fill="white"/>
</mask>
<g mask="url(#mask0)">
<path d="M15.7893 4.61292V11.5807" stroke="white" stroke-width="0.333498"/>
<path d="M14.7569 4.61292V11.5807" stroke="white" stroke-width="0.333498"/>
<path d="M17.1441 4.61292V11.5807" stroke="white" stroke-width="0.333498"/>
<path d="M11.4198 5.97018L13.679 10.184V5.38708" stroke="white" stroke-width="0.333498"/>
<path d="M20.453 5.84127L18.1938 10.0551V5.25818" stroke="white" stroke-width="0.333498"/>
<path d="M16.1473 30.2903V23.3225" stroke="white" stroke-width="0.333498"/>
<path d="M17.1796 30.2903V23.3225" stroke="white" stroke-width="0.333498"/>
<path d="M14.7924 30.2903V23.3225" stroke="white" stroke-width="0.333498"/>
<path d="M20.5823 29.0203L18.3231 24.8064V29.6034" stroke="white" stroke-width="0.333498"/>
<path d="M11.4198 29.0846L13.679 24.8708V29.6677" stroke="white" stroke-width="0.333498"/>
<path d="M3.12949 17.6307H10.0972" stroke="white" stroke-width="0.333498"/>
<path d="M3.12949 18.6628H10.0972" stroke="white" stroke-width="0.333498"/>
<path d="M3.12949 16.2758H10.0972" stroke="white" stroke-width="0.333498"/>
<path d="M4.3255 22.0334L8.53935 19.7742H3.7424" stroke="white" stroke-width="0.333498"/>
<path d="M4.77676 13.129L8.99062 15.3882H4.19366" stroke="white" stroke-width="0.333498"/>
<path d="M28.8066 17.2726H21.8388" stroke="white" stroke-width="0.333498"/>
<path d="M28.8066 16.2404H21.8388" stroke="white" stroke-width="0.333498"/>
<path d="M28.8066 18.6275H21.8388" stroke="white" stroke-width="0.333498"/>
<path d="M27.3754 12.8711L23.1616 15.1303H27.9585" stroke="white" stroke-width="0.333498"/>
<path d="M27.6335 21.9689L23.4196 19.7097H28.2166" stroke="white" stroke-width="0.333498"/>
<path d="M7.01598 26.6565L11.9429 21.7296" stroke="white" stroke-width="0.333498"/>
<path d="M7.74584 27.3864L12.6728 22.4594" stroke="white" stroke-width="0.333498"/>
<path d="M6.05766 25.6986L10.9846 20.7717" stroke="white" stroke-width="0.333498"/>
<path d="M11.2353 28.9319L12.6174 24.3548L9.22546 27.7467" stroke="white" stroke-width="0.333498"/>
<path d="M4.54122 22.3022L9.11837 20.92L5.72641 24.312" stroke="white" stroke-width="0.333498"/>
<path d="M24.9195 8.24669L19.9925 13.1736" stroke="white" stroke-width="0.333498"/>
<path d="M24.1896 7.51683L19.2627 12.4438" stroke="white" stroke-width="0.333498"/>
<path d="M25.8775 9.20469L20.9506 14.1316" stroke="white" stroke-width="0.333498"/>
<path d="M20.8508 6.12191L19.4686 10.6991L22.8606 7.3071" stroke="white" stroke-width="0.333498"/>
<path d="M27.3514 12.4937L22.7742 13.8759L26.1662 10.4839" stroke="white" stroke-width="0.333498"/>
<path d="M25.1728 26.4033L20.2459 21.4764" stroke="white" stroke-width="0.333498"/>
<path d="M25.9027 25.6734L20.9757 20.7465" stroke="white" stroke-width="0.333498"/>
<path d="M24.2145 27.3616L19.2876 22.4346" stroke="white" stroke-width="0.333498"/>
<path d="M27.4804 22.3023L22.9033 20.9201L26.2952 24.3121" stroke="white" stroke-width="0.333498"/>
<path d="M20.9151 28.8675L19.5329 24.2903L22.9249 27.6823" stroke="white" stroke-width="0.333498"/>
<path d="M6.76317 8.4999L11.6901 13.4268" stroke="white" stroke-width="0.333498"/>
<path d="M6.03306 9.22975L10.96 14.1567" stroke="white" stroke-width="0.333498"/>
<path d="M7.72124 7.54177L12.6482 12.4687" stroke="white" stroke-width="0.333498"/>
<path d="M4.86418 12.8161L9.44133 14.1983L6.04938 10.8063" stroke="white" stroke-width="0.333498"/>
<path d="M11.1712 6.31551L12.5534 10.8927L9.16141 7.5007" stroke="white" stroke-width="0.333498"/>
</g>
<circle cx="15.9679" cy="17.0323" r="6.79443" fill="#3D56D6" stroke="white" stroke-width="0.234019"/>
<mask id="mask1" mask-type="alpha" maskUnits="userSpaceOnUse" x="9" y="10" width="14" height="14">
<circle cx="16.0324" cy="17.0323" r="6.79443" fill="white" stroke="white" stroke-width="0.234019"/>
</mask>
<g mask="url(#mask1)">
<path fill-rule="evenodd" clip-rule="evenodd" d="M16.3548 9.9032L15.4515 17.1613H16.3548L15.9999 23.8559L22.5825 22.6774L23.7769 13.4865L20.8759 10.9355L16.3548 9.9032Z" fill="#E3E9FE"/>
</g>
<path d="M9.6482 16.1235C9.8036 17.3892 10.6269 18.706 11.8922 18.5506C16.1866 18.0233 15.5832 15.2638 15.5253 14.37C15.8361 16.9013 17.7586 17.8303 20.9794 17.4348C21.9379 17.3172 22.3306 15.4437 22.2245 14.5794C22.0918 13.499 19.2313 13.341 15.6654 13.7788C12.0996 14.2167 9.45395 14.5415 9.6482 16.1235Z" fill="white" stroke="white" stroke-width="0.524069" stroke-linecap="round" stroke-linejoin="round"/>
<path d="M16.0726 21.3751C17.5687 21.2531 18.6911 20.0452 18.5795 18.6773L13.1615 19.1194C13.2731 20.4873 14.5765 21.4972 16.0726 21.3751Z" fill="white" stroke="#3D56D6" stroke-width="0.3" stroke-linejoin="round"/>
<path d="M16.774 19.9032H18.2579" stroke="#3D56D6" stroke-width="0.3" stroke-linecap="round" stroke-linejoin="round"/>
<path d="M17.5807 16.8387C16.4194 16.4 15.957 15.2365 15.871 14.7096C15.871 14 16.6775 13.9032 18.6452 13.9032C20.6129 13.9032 21.8065 14.0645 21.9033 14.5806C22 15.4838 21.6775 16.8387 21.2258 17.0645C20.7742 17.2903 19.0323 17.3871 17.5807 16.8387Z" fill="#3D56D6"/>
<path d="M14.165 17.4437C15.0969 16.8295 15.5808 15.6452 15.2905 14.6452C15.1251 14.0756 14.2172 14.2153 12.5163 14.4839C11.0002 14.7233 9.83888 15.3871 9.96791 15.9678C10.0324 16.9191 10.7663 17.9239 11.1937 18.0968C11.6211 18.2697 13.0002 18.2115 14.165 17.4437Z" fill="#3D56D6"/>
<path d="M22.2258 11.6451L22.7922 13.1756L24.3226 13.7419L22.7922 14.3082L22.2258 15.8387L21.6595 14.3082L20.1291 13.7419L21.6595 13.1756L22.2258 11.6451Z" fill="#3D56D6"/>
</g>
<mask id="path-54-inside-1" fill="white">
<rect x="23.135" y="21.147" width="9.15985" height="6.51918" rx="1.152"/>
</mask>
<rect x="23.135" y="21.147" width="9.15985" height="6.51918" rx="1.152" fill="#EAEFFF" stroke="#F5F6F9" stroke-width="3.456" mask="url(#path-54-inside-1)"/>
<path fill-rule="evenodd" clip-rule="evenodd" d="M29.3482 23.5101C29.2315 23.371 29.0241 23.3529 28.8851 23.4697L27.3238 24.7806L26.682 24.0674C26.5603 23.9322 26.352 23.9212 26.2168 24.0429C26.0817 24.1646 26.0707 24.3728 26.1923 24.508L27.048 25.4589C27.1697 25.5942 27.378 25.6051 27.5132 25.4834C27.5213 25.4761 27.529 25.4685 27.5362 25.4606L29.3078 23.973C29.4467 23.8564 29.4648 23.6491 29.3482 23.5101Z" fill="#3D56D6"/>
<path d="M28.8851 23.4697L28.9314 23.5248V23.5248L28.8851 23.4697ZM29.3482 23.5101L29.293 23.5564V23.5564L29.3482 23.5101ZM27.3238 24.7806L27.2703 24.8288C27.2962 24.8576 27.3404 24.8607 27.3701 24.8358L27.3238 24.7806ZM26.682 24.0674L26.6285 24.1156L26.682 24.0674ZM26.2168 24.0429L26.265 24.0964L26.2168 24.0429ZM26.1923 24.508L26.1388 24.5562L26.1388 24.5562L26.1923 24.508ZM27.048 25.4589L27.1015 25.4108V25.4108L27.048 25.4589ZM27.5132 25.4834L27.5614 25.5369H27.5614L27.5132 25.4834ZM27.5362 25.4606L27.4895 25.4049L27.483 25.412L27.5362 25.4606ZM29.3078 23.973L29.3541 24.0282V24.0282L29.3078 23.973ZM28.9314 23.5248C29.04 23.4336 29.2019 23.4478 29.293 23.5564L29.4033 23.4638C29.261 23.2943 29.0083 23.2722 28.8388 23.4145L28.9314 23.5248ZM27.3701 24.8358L28.9314 23.5248L28.8388 23.4145L27.2775 24.7255L27.3701 24.8358ZM26.6285 24.1156L27.2703 24.8288L27.3773 24.7325L26.7355 24.0192L26.6285 24.1156ZM26.265 24.0964C26.3706 24.0013 26.5334 24.0099 26.6285 24.1156L26.7355 24.0192C26.5872 23.8544 26.3334 23.8411 26.1686 23.9894L26.265 24.0964ZM26.2459 24.4598C26.1508 24.3542 26.1594 24.1915 26.265 24.0964L26.1686 23.9894C26.0039 24.1377 25.9906 24.3914 26.1388 24.5562L26.2459 24.4598ZM27.1015 25.4108L26.2459 24.4598L26.1388 24.5562L26.9945 25.5071L27.1015 25.4108ZM27.465 25.4299C27.3594 25.525 27.1966 25.5164 27.1015 25.4108L26.9945 25.5071C27.1428 25.6719 27.3966 25.6852 27.5614 25.5369L27.465 25.4299ZM27.483 25.412C27.4774 25.4182 27.4714 25.4241 27.465 25.4299L27.5614 25.5369C27.5712 25.528 27.5805 25.5188 27.5893 25.5091L27.483 25.412ZM29.2615 23.9179L27.4899 25.4054L27.5825 25.5157L29.3541 24.0282L29.2615 23.9179ZM29.293 23.5564C29.3841 23.6649 29.37 23.8268 29.2615 23.9179L29.3541 24.0282C29.5235 23.8859 29.5455 23.6333 29.4033 23.4638L29.293 23.5564Z" fill="#3D56D6"/>
<path fill-rule="evenodd" clip-rule="evenodd" d="M24.1927 20.4416C24.1927 18.4959 25.77 16.9186 27.7157 16.9186C29.6614 16.9186 31.2388 18.4959 31.2388 20.4416V20.6187H30.5349V20.4414C30.5349 18.8848 29.2731 17.623 27.7165 17.623C26.1599 17.623 24.8981 18.8848 24.8981 20.4414V20.6187H24.1927V20.4416Z" fill="#3D56D6"/>
<path d="M31.2388 20.6187V20.7627C31.3183 20.7627 31.3828 20.6982 31.3828 20.6187H31.2388ZM30.5349 20.6187H30.3909C30.3909 20.6982 30.4554 20.7627 30.5349 20.7627V20.6187ZM24.8981 20.6187V20.7627C24.9776 20.7627 25.0421 20.6982 25.0421 20.6187H24.8981ZM24.1927 20.6187H24.0487C24.0487 20.6982 24.1132 20.7627 24.1927 20.7627V20.6187ZM27.7157 16.7746C25.6905 16.7746 24.0487 18.4164 24.0487 20.4416H24.3367C24.3367 18.5754 25.8496 17.0626 27.7157 17.0626V16.7746ZM31.3828 20.4416C31.3828 18.4164 29.741 16.7746 27.7157 16.7746V17.0626C29.5819 17.0626 31.0948 18.5754 31.0948 20.4416H31.3828ZM31.3828 20.6187V20.4416H31.0948V20.6187H31.3828ZM30.5349 20.7627H31.2388V20.4747H30.5349V20.7627ZM30.6789 20.6187V20.4414H30.3909V20.6187H30.6789ZM30.6789 20.4414C30.6789 18.8053 29.3526 17.479 27.7165 17.479V17.767C29.1935 17.767 30.3909 18.9644 30.3909 20.4414H30.6789ZM27.7165 17.479C26.0804 17.479 24.7541 18.8053 24.7541 20.4414H25.0421C25.0421 18.9644 26.2395 17.767 27.7165 17.767V17.479ZM24.7541 20.4414V20.6187H25.0421V20.4414H24.7541ZM24.1927 20.7627H24.8981V20.4747H24.1927V20.7627ZM24.0487 20.4416V20.6187H24.3367V20.4416H24.0487Z" fill="#3D56D6"/>
<path fill-rule="evenodd" clip-rule="evenodd" d="M24.7349 20.4425C23.4624 20.4425 22.4309 21.474 22.4309 22.7465V26.0672C22.4309 27.3397 23.4624 28.3712 24.7349 28.3712H30.696C31.9684 28.3712 33 27.3397 33 26.0672V22.7465C33 21.474 31.9684 20.4425 30.696 20.4425H24.7349ZM24.2878 21.147C23.6516 21.147 23.1358 21.6628 23.1358 22.299V26.5142C23.1358 27.1505 23.6516 27.6662 24.2878 27.6662H31.1437C31.7799 27.6662 32.2957 27.1505 32.2957 26.5142V22.299C32.2957 21.6628 31.7799 21.147 31.1437 21.147H24.2878Z" fill="#3D56D6"/>
<path d="M22.5749 22.7465C22.5749 21.5536 23.542 20.5865 24.7349 20.5865V20.2985C23.3829 20.2985 22.2869 21.3945 22.2869 22.7465H22.5749ZM22.5749 26.0672V22.7465H22.2869V26.0672H22.5749ZM24.7349 28.2272C23.542 28.2272 22.5749 27.2602 22.5749 26.0672H22.2869C22.2869 27.4192 23.3829 28.5152 24.7349 28.5152V28.2272ZM30.696 28.2272H24.7349V28.5152H30.696V28.2272ZM32.856 26.0672C32.856 27.2602 31.8889 28.2272 30.696 28.2272V28.5152C32.048 28.5152 33.144 27.4192 33.144 26.0672H32.856ZM32.856 22.7465V26.0672H33.144V22.7465H32.856ZM30.696 20.5865C31.8889 20.5865 32.856 21.5536 32.856 22.7465H33.144C33.144 21.3945 32.048 20.2985 30.696 20.2985V20.5865ZM24.7349 20.5865H30.696V20.2985H24.7349V20.5865ZM23.2798 22.299C23.2798 21.7423 23.7311 21.291 24.2878 21.291V21.003C23.5721 21.003 22.9918 21.5833 22.9918 22.299H23.2798ZM23.2798 26.5142V22.299H22.9918V26.5142H23.2798ZM24.2878 27.5222C23.7311 27.5222 23.2798 27.0709 23.2798 26.5142H22.9918C22.9918 27.23 23.5721 27.8102 24.2878 27.8102V27.5222ZM31.1437 27.5222H24.2878V27.8102H31.1437V27.5222ZM32.1517 26.5142C32.1517 27.0709 31.7004 27.5222 31.1437 27.5222V27.8102C31.8594 27.8102 32.4397 27.23 32.4397 26.5142H32.1517ZM32.1517 22.299V26.5142H32.4397V22.299H32.1517ZM31.1437 21.291C31.7004 21.291 32.1517 21.7423 32.1517 22.299H32.4397C32.4397 21.5833 31.8594 21.003 31.1437 21.003V21.291ZM24.2878 21.291H31.1437V21.003H24.2878V21.291Z" fill="#3D56D6"/>
</svg>
