<?xml version="1.0" encoding="UTF-8"?>
<svg width="11px" height="9px" viewBox="0 0 11 9" version="1.1" xmlns="http://www.w3.org/2000/svg" xmlns:xlink="http://www.w3.org/1999/xlink">
    <title>矿池 月份</title>
    <g id="页面-1" stroke="none" stroke-width="1" fill="none" fill-rule="evenodd" opacity="0.300000012">
        <g id="浅色-矿池治理弹窗" transform="translate(-1250.000000, -864.000000)" fill="#333333">
            <g id="编组-9备份-9" transform="translate(980.000000, 437.000000)">
                <g id="编组-15备份" transform="translate(20.000000, 304.000000)">
                    <g id="编组-2备份" transform="translate(250.000000, 123.233440)">
                        <path d="M5.39969699,-1.43833465 C5.95198174,-1.43833465 6.39969699,-0.990619404 6.39969699,-0.438334655 L6.39876194,4.63066535 L7.83782975,4.63072312 C8.3901145,4.63072312 8.83782975,5.07843837 8.83782975,5.63072312 C8.83782975,5.89593961 8.73247291,6.15029352 8.54493653,6.3378299 L6.00940262,8.87336381 C5.61887833,9.2638881 4.98571335,9.2638881 4.59518906,8.87336381 L2.05965515,6.3378299 C1.66913086,5.94730561 1.66913086,5.31414063 2.05965515,4.92361634 C2.24719153,4.73607996 2.50154545,4.63072312 2.76676194,4.63072312 L4.39876194,4.63066535 L4.39969699,-0.438334655 C4.39969699,-0.990619404 4.84741224,-1.43833465 5.39969699,-1.43833465 Z" id="形状结合" transform="translate(5.302296, 3.863961) rotate(-90.000000) translate(-5.302296, -3.863961) "></path>
                    </g>
                </g>
            </g>
        </g>
    </g>
</svg>