<svg width="25" height="25" viewBox="0 0 25 25" fill="none" xmlns="http://www.w3.org/2000/svg">
<path d="M14.875 0L2.125 0C0.951395 0 0 0.951395 0 2.125L0 14.875C0 16.0486 0.951395 17 2.125 17H14.875C16.0486 17 17 16.0486 17 14.875V2.125C17 0.951395 16.0486 0 14.875 0Z" fill="#8B5AEA"/>
<g filter="url(#filter0_bd_54_2869)">
<path d="M19.8824 4H6.11765C4.9481 4 4 4.9481 4 6.11765V19.8824C4 21.0519 4.9481 22 6.11765 22H19.8824C21.0519 22 22 21.0519 22 19.8824V6.11765C22 4.9481 21.0519 4 19.8824 4Z" fill="#8B5AEA" fill-opacity="0.3" shape-rendering="crispEdges"/>
<path d="M6.11765 4.5H19.8824C20.7758 4.5 21.5 5.22424 21.5 6.11765V19.8824C21.5 20.7758 20.7758 21.5 19.8824 21.5H6.11765C5.22424 21.5 4.5 20.7758 4.5 19.8824V6.11765C4.5 5.22425 5.22425 4.5 6.11765 4.5Z" stroke="white" stroke-opacity="0.3" shape-rendering="crispEdges"/>
</g>
<path d="M18.9562 17.9349C19.0487 18.2071 18.9947 18.4556 18.7943 18.6805C18.5938 18.8935 18.3085 19 17.9384 19H17.2677C17.0518 19 16.8436 18.9467 16.6432 18.8402C16.4581 18.7337 16.327 18.6035 16.2499 18.4497L15.371 16.4083C15.3093 16.2544 15.1783 16.1775 14.9778 16.1775H11.0225C10.8221 16.1775 10.691 16.2544 10.6293 16.4083L9.75038 18.4497C9.67328 18.6035 9.54221 18.7337 9.35717 18.8402C9.17213 18.9467 8.96396 19 8.73266 19H8.06188C7.6918 19 7.40653 18.8935 7.20607 18.6805C6.99019 18.4438 6.94393 18.1953 7.06729 17.9349L11.5545 7.5503C11.6316 7.38462 11.755 7.25444 11.9246 7.15976C12.1097 7.05325 12.3101 7 12.526 7H13.4743C13.6902 7 13.8907 7.05325 14.0757 7.15976C14.2608 7.25444 14.3841 7.38462 14.4458 7.5503L18.9562 17.9349ZM14.2839 13.8521L13.1274 11.1361C13.0503 11.0533 12.9655 11.0533 12.8729 11.1361L11.7164 13.8521C11.6856 13.9112 11.6933 13.9645 11.7396 14.0118C11.7858 14.0592 11.8475 14.0828 11.9246 14.0828H14.0757C14.1528 14.0828 14.2145 14.0592 14.2608 14.0118C14.307 13.9645 14.3147 13.9112 14.2839 13.8521Z" fill="white"/>
<defs>
<filter id="filter0_bd_54_2869" x="0" y="0" width="26" height="26" filterUnits="userSpaceOnUse" color-interpolation-filters="sRGB">
<feFlood flood-opacity="0" result="BackgroundImageFix"/>
<feGaussianBlur in="BackgroundImageFix" stdDeviation="2"/>
<feComposite in2="SourceAlpha" operator="in" result="effect1_backgroundBlur_54_2869"/>
<feColorMatrix in="SourceAlpha" type="matrix" values="0 0 0 0 0 0 0 0 0 0 0 0 0 0 0 0 0 0 127 0" result="hardAlpha"/>
<feOffset dx="1" dy="1"/>
<feGaussianBlur stdDeviation="1"/>
<feComposite in2="hardAlpha" operator="out"/>
<feColorMatrix type="matrix" values="0 0 0 0 0.118806 0 0 0 0 0.118806 0 0 0 0 0.162279 0 0 0 0.197393 0"/>
<feBlend mode="normal" in2="effect1_backgroundBlur_54_2869" result="effect2_dropShadow_54_2869"/>
<feBlend mode="normal" in="SourceGraphic" in2="effect2_dropShadow_54_2869" result="shape"/>
</filter>
</defs>
</svg>
