<?xml version="1.0" encoding="UTF-8"?>
<svg width="22px" height="22px" viewBox="0 0 22 22" version="1.1" xmlns="http://www.w3.org/2000/svg" xmlns:xlink="http://www.w3.org/1999/xlink">
    <title>DAO治理</title>
    <defs>
        <path d="M15.5033122,3.48528137 C14.9576786,3.48528137 14.4540168,3.74437228 14.1182422,4.21937228 C13.7824677,4.69437228 13.7404958,5.34209955 13.9503549,5.86028137 C14.2441577,6.6375541 14.4120449,7.41482683 14.4120449,8.23528137 C14.4120449,11.5602814 11.7678204,14.2807359 8.53599039,14.2807359 L8.32613129,14.2807359 L8.28415946,14.2807359 C7.73852583,14.2807359 7.23486401,14.5398268 6.89908946,15.0148268 C6.56331491,15.4898268 6.52134308,16.1375541 6.73120218,16.6557359 C8.20021584,20.196645 11.5159895,22.4852814 15.2514813,22.4852814 C20.3300714,22.4852814 24.4852814,18.2102814 24.4852814,12.9852814 C24.4852814,7.846645 20.5819023,3.65800865 15.5452841,3.48528137 L15.5033122,3.48528137 L15.5033122,3.48528137 Z" id="path-1"></path>
        <filter x="-14.0%" y="-13.2%" width="139.1%" height="136.8%" filterUnits="objectBoundingBox" id="filter-2">
            <feOffset dx="1" dy="1" in="SourceAlpha" result="shadowOffsetOuter1"></feOffset>
            <feGaussianBlur stdDeviation="1" in="shadowOffsetOuter1" result="shadowBlurOuter1"></feGaussianBlur>
            <feComposite in="shadowBlurOuter1" in2="SourceAlpha" operator="out" result="shadowBlurOuter1"></feComposite>
            <feColorMatrix values="0 0 0 0 0.118805823   0 0 0 0 0.118805823   0 0 0 0 0.162279212  0 0 0 0.197392817 0" type="matrix" in="shadowBlurOuter1"></feColorMatrix>
        </filter>
    </defs>
    <g id="页面-1" stroke="none" stroke-width="1" fill="none" fill-rule="evenodd">
        <g id="M-首页-侧边菜单-展开" transform="translate(-20.000000, -1046.000000)">
            <g id="编组-7备份-3" transform="translate(17.514719, 1045.514719)">
                <rect id="矩形" fill="#8B5AEA" transform="translate(10.485281, 8.485281) rotate(-360.000000) translate(-10.485281, -8.485281) " x="2.48528137" y="0.485281374" width="16" height="16" rx="8"></rect>
                <g id="路径">
                    <use fill="black" fill-opacity="1" filter="url(#filter-2)" xlink:href="#path-1"></use>
                    <path stroke-opacity="0.295454545" stroke="#FFFFFF" stroke-width="1" d="M15.4955223,3.98531023 C17.8861642,4.06905755 20.0010269,5.09362373 21.5213782,6.70166057 C23.0565101,8.32533045 23.9852814,10.5425598 23.9852814,12.9852814 C23.9852814,15.4619292 23.0010073,17.7137236 21.4143116,19.346162 C19.8327003,20.9733694 17.6517018,21.9852814 15.2514813,21.9852814 C13.4905395,21.9852814 11.8283952,21.4467536 10.432469,20.4916658 C9.02630628,19.5295741 7.89050525,18.1453178 7.19463862,16.4680482 C7.0462359,16.1016138 7.06851451,15.6413508 7.30737874,15.303444 C7.54417407,14.9684639 7.89777092,14.7807359 8.28415946,14.7807359 C10.2909799,14.7807359 11.8874451,14.0437843 13.044495,12.853378 C14.1964604,11.6682028 14.9120449,10.0336336 14.9120449,8.23528137 C14.9120449,7.35400641 14.7337304,6.51862407 14.4180579,5.68349349 C14.2653887,5.30615929 14.2876673,4.84589624 14.5265315,4.50798943 C14.7616503,4.17538105 15.1119226,3.98794701 15.4955223,3.98531023 Z" stroke-linejoin="square" fill-opacity="0.3" fill="#8B5AEA" fill-rule="evenodd"></path>
                </g>
                <path d="M11.2542963,5.71626645 L10.4432706,8.48528137 L11.2542963,11.2542963 L8.48528137,10.4432706 L5.71626645,11.2542963 L6.52729214,8.48528137 L5.71626645,5.71626645 L8.48528137,6.52729214 L11.2542963,5.71626645 Z" id="星形" stroke="#FFFFFF" stroke-width="2" transform="translate(8.485281, 8.485281) rotate(-315.000000) translate(-8.485281, -8.485281) "></path>
            </g>
        </g>
    </g>
</svg>