<svg width="14" height="14" viewBox="0 0 14 14" fill="none" xmlns="http://www.w3.org/2000/svg">
<path d="M5.86112 1.46723C5.77222 2.45423 5.36412 4.30083 3.67012 6.08023C3.72052 5.42363 3.57282 4.93503 3.40972 4.60813C3.31942 4.42823 3.05342 4.46323 3.01492 4.66063C2.93652 5.06313 2.73352 5.68683 2.22742 6.54433C1.24812 8.20403 1.37202 12.8317 6.88592 12.8317C12.3998 12.8317 12.7708 8.00803 11.9875 6.05013C11.4765 4.77263 10.703 3.96483 10.2263 3.55743C10.0702 3.42373 9.82802 3.53083 9.82172 3.73593C9.80912 4.15243 9.72162 4.73903 9.36952 5.13243C9.36042 4.41073 8.84802 2.28343 6.60172 1.07383C6.28322 0.902329 5.89402 1.10743 5.86112 1.46723Z" fill="#FF5D50"/>
<path d="M9.6012 9.27494C9.5438 8.65894 8.7717 6.99784 6.6941 5.90584C6.5492 5.82954 6.3784 5.94854 6.4001 6.11094C6.4855 6.75144 6.5772 8.03174 6.0711 8.63654C6.1264 8.08424 5.8233 7.62714 5.5699 7.34714C5.4551 7.22114 5.2479 7.28344 5.2213 7.45214C5.173 7.75734 5.0456 8.22144 4.7215 8.79124C4.1461 9.80344 3.5322 11.3707 6.4246 12.8197C6.5744 12.8274 6.7277 12.8316 6.8859 12.8316C7.0392 12.8316 7.1876 12.8274 7.3332 12.8197C9.4969 12.0063 9.7048 10.3865 9.6012 9.27494Z" fill="#FFDF99"/>
</svg>
