<?xml version="1.0" encoding="UTF-8"?>
<svg width="60px" height="60px" viewBox="0 0 60 60" version="1.1" xmlns="http://www.w3.org/2000/svg" xmlns:xlink="http://www.w3.org/1999/xlink">
    <title>NFT</title>
    <g id="NFT" stroke="none" stroke-width="1" fill="none" fill-rule="evenodd">
        <circle id="椭圆形" fill="#FFFFFF" cx="30" cy="30" r="30"></circle>
        <g id="编组">
            <circle id="椭圆形" stroke="#000000" stroke-width="2" fill-opacity="0.2" fill="#999999" cx="30" cy="30" r="29"></circle>
            <g id="编组-7备份" transform="translate(15.000000, 9.000000)" fill="#111118" fill-rule="nonzero">
                <path d="M15,0 C19.0076839,0 22.7749725,1.54521964 25.6070252,4.35348838 C28.4390779,7.15839793 30,10.8904393 30,14.8609819 L30,39 L0,39 L0,14.8609819 C0,10.8937984 1.56092206,7.16175711 4.39297476,4.35348838 C7.22502744,1.54521964 10.9923161,0 15,0 Z M15,0.739018089 C11.183315,0.739018089 7.5938529,2.21033592 4.89681669,4.88423773 C2.20636663,7.54806202 0.724478595,11.0919897 0.724478595,14.8609819 L0.724478595,38.2609819 L29.2755214,38.2609819 L29.2755214,14.8609819 C29.2755214,11.0953488 27.7936333,7.55142119 25.1031833,4.88423773 C22.4061471,2.21033592 18.8166849,0.739018089 15,0.739018089 Z M15,2.58656331 C18.0098793,2.58656331 20.8551043,3.66821706 23.1108671,5.64677003 C23.3512624,5.85839793 23.5850713,6.08010336 23.8122941,6.3118863 C26.1668496,8.71369508 27.4610318,11.9049096 27.464325,15.3010336 L27.464325,36.4067184 L2.53896818,36.4067184 L2.53896818,15.2976744 C2.53896818,11.9015504 3.83315038,8.71033592 6.18770582,6.30852712 C8.54226126,3.91007753 11.6706916,2.58656331 15,2.58656331 Z M8.01207465,32.2379844 L8.01207465,34.9320413 L12.194292,34.9320413 C10.6498353,34.3509043 9.23051591,33.4405684 8.01207465,32.2379844 Z M7.89023051,8.07881137 C6.09220637,10.1614987 5.11086718,12.7984496 5.11086718,15.5832041 L5.11086718,23.5276487 C5.11086718,25.9697674 5.86827662,28.3010336 7.26783754,30.2426356 C7.49835345,30.5651162 7.74862789,30.8775194 8.01536773,31.1764858 C8.13721185,31.3142119 8.26564215,31.451938 8.39407245,31.5829458 C10.5115258,33.742894 13.3139407,34.9320413 16.287596,34.9320413 C17.5653128,34.9320413 18.8166849,34.710336 19.9923161,34.2870801 L19.9923161,18.7912146 C19.9923161,11.5857881 12.6190999,8.30387597 7.89023051,8.07881137 Z M15.0461032,14.8273902 C16.8836443,14.8273902 18.3754116,16.3490956 18.3754116,18.2235142 C18.3754116,18.4586563 18.1877058,18.6534883 17.9538968,18.6534883 C17.7233809,18.6534883 17.532382,18.4620155 17.532382,18.2235142 C17.532382,16.822739 16.4160263,15.6839793 15.0428101,15.6839793 C13.6695938,15.6839793 12.5532382,16.822739 12.5532382,18.2235142 L12.5553727,24.7393971 C13.1136425,24.5596407 13.518112,24.0261535 13.518112,23.4 C13.518112,23.1648579 13.7058178,22.9700259 13.9396268,22.9700259 C14.1734358,22.9700259 14.3611416,23.1614987 14.3611416,23.4 C14.3549671,24.5683624 13.4804988,25.5330094 12.3645363,25.6490262 L12.1383095,25.6607236 C10.9165752,25.6607236 9.92206367,24.6462532 9.92206367,23.4 C9.92206367,23.1648579 10.1097695,22.9700259 10.3435785,22.9700259 C10.5773875,22.9700259 10.7650933,23.1614987 10.7650933,23.4 C10.7650933,24.0236492 11.1649945,24.551826 11.7151973,24.7351539 L11.7141735,18.4180078 C11.6988138,18.3740028 11.6904501,18.3266222 11.6904501,18.277261 C11.6904501,18.2033592 11.6706916,16.4834625 10.5246981,16.4834625 C10.2974753,16.4834625 10.1130626,16.2953488 10.1130626,16.0635659 C10.1130626,15.8317829 10.2974753,15.6436692 10.5246981,15.6436692 C11.3144163,15.6436692 11.8132017,16.0774122 12.1142025,16.6246377 C12.6702402,15.5565566 13.7755107,14.8273902 15.0461032,14.8273902 Z M7.56750823,17.5516796 L9.40834249,19.4361758 L9.40834249,18.3175711 C9.40834249,18.0824289 9.59604831,17.8875969 9.8298573,17.8875969 C10.0636663,17.8875969 10.2513721,18.0790698 10.2513721,18.3175711 L10.2513721,20.470801 C10.2513721,20.6454781 10.1492865,20.8 9.99121845,20.8671834 C9.93852909,20.8906977 9.88583974,20.9007753 9.8298573,20.9007753 C9.72118551,20.9007753 9.61251371,20.857106 9.53347969,20.7764858 L7.69264545,18.8919896 L7.69264545,20.470801 C7.69264545,20.7059431 7.50493963,20.9007753 7.27113062,20.9007753 C7.03732163,20.9007753 6.84961581,20.7093023 6.84961581,20.470801 L6.84961581,17.8540052 C6.84961581,17.6793282 6.95170142,17.5248062 7.10976949,17.4576227 C7.26783754,17.3904393 7.44895719,17.4273902 7.56750823,17.5516796 Z M15.0428101,18.102584 C15.9549945,18.102584 16.6992316,18.861757 16.6992316,19.792248 C16.7058178,20.0307493 16.518112,20.2222222 16.284303,20.2222222 C16.0537871,20.2222222 15.8627882,20.0307493 15.8627882,19.792248 C15.8627882,19.3320413 15.4972558,18.9591731 15.0461032,18.9591731 C14.5949506,18.9591731 14.2294182,19.3320413 14.2294182,19.792248 C14.2294182,20.0273901 14.0417124,20.2222222 13.8079034,20.2222222 C13.5740944,20.2222222 13.3863886,20.0307493 13.3863886,19.792248 C13.3863886,18.858398 14.1306257,18.102584 15.0428101,18.102584 Z" id="形状结合"></path>
            </g>
        </g>
    </g>
</svg>