<?xml version="1.0" encoding="UTF-8"?>
<svg width="14px" height="14px" viewBox="0 0 14 14" version="1.1" xmlns="http://www.w3.org/2000/svg" xmlns:xlink="http://www.w3.org/1999/xlink">
    <title>编组 10</title>
    <g id="页面-1" stroke="none" stroke-width="1" fill="none" fill-rule="evenodd">
        <g id="浅色-PSM" transform="translate(-884.000000, -511.000000)" fill="#333333">
            <g id="编组-2备份" transform="translate(400.000000, 507.000000)">
                <g id="编组-10" transform="translate(484.000000, 4.000000)">
                    <circle id="椭圆形" opacity="0.100000001" cx="7" cy="7" r="7"></circle>
                    <g id="？" opacity="0.5" transform="translate(4.252000, 2.600000)" fill-rule="nonzero">
                        <path d="M2.88,0 C1.992,0 1.296,0.252 0.78,0.756 C0.252,1.26 0,1.956 0,2.844 L1.368,2.844 C1.368,2.34 1.464,1.944 1.668,1.668 C1.896,1.332 2.268,1.176 2.796,1.176 C3.204,1.176 3.528,1.284 3.756,1.512 C3.972,1.74 4.092,2.052 4.092,2.448 C4.092,2.748 3.984,3.036 3.768,3.3 L3.624,3.468 C2.844,4.164 2.376,4.668 2.22,4.992 C2.052,5.316 1.98,5.712 1.98,6.168 L1.98,6.336 L3.36,6.336 L3.36,6.168 C3.36,5.88 3.42,5.628 3.54,5.388 C3.648,5.172 3.804,4.968 4.02,4.788 C4.596,4.284 4.944,3.96 5.052,3.84 C5.34,3.456 5.496,2.964 5.496,2.364 C5.496,1.632 5.256,1.056 4.776,0.636 C4.296,0.204 3.66,0 2.88,0 Z M2.664,6.924 C2.4,6.924 2.184,7.008 2.004,7.176 C1.824,7.344 1.74,7.56 1.74,7.824 C1.74,8.088 1.824,8.304 2.004,8.472 C2.184,8.64 2.4,8.736 2.664,8.736 C2.928,8.736 3.144,8.652 3.324,8.484 C3.504,8.316 3.6,8.088 3.6,7.824 C3.6,7.56 3.504,7.344 3.336,7.176 C3.156,7.008 2.928,6.924 2.664,6.924 Z" id="形状"></path>
                    </g>
                </g>
            </g>
        </g>
    </g>
</svg>