<svg width="16" height="16" viewBox="0 0 16 16" fill="none" xmlns="http://www.w3.org/2000/svg">
<circle cx="8" cy="8" r="8" fill="white" fill-opacity="0.2"/>
<path d="M7.076 9.916H8.636C8.444 8.26 11.072 8.044 11.072 6.292C11.072 4.696 9.8 3.88 8.06 3.88C6.776 3.88 5.72 4.468 4.952 5.356L5.936 6.256C6.524 5.644 7.124 5.308 7.856 5.308C8.804 5.308 9.38 5.716 9.38 6.448C9.38 7.612 6.824 8.032 7.076 9.916ZM7.868 13.12C8.468 13.12 8.924 12.676 8.924 12.052C8.924 11.428 8.468 10.996 7.868 10.996C7.256 10.996 6.8 11.428 6.8 12.052C6.8 12.676 7.244 13.12 7.868 13.12Z" fill="white"/>
</svg>
