<?xml version="1.0" encoding="UTF-8"?>
<svg width="12px" height="13px" viewBox="0 0 12 13" version="1.1" xmlns="http://www.w3.org/2000/svg" xmlns:xlink="http://www.w3.org/1999/xlink">
    <title>sousuo</title>
    <g id="页面-1" stroke="none" stroke-width="1" fill="none" fill-rule="evenodd" opacity="0.5">
        <g id="弹窗" transform="translate(-65.000000, -89.000000)" fill="#FFFFFF" fill-rule="nonzero">
            <g id="编组-12备份" transform="translate(20.000000, 13.000000)">
                <g id="编组-12" transform="translate(30.000000, 68.000000)">
                    <g id="sousuo" transform="translate(15.000000, 8.000000)">
                        <path d="M6,11.902108 C2.7,11.902108 0,9.22413367 0,5.95105398 C0,2.67797429 2.7,0 6,0 C9.3,0 12,2.67797429 12,5.95105398 C12,9.22413367 9.3,11.902108 6,11.902108 Z M6,10.9102656 C8.75,10.9102656 11,8.6786204 11,5.95105398 C11,3.22348756 8.75000001,0.991842335 6,0.991842335 C3.24999999,0.991842335 1,3.22348758 1,5.95105398 C1,8.67862038 3.25,10.9102656 6,10.9102656 Z M9.7,11.7037395 C9.50000001,11.505371 9.55,11.1582262 9.75,11.0094499 C9.95,10.8606735 10.3,10.8606735 10.45,11.059042 L11.4,12.1996607 C11.6,12.3980291 11.55,12.7451739 11.35,12.8939503 C11.15,13.0427266 10.8,13.0427266 10.65,12.8443582 L9.7,11.7037395 Z" id="形状"></path>
                    </g>
                </g>
            </g>
        </g>
    </g>
</svg>