<svg width="12" height="12" viewBox="0 0 12 12" fill="none" xmlns="http://www.w3.org/2000/svg">
<path d="M11.7941 10.7993L9.85868 8.87093C10.6018 7.91146 11.0047 6.73986 11.0047 5.50623C11.0047 4.03547 10.4323 2.65273 9.39307 1.61275C8.35382 0.572736 6.97205 0 5.50232 0C4.03259 0 2.65083 0.57275 1.61159 1.61274C0.572333 2.65271 0 4.03545 0 5.50621C0 6.97697 0.572333 8.35971 1.61159 9.3997C2.65777 10.4466 4.06488 11.0124 5.50555 11.0124C6.01144 11.0124 6.52173 10.9425 7.02161 10.7993C7.3948 10.6923 7.61068 10.3029 7.50381 9.92946C7.39693 9.55601 7.00777 9.33996 6.63461 9.44692C5.2019 9.85751 3.6581 9.45824 2.60559 8.405C1.83183 7.63072 1.40572 6.60124 1.40572 5.50623C1.40572 4.41122 1.83183 3.38173 2.60559 2.60745C4.20285 1.00903 6.80182 1.00908 8.39906 2.60745C9.17282 3.38173 9.59895 4.41122 9.59895 5.50623C9.59895 6.60124 9.17282 7.63072 8.39906 8.405C8.12458 8.67968 8.12458 9.12501 8.39906 9.39971L10.8001 11.794C10.9374 11.9313 11.1173 12 11.2971 12C11.477 12 11.6569 11.9313 11.7941 11.794C12.0686 11.5193 12.0686 11.074 11.7941 10.7993Z" fill="#91979D"/>
</svg>
