<svg width="18" height="18" viewBox="0 0 18 18" fill="none" xmlns="http://www.w3.org/2000/svg">
<path d="M9 1.26577C10.0158 1.26319 11.0221 1.46189 11.9607 1.8504C12.8993 2.2389 13.7516 2.80952 14.4685 3.52928C15.1753 4.23384 15.7383 5.06918 16.1261 5.98874C16.5315 6.94257 16.7342 7.95608 16.7342 9C16.7368 10.0158 16.5381 11.0221 16.1496 11.9607C15.7611 12.8993 15.1905 13.7516 14.4707 14.4685C13.7662 15.1753 12.9308 15.7383 12.0113 16.1261C11.0588 16.5297 10.0345 16.7366 9 16.7342C7.98417 16.7368 6.9779 16.5381 6.0393 16.1496C5.1007 15.7611 4.24837 15.1905 3.53153 14.4707C2.82471 13.7662 2.26171 12.9308 1.87387 12.0113C1.47029 11.0588 1.26345 10.0345 1.26577 9C1.26319 7.98417 1.46189 6.9779 1.8504 6.0393C2.2389 5.1007 2.80952 4.24837 3.52928 3.53153C4.23385 2.82471 5.06918 2.26171 5.98874 1.87387C6.94125 1.47029 7.96552 1.26345 9 1.26577ZM9 0C6.61305 0 4.32387 0.948212 2.63604 2.63604C0.948212 4.32387 0 6.61305 0 9C0 11.3869 0.948212 13.6761 2.63604 15.364C4.32387 17.0518 6.61305 18 9 18C10.1819 18 11.3522 17.7672 12.4442 17.3149C13.5361 16.8626 14.5282 16.1997 15.364 15.364C16.1997 14.5282 16.8626 13.5361 17.3149 12.4442C17.7672 11.3522 18 10.1819 18 9C18 6.61305 17.0518 4.32387 15.364 2.63604C13.6761 0.948212 11.3869 0 9 0ZM9 12.5315C8.9134 12.5316 8.82771 12.5139 8.74828 12.4794C8.66884 12.4449 8.59736 12.3944 8.53829 12.3311L4.65315 8.18694C4.53817 8.06448 4.47653 7.90137 4.48181 7.73347C4.48443 7.65034 4.50339 7.56853 4.53762 7.49273C4.57185 7.41692 4.62067 7.3486 4.68131 7.29167C4.74194 7.23473 4.81319 7.1903 4.891 7.1609C4.9688 7.1315 5.05164 7.11771 5.13477 7.12033C5.30267 7.12561 5.46159 7.19737 5.57658 7.31982L9 10.9718L12.4234 7.32095C12.5384 7.19864 12.6973 7.12703 12.8651 7.12185C13.0329 7.11668 13.1958 7.17837 13.3181 7.29336C13.4404 7.40834 13.5121 7.56721 13.5172 7.735C13.5224 7.90279 13.4607 8.06576 13.3457 8.18806L9.46059 12.3322C9.40163 12.3953 9.3303 12.4456 9.25106 12.4798C9.17181 12.5141 9.08635 12.5317 9 12.5315Z" fill="#333333"/>
</svg>
