<svg width="32" height="32" viewBox="0 0 32 32" fill="none" xmlns="http://www.w3.org/2000/svg">
<path opacity="0.1" d="M2.14362 24C0.739327 21.5677 1.78412e-05 18.8087 3.22909e-10 16.0001C-1.78406e-05 13.1916 0.739256 10.4325 2.14352 8.00018C3.54778 5.56788 5.56756 3.54807 7.99984 2.14375C10.4321 0.739424 13.1912 7.13406e-05 15.9998 0C24.8363 0 32 7.16364 32 16C32 24.8364 24.8363 32 15.9998 32C13.1912 31.9999 10.4322 31.2606 7.99993 29.8563C5.56767 28.452 3.5479 26.4322 2.14362 24Z" fill="#5915E1"/>
<path d="M20.4161 18.6666C19.9715 19.1111 19.5269 19.1111 19.0823 18.6666L15.0811 14.6654C14.6366 14.2208 14.6366 13.7762 15.0811 13.3316C15.5257 12.887 15.9703 12.887 16.4149 13.3316L20.4161 17.3328C20.8607 17.7774 20.8607 18.222 20.4161 18.6666Z" fill="#5915E1"/>
<path d="M10.5806 18.6666C10.1361 18.222 10.1361 17.7774 10.5806 17.3328L14.5819 13.3316C15.0264 12.887 15.471 12.887 15.9156 13.3316C16.3602 13.7762 16.3602 14.2208 15.9156 14.6654L11.9144 18.6666C11.4698 19.1111 11.0252 19.1111 10.5806 18.6666Z" fill="#5915E1"/>
</svg>
