<svg width="18" height="18" viewBox="0 0 18 18" fill="none" xmlns="http://www.w3.org/2000/svg">
<circle cx="9" cy="9" r="9" fill="#EEE8FC"/>
<path d="M8.99999 5.46849C9.08659 5.46841 9.17228 5.48616 9.25172 5.52065C9.33115 5.55514 9.40263 5.60562 9.4617 5.66894L13.3468 9.81308C13.4618 9.93554 13.5235 10.0987 13.5182 10.2665C13.5156 10.3497 13.4966 10.4315 13.4624 10.5073C13.4281 10.5831 13.3793 10.6514 13.3187 10.7084C13.2581 10.7653 13.1868 10.8097 13.109 10.8391C13.0312 10.8685 12.9484 10.8823 12.8652 10.8797C12.6973 10.8744 12.5384 10.8027 12.4234 10.6802L8.99999 7.02817L5.57657 10.6791C5.46158 10.8014 5.30272 10.873 5.13493 10.8782C4.96714 10.8833 4.80417 10.8216 4.68186 10.7067C4.55956 10.5917 4.48794 10.4328 4.48277 10.265C4.47759 10.0972 4.53929 9.93426 4.65427 9.81196L8.53941 5.66781C8.59836 5.60472 8.66969 5.55447 8.74894 5.52017C8.82818 5.48588 8.91365 5.46828 8.99999 5.46849Z" fill="#5915E1"/>
</svg>
