<svg width="11" height="7" viewBox="0 0 11 7" fill="none" xmlns="http://www.w3.org/2000/svg">
<path d="M10.6666 5.66852C10.222 6.1131 9.77741 6.1131 9.33283 5.66852L5.33162 1.66731C4.88704 1.22273 4.88704 0.778148 5.33162 0.333569C5.7762 -0.11101 6.22078 -0.11101 6.66535 0.333569L10.6666 4.33478C11.1111 4.77936 11.1111 5.22394 10.6666 5.66852Z" fill="#333333"/>
<path d="M0.830883 5.66852C0.386304 5.22394 0.386304 4.77936 0.830883 4.33478L4.8321 0.333569C5.27667 -0.11101 5.72125 -0.11101 6.16583 0.333569C6.61041 0.778149 6.61041 1.22273 6.16583 1.66731L2.16462 5.66852C1.72004 6.1131 1.27546 6.1131 0.830883 5.66852Z" fill="#333333"/>
</svg>
