<svg width="32" height="32" viewBox="0 0 32 32" fill="none" xmlns="http://www.w3.org/2000/svg">
<path opacity="0.5" d="M2.57663 23.75C1.21622 21.3937 0.500017 18.7209 0.5 16.0001C0.499983 13.2793 1.21615 10.6065 2.57653 8.25017C3.93691 5.89389 5.89357 3.93719 8.24984 2.57676C10.6061 1.21632 13.279 0.500069 15.9998 0.5C24.5601 0.5 31.5 7.43978 31.5 16C31.5 24.5602 24.5601 31.5 15.9998 31.5C13.279 31.4999 10.6062 30.7837 8.24993 29.4233C5.89367 28.0629 3.93703 26.1062 2.57663 23.75Z" stroke="#333333"/>
<g opacity="0.5">
<path d="M11.8308 13.3317C12.2754 12.8871 12.72 12.8871 13.1645 13.3317L17.1658 17.3329C17.6103 17.7775 17.6103 18.2221 17.1658 18.6667C16.7212 19.1113 16.2766 19.1113 15.832 18.6667L11.8308 14.6655C11.3862 14.2209 11.3862 13.7763 11.8308 13.3317Z" fill="#333333"/>
<path d="M21.6666 13.3317C22.1111 13.7763 22.1111 14.2209 21.6666 14.6655L17.6653 18.6667C17.2208 19.1113 16.7762 19.1113 16.3316 18.6667C15.887 18.2221 15.887 17.7775 16.3316 17.3329L20.3328 13.3317C20.7774 12.8871 21.222 12.8871 21.6666 13.3317Z" fill="#333333"/>
</g>
</svg>
