<svg width="11" height="7" viewBox="0 0 11 7" fill="none" xmlns="http://www.w3.org/2000/svg">
<path d="M0.830871 0.333434C1.27545 -0.111145 1.72003 -0.111145 2.16461 0.333435L6.16582 4.33465C6.6104 4.77923 6.6104 5.22381 6.16582 5.66838C5.72124 6.11296 5.27666 6.11296 4.83208 5.66838L0.830871 1.66717C0.386292 1.22259 0.386292 0.778013 0.830871 0.333434Z" fill="#333333"/>
<path d="M10.6666 0.333435C11.1111 0.778014 11.1111 1.22259 10.6666 1.66717L6.66534 5.66838C6.22076 6.11296 5.77618 6.11296 5.3316 5.66838C4.88702 5.2238 4.88702 4.77923 5.3316 4.33465L9.33282 0.333435C9.7774 -0.111144 10.222 -0.111144 10.6666 0.333435Z" fill="#333333"/>
</svg>
