<svg width="13" height="13" viewBox="0 0 13 13" fill="none" xmlns="http://www.w3.org/2000/svg">
<circle cx="6.5" cy="6.5" r="6.5" fill="white"/>
<path fill-rule="evenodd" clip-rule="evenodd" d="M5.74413 4.45098C5.68932 3.98479 6.05358 3.5752 6.52298 3.5752C6.99335 3.5752 7.3579 3.98639 7.30155 4.45336L6.92521 7.57206H6.11107L5.74413 4.45098ZM6.51959 8.71429C6.78809 8.71429 7.0037 8.79421 7.16643 8.95405C7.33729 9.1059 7.42272 9.30969 7.42272 9.56543C7.42272 9.81319 7.33729 10.021 7.16643 10.1888C6.97929 10.3487 6.76368 10.4286 6.51959 10.4286C6.2755 10.4286 6.06802 10.3447 5.89716 10.1768C5.71816 10.009 5.62866 9.8052 5.62866 9.56543C5.62866 9.30969 5.71816 9.1059 5.89716 8.95405C6.05989 8.79421 6.26736 8.71429 6.51959 8.71429Z" fill="#D35951"/>
</svg>
