<svg width="4" height="9" viewBox="0 0 4 9" fill="none" xmlns="http://www.w3.org/2000/svg">
<path fill-rule="evenodd" clip-rule="evenodd" d="M3.28781 6.33776C3.40867 6.15284 3.35674 5.90496 3.17182 5.78409C2.98691 5.66323 2.73902 5.71516 2.61816 5.90007L1.95494 6.91478L1.37038 5.92909C1.25769 5.73908 1.0123 5.67639 0.822291 5.78908C0.632279 5.90177 0.569594 6.14715 0.682281 6.33717L1.5944 7.87517C1.66485 7.99398 1.79162 8.06803 1.92972 8.07104C2.06782 8.07405 2.1977 8.0056 2.27327 7.88998L3.28781 6.33776ZM2.00035 4.70443C1.58764 4.70443 1.25306 4.36986 1.25306 3.95715C1.25306 3.54443 1.58764 3.20986 2.00035 3.20986C2.41307 3.20986 2.74764 3.54443 2.74764 3.95715C2.74764 4.36986 2.41307 4.70443 2.00035 4.70443ZM2.00026 1.71528C1.58755 1.71528 1.25297 1.38071 1.25297 0.967992C1.25297 0.555276 1.58755 0.220703 2.00026 0.220703C2.41298 0.220703 2.74755 0.555276 2.74755 0.967992C2.74755 1.38071 2.41298 1.71528 2.00026 1.71528Z" fill="#C1A0FF"/>
</svg>
