<svg width="61" height="4" viewBox="0 0 61 4" fill="none" xmlns="http://www.w3.org/2000/svg">
<path d="M0 2H23" stroke="#333333" stroke-opacity="0.2" stroke-dasharray="2 2"/>
<path d="M37 2H61" stroke="#333333" stroke-opacity="0.2" stroke-dasharray="2 2"/>
<path fill-rule="evenodd" clip-rule="evenodd" d="M33.1116 0.0652211C32.9266 -0.0556427 32.6788 -0.00371601 32.5579 0.181203C32.437 0.366121 32.489 0.614007 32.6739 0.734871L34.2135 1.74118L32.7077 2.63419C32.5177 2.74688 32.455 2.99226 32.5677 3.18228C32.6804 3.37229 32.9258 3.43497 33.1158 3.32229L35.1739 2.10172C35.2927 2.03126 35.3667 1.90449 35.3698 1.76639C35.3728 1.6283 35.3043 1.49842 35.1887 1.42285L33.1116 0.0652211ZM31 1.6748C31 2.22709 30.5523 2.6748 30 2.6748C29.4477 2.6748 29 2.22709 29 1.6748C29 1.12252 29.4477 0.674805 30 0.674805C30.5523 0.674805 31 1.12252 31 1.6748ZM27 1.6749C27 2.22719 26.5523 2.6749 26 2.6749C25.4477 2.6749 25 2.22719 25 1.6749C25 1.12262 25.4477 0.674901 26 0.674901C26.5523 0.674901 27 1.12262 27 1.6749Z" fill="#722FFF"/>
</svg>
