<svg width="32" height="32" viewBox="0 0 32 32" fill="none" xmlns="http://www.w3.org/2000/svg">
<circle cx="16" cy="16" r="16" fill="white"/>
<path d="M31 16C31 24.2843 24.2843 31 16 31C7.71573 31 1 24.2843 1 16C1 7.71573 7.71573 1 16 1C24.2843 1 31 7.71573 31 16Z" fill="url(#paint0_linear_441_10580)"/>
<mask id="mask0_441_10580" style="mask-type:alpha" maskUnits="userSpaceOnUse" x="1" y="1" width="30" height="30">
<path d="M31 16C31 24.2843 24.2843 31 16 31C7.71573 31 1 24.2843 1 16C1 7.71573 7.71573 1 16 1C24.2843 1 31 7.71573 31 16Z" fill="white"/>
</mask>
<g mask="url(#mask0_441_10580)">
<path fill-rule="evenodd" clip-rule="evenodd" d="M15.3443 7.87154V-2.58008H16.0217V7.87154H15.3443Z" fill="white"/>
<path fill-rule="evenodd" clip-rule="evenodd" d="M13.7959 7.87154V-2.58008H14.4733V7.87154H13.7959Z" fill="white"/>
<path fill-rule="evenodd" clip-rule="evenodd" d="M17.3766 7.87154V-2.58008H18.054V7.87154H17.3766Z" fill="white"/>
<path fill-rule="evenodd" clip-rule="evenodd" d="M12.8565 -1.41895V5.77648L12.2193 5.93652L8.83045 -0.384258L9.42747 -0.704347L12.1791 4.4279V-1.41895H12.8565Z" fill="white"/>
<path fill-rule="evenodd" clip-rule="evenodd" d="M18.9517 -1.6123V5.58312L19.5889 5.74317L22.9777 -0.577617L22.3807 -0.897706L19.6291 4.23454V-1.6123H18.9517Z" fill="white"/>
<path fill-rule="evenodd" clip-rule="evenodd" d="M16.5588 25.4839V35.9355H15.8814L15.8814 25.4839H16.5588Z" fill="white"/>
<path fill-rule="evenodd" clip-rule="evenodd" d="M18.1071 25.4839V35.9355H17.4297V25.4839H18.1071Z" fill="white"/>
<path fill-rule="evenodd" clip-rule="evenodd" d="M14.5266 25.4839L14.5266 35.9355H13.8492L13.8492 25.4839H14.5266Z" fill="white"/>
<path fill-rule="evenodd" clip-rule="evenodd" d="M19.1451 34.9053V27.7098L19.7823 27.5498L23.1711 33.8706L22.5741 34.1907L19.8225 29.0584V34.9053H19.1451Z" fill="white"/>
<path fill-rule="evenodd" clip-rule="evenodd" d="M12.8565 35.0029V27.8075L12.2193 27.6475L8.83051 33.9682L9.42754 34.2883L12.1791 29.1561V35.0029H12.8565Z" fill="white"/>
<path fill-rule="evenodd" clip-rule="evenodd" d="M7.14506 17.2852H-3.30655V16.6077H7.14506V17.2852Z" fill="white"/>
<path fill-rule="evenodd" clip-rule="evenodd" d="M7.14506 18.834H-3.30655V18.1566H7.14506V18.834Z" fill="white"/>
<path fill-rule="evenodd" clip-rule="evenodd" d="M7.14506 15.2529H-3.30655V14.5755H7.14506V15.2529Z" fill="white"/>
<path fill-rule="evenodd" clip-rule="evenodd" d="M-2.38719 19.8236H4.80824L4.96828 20.4608L-1.3525 23.8496L-1.67259 23.2526L3.45965 20.501H-2.38719L-2.38719 19.8236Z" fill="white"/>
<path fill-rule="evenodd" clip-rule="evenodd" d="M-1.70969 13.9225H5.48574L5.64578 13.2853L-0.674999 9.89648L-0.995088 10.4935L4.13715 13.2451H-1.70969V13.9225Z" fill="white"/>
<path fill-rule="evenodd" clip-rule="evenodd" d="M24.758 16.0713L35.2096 16.0713V16.7487L24.758 16.7487V16.0713Z" fill="white"/>
<path fill-rule="evenodd" clip-rule="evenodd" d="M24.758 14.5234L35.2096 14.5234V15.2009L24.758 15.2009V14.5234Z" fill="white"/>
<path fill-rule="evenodd" clip-rule="evenodd" d="M24.758 18.1035L35.2096 18.1035V18.7809L24.758 18.7809V18.1035Z" fill="white"/>
<path fill-rule="evenodd" clip-rule="evenodd" d="M33.9372 13.5348H26.7418L26.5818 12.8976L32.9025 9.50879L33.2226 10.1058L28.0904 12.8574H33.9372V13.5348Z" fill="white"/>
<path fill-rule="evenodd" clip-rule="evenodd" d="M34.3244 19.7269H27.129L26.9689 20.3641L33.2897 23.7529L33.6098 23.1559L28.4775 20.4043H34.3244V19.7269Z" fill="white"/>
<path fill-rule="evenodd" clip-rule="evenodd" d="M10.1539 23.3352L2.76346 30.7256L2.28445 30.2466L9.67486 22.8562L10.1539 23.3352Z" fill="white"/>
<path fill-rule="evenodd" clip-rule="evenodd" d="M11.2488 24.4299L3.85843 31.8203L3.37942 31.3413L10.7698 23.9509L11.2488 24.4299Z" fill="white"/>
<path fill-rule="evenodd" clip-rule="evenodd" d="M8.71685 21.8977L1.32645 29.2881L0.847439 28.8091L8.23785 21.4187L8.71685 21.8977Z" fill="white"/>
<path fill-rule="evenodd" clip-rule="evenodd" d="M5.5993 31.8817L10.6872 26.7937L11.251 27.1312L9.17777 33.9969L8.52927 33.8011L10.2126 28.2263L6.0783 32.3607L5.5993 31.8817Z" fill="white"/>
<path fill-rule="evenodd" clip-rule="evenodd" d="M0.829292 27.2091L5.91723 22.1212L5.57981 21.5575L-1.28591 23.6307L-1.09009 24.2792L4.48462 22.5958L0.350284 26.7301L0.829292 27.2091Z" fill="white"/>
<path fill-rule="evenodd" clip-rule="evenodd" d="M21.7496 10.0213L29.14 2.63086L29.619 3.10987L22.2286 10.5003L21.7496 10.0213Z" fill="white"/>
<path fill-rule="evenodd" clip-rule="evenodd" d="M20.6545 8.92752L28.045 1.53711L28.524 2.01612L21.1336 9.40652L20.6545 8.92752Z" fill="white"/>
<path fill-rule="evenodd" clip-rule="evenodd" d="M23.1865 11.4578L30.577 4.06738L31.056 4.54639L23.6656 11.9368L23.1865 11.4578Z" fill="white"/>
<path fill-rule="evenodd" clip-rule="evenodd" d="M26.5303 1.70036L21.4423 6.78829L20.8786 6.45087L22.9518 -0.41485L23.6003 -0.219026L21.9169 5.35569L26.0513 1.22135L26.5303 1.70036Z" fill="white"/>
<path fill-rule="evenodd" clip-rule="evenodd" d="M31.0099 5.98714L25.922 11.0751L26.2594 11.6388L33.1251 9.56562L32.9293 8.91712L27.3546 10.6005L31.4889 6.46615L31.0099 5.98714Z" fill="white"/>
<path fill-rule="evenodd" clip-rule="evenodd" d="M22.608 22.4758L29.9984 29.8662L29.5194 30.3452L22.129 22.9548L22.608 22.4758Z" fill="white"/>
<path fill-rule="evenodd" clip-rule="evenodd" d="M23.7029 21.3811L31.0934 28.7715L30.6143 29.2505L23.2239 21.8601L23.7029 21.3811Z" fill="white"/>
<path fill-rule="evenodd" clip-rule="evenodd" d="M21.1711 23.9123L28.5616 31.3027L28.0825 31.7817L20.6921 24.3913L21.1711 23.9123Z" fill="white"/>
<path fill-rule="evenodd" clip-rule="evenodd" d="M31.2031 27.2082L26.1151 22.1202L26.4525 21.5565L33.3183 23.6297L33.1224 24.2782L27.5477 22.5948L31.6821 26.7292L31.2031 27.2082Z" fill="white"/>
<path fill-rule="evenodd" clip-rule="evenodd" d="M26.6267 31.785L21.5388 26.6971L20.975 27.0345L23.0482 33.9002L23.6967 33.7044L22.0134 28.1297L26.1477 32.264L26.6267 31.785Z" fill="white"/>
<path fill-rule="evenodd" clip-rule="evenodd" d="M9.29504 10.8787L1.90463 3.48828L2.38364 3.00927L9.77405 10.3997L9.29504 10.8787Z" fill="white"/>
<path fill-rule="evenodd" clip-rule="evenodd" d="M8.20025 11.9734L0.809844 4.58301L1.28885 4.104L8.67926 11.4944L8.20025 11.9734Z" fill="white"/>
<path fill-rule="evenodd" clip-rule="evenodd" d="M10.7322 9.44119L3.34177 2.05078L3.82077 1.57177L11.2112 8.96218L10.7322 9.44119Z" fill="white"/>
<path fill-rule="evenodd" clip-rule="evenodd" d="M1.31312 6.46859L6.40105 11.5565L6.06364 12.1203L-0.802088 10.0471L-0.606264 9.39857L4.96845 11.0819L0.83411 6.9476L1.31312 6.46859Z" fill="white"/>
<path fill-rule="evenodd" clip-rule="evenodd" d="M5.50249 1.99039L10.5904 7.07833L11.1542 6.74091L9.08097 -0.124811L8.43247 0.0710134L10.1158 5.64573L5.9815 1.51139L5.50249 1.99039Z" fill="white"/>
</g>
<circle cx="15.9515" cy="16.0484" r="10.0161" fill="#F8BA3A"/>
<mask id="mask1_441_10580" style="mask-type:alpha" maskUnits="userSpaceOnUse" x="6" y="6" width="21" height="21">
<circle cx="16.1158" cy="16.1157" r="10.0161" fill="white"/>
</mask>
<g mask="url(#mask1_441_10580)">
</g>
<path fill-rule="evenodd" clip-rule="evenodd" d="M16.5322 5.7998L15.1774 16.2417H16.5322L16 26.2836C16 26.2836 18.55 26.8313 22.45 24.0998C26.35 21.3683 26.5344 15.1201 25.3 11.9498C24.0655 8.77954 21.85 7.2998 20.65 6.6998C19.45 6.0998 16.5322 5.7998 16.5322 5.7998Z" fill="white"/>
<path d="M6.47224 14.6859C6.70534 16.5844 7.94033 18.5596 9.83828 18.3265C16.2798 17.5356 15.3747 13.3962 15.288 12.0556C15.7542 15.8525 18.6379 17.2461 23.469 16.6529C24.9068 16.4763 25.4959 13.6662 25.3367 12.3697C25.1377 10.749 20.8468 10.5121 15.4981 11.1689C10.1493 11.8256 6.18086 12.3129 6.47224 14.6859Z" fill="#01C1AE"/>
<path fill-rule="evenodd" clip-rule="evenodd" d="M15.6694 11.6832C15.748 11.7638 15.8017 11.8698 15.8164 11.9898C16.0323 13.7483 16.7891 14.8785 17.9952 15.5315C19.2371 16.2039 21.0355 16.4145 23.4043 16.1236C23.5871 16.1012 23.7804 15.9925 23.9796 15.7515C24.1805 15.5084 24.3578 15.1636 24.4989 14.7561C24.7837 13.934 24.8768 12.9894 24.8085 12.4336C24.7912 12.2923 24.6819 12.0924 24.2426 11.8873C23.8076 11.6843 23.1538 11.5312 22.2948 11.4438C20.6085 11.2722 18.2837 11.3673 15.6694 11.6832ZM14.8281 11.7867C12.4549 12.0806 10.4506 12.3528 9.02698 12.7915C8.24218 13.0333 7.6985 13.3077 7.37206 13.6145C7.07331 13.8953 6.94976 14.2055 7.00067 14.6201C7.10739 15.4893 7.44319 16.3575 7.9428 16.9673C8.43436 17.5672 9.05075 17.886 9.77355 17.7973C12.8724 17.4168 14.0537 16.2596 14.5236 15.1833C14.9484 14.2102 14.8562 13.2055 14.7884 12.4656C14.776 12.3306 14.7644 12.2045 14.7569 12.089C14.7499 11.9794 14.7765 11.8752 14.8281 11.7867ZM24.6929 10.9227C25.2812 11.1974 25.783 11.6348 25.8651 12.3038C25.9561 13.0445 25.8343 14.1533 25.5048 15.1045C25.3389 15.5837 25.1093 16.0555 24.8002 16.4295C24.4895 16.8056 24.0701 17.1144 23.534 17.1802C21.0716 17.4826 19.0126 17.2929 17.4883 16.4676C16.7675 16.0774 16.1838 15.5547 15.7396 14.9042C15.6799 15.1387 15.6013 15.3752 15.4992 15.6092C14.8329 17.1355 13.246 18.4434 9.90328 18.8539C8.72813 18.9981 7.77805 18.4459 7.11936 17.6419C6.46871 16.8477 6.07046 15.7791 5.94408 14.7498C5.8493 13.9779 6.11254 13.3373 6.64307 12.8388C7.14591 12.3662 7.87401 12.0329 8.71349 11.7742C10.383 11.2597 12.7489 10.9692 15.3827 10.6458L15.4333 10.6396C18.1245 10.3092 20.5793 10.1992 22.4026 10.3848C23.3098 10.4771 24.1003 10.6461 24.6929 10.9227Z" fill="#01C1AE"/>
<path d="M16.1085 22.5624C18.3527 22.3793 20.0363 20.5675 19.8689 18.5156L11.7419 19.1787C11.9093 21.2305 13.8643 22.7455 16.1085 22.5624Z" fill="white"/>
<path fill-rule="evenodd" clip-rule="evenodd" d="M11.5007 19.1982C11.4898 19.065 11.589 18.9482 11.7222 18.9374L19.8491 18.2743C19.9823 18.2634 20.099 18.3626 20.1099 18.4957C20.2898 20.7006 18.4847 22.611 16.1281 22.8033C13.7715 22.9955 11.6806 21.4031 11.5007 19.1982ZM12.0118 19.3992C12.2936 21.1773 14.0479 22.4875 16.0887 22.321C18.1296 22.1545 19.6483 20.5772 19.6382 18.777L12.0118 19.3992Z" fill="#FE9D51"/>
<path d="M17.1612 20.3555H19.758" stroke="#FE9A54" stroke-width="0.451613" stroke-linecap="round" stroke-linejoin="round"/>
<path d="M18.3709 15.7587C16.629 15.1006 15.9355 13.3555 15.8064 12.5651C15.8064 11.5006 17.0161 11.3555 19.9677 11.3555C22.9193 11.3555 24.7096 11.5974 24.8548 12.3716C25 13.7264 24.5161 15.7587 23.8387 16.0974C23.1613 16.4361 20.5484 16.5813 18.3709 15.7587Z" fill="black"/>
<path d="M13.2472 16.6657C14.6451 15.7444 15.3709 13.9679 14.9354 12.4679C14.6874 11.6136 13.3256 11.8231 10.7742 12.2259C8.49996 12.585 6.75802 13.5808 6.95157 14.4518C7.04829 15.8788 8.14916 17.3859 8.79028 17.6453C9.43141 17.9047 11.5 17.8173 13.2472 16.6657Z" fill="black"/>
<path d="M25.3386 7.96777L26.1881 10.2635L28.4838 11.1129L26.1881 11.9624L25.3386 14.2581L24.4892 11.9624L22.1935 11.1129L24.4892 10.2635L25.3386 7.96777Z" fill="white"/>
<circle cx="25.5" cy="25.5" r="6.5" fill="white"/>
<path d="M24.675 27.1005C24.675 27.4501 24.7308 27.7395 24.8425 27.9685C25.0499 28.3905 25.4267 28.6015 25.9731 28.6015C26.3081 28.6015 26.5992 28.4869 26.8465 28.2579C27.0977 28.0248 27.2233 27.6912 27.2233 27.2572C27.2233 26.6825 26.992 26.2987 26.5294 26.1058C26.2662 25.9973 25.8514 25.9431 25.2851 25.9431V24.7133C25.8395 24.7053 26.2263 24.651 26.4457 24.5506C26.8245 24.3818 27.014 24.0402 27.014 23.5258C27.014 23.1922 26.9163 22.921 26.7208 22.712C26.5294 22.503 26.2582 22.3985 25.9073 22.3985C25.5045 22.3985 25.2074 22.5271 25.016 22.7843C24.8285 23.0415 24.7388 23.3851 24.7468 23.8151H23.1555C23.1715 23.3811 23.2453 22.9692 23.3769 22.5794C23.5165 22.2378 23.7358 21.9223 24.0349 21.633C24.2582 21.428 24.5234 21.2713 24.8305 21.1628C25.1376 21.0543 25.5145 21 25.9611 21C26.7906 21 27.4586 21.217 27.9651 21.651C28.4756 22.081 28.7308 22.6597 28.7308 23.3871C28.7308 23.9015 28.5793 24.3356 28.2762 24.6892C28.0847 24.9102 27.8853 25.061 27.678 25.1413C27.8335 25.1413 28.0568 25.276 28.348 25.5452C28.7827 25.9511 29 26.5057 29 27.209C29 27.9484 28.7448 28.5995 28.2343 29.1621C27.7278 29.7207 26.9761 30 25.9791 30C24.7507 30 23.8973 29.5961 23.4187 28.7883C23.1675 28.3583 23.0279 27.7957 23 27.1005H24.675Z" fill="black"/>
<defs>
<linearGradient id="paint0_linear_441_10580" x1="16" y1="1" x2="16" y2="31" gradientUnits="userSpaceOnUse">
<stop stop-color="#F5B745"/>
<stop offset="1" stop-color="#FC8B47"/>
</linearGradient>
</defs>
</svg>
