<?xml version="1.0" encoding="UTF-8"?>
<svg width="31px" height="31px" viewBox="0 0 31 31" version="1.1" xmlns="http://www.w3.org/2000/svg" xmlns:xlink="http://www.w3.org/1999/xlink">
    <title>sunCurve-n</title>
    <g id="页面-1" stroke="none" stroke-width="1" fill="none" fill-rule="evenodd" opacity="0.5">
        <g id="首页" transform="translate(-172.000000, -637.000000)">
            <g id="编组-12备份-2" transform="translate(0.000000, 636.000000)">
                <g id="编组-2" transform="translate(172.000000, 1.000000)">
                    <path d="M12.0345679,10.625 C9.95457484,11.7322655 8.5345679,13.9535752 8.5345679,16.5133394 C8.5345679,16.7378539 8.54549185,16.9597648 8.56682693,17.1785487 M12.0345679,22.7885239 C13.0724291,23.323291 14.248586,23.625 15.4947938,23.625 C16.7729503,23.625 17.977418,23.307623 19.0345679,22.7469366 M22.4840075,17.1785487 C22.5173872,16.9151071 22.5345679,16.6468856 22.5345679,16.3748235 C22.5345679,13.9102066 21.1246166,11.7607608 19.0345679,10.625" id="形状" stroke="#FFFFFF" stroke-width="2" stroke-linecap="square"></path>
                    <path d="M8.25061728,17.875 C9.06400098,17.875 9.79980432,18.2097775 10.3326405,18.7492741 C10.8699449,19.2932948 11.2012346,20.0451381 11.2012346,20.875 C11.2012346,21.7048619 10.8699449,22.4567052 10.3326405,23.0007259 C9.79980432,23.5402225 9.06400098,23.875 8.25061728,23.875 C7.43723359,23.875 6.70143025,23.5402225 6.16859404,23.0007259 C5.63128965,22.4567052 5.3,21.7048619 5.3,20.875 C5.3,20.0451381 5.63128965,19.2932948 6.16859404,18.7492741 C6.70143025,18.2097775 7.43723359,17.875 8.25061728,17.875 Z M22.8185185,17.875 C23.6319022,17.875 24.3677056,18.2097775 24.9005418,18.7492741 C25.4378462,19.2932948 25.7691358,20.0451381 25.7691358,20.875 C25.7691358,21.7048619 25.4378462,22.4567052 24.9005418,23.0007259 C24.3677056,23.5402225 23.6319022,23.875 22.8185185,23.875 C22.0051348,23.875 21.2693315,23.5402225 20.7364953,23.0007259 C20.1991909,22.4567052 19.8679012,21.7048619 19.8679012,20.875 C19.8679012,20.0451381 20.1991909,19.2932948 20.7364953,18.7492741 C21.2693315,18.2097775 22.0051348,17.875 22.8185185,17.875 Z M15.5345679,6 C16.3479516,6 17.0837549,6.33477747 17.6165911,6.87427413 C18.1538955,7.41829482 18.4851852,8.17013811 18.4851852,9 C18.4851852,9.82986189 18.1538955,10.5817052 17.6165911,11.1257259 C17.0837549,11.6652225 16.3479516,12 15.5345679,12 C14.7211842,12 13.9853809,11.6652225 13.4525447,11.1257259 C12.9152403,10.5817052 12.5839506,9.82986189 12.5839506,9 C12.5839506,8.17013811 12.9152403,7.41829482 13.4525447,6.87427413 C13.9853809,6.33477747 14.7211842,6 15.5345679,6 Z" id="形状结合" stroke="#FFFFFF" stroke-width="2"></path>
                    <g id="meiyuanbizhuanyongzhanghu" transform="translate(12.534568, 13.425000)" fill="#FFFFFF" fill-rule="nonzero">
                        <path d="M6,5.28939125 C6,4.72092252 5.8139141,4.45727002 5.50821632,4.25129607 C5.36199742,4.15242639 5.1759224,4.05355669 4.80376148,3.88878302 C4.39171179,3.70751279 3.97968387,3.54274825 3.55433069,3.36974 C2.98279125,3.14727863 2.53087457,2.97427038 2.41125179,2.81772215 C2.37136303,2.76006187 2.34478866,2.66942675 2.34478866,2.52113136 C2.34478866,2.249226 2.33149603,1.94440978 2.92962073,1.94440978 C3.20873326,1.94440978 3.52775631,1.9691135 3.59420856,2.17508744 C3.61192481,2.23002114 3.62078293,2.45247337 3.62078293,2.84244413 L5.77404708,2.84244413 C5.81835584,2.12290774 5.68100594,1.63955701 5.3619974,1.39239193 C4.92337334,1.03811345 4.19232238,0.996922309 3.54102716,0.963965747 L3.54102718,0 L2.4378153,0 L2.4378153,0.963947474 C1.78652009,0.996904035 1.08208701,1.06283544 0.630148567,1.40060823 C0.178231885,1.73017386 0.125083134,2.17506918 0.125083134,2.58701708 C0.125083134,3.18024435 0.311147282,3.435644 0.630148567,3.64985252 C0.909282851,3.83933904 1.36119953,4.02884385 1.44095529,4.06180042 C1.82640884,4.22658324 2.21187327,4.39960062 2.61063032,4.5643743 C3.16887714,4.80332309 3.54103806,4.94336563 3.66066082,5.13286129 C3.72712395,5.23996555 3.72712395,5.40474837 3.72712395,5.42947036 C3.72712395,5.63544431 3.76701271,5.94027881 2.96949861,5.94027881 C2.50428931,5.94027881 2.34479953,5.80845255 2.29162903,5.6766263 C2.23844765,5.56952205 2.25174027,5.44593037 2.25174027,5.4129738 L2.25174027,5.0010259 L0.00544948681,5.00102589 C-0.0211248888,5.84139997 0.0320456221,6.22040044 0.563718065,6.54169494 C1.06879437,6.838304 1.70679696,6.88773885 1.93274986,6.90422627 C2.09226138,6.92069542 2.26504378,6.93718283 2.43782617,6.9454174 L2.43782617,8 L3.54103806,8 L3.54103807,6.94543569 C4.21892941,6.8959917 4.83033585,6.83831315 5.3487048,6.54171322 C5.93353686,6.21216587 6,5.75077399 6,5.28939125 Z" id="路径"></path>
                    </g>
                </g>
            </g>
        </g>
    </g>
</svg>