<?xml version="1.0" encoding="UTF-8"?>
<svg width="114px" height="45px" viewBox="0 0 114 45" version="1.1" xmlns="http://www.w3.org/2000/svg" xmlns:xlink="http://www.w3.org/1999/xlink">
    <title>SUNLogo.df17f86b</title>
    <defs>
        <linearGradient x1="50%" y1="0%" x2="50%" y2="100%" id="linearGradient-1">
            <stop stop-color="#F5B745" offset="0%"></stop>
            <stop stop-color="#FC8B47" offset="100%"></stop>
        </linearGradient>
        <circle id="path-2" cx="22.5" cy="22.5" r="22.5"></circle>
        <circle id="path-4" cx="15.3627" cy="15.3627" r="15.3627"></circle>
    </defs>
    <g id="页面-1" stroke="none" stroke-width="1" fill="none" fill-rule="evenodd">
        <g id="浅色-V3-兑换" transform="translate(-362.000000, -80.000000)">
            <g id="顶部导航" transform="translate(360.000000, 26.000000)">
                <g id="SUNLogo.df17f86b" transform="translate(2.000000, 54.000000)">
                    <g id="编组-7">
                        <circle id="椭圆形" fill="url(#linearGradient-1)" fill-rule="nonzero" cx="22.5" cy="22.5" r="22.5"></circle>
                        <g id="Clipped">
                            <mask id="mask-3" fill="white">
                                <use xlink:href="#path-2"></use>
                            </mask>
                            <g id="椭圆形"></g>
                            <g id="编组" mask="url(#mask-3)" stroke="#FFFFFF" stroke-width="0.789865">
                                <g transform="translate(-6.458980, -5.370970)" id="路径">
                                    <line x1="28.48418" y1="0" x2="28.48418" y2="15.67747"></line>
                                    <line x1="26.16198" y1="0" x2="26.16198" y2="15.67747"></line>
                                    <line x1="31.53298" y1="0" x2="31.53298" y2="15.67747"></line>
                                    <polyline points="18.65328 3.05391 23.73658 12.53508 23.73658 1.74194"></polyline>
                                    <polyline points="38.97798 2.76362 33.89478 12.2448 33.89478 1.45166"></polyline>
                                    <line x1="29.28928" y1="57.77417" x2="29.28928" y2="42.09677"></line>
                                    <line x1="31.61198" y1="57.77417" x2="31.61198" y2="42.09677"></line>
                                    <line x1="26.24088" y1="57.77417" x2="26.24088" y2="42.09677"></line>
                                    <polyline points="39.26808 54.91667 34.18488 45.43547 34.18488 56.22867"></polyline>
                                    <polyline points="18.65278 55.06167 23.73608 45.58047 23.73608 56.37367"></polyline>
                                    <line x1="0" y1="29.28997" x2="15.67742" y2="29.28997"></line>
                                    <line x1="0" y1="31.61247" x2="15.67742" y2="31.61247"></line>
                                    <line x1="0" y1="26.24167" x2="15.67742" y2="26.24167"></line>
                                    <polyline points="2.69087 39.19617 12.17204 34.11297 1.3789 34.11297"></polyline>
                                    <polyline points="3.70698 19.16137 13.18815 24.24457 2.39502 24.24457"></polyline>
                                    <line x1="57.77388" y1="28.48457" x2="42.09648" y2="28.48457"></line>
                                    <line x1="57.77388" y1="26.16177" x2="42.09648" y2="26.16177"></line>
                                    <line x1="57.77388" y1="31.53277" x2="42.09648" y2="31.53277"></line>
                                    <polyline points="54.55378 18.58077 45.07258 23.66407 55.86568 23.66407"></polyline>
                                    <polyline points="55.13428 39.05117 45.65318 33.96787 56.44628 33.96787"></polyline>
                                    <line x1="8.74506" y1="49.59797" x2="19.83068" y2="38.51237"></line>
                                    <line x1="10.38764" y1="51.24017" x2="21.47328" y2="40.15457"></line>
                                    <line x1="6.589298" y1="47.44257" x2="17.67488" y2="36.35697"></line>
                                    <polyline points="18.23868 54.71767 21.34858 44.41907 13.71665 52.05097"></polyline>
                                    <polyline points="3.17721 39.80077 13.47579 36.69097 5.843891 44.32287"></polyline>
                                    <line x1="49.02888" y1="8.17583" x2="37.94328" y2="19.26147"></line>
                                    <line x1="47.38678" y1="6.53362" x2="36.30118" y2="17.61927"></line>
                                    <line x1="51.18458" y1="10.33147" x2="40.09898" y2="21.41707"></line>
                                    <polyline points="39.87408 3.39523 36.76428 13.69381 44.39618 6.061912"></polyline>
                                    <polyline points="54.50048 17.73167 44.20198 20.84147 51.83388 13.20957"></polyline>
                                    <line x1="49.59708" y1="49.02857" x2="38.51148" y2="37.94297"></line>
                                    <line x1="51.23968" y1="47.38637" x2="40.15408" y2="36.30077"></line>
                                    <line x1="47.44138" y1="51.18427" x2="36.35578" y2="40.09867"></line>
                                    <polyline points="54.79008 39.80097 44.49148 36.69107 52.12338 44.32297"></polyline>
                                    <polyline points="40.01758 54.57277 36.90778 44.27417 44.53968 51.90607"></polyline>
                                    <line x1="8.17534" y1="8.74555" x2="19.26098" y2="19.83117"></line>
                                    <line x1="6.5327632" y1="10.38789" x2="17.61838" y2="21.47347"></line>
                                    <line x1="10.3311" y1="6.58991" x2="21.41668" y2="17.67557"></line>
                                    <polyline points="3.90279 18.45747 14.20138 21.56727 6.569477 13.9354"></polyline>
                                    <polyline points="18.09368 3.83077 21.20348 14.12936 13.57163 6.49746"></polyline>
                                </g>
                            </g>
                        </g>
                        <circle id="椭圆形" stroke="#FFFFFF" stroke-width="0.677027" fill="#F8BA3A" fill-rule="nonzero" cx="22.428" cy="22.5725" r="15.3627"></circle>
                        <g id="Clipped" transform="translate(7.210300, 7.209800)">
                            <mask id="mask-5" fill="white">
                                <use xlink:href="#path-4"></use>
                            </mask>
                            <g id="椭圆形"></g>
                            <polygon id="路径" fill="#FFFFFF" mask="url(#mask-5)" points="16.0886 -0.67757 14.0563 15.6531 16.0886 15.6531 15.2902 30.7159 30.1011 28.0644 32.7885 7.3848 26.261 1.64501"></polygon>
                        </g>
                        <path d="M8.20855,20.5281 C8.5582,23.3758 10.4107,26.3386 13.2576,25.989 C22.9199,24.8026 21.5623,18.5936 21.4321,16.5826 C22.1314,22.278 26.457,24.3683 33.7037,23.4785 C35.8604,23.2137 36.744,18.9985 36.5052,17.0537 C36.2067,14.6228 29.7704,14.2674 21.7473,15.2525 C13.7241,16.2376 7.77148,16.9685 8.20855,20.5281 Z" id="路径" stroke="#01C1AE" stroke-width="1.24122" fill="#01C1AE" fill-rule="nonzero" stroke-linecap="round" stroke-linejoin="round"></path>
                        <path d="M22.6632,32.3441 C26.0295,32.0695 28.5548,29.3518 28.3037,26.2741 L16.1133,27.2687 C16.3644,30.3464 19.2969,32.6188 22.6632,32.3441 Z" id="路径" stroke="#FE9D51" stroke-width="0.564189" fill="#FFFFFF" fill-rule="nonzero" stroke-linejoin="round"></path>
                        <line x1="24.2417" y1="29.0322" x2="27.5804" y2="29.0322" id="路径" stroke="#FE9A54" stroke-width="0.451351" stroke-linecap="round" stroke-linejoin="round"></line>
                        <path d="M26.0567,22.1369 C23.4438,21.1498 22.4035,18.5321 22.21,17.3466 C22.21,15.7498 24.0245,15.5321 28.4519,15.5321 C32.8793,15.5321 35.5648,15.895 35.7825,17.0563 C36.0003,19.0886 35.2745,22.1369 34.2584,22.645 C33.2422,23.1531 29.3229,23.3708 26.0567,22.1369 Z" id="路径" stroke="#000000" stroke-width="0.112838" fill="#000000" fill-rule="nonzero"></path>
                        <path d="M18.3713,23.4983 C20.4681,22.1164 21.5569,19.4516 20.9037,17.2016 C20.5316,15.9201 18.4889,16.2344 14.6617,16.8387 C11.2504,17.3773 8.63752,18.8709 8.92785,20.1774 C9.07293,22.318 10.7242,24.5787 11.6859,24.9677 C12.6476,25.3567 15.7504,25.2257 18.3713,23.4983 Z" id="路径" stroke="#000000" stroke-width="0.112838" fill="#000000" fill-rule="nonzero"></path>
                        <polygon id="路径" fill="#FFFFFF" fill-rule="nonzero" points="36.5083 10.4515 37.7825 13.8951 41.226 15.1693 37.7825 16.4435 36.5083 19.887 35.2341 16.4435 31.7905 15.1693 35.2341 13.8951"></polygon>
                    </g>
                    <path d="M56.8371859,27.1590909 C56.8371859,27.9995544 56.9804408,28.7170232 57.2669507,29.3114973 C57.5534606,29.9059715 57.9525279,30.3979501 58.4641527,30.7874332 C58.9757775,31.1564171 59.5590298,31.4331551 60.2139095,31.6176471 C60.8892542,31.7816399 61.6157614,31.8636364 62.3934311,31.8636364 C63.2324957,31.8636364 63.9487704,31.7713904 64.5422552,31.5868984 C65.1357399,31.3819073 65.6166672,31.1256684 65.9850371,30.8181818 C66.3534069,30.5106952 66.6194518,30.1622103 66.7831717,29.7727273 C66.9468917,29.3627451 67.0287516,28.9527629 67.0287516,28.5427807 C67.0287516,27.7023173 66.8343342,27.087344 66.4454994,26.697861 C66.0771295,26.2878788 65.6678297,26.0008913 65.2175999,25.8368984 C64.4399302,25.5499109 63.5292381,25.2834225 62.4855235,25.0374332 C61.462274,24.7709447 60.1934445,24.4327094 58.6790351,24.0227273 C57.7376455,23.776738 56.9497433,23.4590018 56.3153286,23.0695187 C55.7013789,22.6595365 55.2102191,22.2085561 54.8418492,21.7165775 C54.4734794,21.2245989 54.2074345,20.7018717 54.0437146,20.1483957 C53.9004596,19.5949198 53.8288322,19.0311943 53.8288322,18.4572193 C53.8288322,17.3502674 54.0539471,16.3970588 54.5041769,15.5975936 C54.9748717,14.7776292 55.5888214,14.1011586 56.3460261,13.5681818 C57.1032308,13.035205 57.9627604,12.6457219 58.924615,12.3997326 C59.8864696,12.1332442 60.8585567,12 61.8408763,12 C62.9869158,12 64.0613279,12.1537433 65.0641125,12.4612299 C66.087362,12.7482175 66.9775892,13.1889483 67.7347938,13.7834225 C68.5124635,14.3778966 69.1264133,15.1158645 69.5766431,15.9973262 C70.0268729,16.8582888 70.2519878,17.8627451 70.2519878,19.0106952 L66.4148019,19.0106952 C66.3124769,17.5962567 65.8315496,16.6020499 64.97202,16.0280749 C64.1124904,15.4336007 63.0176133,15.1363636 61.6873889,15.1363636 C61.2371591,15.1363636 60.7766967,15.1876114 60.3060019,15.290107 C59.8353071,15.3721034 59.4055423,15.5258467 59.0167075,15.7513369 C58.6278726,15.956328 58.3004328,16.2433155 58.0343879,16.6122995 C57.788808,16.9812834 57.666018,17.4425134 57.666018,17.9959893 C57.666018,18.7749554 57.9013655,19.3899287 58.3720603,19.8409091 C58.86322,20.2713904 59.4976348,20.5993761 60.2753045,20.8248663 C60.3571644,20.8453654 60.6743718,20.9376114 61.2269266,21.1016043 C61.7999463,21.245098 62.4343611,21.4090909 63.1301708,21.5935829 C63.8259805,21.7780749 64.5013252,21.9625668 65.1562049,22.1470588 C65.8315496,22.3110517 66.3124769,22.4340463 66.5989868,22.5160428 C67.3152615,22.741533 67.9394438,23.0490196 68.4715335,23.4385027 C69.0036233,23.8279857 69.4436206,24.2789661 69.7915255,24.7914439 C70.1598953,25.2834225 70.4259402,25.8163993 70.5896601,26.3903743 C70.7738451,26.9643494 70.8659375,27.5383244 70.8659375,28.1122995 C70.8659375,29.342246 70.6101251,30.3979501 70.0985004,31.2794118 C69.6073406,32.1403743 68.9524608,32.8475936 68.1338612,33.4010695 C67.3152615,33.9545455 66.3841044,34.3542781 65.3403898,34.6002674 C64.2966753,34.8667558 63.2324957,35 62.1478512,35 C60.8994867,35 59.7227497,34.8462567 58.6176402,34.5387701 C57.5125306,34.2312834 56.550676,33.7598039 55.7320764,33.1243316 C54.9134767,32.4888592 54.258597,31.6791444 53.7674372,30.6951872 C53.2762774,29.6907308 53.020465,28.5120321 53,27.1590909 L56.8371859,27.1590909 Z M73.9797883,12.5227273 L77.8169742,12.5227273 L77.8169742,25.3141711 C77.8169742,26.052139 77.8476717,26.8003565 77.9090667,27.5588235 C77.9909266,28.3172906 78.1955765,29.0040107 78.5230164,29.618984 C78.8709213,30.2134581 79.382546,30.7054367 80.0578908,31.0949198 C80.7537005,31.4844029 81.7257876,31.6791444 82.974152,31.6791444 C84.2225165,31.6791444 85.1843711,31.4844029 85.8597158,31.0949198 C86.5555255,30.7054367 87.0671503,30.2134581 87.3945902,29.618984 C87.7424951,29.0040107 87.947145,28.3172906 88.0085399,27.5588235 C88.0903999,26.8003565 88.1313299,26.052139 88.1313299,25.3141711 L88.1313299,12.5227273 L91.9685158,12.5227273 L91.9685158,26.5748663 C91.9685158,27.9893048 91.7536334,29.2192513 91.3238686,30.2647059 C90.8941037,31.3101604 90.280154,32.1916221 89.4820193,32.9090909 C88.7043496,33.6060606 87.76296,34.1287879 86.6578505,34.4772727 C85.552741,34.8257576 84.3248415,35 82.974152,35 C81.6234626,35 80.3955631,34.8257576 79.2904536,34.4772727 C78.185344,34.1287879 77.2337219,33.6060606 76.4355873,32.9090909 C75.6579176,32.1916221 75.0542004,31.3101604 74.6244355,30.2647059 C74.1946707,29.2192513 73.9797883,27.9893048 73.9797883,26.5748663 L73.9797883,12.5227273 Z M96.2256433,12.5227273 L100.278223,12.5227273 L110.285604,28.6965241 L110.346999,28.6965241 L110.346999,12.5227273 L114,12.5227273 L114,34.4772727 L109.947932,34.4772727 L99.9707367,18.3342246 L99.8786443,18.3342246 L99.8786443,34.4772727 L96.2256433,34.4772727 L96.2256433,12.5227273 Z" id="形状" fill="#111111" fill-rule="nonzero"></path>
                </g>
            </g>
        </g>
    </g>
</svg>