<svg width="116" height="45" viewBox="0 0 116 45" fill="none" xmlns="http://www.w3.org/2000/svg">
<circle cx="22.5" cy="22.5" r="22.5" fill="url(#paint0_linear)"/>
<mask id="mask0" mask-type="alpha" maskUnits="userSpaceOnUse" x="0" y="0" width="45" height="45">
<circle cx="22.5" cy="22.5" r="22.5" fill="white"/>
</mask>
<g mask="url(#mask0)">
<path d="M22.0252 -5.37097V10.3065" stroke="white" stroke-width="0.789865"/>
<path d="M19.703 -5.37097V10.3065" stroke="white" stroke-width="0.789865"/>
<path d="M25.074 -5.37097V10.3065" stroke="white" stroke-width="0.789865"/>
<path d="M12.1943 -2.31706L17.2776 7.16411V-3.62903" stroke="white" stroke-width="0.789865"/>
<path d="M32.519 -2.60735L27.4358 6.87383V-3.91931" stroke="white" stroke-width="0.789865"/>
<path d="M22.8303 52.4032L22.8303 36.7258" stroke="white" stroke-width="0.789865"/>
<path d="M25.153 52.4032L25.153 36.7258" stroke="white" stroke-width="0.789865"/>
<path d="M19.7819 52.4032L19.7819 36.7258" stroke="white" stroke-width="0.789865"/>
<path d="M32.8091 49.5457L27.7259 40.0645V50.8577" stroke="white" stroke-width="0.789865"/>
<path d="M12.1938 49.6907L17.2771 40.2095V51.0027" stroke="white" stroke-width="0.789865"/>
<path d="M-6.45898 23.919H9.21844" stroke="white" stroke-width="0.789865"/>
<path d="M-6.45898 26.2415H9.21844" stroke="white" stroke-width="0.789865"/>
<path d="M-6.45898 20.8707H9.21844" stroke="white" stroke-width="0.789865"/>
<path d="M-3.76811 33.8252L5.71306 28.742H-5.08008" stroke="white" stroke-width="0.789865"/>
<path d="M-2.752 13.7904L6.72917 18.8736H-4.06396" stroke="white" stroke-width="0.789865"/>
<path d="M51.3149 23.1136L35.6375 23.1136" stroke="white" stroke-width="0.789865"/>
<path d="M51.3149 20.7908L35.6375 20.7908" stroke="white" stroke-width="0.789865"/>
<path d="M51.3149 26.1618L35.6375 26.1618" stroke="white" stroke-width="0.789865"/>
<path d="M48.0948 13.2098L38.6136 18.2931H49.4067" stroke="white" stroke-width="0.789865"/>
<path d="M48.6753 33.6802L39.1942 28.5969H49.9873" stroke="white" stroke-width="0.789865"/>
<path d="M2.28608 44.227L13.3717 33.1414" stroke="white" stroke-width="0.789865"/>
<path d="M3.92866 45.8692L15.0143 34.7836" stroke="white" stroke-width="0.789865"/>
<path d="M0.130318 42.0716L11.2159 30.986" stroke="white" stroke-width="0.789865"/>
<path d="M11.7797 49.3467L14.8896 39.0481L7.25767 46.68" stroke="white" stroke-width="0.789865"/>
<path d="M-3.28177 34.4298L7.01681 31.32L-0.615089 38.9519" stroke="white" stroke-width="0.789865"/>
<path d="M42.5699 2.80486L31.4843 13.8905" stroke="white" stroke-width="0.789865"/>
<path d="M40.9278 1.16265L29.8422 12.2483" stroke="white" stroke-width="0.789865"/>
<path d="M44.7256 4.9605L33.64 16.0461" stroke="white" stroke-width="0.789865"/>
<path d="M33.4151 -1.97574L30.3053 8.32284L37.9372 0.690942" stroke="white" stroke-width="0.789865"/>
<path d="M48.0415 12.3607L37.743 15.4705L45.3749 7.8386" stroke="white" stroke-width="0.789865"/>
<path d="M43.1381 43.6576L32.0525 32.572" stroke="white" stroke-width="0.789865"/>
<path d="M44.7807 42.0154L33.6951 30.9298" stroke="white" stroke-width="0.789865"/>
<path d="M40.9824 45.8133L29.8968 34.7277" stroke="white" stroke-width="0.789865"/>
<path d="M48.3311 34.43L38.0325 31.3201L45.6644 38.952" stroke="white" stroke-width="0.789865"/>
<path d="M33.5586 49.2018L30.4488 38.9032L38.0807 46.5351" stroke="white" stroke-width="0.789865"/>
<path d="M1.71636 3.37458L12.802 14.4602" stroke="white" stroke-width="0.789865"/>
<path d="M0.0737832 5.01692L11.1594 16.1025" stroke="white" stroke-width="0.789865"/>
<path d="M3.87212 1.21894L14.9577 12.3046" stroke="white" stroke-width="0.789865"/>
<path d="M-2.55619 13.0865L7.7424 16.1963L0.110497 8.56443" stroke="white" stroke-width="0.789865"/>
<path d="M11.6347 -1.5402L14.7445 8.75839L7.11265 1.12649" stroke="white" stroke-width="0.789865"/>
</g>
<circle cx="22.428" cy="22.5725" r="15.3627" fill="#F8BA3A" stroke="white" stroke-width="0.677027"/>
<mask id="mask1" mask-type="alpha" maskUnits="userSpaceOnUse" x="6" y="6" width="33" height="33">
<circle cx="22.573" cy="22.5725" r="15.3627" fill="white" stroke="white" stroke-width="0.677027"/>
</mask>
<g mask="url(#mask1)">
<path fill-rule="evenodd" clip-rule="evenodd" d="M23.2989 6.53223L21.2666 22.8629H23.2989L22.5005 37.9257L37.3114 35.2742L39.9988 14.5946L33.4713 8.85481L23.2989 6.53223Z" fill="white"/>
</g>
<path d="M8.20855 20.5281C8.5582 23.3758 10.4107 26.3386 13.2576 25.989C22.9199 24.8026 21.5623 18.5936 21.4321 16.5826C22.1314 22.278 26.457 24.3683 33.7037 23.4785C35.8604 23.2137 36.744 18.9985 36.5052 17.0537C36.2067 14.6228 29.7704 14.2674 21.7473 15.2525C13.7241 16.2376 7.77148 16.9685 8.20855 20.5281Z" fill="#01C1AE" stroke="#01C1AE" stroke-width="1.24122" stroke-linecap="round" stroke-linejoin="round"/>
<path d="M22.6632 32.3441C26.0295 32.0695 28.5548 29.3518 28.3037 26.2741L16.1133 27.2687C16.3644 30.3464 19.2969 32.6188 22.6632 32.3441Z" fill="white" stroke="#FE9D51" stroke-width="0.564189" stroke-linejoin="round"/>
<path d="M24.2417 29.0322H27.5804" stroke="#FE9A54" stroke-width="0.451351" stroke-linecap="round" stroke-linejoin="round"/>
<path d="M26.0567 22.1369C23.4438 21.1498 22.4035 18.5321 22.21 17.3466C22.21 15.7498 24.0245 15.5321 28.4519 15.5321C32.8793 15.5321 35.5648 15.895 35.7825 17.0563C36.0003 19.0886 35.2745 22.1369 34.2584 22.645C33.2422 23.1531 29.3229 23.3708 26.0567 22.1369Z" fill="black" stroke="black" stroke-width="0.112838"/>
<path d="M18.3713 23.4983C20.4681 22.1164 21.5569 19.4516 20.9037 17.2016C20.5316 15.9201 18.4889 16.2344 14.6617 16.8387C11.2504 17.3773 8.63752 18.8709 8.92785 20.1774C9.07293 22.318 10.7242 24.5787 11.6859 24.9677C12.6476 25.3567 15.7504 25.2257 18.3713 23.4983Z" fill="black" stroke="black" stroke-width="0.112838"/>
<path d="M36.5083 10.4515L37.7825 13.8951L41.226 15.1693L37.7825 16.4435L36.5083 19.887L35.2341 16.4435L31.7905 15.1693L35.2341 13.8951L36.5083 10.4515Z" fill="white"/>
<path d="M57.74 26.86C57.74 27.68 57.88 28.38 58.16 28.96C58.44 29.54 58.83 30.02 59.33 30.4C59.83 30.76 60.4 31.03 61.04 31.21C61.7 31.37 62.41 31.45 63.17 31.45C63.99 31.45 64.69 31.36 65.27 31.18C65.85 30.98 66.32 30.73 66.68 30.43C67.04 30.13 67.3 29.79 67.46 29.41C67.62 29.01 67.7 28.61 67.7 28.21C67.7 27.39 67.51 26.79 67.13 26.41C66.77 26.01 66.37 25.73 65.93 25.57C65.17 25.29 64.28 25.03 63.26 24.79C62.26 24.53 61.02 24.2 59.54 23.8C58.62 23.56 57.85 23.25 57.23 22.87C56.63 22.47 56.15 22.03 55.79 21.55C55.43 21.07 55.17 20.56 55.01 20.02C54.87 19.48 54.8 18.93 54.8 18.37C54.8 17.29 55.02 16.36 55.46 15.58C55.92 14.78 56.52 14.12 57.26 13.6C58 13.08 58.84 12.7 59.78 12.46C60.72 12.2 61.67 12.07 62.63 12.07C63.75 12.07 64.8 12.22 65.78 12.52C66.78 12.8 67.65 13.23 68.39 13.81C69.15 14.39 69.75 15.11 70.19 15.97C70.63 16.81 70.85 17.79 70.85 18.91H67.1C67 17.53 66.53 16.56 65.69 16C64.85 15.42 63.78 15.13 62.48 15.13C62.04 15.13 61.59 15.18 61.13 15.28C60.67 15.36 60.25 15.51 59.87 15.73C59.49 15.93 59.17 16.21 58.91 16.57C58.67 16.93 58.55 17.38 58.55 17.92C58.55 18.68 58.78 19.28 59.24 19.72C59.72 20.14 60.34 20.46 61.1 20.68C61.18 20.7 61.49 20.79 62.03 20.95C62.59 21.09 63.21 21.25 63.89 21.43C64.57 21.61 65.23 21.79 65.87 21.97C66.53 22.13 67 22.25 67.28 22.33C67.98 22.55 68.59 22.85 69.11 23.23C69.63 23.61 70.06 24.05 70.4 24.55C70.76 25.03 71.02 25.55 71.18 26.11C71.36 26.67 71.45 27.23 71.45 27.79C71.45 28.99 71.2 30.02 70.7 30.88C70.22 31.72 69.58 32.41 68.78 32.95C67.98 33.49 67.07 33.88 66.05 34.12C65.03 34.38 63.99 34.51 62.93 34.51C61.71 34.51 60.56 34.36 59.48 34.06C58.4 33.76 57.46 33.3 56.66 32.68C55.86 32.06 55.22 31.27 54.74 30.31C54.26 29.33 54.01 28.18 53.99 26.86H57.74ZM74.4931 12.58H78.2431V25.06C78.2431 25.78 78.2731 26.51 78.3331 27.25C78.4131 27.99 78.6131 28.66 78.9331 29.26C79.2731 29.84 79.7731 30.32 80.4331 30.7C81.1131 31.08 82.0631 31.27 83.2831 31.27C84.5031 31.27 85.4431 31.08 86.1031 30.7C86.7831 30.32 87.2831 29.84 87.6031 29.26C87.9431 28.66 88.1431 27.99 88.2031 27.25C88.2831 26.51 88.3231 25.78 88.3231 25.06V12.58H92.0731V26.29C92.0731 27.67 91.8631 28.87 91.4431 29.89C91.0231 30.91 90.4231 31.77 89.6431 32.47C88.8831 33.15 87.9631 33.66 86.8831 34C85.8031 34.34 84.6031 34.51 83.2831 34.51C81.9631 34.51 80.7631 34.34 79.6831 34C78.6031 33.66 77.6731 33.15 76.8931 32.47C76.1331 31.77 75.5431 30.91 75.1231 29.89C74.7031 28.87 74.4931 27.67 74.4931 26.29V12.58ZM96.2335 12.58H100.194L109.974 28.36H110.034V12.58H113.604V34H109.644L99.8935 18.25H99.8035V34H96.2335V12.58Z" fill="white"/>
<defs>
<linearGradient id="paint0_linear" x1="22.5" y1="0" x2="22.5" y2="45" gradientUnits="userSpaceOnUse">
<stop stop-color="#F5B745"/>
<stop offset="1" stop-color="#FC8B47"/>
</linearGradient>
</defs>
</svg>
