<?xml version="1.0" encoding="UTF-8"?>
<svg width="22px" height="22px" viewBox="0 0 22 22" version="1.1" xmlns="http://www.w3.org/2000/svg" xmlns:xlink="http://www.w3.org/1999/xlink">
    <title>治理</title>
    <defs>
        <path d="M20.9333288,0.548178585 C20.8673126,0.25770726 20.6296542,0.0464554068 20.3259797,0.0200489096 C16.9723563,-0.164796467 13.7375621,0.931072588 10.9648813,3.20203017 C9.3804923,4.49594785 8.37704592,5.82947528 7.96774542,6.4104179 L3.75591131,6.4104179 C3.53145621,6.4104179 3.32020433,6.52924708 3.18817193,6.72729571 L0.0986133676,11.7577308 C-0.0466222843,11.9953891 -0.0334190563,12.3122669 0.151426321,12.5235188 L1.14166945,13.7118106 C1.30010835,13.9098592 1.56417318,13.9890787 1.80183155,13.9230625 L5.27428411,13.0912582 L8.06016812,15.9431584 L7.04351851,19.2703753 C6.96429906,19.5476434 7.05672176,19.8381147 7.29438009,20.0097569 L8.53548482,20.8811708 C8.654314,20.9603903 8.78634642,21 8.91837882,21 C9.037208,21 9.15603717,20.9603903 9.26166312,20.8943741 L14.173269,17.831222 C14.3581144,17.7123928 14.4769436,17.5143442 14.4901468,17.2898891 L14.5957728,12.9856323 C15.2295284,12.5499253 16.7479012,11.4012433 18.1738513,9.69802509 C20.6296542,6.78010868 21.5802876,3.6245339 20.9333288,0.548178585 Z" id="path-1"></path>
        <filter x="-11.8%" y="-11.9%" width="133.1%" height="133.3%" filterUnits="objectBoundingBox" id="filter-2">
            <feOffset dx="1" dy="1" in="SourceAlpha" result="shadowOffsetOuter1"></feOffset>
            <feGaussianBlur stdDeviation="1" in="shadowOffsetOuter1" result="shadowBlurOuter1"></feGaussianBlur>
            <feComposite in="shadowBlurOuter1" in2="SourceAlpha" operator="out" result="shadowBlurOuter1"></feComposite>
            <feColorMatrix values="0 0 0 0 0.118805823   0 0 0 0 0.118805823   0 0 0 0 0.162279212  0 0 0 0.197392817 0" type="matrix" in="shadowBlurOuter1"></feColorMatrix>
        </filter>
    </defs>
    <g id="页面-1" stroke="none" stroke-width="1" fill="none" fill-rule="evenodd">
        <g id="M-首页-侧边菜单-展开" transform="translate(-20.000000, -176.000000)">
            <g id="编组-7备份-5" transform="translate(20.000000, 176.000000)">
                <circle id="椭圆形" fill="#8B5AEA" cx="14" cy="14" r="8"></circle>
                <g id="路径">
                    <use fill="black" fill-opacity="1" filter="url(#filter-2)" xlink:href="#path-1"></use>
                    <path stroke-opacity="0.295454545" stroke="#FFFFFF" stroke-width="1" d="M19.5871938,0.500586543 L19.9598023,0.505754719 C20.9873239,3.80027132 20.0488026,6.69376952 17.7904724,9.37705676 C16.2041979,11.2717735 14.5008183,12.4613014 14.1023077,12.7132001 L14.1023077,12.7132001 L13.9905717,17.2664411 L9.22342296,20.3289549 L7.85862644,19.7152544 L8.59969317,15.7799346 L5.43370639,12.5389244 L1.93187489,13.3777662 L0.780065878,12.4010321 L3.61573081,6.98861082 L8.22974108,6.9104179 C8.47454681,6.55248839 9.49852393,5.04510636 11.2817008,3.58884463 C13.8589152,1.47798328 16.8498111,0.416729083 19.9598023,0.505754719 Z" stroke-linejoin="square" fill-opacity="0.3" fill="#8B5AEA" fill-rule="evenodd"></path>
                </g>
                <path d="M13.8132365,9.24195826 C12.7635766,9.24195826 11.913852,8.39223363 11.913852,7.34257379 C11.913852,6.29291394 12.7635766,5.44318931 13.8132365,5.44318931 C14.8504003,5.44318931 15.700125,6.29291394 15.7126209,7.34257379 C15.7126209,8.39223363 14.8628963,9.24195826 13.8132365,9.24195826 Z" id="路径" stroke="#FFFFFF" stroke-width="2" fill-rule="nonzero"></path>
            </g>
        </g>
    </g>
</svg>