<?xml version="1.0" encoding="UTF-8"?>
<svg width="44px" height="26px" viewBox="0 0 44 26" version="1.1" xmlns="http://www.w3.org/2000/svg" xmlns:xlink="http://www.w3.org/1999/xlink">
    <title>编组 27</title>
    <defs>
        <linearGradient x1="22.0205215%" y1="33.6734694%" x2="79.1373002%" y2="65.3121752%" id="linearGradient-1">
            <stop stop-color="#FFAF00" offset="0%"></stop>
            <stop stop-color="#FF8700" offset="100%"></stop>
        </linearGradient>
        <linearGradient x1="22.0205215%" y1="0%" x2="79.1373002%" y2="96.8935366%" id="linearGradient-2">
            <stop stop-color="#FFAF00" offset="0%"></stop>
            <stop stop-color="#FF8700" offset="100%"></stop>
        </linearGradient>
    </defs>
    <g id="页面-1" stroke="none" stroke-width="1" fill="none" fill-rule="evenodd">
        <g id="M-更多-浅色" transform="translate(-297.000000, -750.000000)">
            <g id="编组-27" transform="translate(298.000000, 751.000000)">
                <rect id="矩形" stroke-opacity="0.499918051" stroke="#FFA800" fill="url(#linearGradient-1)" x="-0.5" y="-0.5" width="43" height="25" rx="12"></rect>
                <circle id="椭圆形" fill="#FFFFFF" cx="30" cy="12" r="10"></circle>
                <path d="M30,17 C30.5522847,17 31,17.4477153 31,18 L31,19 C31,19.5522847 30.5522847,20 30,20 C29.4477153,20 29,19.5522847 29,19 L29,18 C29,17.4477153 29.4477153,17 30,17 Z M34.9497475,15.5355339 L35.6568542,16.2426407 C36.0473785,16.633165 36.0473785,17.26633 35.6568542,17.6568542 C35.26633,18.0473785 34.633165,18.0473785 34.2426407,17.6568542 L33.5355339,16.9497475 C33.1450096,16.5592232 33.1450096,15.9260582 33.5355339,15.5355339 C33.9260582,15.1450096 34.5592232,15.1450096 34.9497475,15.5355339 Z M26.4644661,15.5355339 C26.8549904,15.9260582 26.8549904,16.5592232 26.4644661,16.9497475 L25.7573593,17.6568542 C25.366835,18.0473785 24.73367,18.0473785 24.3431458,17.6568542 C23.9526215,17.26633 23.9526215,16.633165 24.3431458,16.2426407 L25.0502525,15.5355339 C25.4407768,15.1450096 26.0739418,15.1450096 26.4644661,15.5355339 Z M30,8 C32.209139,8 34,9.790861 34,12 C34,14.209139 32.209139,16 30,16 C27.790861,16 26,14.209139 26,12 C26,9.790861 27.790861,8 30,8 Z M37,11 C37.5522847,11 38,11.4477153 38,12 C38,12.5522847 37.5522847,13 37,13 L36,13 C35.4477153,13 35,12.5522847 35,12 C35,11.4477153 35.4477153,11 36,11 L37,11 Z M24,11 C24.5522847,11 25,11.4477153 25,12 C25,12.5522847 24.5522847,13 24,13 L23,13 C22.4477153,13 22,12.5522847 22,12 C22,11.4477153 22.4477153,11 23,11 L24,11 Z M35.6568542,6.34314575 C36.0473785,6.73367004 36.0473785,7.36683502 35.6568542,7.75735931 L34.9497475,8.46446609 C34.5592232,8.85499039 33.9260582,8.85499039 33.5355339,8.46446609 C33.1450096,8.0739418 33.1450096,7.44077682 33.5355339,7.05025253 L34.2426407,6.34314575 C34.633165,5.95262146 35.26633,5.95262146 35.6568542,6.34314575 Z M25.7573593,6.34314575 L26.4644661,7.05025253 C26.8549904,7.44077682 26.8549904,8.0739418 26.4644661,8.46446609 C26.0739418,8.85499039 25.4407768,8.85499039 25.0502525,8.46446609 L24.3431458,7.75735931 C23.9526215,7.36683502 23.9526215,6.73367004 24.3431458,6.34314575 C24.73367,5.95262146 25.366835,5.95262146 25.7573593,6.34314575 Z M30,4 C30.5522847,4 31,4.44771525 31,5 L31,6 C31,6.55228475 30.5522847,7 30,7 C29.4477153,7 29,6.55228475 29,6 L29,5 C29,4.44771525 29.4477153,4 30,4 Z" id="形状结合" fill="url(#linearGradient-2)"></path>
            </g>
        </g>
    </g>
</svg>