<?xml version="1.0" encoding="UTF-8"?>
<svg width="40px" height="40px" viewBox="0 0 40 40" version="1.1" xmlns="http://www.w3.org/2000/svg" xmlns:xlink="http://www.w3.org/1999/xlink">
    <title>代币加载</title>
    <g id="页面-1" stroke="none" stroke-width="1" fill="none" fill-rule="evenodd">
        <g id="首页-代币列表弹窗" transform="translate(-788.000000, -567.000000)" fill="#FFFFFF">
            <g id="编组-12备份" transform="translate(758.000000, 226.000000)">
                <g id="代币加载" transform="translate(30.000000, 341.000000)">
                    <circle id="椭圆形" opacity="0.200000003" cx="20" cy="20" r="20"></circle>
                    <path d="M20,9 C20.5522847,9 21,9.44771525 21,10 L21,14 C21,14.5522847 20.5522847,15 20,15 C19.4477153,15 19,14.5522847 19,14 L19,10 C19,9.44771525 19.4477153,9 20,9 Z M27.7781746,12.2218254 C28.1686989,12.6123497 28.1686989,13.2455147 27.7781746,13.636039 L24.9497475,16.4644661 C24.5592232,16.8549904 23.9260582,16.8549904 23.5355339,16.4644661 C23.1450096,16.0739418 23.1450096,15.4407768 23.5355339,15.0502525 L26.363961,12.2218254 C26.7544853,11.8313011 27.3876503,11.8313011 27.7781746,12.2218254 Z M31,20 C31,20.5522847 30.5522847,21 30,21 L26,21 C25.4477153,21 25,20.5522847 25,20 C25,19.4477153 25.4477153,19 26,19 L30,19 C30.5522847,19 31,19.4477153 31,20 Z M27.7781746,27.7781746 C27.3876503,28.1686989 26.7544853,28.1686989 26.363961,27.7781746 L23.5355339,24.9497475 C23.1450096,24.5592232 23.1450096,23.9260582 23.5355339,23.5355339 C23.9260582,23.1450096 24.5592232,23.1450096 24.9497475,23.5355339 L27.7781746,26.363961 C28.1686989,26.7544853 28.1686989,27.3876503 27.7781746,27.7781746 Z M20,31 C19.4477153,31 19,30.5522847 19,30 L19,26 C19,25.4477153 19.4477153,25 20,25 C20.5522847,25 21,25.4477153 21,26 L21,30 C21,30.5522847 20.5522847,31 20,31 Z M12.2218254,27.7781746 C11.8313011,27.3876503 11.8313011,26.7544853 12.2218254,26.363961 L15.0502525,23.5355339 C15.4407768,23.1450096 16.0739418,23.1450096 16.4644661,23.5355339 C16.8549904,23.9260582 16.8549904,24.5592232 16.4644661,24.9497475 L13.636039,27.7781746 C13.2455147,28.1686989 12.6123497,28.1686989 12.2218254,27.7781746 Z M9,20 C9,19.4477153 9.44771525,19 10,19 L14,19 C14.5522847,19 15,19.4477153 15,20 C15,20.5522847 14.5522847,21 14,21 L10,21 C9.44771525,21 9,20.5522847 9,20 Z M12.2218254,12.2218254 C12.6123497,11.8313011 13.2455147,11.8313011 13.636039,12.2218254 L16.4644661,15.0502525 C16.8549904,15.4407768 16.8549904,16.0739418 16.4644661,16.4644661 C16.0739418,16.8549904 15.4407768,16.8549904 15.0502525,16.4644661 L12.2218254,13.636039 C11.8313011,13.2455147 11.8313011,12.6123497 12.2218254,12.2218254 Z" id="形状结合" opacity="0.300000012"></path>
                </g>
            </g>
        </g>
    </g>
</svg>