<svg width="18" height="18" viewBox="0 0 18 18" fill="none" xmlns="http://www.w3.org/2000/svg">
<g opacity="0.5">
<path fill-rule="evenodd" clip-rule="evenodd" d="M3 9C3 5.6863 5.68629 3 9 3C12.3137 3 15 5.6863 15 9C15 12.3137 12.3137 15 9 15C5.6863 15 3 12.3137 3 9ZM3.75244 9.00111C3.75244 11.8998 6.1023 14.2496 9.00098 14.2496C11.8997 14.2496 14.2495 11.8998 14.2495 9.00111C14.2495 6.10245 11.8997 3.75263 9.00098 3.75263C6.10228 3.75263 3.75244 6.10245 3.75244 9.00111Z" fill="#333333"/>
<path d="M7.83063 7.86183C7.83063 7.86183 8.01883 6.6704 9.17705 6.80445C10.3353 6.93849 10.0747 7.83205 9.95885 8.01076C9.84302 8.30862 8.77168 9.02348 8.59794 9.45537C8.42421 9.88726 8.43868 10.6915 8.43868 10.6915H9.48108C9.48108 10.6915 9.42317 9.84258 10.0023 9.48515C10.5814 9.12772 11.5659 8.08523 11.1315 7.08741C10.4366 5.94067 9.75616 5.82152 8.87302 5.85131C7.98988 5.88111 7.06331 6.32787 6.75928 7.71289C7.48316 7.81715 7.83063 7.86183 7.83063 7.86183Z" fill="#333333"/>
<path d="M8.42578 11.0943H9.5116V12.3146H8.42578V11.0943V11.0943Z" fill="#333333"/>
</g>
</svg>
