<svg width="18" height="18" viewBox="0 0 18 18" fill="none" xmlns="http://www.w3.org/2000/svg">
<path fill-rule="evenodd" clip-rule="evenodd" d="M3.00012 9C3.00012 5.6863 5.68641 3 9.00012 3C12.3138 3 15.0001 5.6863 15.0001 9C15.0001 12.3137 12.3138 15 9.00012 15C5.68642 15 3.00012 12.3137 3.00012 9ZM3.75244 9.00203C3.75244 11.9007 6.10232 14.2505 9.00104 14.2505C11.8998 14.2505 14.2496 11.9007 14.2496 9.00203C14.2496 6.10338 11.8998 3.75357 9.00104 3.75357C6.10231 3.75357 3.75244 6.10338 3.75244 9.00203Z" fill="white"/>
<path d="M7.71614 7.66338C7.71614 7.66338 7.88419 6.67954 8.91838 6.79023C9.95256 6.90092 9.71987 7.63879 9.61645 7.78637C9.51303 8.03233 8.55641 8.62263 8.40128 8.97927C8.24616 9.33591 8.25908 10 8.25908 10H9.18985C9.18985 10 9.13814 9.29902 9.65523 9.00386C10.1723 8.70871 11.0514 7.84786 10.6636 7.0239C10.043 6.07695 9.43547 5.97857 8.64691 6.00317C7.85834 6.02777 7.03099 6.3967 6.75952 7.5404C7.40588 7.62649 7.71614 7.66338 7.71614 7.66338Z" fill="white"/>
<path d="M8.24744 11H9.24744V12H8.24744V11V11Z" fill="white"/>
</svg>
