<svg width="18" height="18" viewBox="0 0 18 18" fill="none" xmlns="http://www.w3.org/2000/svg">
<g opacity="0.6">
<path fill-rule="evenodd" clip-rule="evenodd" d="M3 8.99988C3 5.68618 5.68629 2.99988 9 2.99988C12.3137 2.99988 15 5.68618 15 8.99988C15 12.3136 12.3137 14.9999 9 14.9999C5.6863 14.9999 3 12.3136 3 8.99988ZM3.75232 9.00191C3.75232 11.9006 6.1022 14.2504 9.00092 14.2504C11.8996 14.2504 14.2495 11.9006 14.2495 9.00191C14.2495 6.10326 11.8996 3.75344 9.00092 3.75344C6.10219 3.75344 3.75232 6.10326 3.75232 9.00191Z" fill="#5915E1"/>
<path d="M7.71602 7.66326C7.71602 7.66326 7.88407 6.67942 8.91825 6.79011C9.95244 6.9008 9.71974 7.63867 9.61632 7.78625C9.51291 8.03221 8.55629 8.62251 8.40116 8.97915C8.24603 9.33579 8.25896 9.99988 8.25896 9.99988H9.18973C9.18973 9.99988 9.13802 9.29889 9.65511 9.00374C10.1722 8.70859 11.0512 7.84773 10.6634 7.02378C10.0429 6.07683 9.43535 5.97845 8.64678 6.00305C7.85822 6.02765 7.03087 6.39658 6.7594 7.54028C7.40576 7.62637 7.71602 7.66326 7.71602 7.66326Z" fill="#5915E1"/>
<path d="M8.24731 10.9999H9.24731V11.9999H8.24731V10.9999V10.9999Z" fill="#5915E1"/>
</g>
</svg>
