<?xml version="1.0" encoding="UTF-8"?>
<svg width="60px" height="60px" viewBox="0 0 60 60" version="1.1" xmlns="http://www.w3.org/2000/svg" xmlns:xlink="http://www.w3.org/1999/xlink">
    <title>USDC</title>
    <g id="USDC" stroke="none" stroke-width="1" fill="none" fill-rule="evenodd">
        <circle id="椭圆形" fill="#FFFFFF" cx="30" cy="30" r="30"></circle>
        <g id="编组">
            <circle id="椭圆形" stroke="#336CBF" stroke-width="2" fill-opacity="0.2" fill="#336CBF" cx="30" cy="30" r="29"></circle>
            <circle id="椭圆形" stroke="#336CBF" fill="#336CBF" cx="30" cy="30" r="20.2692308"></circle>
            <g id="编组-3" transform="translate(14.923077, 16.153846)">
                <path d="M9.53359727,0 C3.94716291,2.2308164 0,7.69143356 0,14.07396 C0,20.4490119 3.93792329,25.9043125 9.51397723,28.1400692 M20.9278927,28.0812898 C26.4273969,25.8098029 30.297443,20.3938303 30.297443,14.07396 C30.297443,7.71681262 26.3816081,2.27425746 20.8304084,0.0267644697" id="形状" stroke="#FFFFFF" stroke-linecap="round"></path>
                <path d="M18.7995634,8.50301769 C18.4713411,7.97786201 18.0077271,7.55117303 17.4087214,7.22295073 C16.8097157,6.89472843 16.0753183,6.73061728 15.2055292,6.73061728 C14.2700956,6.73061728 13.5274927,6.95216733 12.9777203,7.39526743 C12.427948,7.83836754 12.1530618,8.41275656 12.1530618,9.1184345 C12.1530618,10.2836237 12.9079731,11.0139183 14.4177957,11.3093183 L16.5840628,11.7031851 C17.2897408,11.834474 17.9420826,12.0232018 18.5410883,12.2693686 C19.140094,12.5155353 19.6570441,12.8396548 20.0919387,13.2417271 C20.5268332,13.6437994 20.8673638,14.1279273 21.1135306,14.6941108 C21.3596973,15.2602943 21.4827806,15.9290472 21.4827806,16.7003696 C21.4827806,17.4060475 21.3555945,18.0337727 21.1012222,18.583545 C20.8468499,19.1333174 20.4981137,19.6051369 20.0550136,19.9990037 C19.6119135,20.3928705 19.0826551,20.7087844 18.4672383,20.9467456 C17.8518215,21.1847068 17.1830685,21.3365096 16.4609795,21.402154 L16.4609795,23.1253211 C16.4609795,23.4535434 16.3707183,23.7161212 16.1901961,23.9130546 C16.0096738,24.109988 15.747096,24.2084547 15.4024626,24.2084547 C15.0742403,24.2084547 14.819868,24.109988 14.6393457,23.9130546 C14.4588235,23.7161212 14.3685623,23.4535434 14.3685623,23.1253211 L14.3685623,21.402154 C13.5808288,21.3036873 12.8997675,21.1272679 12.3253785,20.8728956 C11.7509895,20.6185233 11.2668616,20.3313288 10.8729948,20.011312 C10.4791281,19.6912953 10.1673169,19.3548674 9.93756129,19.0020285 C9.70780568,18.6491895 9.54369453,18.32507 9.44522784,18.0296699 C9.41240561,17.9147921 9.37958338,17.8040171 9.34676115,17.6973448 C9.31393892,17.5906726 9.29752781,17.471692 9.29752781,17.3404031 C9.29752781,16.9957697 9.40830283,16.7208835 9.62985288,16.5157446 C9.85140294,16.3106056 10.1262891,16.2080362 10.4545114,16.2080362 C10.7335004,16.2080362 10.9591532,16.2818862 11.1314699,16.4295862 C11.3037866,16.5772862 11.463795,16.7824252 11.611495,17.045003 C11.759195,17.323992 11.9356145,17.5988781 12.1407535,17.8696615 C12.3458924,18.1404449 12.6043675,18.3866117 12.9161787,18.6081617 C13.2279898,18.8297118 13.6013427,19.010234 14.0362372,19.1497285 C14.4711318,19.289223 15.0003902,19.3589702 15.6240126,19.3589702 C16.1819905,19.3589702 16.674324,19.2851202 17.101013,19.1374202 C17.5277019,18.9897201 17.8764381,18.7927868 18.1472215,18.54662 C18.4180049,18.3004533 18.6231439,18.0173616 18.7626383,17.6973448 C18.9021328,17.3773281 18.9718801,17.045003 18.9718801,16.7003696 C18.9718801,15.8634027 18.7298161,15.2315748 18.2456882,14.8048858 C17.7615603,14.3781968 17.0517796,14.0745912 16.1163461,13.8940689 L13.8516122,13.4263522 C12.3089674,13.114541 11.2176283,12.5975909 10.5775948,11.8755018 C9.93756129,11.1534128 9.61754455,10.2508014 9.61754455,9.16766785 C9.61754455,8.52763436 9.73242235,7.94503978 9.96217796,7.41988411 C10.1919336,6.89472843 10.5160531,6.43931999 10.9345365,6.05365879 C11.35302,5.66799759 11.853559,5.3561864 12.4361535,5.11822524 C13.0187481,4.88026407 13.6628844,4.72846126 14.3685623,4.6628168 L14.3685623,2.9642664 C14.3685623,2.66886633 14.467029,2.41859683 14.6639624,2.21345789 C14.8608958,2.00831896 15.1152681,1.90574949 15.4270792,1.90574949 C15.7553015,1.90574949 16.0096738,2.00831896 16.1901961,2.21345789 C16.3707183,2.41859683 16.4609795,2.66886633 16.4609795,2.9642664 L16.4609795,4.71205014 C17.0846018,4.81051683 17.6425798,4.96231965 18.1349132,5.16745858 C18.6272466,5.37259752 19.0580384,5.60645591 19.4272885,5.86903375 C19.7965386,6.13161158 20.1001442,6.41060054 20.3381054,6.70600061 C20.5760665,7.00140068 20.7606916,7.28038963 20.8919805,7.54296747 C20.9412139,7.65784527 20.9863444,7.78092864 21.0273722,7.91221755 C21.0684,8.04350647 21.0889139,8.17479539 21.0889139,8.30608431 C21.0889139,8.60148438 20.9904472,8.84765111 20.7935138,9.04458449 C20.5965804,9.24151786 20.325797,9.33998455 19.9811636,9.33998455 C19.7021747,9.33998455 19.4724191,9.26203176 19.2918968,9.10612617 C19.1113745,8.95022057 18.9472634,8.74918442 18.7995634,8.50301769 Z" id="路径" fill="#FFFFFF" fill-rule="nonzero"></path>
            </g>
        </g>
    </g>
</svg>