<?xml version="1.0" encoding="UTF-8"?>
<svg width="60px" height="60px" viewBox="0 0 60 60" version="1.1" xmlns="http://www.w3.org/2000/svg" xmlns:xlink="http://www.w3.org/1999/xlink">
    <title>USDT</title>
    <g id="USDT" stroke="none" stroke-width="1" fill="none" fill-rule="evenodd">
        <circle id="椭圆形" fill="#FFFFFF" cx="30" cy="30" r="30"></circle>
        <g id="编组备份-2" fill="#1BA27A">
            <circle id="椭圆形" stroke="#1BA27A" stroke-width="2" fill-opacity="0.2" cx="30" cy="30" r="29"></circle>
            <g id="形状-2" transform="translate(15.000000, 16.500000)">
                <path d="M18.8420101,9.36447409 C18.8420101,9.36447409 30.3508458,9.77130163 31.4469087,12.6190944 C31.4469087,12.6190944 33.0348442,15.4706343 18.8420101,16.3683314 L18.8420101,28.5 L12.6448363,28.5 L12.6448363,16.3683314 C12.6448363,16.3683314 0.166409271,15.8774618 0.00129566209,12.8646184 C-0.139224311,10.2061432 11.1940407,9.32236387 12.6448363,9.31879521 L12.6448363,9.36090543 C12.8590844,9.33289142 12.8416559,9.31879521 12.6448363,9.31879521 L12.6448363,5.69927913 L3.99921388,5.69927913 L3.99921388,0 L27.4876326,0 L27.4876326,5.69927913 L18.8420101,5.69927913 L18.8420101,9.36447409 Z M1.92222235,13.2552085 C4.82046879,15.4365536 16.0131258,15.3910531 16.0131258,15.3910531 C30.2587737,15.0648773 29.7704219,12.6205219 29.7704219,12.6205219 C29.6088116,10.3408602 18.8413059,9.93403265 18.8413059,9.93403265 L18.8413059,14.3354427 L12.6406112,14.3354427 L12.6406112,9.93760131 C6.44361355,10.0989049 3.04289642,11.3823744 3.04289642,11.3823744 C0.541581049,12.3398466 1.92222235,13.2552085 1.92222235,13.2552085 Z" id="形状"></path>
            </g>
        </g>
    </g>
</svg>