<?xml version="1.0" encoding="UTF-8"?>
<svg width="24px" height="24px" viewBox="0 0 24 24" version="1.1" xmlns="http://www.w3.org/2000/svg" xmlns:xlink="http://www.w3.org/1999/xlink">
    <title>v2</title>
    <defs>
        <linearGradient x1="50%" y1="0%" x2="50%" y2="100%" id="linearGradient-1">
            <stop stop-color="#FF9A00" offset="0%"></stop>
            <stop stop-color="#FF3600" offset="100%"></stop>
        </linearGradient>
        <linearGradient x1="50%" y1="0%" x2="50%" y2="100%" id="linearGradient-2">
            <stop stop-color="#FFFFFF" offset="0%"></stop>
            <stop stop-color="#FFFFFF" stop-opacity="0.301873907" offset="100%"></stop>
        </linearGradient>
        <linearGradient x1="91.4664714%" y1="73.1282552%" x2="21.4054362%" y2="16.266276%" id="linearGradient-3">
            <stop stop-color="#FF803D" offset="0%"></stop>
            <stop stop-color="#FFC895" offset="100%"></stop>
        </linearGradient>
        <path d="M13.5,5.3660254 L16.9951905,7.3839746 C17.9233938,7.91987298 18.4951905,8.91025404 18.4951905,9.98205081 L18.4951905,14.0179492 C18.4951905,15.089746 17.9233938,16.080127 16.9951905,16.6160254 L13.5,18.6339746 C12.5717968,19.169873 11.4282032,19.169873 10.5,18.6339746 L7.00480947,16.6160254 C6.07660624,16.080127 5.50480947,15.089746 5.50480947,14.0179492 L5.50480947,9.98205081 C5.50480947,8.91025404 6.07660624,7.91987298 7.00480947,7.3839746 L10.5,5.3660254 C11.4282032,4.83012702 12.5717968,4.83012702 13.5,5.3660254 Z" id="path-4"></path>
        <filter x="-13.3%" y="-16.9%" width="126.6%" height="133.8%" filterUnits="objectBoundingBox" id="filter-5">
            <feOffset dx="0" dy="0" in="SourceAlpha" result="shadowOffsetOuter1"></feOffset>
            <feGaussianBlur stdDeviation="1" in="shadowOffsetOuter1" result="shadowBlurOuter1"></feGaussianBlur>
            <feColorMatrix values="0 0 0 0 0.701960784   0 0 0 0 0.419607843   0 0 0 0 0  0 0 0 0.495684003 0" type="matrix" in="shadowBlurOuter1"></feColorMatrix>
        </filter>
        <linearGradient x1="91.4664714%" y1="73.1282552%" x2="22.5709511%" y2="17.2122153%" id="linearGradient-6">
            <stop stop-color="#FFAD57" offset="0%"></stop>
            <stop stop-color="#F43F00" offset="100%"></stop>
        </linearGradient>
        <linearGradient x1="91.4664714%" y1="73.1282552%" x2="21.4054362%" y2="16.266276%" id="linearGradient-7">
            <stop stop-color="#FF5E00" offset="0%"></stop>
            <stop stop-color="#FF9A00" offset="100%"></stop>
        </linearGradient>
        <linearGradient x1="91.4664714%" y1="59.0344747%" x2="21.4054362%" y2="36.8227641%" id="linearGradient-8">
            <stop stop-color="#FFDEB5" offset="0%"></stop>
            <stop stop-color="#FFF3CA" offset="100%"></stop>
        </linearGradient>
        <path d="M0,0 L1.10774411,0 L2.18518519,3.79579376 L3.27272727,0 L4.35016835,0 L2.65656566,5 L1.67676768,5 L0,0 Z M6.83838384,1.08208955 C6.72390572,0.944142922 6.56004489,0.875169607 6.34680135,0.875169607 C6.05499439,0.875169607 5.85634119,0.984848485 5.75084175,1.20420624 C5.69023569,1.33084577 5.65432099,1.53211217 5.64309764,1.80800543 L4.71043771,1.80800543 C4.72615039,1.3896427 4.8013468,1.05156038 4.93602694,0.79375848 C5.19191919,0.303030303 5.64646465,0.0576662144 6.2996633,0.0576662144 C6.81593715,0.0576662144 7.22671156,0.20183175 7.53198653,0.490162822 C7.8372615,0.778493894 7.98989899,1.16010855 7.98989899,1.63500678 C7.98989899,1.99909543 7.88215488,2.32247852 7.66666667,2.60515604 C7.52525253,2.79285391 7.29292929,3.00203528 6.96969697,3.23270014 L6.58585859,3.50746269 C6.34567901,3.67933062 6.18125701,3.80370873 6.09259259,3.88059701 C6.00392817,3.9574853 5.92929293,4.0468114 5.86868687,4.14857531 L8,4.14857531 L8,5 L4.65656566,5 C4.66554433,4.64721845 4.74074074,4.32496608 4.88215488,4.03324288 C5.01907969,3.70533695 5.34231201,3.35820896 5.85185185,2.99185889 C6.29405163,2.67299864 6.58024691,2.44459521 6.71043771,2.30664858 C6.91021324,2.09181366 7.01010101,1.85662596 7.01010101,1.60108548 C7.01010101,1.39303483 6.95286195,1.22003618 6.83838384,1.08208955 Z" id="path-9"></path>
        <filter x="-1.2%" y="-2.0%" width="105.0%" height="108.0%" filterUnits="objectBoundingBox" id="filter-10">
            <feOffset dx="0.2" dy="0.2" in="SourceAlpha" result="shadowOffsetOuter1"></feOffset>
            <feColorMatrix values="0 0 0 0 0   0 0 0 0 0   0 0 0 0 0  0 0 0 0.296956949 0" type="matrix" in="shadowOffsetOuter1"></feColorMatrix>
        </filter>
        <filter x="-3.1%" y="-5.0%" width="108.7%" height="114.0%" filterUnits="objectBoundingBox" id="filter-11">
            <feOffset dx="0.5" dy="0.2" in="SourceAlpha" result="shadowOffsetInner1"></feOffset>
            <feComposite in="shadowOffsetInner1" in2="SourceAlpha" operator="arithmetic" k2="-1" k3="1" result="shadowInnerInner1"></feComposite>
            <feColorMatrix values="0 0 0 0 1   0 0 0 0 1   0 0 0 0 1  0 0 0 1 0" type="matrix" in="shadowInnerInner1"></feColorMatrix>
        </filter>
    </defs>
    <g id="页面-1" stroke="none" stroke-width="1" fill="none" fill-rule="evenodd">
        <g id="M-治理挖矿-第二阶段" transform="translate(-137.000000, -219.000000)">
            <g id="编组-2" transform="translate(137.000000, 219.000000)">
                <path d="M19,9.7 C19.3186865,9.7 19.607203,9.82917323 19.8160478,10.0380181 C20.0248927,10.2468629 20.1540659,10.5353794 20.1540659,10.8540659 L20.1540659,10.8540659 L19.3171921,13.1685032 C19.1805151,13.5101958 18.9467077,13.79307 18.6550659,13.990521 C18.3634242,14.1879721 18.0139482,14.3 17.6459341,14.3 L17.6459341,14.3 L17,14.3 C16.6813135,14.3 16.392797,14.1708268 16.1839522,13.9619819 C15.9751073,13.7531371 15.8459341,13.4646206 15.8459341,13.1459341 L15.8459341,13.1459341 L16.6828079,10.8314968 C16.8194849,10.4898042 17.0532923,10.20693 17.3449341,10.009479 C17.6365758,9.81202792 17.9860518,9.7 18.3540659,9.7 L18.3540659,9.7 Z" id="矩形" stroke="url(#linearGradient-2)" stroke-width="0.4" fill="url(#linearGradient-1)"></path>
                <path d="M7,9.7 C7.3186865,9.7 7.60720299,9.82917323 7.81604784,10.0380181 C8.02489269,10.2468629 8.15406592,10.5353794 8.15406592,10.8540659 L8.15406592,10.8540659 L7.31719212,13.1685032 C7.1805151,13.5101958 6.94670766,13.79307 6.65506593,13.990521 C6.36342421,14.1879721 6.01394821,14.3 5.64593408,14.3 L5.64593408,14.3 L5,14.3 C4.6813135,14.3 4.39279701,14.1708268 4.18395216,13.9619819 C3.97510731,13.7531371 3.84593408,13.4646206 3.84593408,13.1459341 L3.84593408,13.1459341 L4.68280788,10.8314968 C4.8194849,10.4898042 5.05329234,10.20693 5.34493407,10.009479 C5.63657579,9.81202792 5.98605179,9.7 6.35406592,9.7 L6.35406592,9.7 Z" id="矩形备份" stroke="url(#linearGradient-2)" stroke-width="0.4" fill="url(#linearGradient-1)" transform="translate(6.000000, 12.000000) scale(-1, 1) translate(-6.000000, -12.000000) "></path>
                <g id="多边形">
                    <use fill="black" fill-opacity="1" filter="url(#filter-5)" xlink:href="#path-4"></use>
                    <use fill="url(#linearGradient-3)" fill-rule="evenodd" xlink:href="#path-4"></use>
                </g>
                <path d="M12,6.36410162 C12.4920517,6.36410162 12.9841035,6.49137748 13.425,6.74592921 L13.425,6.74592921 L15.8376588,8.13887841 C16.7194518,8.64798187 17.2626588,9.58884388 17.2626588,10.6070508 L17.2626588,10.6070508 L17.2626588,13.3929492 C17.2626588,14.4111561 16.7194518,15.3520181 15.8376588,15.8611216 L15.8376588,15.8611216 L13.425,17.2540708 C12.5432069,17.7631743 11.4567931,17.7631743 10.575,17.2540708 L10.575,17.2540708 L8.16234123,15.8611216 C7.72144469,15.6065699 7.36519469,15.2440785 7.11916883,14.8179492 C6.87314296,14.3918199 6.73734123,13.9020527 6.73734123,13.3929492 L6.73734123,13.3929492 L6.73734123,10.6070508 C6.73734123,10.0979473 6.87314296,9.60818011 7.11916883,9.18205081 C7.36519469,8.75592151 7.72144469,8.39343014 8.16234123,8.13887841 L8.16234123,8.13887841 L10.575,6.74592921 C11.0158965,6.49137748 11.5079483,6.36410162 12,6.36410162 Z" id="多边形" stroke="#FFFFFF" stroke-width="0.3" fill="url(#linearGradient-6)"></path>
                <path d="M13.5,7.3660254 L15.2631397,8.3839746 C16.191343,8.91987298 16.7631397,9.91025404 16.7631397,10.9820508 L16.7631397,13.0179492 C16.7631397,14.089746 16.191343,15.080127 15.2631397,15.6160254 L13.5,16.6339746 C12.5717968,17.169873 11.4282032,17.169873 10.5,16.6339746 L8.73686028,15.6160254 C7.80865705,15.080127 7.23686028,14.089746 7.23686028,13.0179492 L7.23686028,10.9820508 C7.23686028,9.91025404 7.80865705,8.91987298 8.73686028,8.3839746 L10.5,7.3660254 C11.4282032,6.83012702 12.5717968,6.83012702 13.5,7.3660254 Z" id="多边形" fill="url(#linearGradient-7)"></path>
                <g id="形状结合" transform="translate(8.000000, 9.500000)">
                    <use fill="black" fill-opacity="1" filter="url(#filter-10)" xlink:href="#path-9"></use>
                    <use fill="url(#linearGradient-8)" fill-rule="evenodd" xlink:href="#path-9"></use>
                    <use fill="black" fill-opacity="1" filter="url(#filter-11)" xlink:href="#path-9"></use>
                </g>
                <path d="M13.5,5.3660254 L17.1451906,7.47057716 C17.5756539,7.71910529 17.7231415,8.26953664 17.4746134,8.69999999 C17.3956219,8.83681727 17.2820078,8.95043135 17.1451906,9.02942284 L6.85480944,14.9705772 C6.42434609,15.2191053 5.87391474,15.0716177 5.62538661,14.6411543 C5.54639511,14.504337 5.50480947,14.3491373 5.50480947,14.1911543 L5.50480947,9.98205081 C5.50480947,8.91025404 6.07660624,7.91987298 7.00480947,7.3839746 L10.5,5.3660254 C11.4282032,4.83012702 12.5717968,4.83012702 13.5,5.3660254 Z" id="多边形" fill="#FFFFFF" opacity="0.300000012"></path>
            </g>
        </g>
    </g>
</svg>