<?xml version="1.0" encoding="UTF-8"?>
<svg width="16px" height="16px" viewBox="0 0 16 16" version="1.1" xmlns="http://www.w3.org/2000/svg" xmlns:xlink="http://www.w3.org/1999/xlink">
    <title>v2</title>
    <defs>
        <linearGradient x1="50%" y1="0%" x2="50%" y2="100%" id="linearGradient-1">
            <stop stop-color="#FF9A00" offset="0%"></stop>
            <stop stop-color="#FF3600" offset="100%"></stop>
        </linearGradient>
        <linearGradient x1="50%" y1="0%" x2="50%" y2="100%" id="linearGradient-2">
            <stop stop-color="#FFFFFF" offset="0%"></stop>
            <stop stop-color="#FFFFFF" stop-opacity="0.301873907" offset="100%"></stop>
        </linearGradient>
        <linearGradient x1="91.4664714%" y1="73.1282552%" x2="21.4054362%" y2="16.266276%" id="linearGradient-3">
            <stop stop-color="#FF803D" offset="0%"></stop>
            <stop stop-color="#FFC895" offset="100%"></stop>
        </linearGradient>
        <path d="M9.5,3.8660254 L10.830127,4.6339746 C11.7583302,5.16987298 12.330127,6.16025404 12.330127,7.23205081 L12.330127,8.76794919 C12.330127,9.83974596 11.7583302,10.830127 10.830127,11.3660254 L9.5,12.1339746 C8.57179677,12.669873 7.42820323,12.669873 6.5,12.1339746 L5.16987298,11.3660254 C4.24166975,10.830127 3.66987298,9.83974596 3.66987298,8.76794919 L3.66987298,7.23205081 C3.66987298,6.16025404 4.24166975,5.16987298 5.16987298,4.6339746 L6.5,3.8660254 C7.42820323,3.33012702 8.57179677,3.33012702 9.5,3.8660254 Z" id="path-4"></path>
        <filter x="-23.3%" y="-25.4%" width="146.6%" height="150.7%" filterUnits="objectBoundingBox" id="filter-5">
            <feOffset dx="0" dy="0" in="SourceAlpha" result="shadowOffsetOuter1"></feOffset>
            <feGaussianBlur stdDeviation="1" in="shadowOffsetOuter1" result="shadowBlurOuter1"></feGaussianBlur>
            <feColorMatrix values="0 0 0 0 0.701960784   0 0 0 0 0.419607843   0 0 0 0 0  0 0 0 0.495684003 0" type="matrix" in="shadowBlurOuter1"></feColorMatrix>
        </filter>
        <linearGradient x1="91.4664714%" y1="73.1282552%" x2="22.5709511%" y2="17.2122153%" id="linearGradient-6">
            <stop stop-color="#FFAD57" offset="0%"></stop>
            <stop stop-color="#F43F00" offset="100%"></stop>
        </linearGradient>
        <linearGradient x1="91.4664714%" y1="73.1282552%" x2="21.4054362%" y2="16.266276%" id="linearGradient-7">
            <stop stop-color="#FF5E00" offset="0%"></stop>
            <stop stop-color="#FF9A00" offset="100%"></stop>
        </linearGradient>
        <linearGradient x1="91.4664714%" y1="59.0344747%" x2="21.4054362%" y2="36.8227641%" id="linearGradient-8">
            <stop stop-color="#FFDEB5" offset="0%"></stop>
            <stop stop-color="#FFF3CA" offset="100%"></stop>
        </linearGradient>
        <path d="M0,0 L0.738496072,0 L1.45679012,2.53052917 L2.18181818,0 L2.90011223,0 L1.77104377,3.33333333 L1.11784512,3.33333333 L0,0 Z M4.55892256,0.721393035 C4.48260382,0.629428615 4.37336326,0.583446404 4.2312009,0.583446404 C4.03666293,0.583446404 3.90422746,0.656565657 3.8338945,0.802804161 C3.79349046,0.887230514 3.76954733,1.02140811 3.7620651,1.20533695 L3.14029181,1.20533695 C3.15076693,0.926428464 3.20089787,0.701040253 3.29068462,0.52917232 C3.46127946,0.202020202 3.76430976,0.0384441429 4.19977553,0.0384441429 C4.5439581,0.0384441429 4.81780771,0.1345545 5.02132435,0.326775215 C5.224841,0.518995929 5.32659933,0.773405699 5.32659933,1.09000452 C5.32659933,1.33273029 5.25476992,1.54831901 5.11111111,1.73677069 C5.01683502,1.86190261 4.86195286,2.00135685 4.64646465,2.15513342 L4.39057239,2.33830846 C4.23045267,2.45288708 4.12083801,2.53580582 4.0617284,2.58706468 C4.00261878,2.63832353 3.95286195,2.69787427 3.91245791,2.76571687 L5.33333333,2.76571687 L5.33333333,3.33333333 L3.1043771,3.33333333 C3.11036289,3.09814564 3.16049383,2.88331072 3.25476992,2.68882858 C3.34605312,2.47022463 3.56154134,2.23880597 3.90123457,1.99457259 C4.19603442,1.7819991 4.38683128,1.62973014 4.47362514,1.53776572 C4.60680883,1.39454244 4.67340067,1.23775064 4.67340067,1.06739032 C4.67340067,0.928689884 4.6352413,0.813357455 4.55892256,0.721393035 Z" id="path-9"></path>
        <filter x="-1.9%" y="-3.0%" width="107.5%" height="112.0%" filterUnits="objectBoundingBox" id="filter-10">
            <feOffset dx="0.2" dy="0.2" in="SourceAlpha" result="shadowOffsetOuter1"></feOffset>
            <feColorMatrix values="0 0 0 0 0   0 0 0 0 0   0 0 0 0 0  0 0 0 0.296956949 0" type="matrix" in="shadowOffsetOuter1"></feColorMatrix>
        </filter>
        <filter x="-4.7%" y="-7.5%" width="113.1%" height="121.0%" filterUnits="objectBoundingBox" id="filter-11">
            <feOffset dx="0.5" dy="0.2" in="SourceAlpha" result="shadowOffsetInner1"></feOffset>
            <feComposite in="shadowOffsetInner1" in2="SourceAlpha" operator="arithmetic" k2="-1" k3="1" result="shadowInnerInner1"></feComposite>
            <feColorMatrix values="0 0 0 0 1   0 0 0 0 1   0 0 0 0 1  0 0 0 1 0" type="matrix" in="shadowInnerInner1"></feColorMatrix>
        </filter>
    </defs>
    <g id="页面-1" stroke="none" stroke-width="1" fill="none" fill-rule="evenodd" opacity="0.5">
        <g id="M-创世挖矿" transform="translate(-137.000000, -226.000000)">
            <g id="编组-2" transform="translate(137.000000, 226.000000)">
                <path d="M12.6666667,6.53333333 C12.8607148,6.53333333 13.0363925,6.6119869 13.1635581,6.73915251 C13.2838698,6.85946424 13.3607579,7.0231996 13.3686966,7.20483276 L13.3686966,7.20483276 L12.9761589,8.35441961 C12.8418071,8.69029907 12.6119773,8.96836083 12.3252972,9.16245273 C12.0386171,9.35654463 11.6950866,9.46666667 11.3333333,9.46666667 C11.1392852,9.46666667 10.9636075,9.3880131 10.8364419,9.26084749 C10.7161302,9.14053576 10.6392421,8.9768004 10.6313034,8.79516724 L10.6313034,8.79516724 L11.0238411,7.64558039 C11.1581929,7.30970093 11.3880227,7.03163917 11.6747028,6.83754727 C11.9613829,6.64345537 12.3049134,6.53333333 12.6666667,6.53333333 Z" id="矩形" stroke="url(#linearGradient-2)" stroke-width="0.4" fill="url(#linearGradient-1)"></path>
                <path d="M4.66666667,6.53333333 C4.86071484,6.53333333 5.0363925,6.6119869 5.16355811,6.73915251 C5.28386984,6.85946424 5.36075793,7.0231996 5.36869656,7.20483276 L5.36869656,7.20483276 L4.9761589,8.35441961 C4.84180711,8.69029907 4.61197735,8.96836083 4.32529721,9.16245273 C4.03861708,9.35654463 3.69508658,9.46666667 3.33333333,9.46666667 C3.13928516,9.46666667 2.9636075,9.3880131 2.83644189,9.26084749 C2.71613016,9.14053576 2.63924207,8.9768004 2.63130344,8.79516724 L2.63130344,8.79516724 L3.0238411,7.64558039 C3.15819289,7.30970093 3.38802265,7.03163917 3.67470279,6.83754727 C3.96138292,6.64345537 4.30491342,6.53333333 4.66666667,6.53333333 Z" id="矩形备份" stroke="url(#linearGradient-2)" stroke-width="0.4" fill="url(#linearGradient-1)" transform="translate(4.000000, 8.000000) scale(-1, 1) translate(-4.000000, -8.000000) "></path>
                <g id="多边形">
                    <use fill="black" fill-opacity="1" filter="url(#filter-5)" xlink:href="#path-4"></use>
                    <use fill="url(#linearGradient-3)" fill-rule="evenodd" xlink:href="#path-4"></use>
                </g>
                <path d="M6.575,4.82926255 C7.45679307,4.32015908 8.54320693,4.32015908 9.425,4.82926255 L9.425,4.82926255 L10.0334392,5.18054507 C10.9152323,5.68964854 11.4584392,6.63051054 11.4584392,7.64871747 L11.4584392,7.64871747 L11.4584392,8.35128253 C11.4584392,8.86038599 11.3226374,9.35015323 11.0766116,9.77628253 C10.8305857,10.2024118 10.4743357,10.5649032 10.0334392,10.8194549 L10.0334392,10.8194549 L9.425,11.1707375 C8.98410347,11.4252892 8.49205173,11.5525651 8,11.5525651 C7.50794827,11.5525651 7.01589653,11.4252892 6.575,11.1707375 L6.575,11.1707375 L5.96656082,10.8194549 C5.08476775,10.3103515 4.54156082,9.36948946 4.54156082,8.35128253 L4.54156082,8.35128253 L4.54156082,7.64871747 C4.54156082,7.13961401 4.67736255,6.64984677 4.92338842,6.22371747 C5.16941428,5.79758817 5.52566428,5.43509681 5.96656082,5.18054507 L5.96656082,5.18054507 Z" id="多边形" stroke="#FFFFFF" stroke-width="0.3" fill="url(#linearGradient-6)"></path>
                <path d="M9.5,5.19935874 L9.67542648,5.30064126 C10.6036297,5.83653965 11.1754265,6.8269207 11.1754265,7.89871747 L11.1754265,8.10128253 C11.1754265,9.1730793 10.6036297,10.1634604 9.67542648,10.6993587 L9.5,10.8006413 C8.57179677,11.3365396 7.42820323,11.3365396 6.5,10.8006413 L6.32457352,10.6993587 C5.39637029,10.1634604 4.82457352,9.1730793 4.82457352,8.10128253 L4.82457352,7.89871747 C4.82457352,6.8269207 5.39637029,5.83653965 6.32457352,5.30064126 L6.5,5.19935874 C7.42820323,4.66346035 8.57179677,4.66346035 9.5,5.19935874 Z" id="多边形" fill="url(#linearGradient-7)"></path>
                <g id="形状结合" transform="translate(5.333333, 6.333333)">
                    <use fill="black" fill-opacity="1" filter="url(#filter-10)" xlink:href="#path-9"></use>
                    <use fill="url(#linearGradient-8)" fill-rule="evenodd" xlink:href="#path-9"></use>
                    <use fill="black" fill-opacity="1" filter="url(#filter-11)" xlink:href="#path-9"></use>
                </g>
                <path d="M9.5,3.8660254 L10.9801271,4.72057716 C11.4105904,4.96910529 11.558078,5.51953664 11.3095499,5.94999999 C11.2305584,6.08681727 11.1169443,6.20043135 10.9801271,6.27942284 L5.01987295,9.72057716 C4.5894096,9.96910529 4.03897825,9.82161765 3.79045011,9.3911543 C3.71145862,9.25433702 3.66987298,9.09913731 3.66987298,8.94115431 L3.66987298,7.23205081 C3.66987298,6.16025404 4.24166975,5.16987298 5.16987298,4.6339746 L6.5,3.8660254 C7.42820323,3.33012702 8.57179677,3.33012702 9.5,3.8660254 Z" id="多边形" fill="#FFFFFF" opacity="0.300000012"></path>
            </g>
        </g>
    </g>
</svg>