<svg width="26" height="28" viewBox="0 0 26 28" fill="none" xmlns="http://www.w3.org/2000/svg">
<g opacity="0.5">
<path d="M24.9011 4.97916L14.0763 0.224456C14.0358 0.206411 13.9941 0.190787 13.9514 0.177679C13.1967 -0.0592263 12.3644 -0.0592263 11.6097 0.177679C11.5672 0.190958 11.5254 0.206651 11.4848 0.224456L0.664144 4.97916C0.258559 5.15751 0 5.53641 0 5.95228V13.3647C0 17.4523 1.93463 21.1116 5.49339 23.6995L11.4388 27.6039C11.8317 27.8619 12.3015 28.0003 12.783 28C13.2539 28 13.7249 27.8681 14.1261 27.6039L20.1174 23.668C23.6304 21.1118 25.5652 17.4529 25.5652 13.3648V5.95228C25.5655 5.53626 25.3068 5.15751 24.9011 4.97916Z" fill="url(#paint0_linear)"/>
<g filter="url(#filter0_d)">
<path d="M12.9388 12.089H15.2567C15.2567 11.7709 15.2851 11.4528 15.3419 11.1346C15.4101 10.8051 15.518 10.5097 15.6657 10.2483C15.8134 9.97565 16.0066 9.75977 16.2452 9.6007C16.4952 9.43026 16.7963 9.34504 17.1485 9.34504C17.6712 9.34504 18.0973 9.5098 18.4268 9.83931C18.7676 10.1575 18.9381 10.6063 18.9381 11.1857C18.9381 11.5493 18.8529 11.8732 18.6824 12.1572C18.5234 12.4413 18.3188 12.6969 18.0689 12.9242C17.8303 13.1514 17.5632 13.3616 17.2678 13.5548C16.9724 13.7366 16.694 13.9184 16.4327 14.1002C15.9214 14.4524 15.4328 14.799 14.967 15.1398C14.5125 15.4807 14.1148 15.8557 13.7739 16.2647C13.433 16.6624 13.1603 17.1169 12.9558 17.6282C12.7627 18.1395 12.6661 18.7417 12.6661 19.4348H21.4264V17.3555H15.785C16.0805 16.9464 16.4213 16.5885 16.8076 16.2817C17.194 15.975 17.5916 15.6909 18.0007 15.4296C18.4097 15.1569 18.8131 14.8842 19.2108 14.6115C19.6198 14.3388 19.9834 14.0377 20.3016 13.7082C20.6197 13.3673 20.8754 12.981 21.0685 12.5492C21.2617 12.1175 21.3583 11.6005 21.3583 10.9983C21.3583 10.4188 21.2446 9.89612 21.0174 9.43026C20.8015 8.96441 20.5061 8.57241 20.1311 8.25426C19.7562 7.93612 19.3187 7.69183 18.8188 7.52139C18.3302 7.35096 17.8132 7.26574 17.2678 7.26574C16.552 7.26574 15.9157 7.39073 15.359 7.6407C14.8136 7.87931 14.3591 8.22018 13.9955 8.66331C13.6319 9.09507 13.3592 9.60638 13.1774 10.1972C12.9956 10.7767 12.9161 11.4073 12.9388 12.089Z" fill="white"/>
<path d="M5.26362 13.3913H6.51677L7.59074 17.5894L10.2762 13.4611H12.7825L8.84389 19.4783H6.33759L4.99484 14.2308H3.6521V13.3913H5.26362Z" fill="white"/>
</g>
</g>
<defs>
<filter id="filter0_d" x="1.21732" y="4.83096" width="22.6438" height="17.0821" filterUnits="userSpaceOnUse" color-interpolation-filters="sRGB">
<feFlood flood-opacity="0" result="BackgroundImageFix"/>
<feColorMatrix in="SourceAlpha" type="matrix" values="0 0 0 0 0 0 0 0 0 0 0 0 0 0 0 0 0 0 127 0" result="hardAlpha"/>
<feOffset/>
<feGaussianBlur stdDeviation="1.21739"/>
<feColorMatrix type="matrix" values="0 0 0 0 0 0 0 0 0 0 0 0 0 0 0 0 0 0 0.25 0"/>
<feBlend mode="normal" in2="BackgroundImageFix" result="effect1_dropShadow"/>
<feBlend mode="normal" in="SourceGraphic" in2="effect1_dropShadow" result="shape"/>
</filter>
<linearGradient id="paint0_linear" x1="25.5652" y1="0" x2="7.91304" y2="28" gradientUnits="userSpaceOnUse">
<stop stop-color="#FFC876"/>
<stop offset="1" stop-color="#FF3E24"/>
</linearGradient>
</defs>
</svg>
