<?xml version="1.0" encoding="UTF-8"?>
<svg width="241" height="140" viewBox="0 0 241 140" version="1.1" xmlns="http://www.w3.org/2000/svg"
    xmlns:xlink="http://www.w3.org/1999/xlink">
    <title>V3</title>
    <defs>
        <linearGradient x1="50%" y1="0%" x2="50%" y2="100%" id="linearGradient-1">
            <stop stop-color="#5A14E1" offset="0%"></stop>
            <stop stop-color="#5A14E1" stop-opacity="0.5019941" offset="100%"></stop>
        </linearGradient>
        <linearGradient x1="50%" y1="0%" x2="50%" y2="100%" id="linearGradient-2">
            <stop stop-color="#FFFFFF" offset="0%"></stop>
            <stop stop-color="#FFFFFF" stop-opacity="0.5019941" offset="100%"></stop>
        </linearGradient>
    </defs>
    <g id="页面-1" stroke="none" stroke-width="1" fill="none" fill-rule="evenodd" opacity="0.05">
        <g id="V3-兑换-3" transform="translate(-963.000000, -880.000000)" fill="url(#linearGradient-2)"
            fill-rule="nonzero">
            <g id="V3" transform="translate(963.000000, 880.000000)">
                <path
                    d="M0,0.675068267 L33.5092593,0.675068267 L66.1018519,114.598712 L99,0.675068267 L131.592593,0.675068267 L80.3611111,150.740708 L50.7222222,150.740708 L0,0.675068267 Z M174.268519,30.1352981 C171.009259,34.4791248 169.447531,40.2822058 169.583333,47.5445412 L142.490741,47.5445412 C142.762346,40.2143336 144.018519,33.2574235 146.259259,26.6738111 C148.635802,20.9046662 152.37037,15.5766912 157.462963,10.6898861 C161.265432,7.2283992 165.780864,4.58137977 171.009259,2.74882786 C176.237654,0.916275954 182.654321,0 190.259259,0 C204.382716,0 215.773148,3.64813574 224.430556,10.9444072 C233.087963,18.2406787 237.416667,28.031257 237.416667,40.316142 C237.416667,49.0037955 234.83642,56.3340031 229.675926,62.3067649 C226.416667,66.039741 223.021605,68.584952 219.490741,69.9423979 C222.138889,69.9423979 225.941358,72.2161197 230.898148,76.7635633 C238.299383,83.6186649 242,92.9850413 242,104.862693 C242,117.351194 237.671296,128.329538 229.013889,137.797723 C220.356481,147.265908 207.540123,152 190.564815,152 C169.651235,152 155.12037,145.178835 146.972222,131.536504 C142.694444,124.274168 140.317901,114.772047 139.842593,103.030141 L168.361111,103.030141 C168.361111,108.93503 169.311728,113.821835 171.212963,117.690556 C174.743827,124.817147 181.160494,128.380442 190.462963,128.380442 C196.166667,128.380442 201.140432,126.429114 205.384259,122.526457 C209.628086,118.6238 211.75,113.007368 211.75,105.67716 C211.75,95.9714222 207.811728,89.4896182 199.935185,86.2317482 C195.453704,84.3991962 188.391975,83.4829203 178.75,83.4829203 L178.75,62.7139987 C188.188272,62.5782541 194.774691,61.6619781 198.509259,59.9651708 C204.959877,57.1145345 208.185185,51.3453896 208.185185,42.6577361 C208.185185,37.0243358 206.53858,32.442956 203.24537,28.9135968 C199.95216,25.3842376 195.317901,23.6195579 189.342593,23.6195579 C182.484568,23.6195579 177.459877,25.7914713 174.268519,30.1352981 Z"
                    id="形状结合"></path>
            </g>
        </g>
    </g>
</svg>