<svg width="48" height="48" viewBox="0 0 48 48" fill="none" xmlns="http://www.w3.org/2000/svg">
<path d="M21.0414 1.67694C22.8766 0.636716 25.1234 0.636715 26.9586 1.67693L34.44 5.91739L41.853 10.2762C43.6715 11.3455 44.7949 13.2912 44.8116 15.4007L44.88 24L44.8116 32.5993C44.7949 34.7088 43.6715 36.6545 41.853 37.7238L34.44 42.0826L26.9586 46.3231C25.1234 47.3633 22.8766 47.3633 21.0414 46.3231L13.56 42.0826L6.14696 37.7238C4.32848 36.6545 3.20513 34.7088 3.18836 32.5993L3.12 24L3.18836 15.4007C3.20513 13.2912 4.32848 11.3455 6.14696 10.2762L13.56 5.91739L21.0414 1.67694Z" fill="#4249FF" fill-opacity="0.15"/>
<path d="M21.4134 2.3333C23.0179 1.42388 24.9821 1.42388 26.5866 2.3333L34.0628 6.57079L41.4706 10.9266C43.0604 11.8614 44.0425 13.5625 44.0572 15.4067L44.1255 24L44.0572 32.5933C44.0425 34.4375 43.0604 36.1386 41.4706 37.0734L34.0626 41.4293L26.5866 45.6667C24.9821 46.5761 23.0179 46.5761 21.4134 45.6667L13.9373 41.4292L6.52938 37.0734C4.93956 36.1386 3.95746 34.4375 3.9428 32.5933L3.87449 24L3.9428 15.4067C3.95746 13.5625 4.93955 11.8614 6.52937 10.9266L13.9372 6.57081L21.4134 2.3333Z" stroke="#4249FF" stroke-opacity="0.6" stroke-width="1.50893"/>
<g clip-path="url(#clip0_24_4616)">
<path d="M27.6767 15.0791C27.5317 15.0357 27.4209 15.0024 27.1459 14.9166C25.0209 14.2566 23.6459 13.9999 21.1343 13.9999C19.5284 14.0024 18.3443 14.3491 17.6776 15.0399C17.1835 15.5482 17.0051 16.0257 16.9001 16.5207C16.8451 16.7974 15.4001 22.5523 15.2876 22.929C14.9985 23.9015 14.7243 24.5148 14.896 25.194C15.0493 25.8023 15.5118 26.3631 16.0176 26.6431C16.3733 26.8417 16.7744 26.9445 17.1818 26.9415H20.0501C20.4051 26.9415 20.7393 27.1156 20.9384 27.4048C21.035 27.5418 21.0941 27.7017 21.1099 27.8687C21.1257 28.0356 21.0976 28.2037 21.0284 28.3565C20.7384 29.019 20.5376 30.0489 20.4859 30.7798C20.4909 32.1573 20.8384 33.1606 21.5359 33.6489C22.1442 34.0789 22.8726 34.0664 23.5292 33.8639C24.1959 33.6573 24.4026 33.2039 24.6251 31.8373L24.6617 31.6173C24.6759 31.5339 24.6876 31.4656 24.7001 31.4006C25.0306 29.7044 25.8487 28.1414 27.0542 26.9031C27.6221 26.3106 28.27 25.8004 28.9792 25.3873C28.9834 25.3848 28.9909 22.0515 29 15.3874C28.5984 15.329 28.1859 15.2299 27.6767 15.079V15.0791ZM33.1667 24.8332H30.6667V15.6665H33.1667C33.2761 15.6665 33.3845 15.6881 33.4856 15.73C33.5867 15.7719 33.6785 15.8332 33.7559 15.9106C33.9122 16.0669 34 16.2789 34 16.4999V23.9998C34 24.2208 33.9122 24.4328 33.7559 24.5891C33.5996 24.7454 33.3877 24.8332 33.1667 24.8332Z" fill="white"/>
</g>
<defs>
<clipPath id="clip0_24_4616">
<rect width="20" height="20" fill="white" transform="matrix(-1 0 0 -1 34 34)"/>
</clipPath>
</defs>
</svg>
