<svg width="48" height="48" viewBox="0 0 48 48" fill="none" xmlns="http://www.w3.org/2000/svg">
<path d="M21.0414 1.67694C22.8766 0.636716 25.1234 0.636715 26.9586 1.67693L34.44 5.91739L41.853 10.2762C43.6715 11.3455 44.7949 13.2912 44.8116 15.4007L44.88 24L44.8116 32.5993C44.7949 34.7088 43.6715 36.6545 41.853 37.7238L34.44 42.0826L26.9586 46.3231C25.1234 47.3633 22.8766 47.3633 21.0414 46.3231L13.56 42.0826L6.14696 37.7238C4.32848 36.6545 3.20513 34.7088 3.18836 32.5993L3.12 24L3.18836 15.4007C3.20513 13.2912 4.32848 11.3455 6.14696 10.2762L13.56 5.91739L21.0414 1.67694Z" fill="#4249FF" fill-opacity="0.15"/>
<path d="M21.4134 2.3333C23.0179 1.42388 24.9821 1.42388 26.5866 2.3333L34.0628 6.57079L41.4706 10.9266C43.0604 11.8614 44.0425 13.5625 44.0572 15.4067L44.1255 24L44.0572 32.5933C44.0425 34.4375 43.0604 36.1386 41.4706 37.0734L34.0626 41.4293L26.5866 45.6667C24.9821 46.5761 23.0179 46.5761 21.4134 45.6667L13.9373 41.4292L6.52938 37.0734C4.93956 36.1386 3.95746 34.4375 3.9428 32.5933L3.87449 24L3.9428 15.4067C3.95746 13.5625 4.93955 11.8614 6.52937 10.9266L13.9372 6.57081L21.4134 2.3333Z" stroke="#4249FF" stroke-opacity="0.6" stroke-width="1.50893"/>
<g clip-path="url(#clip0_126_10955)">
<path d="M27.6767 15.0792C27.5317 15.0359 27.4209 15.0026 27.1459 14.9167C25.0209 14.2567 23.6459 14.0001 21.1343 14.0001C19.5284 14.0026 18.3443 14.3492 17.6776 15.0401C17.1835 15.5484 17.0051 16.0259 16.9001 16.5209C16.8451 16.7976 15.4001 22.5525 15.2876 22.9292C14.9985 23.9017 14.7243 24.515 14.896 25.1942C15.0493 25.8025 15.5118 26.3633 16.0176 26.6433C16.3733 26.8418 16.7744 26.9446 17.1818 26.9416H20.0501C20.4051 26.9416 20.7393 27.1158 20.9384 27.405C21.035 27.542 21.0941 27.7019 21.1099 27.8688C21.1257 28.0358 21.0976 28.2039 21.0284 28.3566C20.7384 29.0191 20.5376 30.0491 20.4859 30.78C20.4909 32.1575 20.8384 33.1608 21.5359 33.6491C22.1442 34.0791 22.8726 34.0666 23.5292 33.8641C24.1959 33.6574 24.4026 33.2041 24.6251 31.8375L24.6617 31.6175C24.6759 31.5341 24.6876 31.4658 24.7001 31.4008C25.0306 29.7045 25.8487 28.1415 27.0542 26.9033C27.6221 26.3108 28.27 25.8005 28.9792 25.3875C28.9834 25.385 28.9909 22.0517 29 15.3876C28.5984 15.3292 28.1859 15.2301 27.6767 15.0792V15.0792ZM33.1667 24.8333H30.6667V15.6667H33.1667C33.2761 15.6667 33.3845 15.6883 33.4856 15.7302C33.5867 15.772 33.6785 15.8334 33.7559 15.9108C33.9122 16.0671 34 16.2791 34 16.5001V24C34 24.221 33.9122 24.433 33.7559 24.5893C33.5996 24.7455 33.3877 24.8333 33.1667 24.8333Z" fill="#333333"/>
</g>
<defs>
<clipPath id="clip0_126_10955">
<rect width="20" height="20" fill="white" transform="matrix(-1 0 0 -1 34 34)"/>
</clipPath>
</defs>
</svg>
