<svg width="46" height="46" viewBox="0 0 46 46" fill="none" xmlns="http://www.w3.org/2000/svg">
<path d="M20.0414 1.67693C21.8766 0.636714 24.1234 0.636714 25.9586 1.67693L33.005 5.67083L39.987 9.77624C41.8055 10.8455 42.9289 12.7912 42.9456 14.9007L43.01 23L42.9456 31.0993C42.9289 33.2088 41.8055 35.1545 39.987 36.2238L33.005 40.3292L25.9586 44.3231C24.1233 45.3633 21.8766 45.3633 20.0414 44.3231L12.995 40.3292L6.01298 36.2238C4.1945 35.1545 3.07115 33.2088 3.05438 31.0993L2.99 23L3.05438 14.9007C3.07115 12.7912 4.1945 10.8455 6.01298 9.77624L12.995 5.67083L20.0414 1.67693Z" fill="#FF8700" fill-opacity="0.1"/>
<path d="M20.4134 2.3333C22.0179 1.42388 23.9821 1.42388 25.5866 2.3333L32.6277 6.32422L39.6046 10.4266C41.1944 11.3614 42.1765 13.0625 42.1912 14.9067L42.2555 23L42.1912 31.0933C42.1765 32.9375 41.1944 34.6386 39.6046 35.5734L32.6276 39.6758L25.5866 43.6667C23.9821 44.5761 22.0179 44.5761 20.4134 43.6667L13.3723 39.6758L6.3954 35.5734C4.80558 34.6386 3.82348 32.9375 3.80882 31.0933L3.74449 23L3.80882 14.9067C3.82348 13.0625 4.80558 11.3614 6.3954 10.4266L13.3722 6.32424L20.4134 2.3333Z" stroke="#FF8700" stroke-opacity="0.6" stroke-width="1.50893"/>
<g clip-path="url(#clip0_126_10969)">
<path d="M20.4348 30.5909C20.5738 30.6324 20.68 30.6644 20.9435 30.7466C22.98 31.3791 24.2977 31.6251 26.7047 31.6251C28.2436 31.6227 29.3784 31.2905 30.0173 30.6284C30.4909 30.1413 30.6618 29.6837 30.7624 29.2093C30.8151 28.9442 32.1999 23.429 32.3077 23.068C32.5848 22.1361 32.8475 21.5483 32.683 20.8974C32.5361 20.3144 32.0929 19.777 31.6081 19.5086C31.2672 19.3184 30.8828 19.2199 30.4925 19.2228H27.7437C27.4035 19.2228 27.0832 19.0558 26.8923 18.7787C26.7998 18.6474 26.7431 18.4941 26.728 18.3342C26.7129 18.1742 26.7398 18.0131 26.8061 17.8667C27.084 17.2318 27.2765 16.2448 27.326 15.5444C27.3212 14.2243 26.9882 13.2627 26.3197 12.7948C25.7368 12.3827 25.0388 12.3947 24.4095 12.5887C23.7706 12.7868 23.5725 13.2212 23.3593 14.5309L23.3242 14.7418C23.3106 14.8216 23.2994 14.8871 23.2874 14.9494C22.9707 16.575 22.1867 18.0729 21.0314 19.2595C20.4872 19.8273 19.8662 20.3163 19.1866 20.7122C19.1826 20.7146 19.1754 23.909 19.1666 30.2954C19.5516 30.3513 19.9469 30.4464 20.4348 30.5909V30.5909ZM15.1736 21.2432H17.5694V30.0279H15.1736C15.0687 30.0279 14.9649 30.0072 14.868 29.9671C14.7711 29.927 14.6831 29.8681 14.6089 29.794C14.4591 29.6442 14.375 29.4411 14.375 29.2293V22.0418C14.375 21.83 14.4591 21.6269 14.6089 21.4771C14.7587 21.3273 14.9618 21.2432 15.1736 21.2432Z" fill="#333333"/>
</g>
<defs>
<clipPath id="clip0_126_10969">
<rect width="19.1667" height="19.1667" fill="white" transform="translate(14.375 12.4585)"/>
</clipPath>
</defs>
</svg>
