<?xml version="1.0" encoding="UTF-8"?>
<svg width="80px" height="80px" viewBox="0 0 80 80" version="1.1" xmlns="http://www.w3.org/2000/svg" xmlns:xlink="http://www.w3.org/1999/xlink">
    <title>形状结合</title>
    <defs>
        <linearGradient x1="9.61941668%" y1="8.44914454%" x2="81.936746%" y2="93.3431952%" id="linearGradient-1">
            <stop stop-color="#FF9898" offset="0%"></stop>
            <stop stop-color="#FF3939" offset="100%"></stop>
        </linearGradient>
    </defs>
    <g id="页面-1" stroke="none" stroke-width="1" fill="none" fill-rule="evenodd">
        <g id="矿池治理弹窗" transform="translate(-1631.000000, -122.000000)" fill="url(#linearGradient-1)">
            <g id="编组-9备份-11" transform="translate(1450.000000, 32.000000)">
                <path d="M221,90 C243.09139,90 261,107.90861 261,130 C261,152.09139 243.09139,170 221,170 C198.90861,170 181,152.09139 181,130 C181,107.90861 198.90861,90 221,90 Z M221.000637,146.6 C217.816891,146.6 215.235955,149.151977 215.235955,152.3 C215.235955,155.448023 217.816891,158 221.000637,158 C224.184382,158 226.765318,155.448023 226.765318,152.3 C226.765318,149.151977 224.184382,146.6 221.000637,146.6 Z M221.000637,101 C220.522945,101 220.045868,101.034286 219.573085,101.102592 C214.116104,101.891007 210.331483,106.953901 211.119898,112.410883 L211.119898,112.410883 L214.411643,135.194559 C214.884816,138.4696 217.691591,140.9 221.000637,140.9 C224.309683,140.9 227.116458,138.4696 227.58963,135.194559 L227.58963,135.194559 L230.881375,112.410883 C230.949682,111.938099 230.983968,111.461023 230.983968,110.983331 C230.983968,105.46969 226.514278,101 221.000637,101 Z" id="形状结合"></path>
            </g>
        </g>
    </g>
</svg>