<?xml version="1.0" encoding="UTF-8"?>
<svg width="14px" height="14px" viewBox="0 0 14 14" version="1.1" xmlns="http://www.w3.org/2000/svg" xmlns:xlink="http://www.w3.org/1999/xlink">
    <title>编组 10备份 3</title>
    <g id="页面-1" stroke="none" stroke-width="1" fill="none" fill-rule="evenodd">
        <g id="SunPump-Farm" transform="translate(-707.000000, -385.000000)">
            <g id="编组-8" transform="translate(400.000000, 328.000000)">
                <g id="编组-10备份-3" transform="translate(307.000000, 57.000000)">
                    <circle id="椭圆形" fill="#8C51FF" cx="7" cy="7" r="7"></circle>
                    <g id="？" transform="translate(6.000000, 2.524000)" fill="#FFFFFF" fill-rule="nonzero">
                        <path d="M0.993548387,7 C0.709677419,7 0.477419355,7.09271523 0.283870968,7.2781457 C0.0903225806,7.46357616 0,7.70198675 0,7.99337748 C0,8.28476821 0.0903225806,8.52317881 0.283870968,8.70860927 C0.477419355,8.89403974 0.709677419,9 0.993548387,9 C1.27741935,9 1.50967742,8.90728477 1.70322581,8.7218543 C1.89677419,8.53642384 2,8.28476821 2,7.99337748 C2,7.70198675 1.89677419,7.46357616 1.71612903,7.2781457 C1.52258065,7.09271523 1.27741935,7 0.993548387,7 Z M1,0 C1.55228475,-1.01453063e-16 2,0.44771525 2,1 L2,5 C2,5.55228475 1.55228475,6 1,6 C0.44771525,6 6.76353751e-17,5.55228475 0,5 L0,1 C-6.76353751e-17,0.44771525 0.44771525,-2.31613845e-16 1,0 Z" id="形状"></path>
                    </g>
                </g>
            </g>
        </g>
    </g>
</svg>