<svg width="14" height="14" viewBox="0 0 14 14" fill="none" xmlns="http://www.w3.org/2000/svg">
<path d="M7 0.875C3.61758 0.875 0.875 3.61758 0.875 7C0.875 10.3824 3.61758 13.125 7 13.125C10.3824 13.125 13.125 10.3824 13.125 7C13.125 3.61758 10.3824 0.875 7 0.875ZM6.9918 10.8281C6.56934 10.8281 6.22754 10.4863 6.22754 10.0625C6.22754 9.63867 6.56934 9.29688 6.9918 9.29688C7.41426 9.29688 7.75605 9.63867 7.75605 10.0625C7.75605 10.4863 7.41426 10.8281 6.9918 10.8281ZM7.75605 7.38281C7.75605 7.59473 7.58516 7.76562 7.37324 7.76562H6.60898C6.39844 7.76562 6.22617 7.59473 6.22617 7.38281V3.55469C6.22617 3.34277 6.39707 3.17188 6.60898 3.17188H7.37324C7.58379 3.17188 7.75605 3.34277 7.75605 3.55469V7.38281Z" fill="#ED635A"/>
</svg>
