<svg width="14" height="14" viewBox="0 0 14 14" fill="none" xmlns="http://www.w3.org/2000/svg">
<g clip-path="url(#clip0_497_2684)">
<path d="M11.8061 11.8061L11.8061 11.8061C11.1951 12.4173 10.4773 12.903 9.65155 13.2625L9.65149 13.2625C8.8298 13.6206 7.94925 13.8 7.00769 13.8C6.06639 13.8 5.18309 13.6206 4.35578 13.2623L4.35572 13.2623C3.52465 12.9028 2.80467 12.4171 2.19394 11.8061L2.19389 11.8061C1.58293 11.1953 1.09725 10.4753 0.737693 9.64428L0.737666 9.64422C0.379413 8.81692 0.2 7.93363 0.2 6.99231C0.2 6.05075 0.379416 5.1702 0.737483 4.34851L0.73751 4.34845C1.09703 3.52267 1.58275 2.80486 2.19389 2.19394L2.19394 2.19389C2.80465 1.58295 3.52462 1.09746 4.35574 0.737684C5.1831 0.379626 6.06642 0.2 7.00769 0.2C7.94921 0.2 8.82979 0.379627 9.65153 0.737501C10.4773 1.09726 11.1952 1.58277 11.8061 2.19389L11.8061 2.19393C12.4172 2.80485 12.9027 3.52266 13.2625 4.34847C13.6204 5.17021 13.8 6.05079 13.8 6.99231C13.8 7.93359 13.6204 8.8169 13.2623 9.64424C12.9025 10.4754 12.417 11.1953 11.8061 11.8061Z" fill="#FFAC00" fill-opacity="0.1" stroke="#FFAC00" stroke-width="0.4"/>
<path d="M7.00015 9.7158C6.45782 9.7158 6.01855 10.1551 6.01855 10.6974C6.01855 11.2397 6.45782 11.679 7.00015 11.679C7.54248 11.679 7.98175 11.2397 7.98175 10.6974C7.98175 10.1551 7.54248 9.7158 7.00015 9.7158Z" fill="#FFAC00"/>
<path d="M7.00015 8.97613C6.72923 8.97613 6.50935 8.51795 6.50935 7.95227L6.01855 3.34488C6.01855 2.7792 6.45782 2.32102 7.00015 2.32102C7.54248 2.32102 7.98175 2.7792 7.98175 3.34488L7.49095 7.95227C7.49095 8.51795 7.27107 8.97613 7.00015 8.97613Z" fill="#FFAC00"/>
</g>
<defs>
<clipPath id="clip0_497_2684">
<rect width="14" height="14" fill="white"/>
</clipPath>
</defs>
</svg>
