<svg width="14" height="14" viewBox="0 0 14 14" fill="none" xmlns="http://www.w3.org/2000/svg">
<g clip-path="url(#clip0_44_9120)">
<path d="M13.4459 9.72369C13.0765 10.5769 12.5771 11.3182 11.9475 11.9475C11.3182 12.5771 10.5793 13.0767 9.73139 13.4459C8.88331 13.8154 7.97542 14 7.00769 14C6.04021 14 5.12974 13.8154 4.27631 13.4459C3.42309 13.0767 2.68181 12.5771 2.05249 11.9475C1.42294 11.3182 0.923271 10.5769 0.554136 9.72369C0.184568 8.87027 0 7.95981 0 6.99231C0 6.02458 0.184568 5.1167 0.554136 4.26862C0.923271 3.42074 1.42294 2.68182 2.05249 2.05249C2.68181 1.42294 3.42309 0.923479 4.27631 0.554136C5.12974 0.184793 6.04021 0 7.00769 0C7.97542 0 8.88331 0.184791 9.73139 0.554136C10.5792 0.923496 11.3182 1.42294 11.9475 2.05249C12.5771 2.68183 13.0765 3.42076 13.4459 4.26862C13.8152 5.1167 14 6.02458 14 6.99231C14 7.95981 13.8152 8.87027 13.4459 9.72369Z" fill="#FFAC00"/>
<path d="M7.00015 9.71582C6.45782 9.71582 6.01855 10.1551 6.01855 10.6974C6.01855 11.2397 6.45782 11.679 7.00015 11.679C7.54248 11.679 7.98175 11.2397 7.98175 10.6974C7.98175 10.1551 7.54248 9.71582 7.00015 9.71582Z" fill="white"/>
<path d="M7.00015 8.97615C6.72923 8.97615 6.50935 8.51798 6.50935 7.95229L6.01855 3.34491C6.01855 2.77922 6.45782 2.32104 7.00015 2.32104C7.54248 2.32104 7.98175 2.77922 7.98175 3.34491L7.49095 7.95229C7.49095 8.51798 7.27107 8.97615 7.00015 8.97615Z" fill="white"/>
</g>
<defs>
<clipPath id="clip0_44_9120">
<rect width="14" height="14" fill="white"/>
</clipPath>
</defs>
</svg>
