<?xml version="1.0" encoding="UTF-8"?>
<svg width="60px" height="60px" viewBox="0 0 60 60" version="1.1" xmlns="http://www.w3.org/2000/svg" xmlns:xlink="http://www.w3.org/1999/xlink">
    <title>WIN</title>
    <g id="WIN" stroke="none" stroke-width="1" fill="none" fill-rule="evenodd">
        <circle id="椭圆形" fill="#FFFFFF" cx="30" cy="30" r="30"></circle>
        <g id="编组-3">
            <circle id="椭圆形" stroke="#283964" stroke-width="2" fill-opacity="0.2" fill="#283964" cx="30" cy="30" r="29"></circle>
            <circle id="椭圆形" fill="#283964" cx="30" cy="30" r="20"></circle>
            <g id="编组-33" transform="translate(21.500000, 18.500000)">
                <path d="M16.0358401,0.0712907877 C15.0738361,0.6226702 14.3887176,1.01107413 13.9804846,1.23650259 C13.4785701,1.51378643 13.4421541,1.84730327 13.4450603,1.96013147 C13.4421541,2.07278871 13.4785701,2.40648955 13.9804846,2.6837734 C14.3887176,2.90920185 15.0736665,3.29771882 16.0353314,3.8493243 C16.1155078,3.8958232 16.2069575,3.91992243 16.2996134,3.92009339 C16.4396229,3.92009339 16.5738198,3.86453286 16.6728009,3.76555176 C16.771782,3.66657066 16.8273426,3.53220276 16.8273426,3.39236418 C16.8273426,3.29970829 16.8029028,3.20859772 16.7564039,3.12842132 C16.710076,3.04824492 16.643237,2.98174504 16.5630606,2.9354171 L14.7860079,1.95996192 L16.5635693,0.985367547 C16.6439166,0.939210556 16.710076,0.871861512 16.7564039,0.791685111 C16.8029028,0.711337761 16.8273412,0.620385093 16.8275121,0.527729208 C16.8275121,0.387719672 16.7719646,0.25352273 16.6729835,0.154541629 C16.5740024,0.0555605283 16.4394519,0 16.2996134,0 C16.2069575,0 16.1160165,0.0247918938 16.0358401,0.0712907877 Z M1.12042355,0.420545218 C0.900237605,0.511833484 0.700226558,0.645520746 0.53166807,0.814079235 C0.363109582,0.982466768 0.229420924,1.18264877 0.138303606,1.40283471 C0.0470153403,1.62302066 -1.11022302e-15,1.85892832 -1.11022302e-15,2.09723516 C-1.11022302e-15,2.335542 0.047016735,2.57163226 0.138134053,2.7918182 C0.229422319,3.01200414 0.363109582,3.21201519 0.53166807,3.38057368 C0.700226558,3.54913217 0.900237605,3.68281943 1.12042355,3.7741077 C1.34060949,3.86522501 1.57668671,3.91222871 1.81499355,3.91222871 C2.05330038,3.91222871 2.28922109,3.86522641 2.50940703,3.77393814 C2.72959298,3.68282082 2.92977498,3.54913217 3.09816251,3.38057368 C3.266721,3.21201519 3.40040826,3.01200414 3.49169653,2.7918182 C3.58281385,2.57163226 3.62983058,2.335542 3.62983058,2.09723516 C3.62983058,1.61600578 3.43852758,1.1544443 3.09816251,0.814079235 C2.75779745,0.473714169 2.29622292,0.282411165 1.81499355,0.282411165 C1.57668671,0.282411165 1.34060949,0.3294279 1.12042355,0.420545218 Z M1.58870844,20.7242171 C1.58870844,20.9853723 1.73074995,21.2238975 1.95429145,21.3390321 C4.47828192,22.9220688 6.84947174,23.6417755 9.06786092,23.4981521 C11.286149,23.6417755 13.6572883,22.9220688 16.1812787,21.3390321 C16.4048202,21.2238975 16.5467205,20.9853723 16.5468734,20.7242171 C16.5467205,20.3456338 16.2542238,20.0387563 15.8932242,20.0387563 C15.7554602,20.0390621 15.6212114,20.0849314 15.5097464,20.1700974 L15.4527141,20.2078701 C13.5598955,21.5388242 11.4316111,22.1839655 9.06786092,22.1432937 C6.7040089,22.1839655 4.57567784,21.5388242 2.68286775,20.2078701 L2.62583544,20.1700974 C2.5143705,20.0849314 2.38012161,20.0389092 2.24235766,20.0387563 C1.881358,20.0387563 1.58870844,20.3456338 1.58870844,20.7242171 Z" id="Vector" fill="#FFFFFF"></path>
                <path d="M1.61268433,6.08488308 C1.29589535,6.40146834 1.11804969,6.83111516 1.11804969,7.27889792 C1.11845713,7.40418746 1.1329135,7.52907181 1.16082352,7.65110179 L1.15715542,7.65191001 L3.55253685,17.4157374 L3.55701318,17.4145251 C3.65398524,17.7722624 3.86586767,18.0880333 4.16004344,18.3133507 C4.4542192,18.5384645 4.81439781,18.6609004 5.1847659,18.6613078 C5.54311435,18.6609004 5.89208665,18.5464057 6.18116935,18.3347377 C6.47025204,18.1228659 6.68436928,17.8246188 6.7925461,17.4829757 L6.79478427,17.4933583 L8.58000128,12.3982515 L10.3652338,17.4933583 L10.367472,17.4829757 C10.4756488,17.8246188 10.6899698,18.1228659 10.9788488,18.3347377 C11.2679315,18.5464057 11.6169038,18.6609004 11.9752522,18.6613078 C12.345824,18.6609004 12.7057989,18.5384645 12.9999747,18.3133507 C13.2941504,18.0880333 13.5060173,17.7722624 13.6029894,17.4145251 L13.6076833,17.4157374 L16.0028471,7.65191001 L15.999179,7.65110179 C16.0272928,7.52907181 16.0415593,7.40418746 16.0421705,7.27889792 C16.0421705,6.83111516 15.8641211,6.40146834 15.5475358,6.08488308 C15.2307468,5.7680941 14.8012899,5.59024844 14.3533034,5.59024844 C13.9521731,5.59065588 13.5642969,5.7340661 13.2591201,5.99442388 C12.9539433,6.25498539 12.7514364,6.61557091 12.6878749,7.01160808 L12.6840047,7.01079985 L11.6918755,11.0434928 L10.174539,6.70888061 L10.1688348,6.71091672 C10.1678162,6.70847204 10.166807,6.70602685 10.1657884,6.70337845 C10.1501017,6.66059666 10.1325762,6.61823285 10.1132226,6.57667339 C10.1089444,6.56669098 10.104462,6.55690519 10.0999801,6.5471265 C10.080219,6.50638193 10.0588384,6.46665317 10.0360214,6.42774211 C10.0305209,6.41796341 10.0248151,6.40818984 10.0191108,6.39861487 C9.99568269,6.36072242 9.97081662,6.32385185 9.94453637,6.28799663 C9.93781352,6.27821794 9.9306822,6.26843049 9.92375563,6.25865179 C9.89747538,6.22463008 9.86997927,6.19142647 9.84125435,6.15944198 C9.83229054,6.1488484 9.82312868,6.13846477 9.81396116,6.12827863 C9.78503252,6.09772021 9.755074,6.06817301 9.72410813,6.03985554 C9.71371826,6.03007684 9.70333631,6.0203016 9.69274272,6.01093035 C9.66177685,5.98383522 9.62978446,5.95816204 9.59678136,5.93351158 C9.58435427,5.92373288 9.57193844,5.91436176 9.55930762,5.90499051 C9.52732314,5.88237727 9.49451864,5.86098277 9.4611081,5.84081421 C9.44603261,5.83144296 9.43095399,5.82208071 9.4158785,5.81311691 C9.38307912,5.79478185 9.34966457,5.77746897 9.31564286,5.76137487 C9.29873387,5.75281851 9.28162138,5.74446709 9.26430494,5.7365219 C9.23170928,5.72246502 9.19850567,5.70921822 9.16509513,5.69719857 C9.14513029,5.6894571 9.12517515,5.68211651 9.10500659,5.67518994 C9.07241094,5.66480007 9.03960977,5.65542562 9.00640295,5.64707298 C8.98501206,5.64116502 8.96341716,5.63567512 8.94182254,5.63058205 C8.90963434,5.6238592 8.87704244,5.61795464 8.84444679,5.61306529 C8.82101866,5.60899084 8.79757641,5.60552093 8.77394456,5.60246509 C8.74338614,5.59920553 8.71262939,5.596757 8.68207097,5.59533094 C8.64825298,5.59268254 8.61423892,5.59085961 8.58042093,5.59024844 C8.58021721,5.59024844 8.58062466,5.59024844 8.58042093,5.59024844 C8.54578805,5.59085961 8.51034018,5.59268088 8.47591102,5.595533 C8.44637122,5.59695906 8.41702608,5.59920719 8.38768999,5.60226304 C8.36222463,5.6055226 8.33696278,5.60939162 8.31170115,5.61387352 C8.28073528,5.61855915 8.25018559,5.62406459 8.21942344,5.63037999 C8.19681021,5.63567679 8.1741906,5.64137929 8.15178109,5.64769469 C8.11918544,5.65584361 8.08699599,5.6650038 8.05501151,5.67518994 C8.03484295,5.68211651 8.01487227,5.6894571 7.99490743,5.69719857 C7.96149689,5.70921822 7.92829328,5.7222613 7.89569762,5.7365219 C7.87838118,5.74446709 7.86126869,5.75281851 7.84435969,5.76137487 C7.8105417,5.77746897 7.77714103,5.79478185 7.74434166,5.81311691 C7.728655,5.82228443 7.71316505,5.83185928 7.69768212,5.84163798 C7.66488274,5.86160282 7.63268996,5.8823806 7.60131664,5.90458639 C7.58807466,5.91416137 7.57504712,5.92414921 7.56200886,5.93433535 C7.52961693,5.95878209 7.4978338,5.98424433 7.46727538,6.0107283 C7.45668179,6.02030327 7.44628429,6.03007684 7.43589443,6.03985554 C7.40492856,6.06817301 7.37518764,6.09751815 7.346259,6.12807658 C7.33688775,6.13867016 7.32751329,6.14925084 7.31814204,6.16004815 C7.28982457,6.19182891 7.26252384,6.22442969 7.23665104,6.25824768 C7.22931702,6.26843382 7.22199198,6.27861705 7.21465796,6.28900692 C7.18878516,6.32445469 7.16413169,6.36092781 7.14090728,6.39841281 C7.13520304,6.40839523 7.12929516,6.4183814 7.12379464,6.42836382 C7.10097769,6.46707116 7.07979745,6.50638526 7.06024006,6.54672238 C7.05555443,6.55690852 7.05085777,6.56709176 7.04637586,6.57748162 C7.02722592,6.61863363 7.00991637,6.66059666 6.99422971,6.70337845 C6.99321109,6.70582312 6.99218639,6.70847204 6.99116777,6.71091672 L6.98546356,6.70888061 L5.4679405,11.0434928 L4.47601339,7.01079985 L4.47214323,7.01160808 C4.40858171,6.61536718 4.20607483,6.25498539 3.90089803,5.99442388 C3.59572123,5.7340661 3.20782941,5.59065588 2.80669917,5.59024844 C2.35891641,5.59024844 1.92926959,5.7680941 1.61268433,6.08488308 Z" id="Vector" fill="#FBC509"></path>
            </g>
        </g>
    </g>
</svg>