<?xml version="1.0" encoding="UTF-8"?>
<svg width="32px" height="32px" viewBox="0 0 32 32" version="1.1" xmlns="http://www.w3.org/2000/svg" xmlns:xlink="http://www.w3.org/1999/xlink">
    <title>编组 22</title>
    <g id="页面-1" stroke="none" stroke-width="1" fill="none" fill-rule="evenodd">
        <g id="浅色-V3曲线图-添加流动性-全状态" transform="translate(-1446.000000, -597.000000)">
            <g id="编组-20" transform="translate(1000.000000, 574.000000)">
                <g id="编组-22" transform="translate(446.000000, 23.000000)">
                    <circle id="椭圆形" stroke-opacity="0.2" stroke="#333333" cx="16" cy="16" r="15.5"></circle>
                    <g id="编组-6" transform="translate(8.000000, 8.000000)">
                        <circle id="椭圆形" stroke="#333333" stroke-width="2" cx="8" cy="8" r="7"></circle>
                        <rect id="矩形" fill="#333333" transform="translate(14.000000, 14.500000) rotate(-45.000000) translate(-14.000000, -14.500000) " x="13" y="12" width="2" height="5" rx="1"></rect>
                        <path d="M8,4 C8.55228475,4 9,4.44771525 9,5 L9,7 L11,7 C11.5522847,7 12,7.44771525 12,8 C12,8.55228475 11.5522847,9 11,9 L9,9 L9,11 C9,11.5522847 8.55228475,12 8,12 C7.44771525,12 7,11.5522847 7,11 L7,9 L5,9 C4.44771525,9 4,8.55228475 4,8 C4,7.44771525 4.44771525,7 5,7 L7,7 L7,5 C7,4.44771525 7.44771525,4 8,4 Z" id="形状结合" fill="#333333"></path>
                    </g>
                </g>
            </g>
        </g>
    </g>
</svg>