<?xml version="1.0" encoding="UTF-8"?>
<svg width="32px" height="32px" viewBox="0 0 32 32" version="1.1" xmlns="http://www.w3.org/2000/svg" xmlns:xlink="http://www.w3.org/1999/xlink">
    <title>编组 22备份 2</title>
    <g id="页面-1" stroke="none" stroke-width="1" fill="none" fill-rule="evenodd">
        <g id="V3曲线图-添加流动性-全状态" transform="translate(-1404.000000, -597.000000)">
            <g id="编组-20" transform="translate(1000.000000, 574.000000)">
                <g id="编组-22备份-2" transform="translate(404.000000, 23.000000)">
                    <circle id="椭圆形" fill="#4E4867" cx="16" cy="16" r="16"></circle>
                    <g id="zhongzhi" transform="translate(8.500000, 8.500000)" fill="#FFFFFF" fill-rule="nonzero" stroke="#FFFFFF" stroke-width="0.6">
                        <path d="M8.07933948,0 C6.07950296,0 4.15965992,0.800000007 2.71977763,2.07999999 L2.55979072,0.799999988 C2.55979072,0.319999988 2.15982343,0 1.67986266,0.0799999875 C1.1999019,0.0799999875 0.879928056,0.479999981 0.959921523,0.96 L1.11990844,3.12 C1.1999019,4.16000001 2.07982996,4.96 3.11974495,4.96 L3.27973186,4.96 L5.43955529,4.8 C5.91951605,4.8 6.2394899,4.40000001 6.15949643,3.91999999 C6.15949643,3.43999999 5.75952914,3.11999998 5.27956837,3.19999999 L3.67969916,3.28 C4.87960106,2.23999999 6.39947681,1.59999999 7.99934601,1.59999999 C11.5190583,1.59999999 14.3988228,4.48 14.3988228,8 C14.3988229,11.52 11.5190583,14.4 7.99934601,14.4 C4.47963375,14.4 1.5998692,11.52 1.5998692,8 C1.5998692,7.51999999 1.27989535,7.19999998 0.79993459,7.2 C0.319973828,7.20000002 0,7.52000001 0,8 C0,12.4 3.59970571,16 7.99934601,16 C12.3989863,16 15.998692,12.4 15.998692,8 C16.0786855,3.59999998 12.4789798,0 8.07933948,0 Z" id="路径"></path>
                    </g>
                </g>
            </g>
        </g>
    </g>
</svg>